<?xml version="1.0" encoding="iso-8859-1"?>
<!-- Generator: Adobe Illustrator 21.0.0, SVG Export Plug-In . SVG Version: 6.00 Build 0)  -->
<svg version="1.1" id="Capa_1" xmlns="http://www.w3.org/2000/svg" xmlns:xlink="http://www.w3.org/1999/xlink" x="0px" y="0px"
	 viewBox="0 0 512 512" style="enable-background:new 0 0 512 512;" xml:space="preserve">
<g>
	<path style="fill:#31A7ED;" d="M450.955,415.377C482.347,374.194,501,322.779,501,266.999c0-135.31-109.69-245.001-245-245.001
		S11,131.689,11,266.999c0,55.78,18.654,107.195,50.045,148.378H450.955z"/>
	<path style="fill:#E6F4FF;" d="M352.763,350.909c3.199,33.046,10.155,86.867,23.978,129.307
		c29.652-16.828,55.453-39.653,75.74-66.84C416.936,368.754,352.763,350.909,352.763,350.909z"/>
	<path style="fill:#FFCDBE;" d="M198.021,345.716c-0.809,6.888,0.129,14.475,2.793,21.852c6.211,17.201,21.078,33.157,44.186,47.423
		l0.383,0.236h21.237l0.383-0.236c45.269-27.948,48.446-56.304,46.995-69.274h-0.18c-0.552-1.882-2.707-6.831-3.785-14.997
		c-1.011-7.665-1.469-15.259-1.643-21.832H256h-52.39c-0.173,6.573-0.632,14.167-1.643,21.832
		c-1.078,8.166-3.232,13.115-3.785,14.997H198.021z"/>
	<path style="fill:#FCB19F;" d="M255.278,308.888H203.61c-0.173,6.573-0.632,14.167-1.643,21.832
		c-1.078,8.166-3.232,13.115-3.785,14.997h-0.162c-0.809,6.888,0.129,14.475,2.793,21.852c3.751,10.387,10.68,20.316,20.652,29.697
		c1.786,0.167,2.835,0.453,2.835,0.453C257.863,374.359,257.198,328.12,255.278,308.888z"/>
	<path style="fill:#A9D8FC;" d="M352.763,350.909c-6.55-1.5-13.314-2.739-20.104-3.633c2.493,1.6,4.51,3.514,5.988,5.743
		l0.001,0.001c1.188,1.788,1.788,4.054,1.69,6.381c-1.176,27.808-14.673,54.836-40.115,80.332
		c-4.578,4.59-10.565,1.882-13.725-0.141c-1.643-1.053-3.155-2.009-4.563-2.9l-2.23-1.411l-7.024,11.206h-33.362l-7.024-11.207
		l-2.329,1.475c-1.381,0.874-2.859,1.809-4.464,2.837c-3.159,2.023-9.142,4.733-13.725,0.141
		c-25.441-25.496-38.938-52.524-40.114-80.332c-0.099-2.326,0.501-4.592,1.689-6.381c1.479-2.228,3.495-4.142,5.988-5.743
		c-11.837,1.559-23.62,4.138-34.269,7.391c0,0,0,0,0,0l0,0.001v-0.001c0,0-50.559,14.087-85.553,58.71
		C104.188,473.238,175.566,512,256,512c43.904,0,85.103-11.559,120.741-31.783C362.917,437.777,355.962,383.956,352.763,350.909z"/>
	<path style="fill:#91D1F9;" d="M99.959,455.887c9.792,8.098,20.232,15.438,31.217,21.955c4.324-18.441,8.017-37.869,8.017-50.455
		C139.194,427.387,118.299,432.085,99.959,455.887z"/>
	<path style="fill:#FFCDBE;" d="M375.744,156.004c-4.99-4.573-14.929-2.255-19.227,0.545c0.942,5.863,0.995,11.861,0.182,17.784
		l-5.072,36.937c0,2.978-0.094,5.899-0.266,8.769c12.367,3.73,18.51-7.372,19.545-14.991c0.445-3.28,1.174-6.512,2.184-9.667
		C376.379,185.108,388.246,167.461,375.744,156.004z"/>
	<g>
		<path style="fill:#FCB19F;" d="M355.676,181.786l-4.049,29.485c0,2.978-0.094,5.899-0.267,8.769
			c12.367,3.73,18.51-7.372,19.545-14.991c0.446-3.28,1.174-6.512,2.184-9.667c0.866-2.704,2.326-5.922,3.78-9.401
			C370.359,192.799,359.064,190.481,355.676,181.786z"/>
	</g>
	<path style="fill:#FFCDBE;" d="M136.255,156.004c4.99-4.573,14.93-2.255,19.227,0.545c-0.941,5.863-0.995,11.861-0.182,17.784
		l5.072,36.937c0,2.978,0.094,5.899,0.266,8.769c-12.367,3.73-18.51-7.372-19.545-14.991c-0.445-3.28-1.174-6.512-2.184-9.667
		C135.62,185.108,123.753,167.461,136.255,156.004z"/>
	<g>
		<path style="fill:#FCB19F;" d="M160.373,211.271l-4.629-33.71c-0.328,10.077-11.574,15.717-19.827,10.284
			c1.176,2.764,2.285,5.322,2.994,7.537c1.01,3.154,1.738,6.387,2.184,9.667c1.035,7.619,7.178,18.721,19.545,14.991
			C160.466,217.169,160.373,214.248,160.373,211.271z"/>
	</g>
	<path style="fill:#FFDECF;" d="M354.73,156.131v-5.103c0-2.409-0.278-4.78-0.786-7.087c-1.059-2.586-2.335-5.179-3.906-7.644
		c-1.264-1.983-2.22-4.121-2.898-6.341c-2.479-3.018-5.488-5.629-8.958-7.642c-19.88-11.534-25.533-28.078-27.134-36.914
		c-0.27-1.492-1.416-2.616-2.919-2.863c-1.509-0.247-2.958,0.454-3.696,1.788c-26.627,48.255-84.213,43.806-116.167,36.861
		c-8.867-1.925-17.683,1.438-23.165,7.979c-0.685,2.504-1.726,4.913-3.141,7.133c-0.697,1.093-1.323,2.215-1.913,3.346
		l-3.215,16.485h-2.249c-1.007,5.992-1.083,12.132-0.25,18.194l5.073,36.945c0,53.115,28.353,89.217,52.471,107.945
		C224.464,328.991,240,334.301,256,334.301c16,0,31.536-5.31,44.124-15.086c24.117-18.728,52.471-54.83,52.471-107.945l5.072-36.937
		c0.833-6.064,0.76-12.207-0.248-18.202H354.73z"/>
	<g>
		<path style="fill:#FFCDBE;" d="M250.534,315.929c-17.748-22.808-38.612-66.776-38.612-131.462l-3.733-44.994
			c-0.415-5.001-0.516-10.046-0.312-15.049c-7.156-0.796-13.807-1.973-19.611-3.235c-8.867-1.925-17.683,1.438-23.165,7.979
			c-0.685,2.504-1.726,4.913-3.141,7.132c-0.697,1.093-1.323,2.215-1.913,3.346l-3.215,16.485h-2.249
			c-1.007,5.992-1.083,12.132-0.251,18.194l5.073,36.945c0,53.115,28.353,89.217,52.471,107.945
			c12.588,9.776,28.124,15.086,44.123,15.086c5.479,0,10.899-0.637,16.169-1.848C264.326,329.749,256.915,324.13,250.534,315.929z"
			/>
	</g>
	<path style="fill:#D3644F;" d="M308.935,24.933c0,0-41.866-40.001-100.192-18.67c-51.085,18.683-79.884,72.648-68.955,125.933
		c1.157,5.641,2.662,12.687,4.57,19.396c1.011,3.554,4.28,5.99,7.976,5.99h5.693l3.503-17.956
		c2.62-11.985,14.44-19.625,26.429-17.019c31.765,6.904,90.557,11.695,117.745-37.578c0.953-1.726,3.565-1.307,3.917,0.633
		c1.703,9.4,7.594,26.167,27.833,37.91c9.79,5.681,15.826,16.139,15.826,27.458v6.553h7.871c3.565,0,6.738-2.273,7.868-5.654
		C377.476,126.614,388.042,33.969,308.935,24.933z"/>
	<g>
		<path style="fill:#91D1F9;" d="M273.422,186.646c-3.569,2.717-10.192,9.169-5.632,17.065c3.718,6.437,11.277,5.699,16.369,4.268
			C278.521,202.052,274.851,194.6,273.422,186.646z"/>
		<path style="fill:#91D1F9;" d="M238.618,186.646c-1.429,7.954-5.098,15.406-10.737,21.332c5.092,1.431,12.651,2.17,16.369-4.268
			C248.81,195.815,242.187,189.363,238.618,186.646z"/>
		<g>
			<path style="fill:#3D4EC6;" d="M287.04,215.931c-13.483-10.898-19.816-28.497-16.526-45.928l0.606-3.213
				c1.204-6.381,6.314-11.353,12.717-12.371c11.389-1.811,34.327-4.281,59.983-0.469c8.22,1.222,14.419,8.444,14.419,16.799v12.165
				c0,11.173-4.256,21.764-11.983,29.823C330.002,229.69,303.827,229.5,287.04,215.931z"/>
		</g>
		<path style="fill:#3342AE;" d="M330.945,222.925c-5.599-1.581-5.844-5.22-5.209-7.766c0.4-1.604-0.454-3.274-1.964-3.948
			c-24.068-10.734-23.918-37.555-23.339-45.305c0.094-1.252-0.493-2.441-1.515-3.17c-5.992-4.273-1.818-9.948-1.817-9.949
			c-5.313,0.476-9.82,1.083-13.264,1.631c-6.402,1.018-11.513,5.989-12.717,12.371l-0.606,3.212
			c-3.289,17.432,3.044,35.031,16.526,45.929C299.197,225.757,316.275,228.56,330.945,222.925z"/>
		<g>
			<path style="fill:#3D4EC6;" d="M165.784,212.738c-15.859-16.54-11.135-35.225-11.983-41.989c0-8.356,6.199-15.578,14.42-16.799
				c25.655-3.812,48.593-1.342,59.983,0.469v0c6.402,1.018,11.513,5.99,12.717,12.371l0.606,3.213
				c3.289,17.432-3.044,35.031-16.526,45.928C208.264,229.457,182.093,229.747,165.784,212.738z"/>
		</g>
		<path style="fill:#3342AE;" d="M165.785,212.738c13.246,13.815,32.997,16.217,48.916,9.386c-0.044-0.016-0.084-0.033-0.13-0.049
			c-4.541-1.572-4.88-5.525-4.599-7.997c0.08-0.702-0.116-1.376-0.503-1.919c-19.921,8.02-44.414-5.06-44.414-29.244v-12.165
			c0-2.823,2.072-5.26,4.82-5.668c3.812-0.566,7.694-0.994,11.608-1.303c-0.239-0.388-0.571-0.724-0.982-0.969
			c-5.902-3.512-2.077-9.616-2.077-9.616l-0.572-0.406c-3.155,0.296-6.37,0.678-9.631,1.162c-8.221,1.222-14.42,8.444-14.42,16.799
			C154.649,177.513,149.925,196.198,165.785,212.738z"/>
		<path style="fill:#8C96DD;" d="M275.286,166.334c-11.314-6.103-27.051-6.133-38.392-0.076c-1.501,0.801-2.308,2.382-2.086,3.957
			l1.018,7.249c0.149,1.062,1.472,1.433,2.294,0.925c11.864-7.33,24.09-7.3,35.915,0.07c0.87,0.542,2.034,0.037,2.169-0.928
			l1.046-7.447C277.462,168.578,276.69,167.091,275.286,166.334z"/>
		<g>
			<path style="fill:#644BF7;" d="M252.687,167.781c0-3.091,2.321-5.636,5.315-5.997c-7.389-0.326-14.906,1.161-21.108,4.474
				c-1.501,0.801-2.308,2.382-2.086,3.958l1.018,7.249c0.149,1.062,1.472,1.433,2.294,0.925c5.757-3.557,11.6-5.375,17.44-5.468
				C253.838,171.856,252.687,169.955,252.687,167.781z"/>
		</g>
		<path style="fill:#91D1F9;" d="M285.604,165.533L285.604,165.533c-3.976,0.632-3.518,5.158-4.031,6.556
			c-4.032,21.365,10.914,43.007,35.051,42.411c16.741-0.414,30.362-14.582,30.362-31.585v-12.165c0-2.823-2.072-5.26-4.82-5.668
			C323.637,162.328,303.537,162.681,285.604,165.533z"/>
		<path style="fill:#4AC4F4;" d="M323.773,211.212c-24.068-10.734-23.918-37.555-23.339-45.305c0.056-0.742-0.133-1.459-0.504-2.074
			c-4.877,0.393-9.675,0.96-14.326,1.7l0,0c-3.976,0.632-3.518,5.158-4.031,6.556c-4.031,21.365,10.914,43.007,35.051,42.411
			c3.09-0.077,6.073-0.624,8.885-1.57C325.163,212.187,324.56,211.563,323.773,211.212z"/>
		<path style="fill:#91D1F9;" d="M169.875,165.081c-2.748,0.408-4.82,2.845-4.82,5.668v12.165c0,27.767,32.288,40.9,52.871,24.264
			c10.255-8.289,15.061-21.735,12.542-35.09c-0.507-1.38-0.056-5.923-4.031-6.555l0,0
			C208.482,162.678,188.384,162.331,169.875,165.081z"/>
		<path style="fill:#4AC4F4;" d="M181.483,163.778L181.483,163.778c-3.914,0.309-7.796,0.736-11.608,1.303
			c-2.748,0.408-4.82,2.845-4.82,5.668v12.165c0,24.183,24.488,37.256,44.407,29.241
			C176.441,198.345,181.483,163.778,181.483,163.778z"/>
	</g>
	<path style="fill:#BF5041;" d="M247.046,0.084c-11.622-0.478-24.501,1.131-38.303,6.179
		c-51.085,18.683-79.884,72.648-68.955,125.933c1.156,5.641,2.662,12.687,4.57,19.396c1.011,3.554,4.28,5.99,7.975,5.99h5.693
		l3.503-17.956c2.62-11.985,14.44-19.625,26.429-17.019c5.972,1.298,12.9,2.521,20.393,3.325c-0.161-0.504-0.306-1-0.475-1.508
		C178.237,35.102,243.305,1.907,247.046,0.084z"/>
	<g>
		<path style="fill:#EF75A7;" d="M246.339,502.069c4.296,4.147,11.149,4.146,15.444-0.001c5.842-5.639,11.162-11.511,16.021-17.55
			l-4.246-36.448H256h-17.558l-4.726,40.567C237.632,493.233,241.832,497.72,246.339,502.069z"/>
	</g>
	<path style="fill:#EF456E;" d="M248.607,465.677h7.433h7.433c5.629,0,10.583,3.177,13.057,7.915l-2.973-25.522H256h-17.558
		l-3,25.752C237.875,468.959,242.89,465.677,248.607,465.677z"/>
	<path style="fill:#644BF7;" d="M256,512c46.029,0,89.087-12.704,125.878-34.781c-9.398-32.646-22.859-85.088-25.427-125.437
		c-9.865-2.446-20.332-4.289-30.685-5.295c-2.528,45.078-15.885,107.039-63.982,153.469c-4.296,4.147-11.148,4.148-15.444,0.001
		c-47.953-46.29-61.372-108.014-63.958-153.058c-10.481,1.223-20.988,3.268-30.779,5.899c-2.675,39.04-15.537,89.771-24.821,122.374
		C164.295,498.507,208.568,512,256,512z"/>
	<path style="fill:#3D4EC6;" d="M182.381,346.898c-10.481,1.223-20.988,3.268-30.779,5.899c-1.566,22.851-6.622,49.707-12.408,74.59
		c39.192,0,50.23-12.16,50.23-12.16c1.224-1.859,2.479-3.513,3.75-5.018C186.488,387.748,183.468,365.846,182.381,346.898z"/>
	<path style="fill:#8C96DD;" d="M261.783,499.956c-4.296,4.147-11.148,4.148-15.444,0.001
		c-47.953-46.29-61.372-108.014-63.958-153.058c-5.546,0.647-11.095,1.53-16.546,2.602c4.401,48.848,18.658,109.078,57.11,160.272
		C233.758,511.231,244.788,512,256,512c9.734,0,19.331-0.586,28.769-1.69c38.945-51.558,53.24-112.378,57.583-161.523
		c-5.489-0.98-11.053-1.763-16.586-2.301C323.237,391.565,309.881,453.526,261.783,499.956z"/>
	<path style="fill:#644BF7;" d="M189.424,415.227c1.224-1.859,2.479-3.513,3.75-5.018c-6.686-22.461-9.706-44.362-10.793-63.31
		c-5.546,0.647-11.095,1.53-16.545,2.602c1.999,22.185,6.042,46.723,13.445,71.693C186.724,418.192,189.424,415.227,189.424,415.227
		z"/>
	<path style="fill:#D0E8FE;" d="M339.968,352.142c-4.164-6.274-12.749-11.208-27.786-12.073c-0.503-0.029-0.694,0.833-0.554,1.394
		c1.337,5.353,8.665,38.764-45.46,72.179c-2.765,1.707-3.864,5.652-2.414,8.867c3.27,7.25,8.672,9.954,21.889,18.416
		c5.213,3.338,11.197,4.439,15.7-0.074c13.26-13.289,38.921-42.271,40.576-81.384C342.032,356.832,341.357,354.235,339.968,352.142z
		"/>
	<path style="fill:#D0E8FE;" d="M172.032,352.142c4.164-6.274,12.749-11.208,27.786-12.073c0.503-0.029,0.694,0.833,0.554,1.394
		c-1.337,5.353-8.665,38.764,45.46,72.179c2.765,1.707,3.864,5.652,2.414,8.867c-3.27,7.25-8.673,9.954-21.889,18.416
		c-5.213,3.338-11.197,4.439-15.7-0.074c-13.26-13.289-38.921-42.271-40.576-81.384
		C169.968,356.832,170.643,354.235,172.032,352.142z"/>
	<path style="fill:#A9D8FC;" d="M200.372,341.463c0.14-0.561-0.05-1.423-0.554-1.394c-15.037,0.865-23.622,5.799-27.786,12.073
		c-1.389,2.092-2.064,4.69-1.953,7.324c0.939,22.186,9.603,41.108,19.345,55.76c15.124-22.984,34.877-17.509,34.877-17.509l0,0
		C193.905,370.254,199.249,345.96,200.372,341.463z"/>
	<path style="fill:#E6F4FF;" d="M311.628,341.463c-0.14-0.561,0.051-1.423,0.554-1.394c15.037,0.865,23.622,5.799,27.786,12.073
		c1.389,2.092,2.064,4.69,1.953,7.324c-0.939,22.186-9.603,41.108-19.345,55.76c-15.124-22.984-34.877-17.509-34.877-17.509l0,0
		C318.095,370.254,312.751,345.96,311.628,341.463z"/>
	<path style="fill:#E20A62;" d="M277.158,432.709l-9.45-16.044c-1.103-1.872-3.114-3.022-5.287-3.022h-13.323
		c-2.173,0-4.184,1.15-5.287,3.022l-9.45,16.044c-1.723,2.925-1.673,6.567,0.13,9.443l3.71,5.919h35.116l3.71-5.919
		C278.831,439.275,278.881,435.634,277.158,432.709z"/>
	<g>
		<path style="fill:#FFCDBE;" d="M274.085,269.472c-0.04,0-4.217-0.09-7.788-2.099c-1.759-0.99-3.877-1.11-5.737-0.325l-4.426,1.867
			l-4.426-1.867c-1.86-0.785-3.978-0.665-5.737,0.325c-3.534,1.988-7.663,2.096-7.827,2.099c-3.588,0.02-6.49,2.935-6.49,6.528
			c0,3.606,2.923,6.528,6.528,6.528c0.646,0,5.672-0.076,11.15-2.312l4.264,1.799c1.636,0.69,3.444,0.689,5.074,0l4.264-1.799
			c5.478,2.236,10.504,2.312,11.15,2.312c3.605,0,6.528-2.922,6.528-6.528C280.613,272.394,277.691,269.472,274.085,269.472z"/>
	</g>
	<g>
		<path style="fill:#FFCDBE;" d="M271.693,230.147l-6.692-1.201c-1.522-0.274-3.09,0.003-4.428,0.779l-5.305,3.076l-5.303-3.076
			c-1.337-0.776-2.906-1.05-4.428-0.779l-6.692,1.201c-3.549,0.637-5.909,4.03-5.272,7.578c0.637,3.549,4.03,5.906,7.578,5.271
			l4.335-0.778l6.507,3.774c0.007,0.004,0.014,0.006,0.021,0.011c1.94,1.113,4.386,1.212,6.505,0.001
			c0.008-0.005,0.016-0.007,0.024-0.012l6.508-3.774l4.335,0.778c3.543,0.64,6.941-1.723,7.578-5.271
			C277.602,234.176,275.242,230.783,271.693,230.147z"/>
	</g>
</g>
<g>
</g>
<g>
</g>
<g>
</g>
<g>
</g>
<g>
</g>
<g>
</g>
<g>
</g>
<g>
</g>
<g>
</g>
<g>
</g>
<g>
</g>
<g>
</g>
<g>
</g>
<g>
</g>
<g>
</g>
</svg>
