<?xml version="1.0" encoding="iso-8859-1"?>
<!-- Generator: Adobe Illustrator 21.0.0, SVG Export Plug-In . SVG Version: 6.00 Build 0)  -->
<svg version="1.1" id="Capa_1" xmlns="http://www.w3.org/2000/svg" xmlns:xlink="http://www.w3.org/1999/xlink" x="0px" y="0px"
	 viewBox="0 0 512 512" style="enable-background:new 0 0 512 512;" xml:space="preserve">
<g>
	<path style="fill:#3342AE;" d="M447.65,419.378c0.098-0.041,0.192-0.077,0.29-0.118c33.212-41.811,53.061-94.715,53.061-152.26
		c0-135.31-109.691-245.001-245.001-245.001S10.999,131.689,10.999,266.999c0,16.732,1.683,33.07,4.879,48.859
		C38.189,326.029,342.573,463.089,447.65,419.378z"/>
	<path style="fill:#D0E8FE;" d="M370.673,244.614L370.673,244.614c0-16.46,8.302-31.068,20.918-39.868v-8.721H90.453
		c-9.717,0-17.669,7.951-17.669,17.669v61.839c0,9.718,7.951,17.668,17.669,17.668h301.138v-8.721
		C378.975,275.681,370.673,261.074,370.673,244.614z"/>
	<path style="fill:#A9D8FC;" d="M146.691,275.533v-61.839c0-9.718,7.951-17.669,17.669-17.669H90.453
		c-9.717,0-17.669,7.951-17.669,17.669v61.839c0,9.718,7.951,17.668,17.669,17.668h73.907
		C154.642,293.202,146.691,285.251,146.691,275.533z"/>
	<path style="fill:#D0E8FE;" d="M21.315,329.899v7.605c7.817,26.057,19.844,50.291,35.309,71.903h352.797v-6.846
		c-14.229-8.499-23.814-24.053-23.814-41.743c0-17.689,9.585-33.243,23.814-41.742v-6.846H38.984
		C29.266,312.231,21.315,320.182,21.315,329.899z"/>
	<path style="fill:#A9D8FC;" d="M158.552,312.231H38.984c-9.718,0-17.669,7.951-17.669,17.668v7.605
		c7.817,26.057,19.844,50.291,35.309,71.903h101.928c-7.084-2.433-12.219-9.16-12.219-17.042v-63.092
		C146.333,321.391,151.468,314.664,158.552,312.231z"/>
	<path style="fill:#D0E8FE;" d="M72.286,428.875c-0.057,0-0.111,0.008-0.168,0.008c29.737,33.752,68.615,59.248,112.768,72.62
		h142.228c44.157-13.373,83.037-38.873,112.775-72.628H72.286z"/>
	<path style="fill:#A9D8FC;" d="M72.286,428.875c-0.057,0-0.111,0.008-0.168,0.008c20.818,23.629,46.121,43.204,74.573,57.413
		v-39.753c0-9.716,7.948-17.665,17.663-17.669H72.286z"/>
	<path style="fill:#E7387F;" d="M314.798,96.019c-0.986-28.069-23.738-50.948-51.801-52.097c-8.414-0.344-16.415,1.248-23.614,4.35
		c-2.015,0.868-4.314,0.868-6.328,0c-7.199-3.102-15.2-4.694-23.615-4.35c-28.063,1.149-50.815,24.029-51.801,52.098
		c-0.567,16.141,5.945,30.766,16.67,41.022c8.538,8.166,13.812,18.999,15.16,30.736c1.428,12.426,11.481,23.437,25.623,24.02
		c6.112,0.252,11.795-1.535,16.426-4.736c2.846-1.967,6.554-1.967,9.4,0c4.632,3.202,10.317,4.99,16.431,4.737
		c14.102-0.584,24.205-11.614,25.623-24.07c1.335-11.729,6.645-22.54,15.173-30.702C308.861,126.77,315.365,112.152,314.798,96.019z
		"/>
	<g>
		<path style="fill:#E20A62;" d="M237.825,167.779c-0.829-11.737-4.068-22.57-9.313-30.736
			c-6.588-10.257-10.588-24.881-10.24-41.022c0.451-20.906,8.322-38.926,19.43-47.24c-1.553,0.292-3.176,0.127-4.647-0.508
			c-7.199-3.102-15.2-4.694-23.615-4.35c-28.063,1.149-50.815,24.029-51.801,52.098c-0.567,16.141,5.945,30.766,16.67,41.022
			c8.538,8.166,13.812,18.999,15.16,30.736c1.428,12.426,11.481,23.437,25.623,24.02c6.112,0.252,11.795-1.535,16.426-4.736
			c2.846-1.967,6.554-1.967,9.4,0c2.987,2.065,6.416,3.53,10.111,4.251C243.693,188.987,238.614,178.958,237.825,167.779z"/>
	</g>
	<g>
		<path style="fill:#5DB33A;" d="M236.218,57.08c-4.348,0-7.872-3.525-7.872-7.872V29.809c0-7.755-6.309-14.064-14.064-14.064
			c-4.348,0-7.872-3.525-7.872-7.872S209.934,0,214.282,0c16.437,0,29.809,13.373,29.809,29.809v19.399
			C244.091,53.556,240.566,57.08,236.218,57.08z"/>
	</g>
	<path style="fill:#9ED369;" d="M236.382,20.403c-0.385-1.673-0.08-3.417,0.823-4.876c3.329-5.383,13.079-17.979,30.066-15.106
		c16.385,2.772,26.619,21.169,30.546,29.723c1.215,2.646,0.427,5.764-1.89,7.526c-5.985,4.55-18.703,12.11-34.545,9.43
		C243.495,44.074,237.886,26.944,236.382,20.403z"/>
	<path style="fill:#82CD64;" d="M296.806,28.028c-6.486,2.919-14.888,5.018-24.426,3.405c-17.886-3.026-23.495-20.155-24.999-26.697
		c-0.002-0.011-0.003-0.022-0.006-0.032c-5.121,3.485-8.479,8.085-10.172,10.823c-0.903,1.46-1.207,3.204-0.823,4.876
		c1.504,6.542,7.113,23.671,24.999,26.697c15.841,2.68,28.559-4.88,34.545-9.43c2.318-1.762,3.105-4.88,1.89-7.526
		C297.517,29.494,297.178,28.781,296.806,28.028z"/>
	<g>
		<path style="fill:#F2BA00;" d="M399.665,303.698H90.453c-15.53,0-28.165-12.635-28.165-28.165v-61.84
			c0-15.53,12.635-28.165,28.165-28.165h309.212c5.797,0,10.497,4.7,10.497,10.497c0,5.797-4.7,10.497-10.497,10.497H90.453
			c-3.887,0-7.171,3.284-7.171,7.172v61.84c0,3.887,3.284,7.172,7.171,7.172h309.212c5.797,0,10.497,4.699,10.497,10.497
			C410.162,298.999,405.462,303.698,399.665,303.698z"/>
	</g>
	<path style="fill:#EEA200;" d="M140.288,293.202c0-5.797,4.7-10.497,10.497-10.497H90.453c-3.887,0-7.171-3.284-7.171-7.172v-61.84
		c0-3.888,3.284-7.172,7.171-7.172h60.332c-5.797,0-10.497-4.699-10.497-10.497c0-5.797,4.7-10.497,10.497-10.497H90.453
		c-15.53,0-28.165,12.635-28.165,28.165v61.84c0,15.53,12.635,28.165,28.165,28.165h60.332
		C144.988,303.698,140.288,298.999,140.288,293.202z"/>
	<path style="fill:#E7387F;" d="M427.88,409.408c0-5.797-4.7-10.497-10.497-10.497H49.509c4.655,7.272,9.695,14.273,15.07,20.993
		h352.804C423.18,419.904,427.88,415.205,427.88,409.408z"/>
	<path style="fill:#E7387F;" d="M417.383,301.734h-378.4c-9.748,0-18.354,4.979-23.412,12.527
		c3.52,18.007,9.009,35.306,16.24,51.666v-36.028c0-3.888,3.284-7.172,7.172-7.172h378.4c5.797,0,10.497-4.699,10.497-10.497
		C427.88,306.434,423.18,301.734,417.383,301.734z"/>
	<path style="fill:#E20A62;" d="M135.672,409.408c0-5.797,4.7-10.497,10.497-10.497h-96.66c4.655,7.272,9.695,14.273,15.07,20.993
		h81.59C140.372,419.904,135.672,415.205,135.672,409.408z"/>
	<path style="fill:#E20A62;" d="M135.672,312.231c0-5.797,4.7-10.496,10.497-10.496H38.984c-9.748,0-18.354,4.979-23.412,12.527
		c3.52,18.007,9.009,35.306,16.24,51.666v-36.028c0-3.888,3.284-7.172,7.172-7.172h107.185
		C140.372,322.727,135.672,318.028,135.672,312.231z"/>
	<g>
		<path style="fill:#31A7ED;" d="M64.287,419.542c5.517,6.925,11.399,13.545,17.622,19.829h348.182
			c6.573-6.638,12.775-13.642,18.559-20.993H72.286C69.507,418.378,66.825,418.789,64.287,419.542z"/>
		<path style="fill:#31A7ED;" d="M156.658,491.007C187.023,504.493,220.633,512,256,512s68.977-7.507,99.342-20.993H156.658z"/>
		<path style="fill:#1296D8;" d="M134.501,428.875c0-5.797,4.699-10.497,10.497-10.497H72.286c-2.778,0-5.461,0.411-7.998,1.164
			c5.517,6.925,11.399,13.545,17.622,19.829h63.089C139.201,439.371,134.501,434.672,134.501,428.875z"/>
	</g>
	<path style="fill:#F9DF5F;" d="M317.096,244.613h-22.004c-1.794,0-3.247,1.454-3.247,3.247v89.565c0,1.777,2.149,2.667,3.406,1.411
		l9.433-9.433c0.779-0.779,2.043-0.779,2.822,0l9.433,9.433c1.257,1.257,3.406,0.367,3.406-1.411v-89.564
		C320.345,246.068,318.89,244.613,317.096,244.613z"/>
	<path style="fill:#F6D100;" d="M317.096,244.613h-22.004c-1.794,0-3.247,1.454-3.247,3.247v37.504
		c0-7.87,6.38-14.249,14.249-14.249c7.87,0,14.25,6.38,14.25,14.25v-37.504C320.345,246.068,318.89,244.613,317.096,244.613z"/>
	<circle style="fill:#EB5793;" cx="285.021" cy="84.885" r="10.779"/>
	<circle style="fill:#EB5793;" cx="266.256" cy="99.355" r="5.868"/>
</g>
<g>
</g>
<g>
</g>
<g>
</g>
<g>
</g>
<g>
</g>
<g>
</g>
<g>
</g>
<g>
</g>
<g>
</g>
<g>
</g>
<g>
</g>
<g>
</g>
<g>
</g>
<g>
</g>
<g>
</g>
</svg>
