<?xml version="1.0" encoding="iso-8859-1"?>
<!-- Generator: Adobe Illustrator 21.0.0, SVG Export Plug-In . SVG Version: 6.00 Build 0)  -->
<svg version="1.1" id="Capa_1" xmlns="http://www.w3.org/2000/svg" xmlns:xlink="http://www.w3.org/1999/xlink" x="0px" y="0px"
	 viewBox="0 0 512 512" style="enable-background:new 0 0 512 512;" xml:space="preserve">
<g>
	<path style="fill:#3342AE;" d="M94.512,451.233l325.391-2.143c49.788-44.844,81.098-109.808,81.098-182.09
		c0-135.31-109.691-245.001-245-245.001C120.69,21.999,10.999,131.689,10.999,267C10.999,340.443,43.324,406.328,94.512,451.233z"/>
	<g>
		<g>
			<path style="fill:#A9D8FC;" d="M256.935,161.228c-4.883,0-8.842-3.959-8.842-8.842V97.172c0-4.883,3.959-8.842,8.842-8.842
				c4.883,0,8.842,3.959,8.842,8.842v55.214C265.777,157.27,261.818,161.228,256.935,161.228z"/>
		</g>
	</g>
	<path style="fill:#4AC4F4;" d="M256.935,125.958c-4.883,0-8.842-3.959-8.842-8.842v35.27c0,4.883,3.959,8.842,8.842,8.842
		c4.883,0,8.842-3.959,8.842-8.842v-35.27C265.777,121.999,261.818,125.958,256.935,125.958z"/>
	<g>
		<g>
			<path style="fill:#A9D8FC;" d="M256.935,106.014c-4.883,0-8.842-3.959-8.842-8.842V81.846c0-4.883,3.959-8.842,8.842-8.842
				c4.883,0,8.842,3.959,8.842,8.842v15.327C265.777,102.056,261.818,106.014,256.935,106.014z"/>
		</g>
	</g>
	<g>
		<g>
			<path style="fill:#D0E8FE;" d="M280.246,106.088h-46.622c-6.511,0-11.79-5.278-11.79-11.789c0-6.511,5.278-11.789,11.79-11.789
				h46.622c6.511,0,11.79,5.278,11.79,11.789C292.036,100.81,286.757,106.088,280.246,106.088z"/>
		</g>
	</g>
	<g>
		<path style="fill:#D0E8FE;" d="M384.643,197.457l21.824-29.511l-12.844-9.168l-13.067-9.329l-21.588,29.192
			C368.042,184.221,376.631,190.515,384.643,197.457z"/>
	</g>
	<path style="fill:#D0E8FE;" d="M127.356,197.457l-21.824-29.511l12.844-9.168l13.067-9.329l21.588,29.192
		C143.958,184.221,135.369,190.515,127.356,197.457z"/>
	<path style="fill:#EB5793;" d="M61.191,342.775c0,39.704,11.85,76.638,32.203,107.465C136.652,488.656,193.596,512,256,512
		c63.569,0,121.481-24.214,165.023-63.917c19.496-30.386,30.809-66.523,30.809-105.307c0-107.873-87.448-195.321-195.321-195.321
		S61.191,234.903,61.191,342.775z"/>
	<path style="fill:#E7387F;" d="M352.061,486.092c-0.345-1.855-1.764-3.343-3.607-3.753c-14.907-3.322-11.711-17.126-11.711-17.126
		C129.835,407.176,189.91,212.546,189.91,212.546c-10.674-4.996-9.279-14.17-7.306-19.51c0.821-2.222-0.124-4.748-2.229-5.835
		c-13.153-6.79-6.708-21.266-6.665-21.362c-66.474,31.162-112.519,98.667-112.519,176.937c0,39.704,11.85,76.638,32.203,107.465
		C136.652,488.656,193.596,512,256,512c35.274,0,68.8-7.466,99.102-20.886C353.183,489.837,352.381,487.814,352.061,486.092z"/>
	<g>
		<circle style="fill:#D0E8FE;" cx="256.512" cy="342.775" r="157.961"/>
	</g>
	<path style="fill:#A9D8FC;" d="M256.512,500.736c30.409,0,58.806-8.601,82.906-23.491c-4.247-5.207-2.674-12.032-2.674-12.032
		C129.835,407.176,189.91,212.546,189.91,212.546c-4.982-2.332-7.334-5.574-8.225-8.912
		c-49.494,26.673-83.133,78.977-83.133,139.142C98.551,430.015,169.272,500.736,256.512,500.736z"/>
	<g>
		<path style="fill:#4AC4F4;" d="M256.512,211.923c-4.883,0-8.842-3.959-8.842-8.842v-18.266c0-4.883,3.959-8.842,8.842-8.842
			c4.883,0,8.842,3.959,8.842,8.842v18.266C265.354,207.964,261.395,211.923,256.512,211.923z"/>
	</g>
	<path style="fill:#4AC4F4;" d="M256.512,476.575c-4.883,0-8.842,3.959-8.842,8.842v18.266c0,3.803,2.406,7.036,5.775,8.284
		c0.852,0.009,1.701,0.032,2.555,0.032c1.209,0,2.411-0.028,3.615-0.046c3.35-1.258,5.739-4.482,5.739-8.271v-18.266
		C265.354,480.534,261.395,476.575,256.512,476.575z"/>
	<g>
		<path style="fill:#4AC4F4;" d="M178.27,226.415l-9.133-15.818c-2.442-4.229-0.993-9.637,3.236-12.078
			c4.228-2.441,9.637-0.993,12.078,3.236l9.133,15.818c2.442,4.229,0.993,9.637-3.236,12.079
			C186.137,232.082,180.722,230.663,178.27,226.415z"/>
	</g>
	<g>
		<path style="fill:#4AC4F4;" d="M328.571,486.744l-9.134-15.818c-2.442-4.229-0.992-9.637,3.236-12.079
			c4.227-2.441,9.636-0.993,12.079,3.236l9.133,15.819c2.442,4.229,0.992,9.637-3.236,12.078
			C336.448,492.407,331.029,491,328.571,486.744z"/>
	</g>
	<g>
		<path style="fill:#4AC4F4;" d="M129.835,281.322l-15.819-9.133c-4.229-2.442-5.678-7.849-3.236-12.078
			c2.441-4.229,7.85-5.679,12.079-3.236l15.819,9.133c4.23,2.442,5.678,7.849,3.236,12.078
			C139.464,282.328,134.052,283.757,129.835,281.322z"/>
	</g>
	<g>
		<path style="fill:#4AC4F4;" d="M390.164,431.624l-15.819-9.133c-4.229-2.442-5.678-7.849-3.237-12.079
			c2.44-4.229,7.847-5.678,12.079-3.236l15.819,9.133c4.229,2.442,5.678,7.849,3.236,12.079
			C399.799,432.622,394.39,434.062,390.164,431.624z"/>
	</g>
	<g>
		<path style="fill:#4AC4F4;" d="M322.674,229.651c-4.229-2.442-5.678-7.85-3.236-12.079l9.134-15.818
			c2.442-4.229,7.85-5.678,12.078-3.236c4.229,2.442,5.678,7.85,3.236,12.079l-9.133,15.819
			C332.299,230.664,326.884,232.082,322.674,229.651z"/>
	</g>
	<g>
		<path style="fill:#4AC4F4;" d="M172.373,489.981c-4.229-2.442-5.678-7.85-3.236-12.078l9.133-15.819
			c2.441-4.229,7.85-5.679,12.078-3.236c4.229,2.442,5.678,7.849,3.236,12.078l-9.133,15.819
			C182.003,490.986,176.59,492.416,172.373,489.981z"/>
	</g>
	<g>
		<path style="fill:#4AC4F4;" d="M371.109,278.086c-2.442-4.229-0.992-9.637,3.237-12.078l15.819-9.133
			c4.228-2.441,9.638-0.993,12.078,3.236c2.442,4.229,0.992,9.637-3.236,12.078l-15.819,9.133
			C378.987,283.749,373.565,282.342,371.109,278.086z"/>
	</g>
	<g>
		<path style="fill:#4AC4F4;" d="M110.78,428.387c-2.442-4.229-0.993-9.637,3.236-12.079l15.819-9.133
			c4.229-2.441,9.637-0.992,12.078,3.236c2.442,4.229,0.993,9.637-3.236,12.079l-15.819,9.133
			C118.643,434.057,113.23,432.631,110.78,428.387z"/>
	</g>
	<g>
		<path style="fill:#4AC4F4;" d="M115.343,353.091H97.077c-4.883,0-8.842-3.959-8.842-8.842s3.959-8.842,8.842-8.842h18.266
			c4.883,0,8.842,3.959,8.842,8.842S120.226,353.091,115.343,353.091z"/>
	</g>
	<g>
		<path style="fill:#4AC4F4;" d="M415.946,353.091H397.68c-4.884,0-8.842-3.959-8.842-8.842s3.958-8.842,8.842-8.842h18.266
			c4.884,0,8.842,3.959,8.842,8.842S420.83,353.091,415.946,353.091z"/>
	</g>
	<g>
		<path style="fill:#E7387F;" d="M256.001,361.317c-2.879-0.118-5.773-0.904-8.441-2.444c-2.669-1.541-4.796-3.654-6.338-6.088
			l-41.196,52.681c-2.15,2.748-2.584,6.467-1.127,9.637l5.683,12.361c0.897,1.951,2.928,3.123,5.066,2.925l13.546-1.259
			c3.474-0.323,6.477-2.559,7.783-5.794L256.001,361.317z"/>
	</g>
	<path style="fill:#E20A62;" d="M232.271,385.338c0.042,0.024,0.083,0.048,0.125,0.072c0.041,0.024,0.083,0.048,0.124,0.071
		c5.33,3.042,8.335,8.741,7.862,14.542l15.619-38.707c-2.879-0.118-5.773-0.904-8.441-2.444c-2.669-1.541-4.796-3.654-6.338-6.088
		l-26.316,33.652C219.759,382.536,226.653,382.057,232.271,385.338z"/>
	<g>
		<g>
			<path style="fill:#91D1F9;" d="M256.512,332.851c-4.883,0-8.842-3.959-8.842-8.842v-93.615c0-4.883,3.959-8.842,8.842-8.842
				c4.883,0,8.842,3.959,8.842,8.842v93.615C265.354,328.892,261.395,332.851,256.512,332.851z"/>
		</g>
	</g>
	<path style="fill:#4AC4F4;" d="M256.512,286.487c-4.883,0-8.842-3.959-8.842-8.842v46.364c0,4.883,3.959,8.842,8.842,8.842
		c4.883,0,8.842-3.959,8.842-8.842v-46.364C265.354,282.528,261.395,286.487,256.512,286.487z"/>
	<g>
		<path style="fill:#E7387F;" d="M401.25,77.072c10.773,4.472,20.978,6.61,29.013,7.606c0.615,1.948,1.784,3.661,3.489,4.86
			l13.883,9.768c1.705,1.2,3.712,1.722,5.753,1.642c3.652,7.227,9.111,16.11,16.959,24.738c41.559,45.689,2.884,90.761,2.884,90.761
			l-79.191-55.715l-79.191-55.715C314.85,105.017,344.208,53.39,401.25,77.072z"/>
	</g>
	<path style="fill:#E20A62;" d="M314.85,105.016l53.183,37.418c2.741-2.196,5.391-5.097,7.905-8.853
		c29.191-43.618,64.824-35.659,64.824-35.659l0.827-2.871l-7.837-5.514c-1.705-1.199-2.875-2.912-3.489-4.86
		c-8.035-0.996-18.24-3.133-29.013-7.605C344.208,53.39,314.85,105.016,314.85,105.016z"/>
	<g>
		<path style="fill:#D0E8FE;" d="M432.98,92.447l12.628,8.884c4.959,3.489,11.87,2.286,15.359-2.673l0.867-1.233
			c3.489-4.958,2.286-11.87-2.673-15.359l-12.628-8.884c-4.959-3.489-11.87-2.286-15.359,2.673l-0.868,1.233
			C426.819,82.047,428.021,88.958,432.98,92.447z"/>
	</g>
	<path style="fill:#A9D8FC;" d="M443.916,85.741c2.975-4.228,8.041-6.142,12.844-5.363l-10.227-7.195
		c-4.959-3.489-11.87-2.286-15.358,2.673l-0.868,1.233c-3.488,4.959-2.286,11.87,2.673,15.359l10.226,7.195
		C440.851,95.385,440.941,89.969,443.916,85.741z"/>
	<g>
		<g>
			<path style="fill:#EB5793;" d="M303.729,108.932c-1.219-3.472-0.8-7.461,1.479-10.7c3.747-5.325,11.101-6.605,16.426-2.858
				l158.382,111.431c5.325,3.746,6.605,11.101,2.858,16.426c-3.747,5.325-11.101,6.605-16.426,2.858L308.066,114.659
				C305.98,113.191,304.514,111.169,303.729,108.932z"/>
		</g>
	</g>
	<path style="fill:#E7387F;" d="M360.836,150.522c-1.343-3.825-0.881-8.221,1.63-11.789c3.095-4.398,8.423-6.292,13.368-5.225
		l-54.2-38.133c-5.325-3.747-12.679-2.467-16.426,2.858c-2.279,3.239-2.698,7.228-1.479,10.7c0.785,2.237,2.251,4.258,4.337,5.726
		l53.578,37.696C361.327,151.763,361.056,151.15,360.836,150.522z"/>
	<g>
		<path style="fill:#E7387F;" d="M41.832,126.613c7.789-8.682,13.187-17.603,16.789-24.854c2.041,0.066,4.045-0.471,5.742-1.682
			l13.816-9.863c1.697-1.211,2.855-2.932,3.456-4.884c8.028-1.051,18.219-3.258,28.96-7.804
			c56.878-24.072,86.589,27.352,86.589,27.352l-78.807,56.256l-78.807,56.256C39.569,217.392,0.587,172.586,41.832,126.613z"/>
	</g>
	<path style="fill:#E20A62;" d="M39.569,217.392l52.926-37.781c-1.163-3.314-3.023-6.776-5.734-10.392
		C55.28,127.225,74.597,96.241,74.597,96.241l-2.435-1.731l-7.799,5.567c-1.696,1.211-3.7,1.747-5.742,1.682
		c-3.602,7.251-9,16.172-16.789,24.854C0.587,172.586,39.569,217.392,39.569,217.392z"/>
	<g>
		<path style="fill:#D0E8FE;" d="M66.851,101.77l12.567-8.971c4.935-3.523,6.09-10.442,2.567-15.377l-0.876-1.227
			c-3.522-4.935-10.442-6.09-15.376-2.567l-12.567,8.971c-4.935,3.522-6.09,10.442-2.567,15.377l0.876,1.227
			C54.997,104.137,61.917,105.292,66.851,101.77z"/>
	</g>
	<path style="fill:#A9D8FC;" d="M64.148,89.23c-3.003-4.207-3.131-9.622-0.805-13.895l-10.177,7.265
		c-4.934,3.522-6.09,10.442-2.567,15.377l0.876,1.227c3.522,4.935,10.442,6.09,15.376,2.567l10.177-7.265
		C72.231,95.317,67.151,93.437,64.148,89.23z"/>
	<g>
		<g>
			<path style="fill:#EB5793;" d="M39.579,229.182c-3.679,0-7.304-1.717-9.605-4.941c-3.782-5.299-2.554-12.662,2.746-16.445
				L190.335,95.284c5.299-3.783,12.663-2.554,16.446,2.746c3.783,5.299,2.553,12.662-2.746,16.445L46.419,226.987
				C44.343,228.469,41.95,229.182,39.579,229.182z"/>
		</g>
	</g>
	<path style="fill:#E7387F;" d="M97.741,189.082c-4.054,0-8.048-1.892-10.583-5.444c-3.125-4.377-3.145-10.031-0.501-14.344
		L32.72,207.796c-5.3,3.783-6.529,11.146-2.746,16.445c2.301,3.223,5.926,4.941,9.605,4.941c2.371,0,4.764-0.713,6.84-2.195
		l53.319-38.061C99.075,189.029,98.407,189.082,97.741,189.082z"/>
	<g>
		<g>
			<path style="fill:#D0E8FE;" d="M365.253,81.846c-3.653,0-7.071-2.281-8.346-5.924l-13.703-39.166
				c-1.112-3.177-3.624-5.611-6.893-6.678c-50.744-16.559-108.943-16.55-159.676,0.025c-3.243,1.059-5.748,3.468-6.871,6.607
				l-14.05,39.269c-1.645,4.598-6.703,6.993-11.304,5.347c-4.598-1.645-6.991-6.706-5.346-11.304l14.051-39.27
				c2.979-8.326,9.551-14.69,18.03-17.459c54.22-17.715,116.42-17.724,170.655-0.026c8.428,2.75,15.193,9.348,18.098,17.649
				l13.703,39.166c1.613,4.609-0.816,9.653-5.426,11.266C367.207,81.685,366.222,81.846,365.253,81.846z"/>
		</g>
	</g>
	<g>
		<circle style="fill:#5766CE;" cx="256.512" cy="344.249" r="20.24"/>
	</g>
	<g>
		<g>
			<path style="fill:#8C96DD;" d="M256.512,373.332c-16.036,0-29.083-13.046-29.083-29.083c0-16.036,13.047-29.083,29.083-29.083
				c16.036,0,29.082,13.046,29.082,29.083C285.594,360.285,272.548,373.332,256.512,373.332z M256.512,332.851
				c-6.285,0-11.399,5.113-11.399,11.398c0,6.285,5.114,11.399,11.399,11.399c6.285,0,11.398-5.113,11.398-11.399
				C267.91,337.964,262.797,332.851,256.512,332.851z"/>
		</g>
	</g>
	<path style="fill:#E7387F;" d="M256.512,173.025c-93.6,0-169.75,76.15-169.75,169.75c0,85.81,64.004,156.941,146.778,168.19
		C240.938,511.638,248.426,512,256,512c8.591,0,17.078-0.447,25.44-1.309c81.824-12.095,144.821-82.782,144.821-167.915
		C426.262,249.175,350.113,173.025,256.512,173.025z M256.512,488.946c-80.599,0-146.171-65.572-146.171-146.171
		s65.572-146.171,146.171-146.171c80.599,0,146.171,65.572,146.171,146.171S337.111,488.946,256.512,488.946z"/>
	<path style="fill:#E20A62;" d="M348.454,482.339c-14.907-3.322-11.711-17.126-11.711-17.126c-0.113-0.032-0.222-0.065-0.335-0.096
		c-22.979,15.058-50.431,23.83-79.897,23.83c-80.599,0-146.171-65.572-146.171-146.171c0-56.606,32.344-105.798,79.521-130.071
		c0.031-0.103,0.048-0.159,0.048-0.159c-10.674-4.996-9.279-14.17-7.306-19.51c0.378-1.022,0.367-2.104,0.056-3.085
		c-56.707,27.515-95.898,85.677-95.898,152.824c0,85.81,64.004,156.941,146.777,168.19C240.938,511.638,248.426,512,256,512
		c8.591,0,17.077-0.447,25.44-1.309c25.414-3.757,49.01-13.169,69.468-26.908C350.269,483.074,349.423,482.555,348.454,482.339z"/>
	<g>
		<path style="fill:#A9D8FC;" d="M202.243,12.417c0-3.142,1.397-5.952,3.597-7.862c-11.813,2.152-23.429,5.057-34.696,8.738
			c-8.479,2.77-15.051,9.133-18.03,17.459l-14.051,39.27c-1.645,4.598,0.748,9.659,5.346,11.304
			c4.602,1.646,9.659-0.749,11.304-5.347l14.05-39.269c1.123-3.139,3.628-5.548,6.871-6.607c10.387-3.394,21.091-6.081,31.976-8.086
			C204.87,20.438,202.243,16.734,202.243,12.417z"/>
	</g>
	<path style="fill:#717ED6;" d="M264.041,352.784L264.041,352.784c-2.01,1.776-4.642,2.863-7.529,2.863
		c-6.285,0-11.399-5.113-11.399-11.399c0-4.033,2.111-7.574,5.28-9.601c-10.514-1.8-10.823-10.985-10.602-14.173
		c-7.47,5.269-12.363,13.958-12.363,23.774c0,16.036,13.046,29.083,29.083,29.083c6.715,0,12.901-2.294,17.829-6.131
		C260.591,365.334,264.041,352.784,264.041,352.784z"/>
</g>
<g>
</g>
<g>
</g>
<g>
</g>
<g>
</g>
<g>
</g>
<g>
</g>
<g>
</g>
<g>
</g>
<g>
</g>
<g>
</g>
<g>
</g>
<g>
</g>
<g>
</g>
<g>
</g>
<g>
</g>
</svg>
