<?xml version="1.0" encoding="iso-8859-1"?>
<!-- Generator: Adobe Illustrator 21.0.0, SVG Export Plug-In . SVG Version: 6.00 Build 0)  -->
<svg version="1.1" id="Capa_1" xmlns="http://www.w3.org/2000/svg" xmlns:xlink="http://www.w3.org/1999/xlink" x="0px" y="0px"
	 viewBox="0 0 512 512" style="enable-background:new 0 0 512 512;" xml:space="preserve">
<g>
	<path style="fill:#82CD64;" d="M256,21.999C120.69,21.999,10.999,131.689,10.999,267c0,121.441,88.363,222.228,204.299,241.616
		l115.831-8.368C429.682,468.527,501.001,376.099,501.001,267C501.001,131.689,391.31,21.999,256,21.999z"/>
	<path style="fill:#FFCDBE;" d="M286.99,434.214V295.496h-84.648c0,0-9.211,56.722,14.983,93.279
		c5.493,8.299,8.628,17.933,8.628,27.886v17.554H286.99z"/>
	<path style="fill:#FFDECF;" d="M344.012,295.496h-47.518v138.719h21.546v-38.959C318.039,395.255,358.179,352.754,344.012,295.496z
		"/>
	<path style="fill:#E7387F;" d="M488.961,13.943L256,85.592L23.039,13.943c-4.37-1.344-8.792,1.923-8.792,6.494v257.037
		c0,2.984,1.946,5.618,4.797,6.494l188.179,57.877c4.799,1.476,8.815,4.695,11.548,8.906c7.907,12.181,21.625,20.24,37.229,20.24
		c15.604,0,29.321-8.059,37.229-20.24c2.734-4.211,6.749-7.43,11.548-8.906l188.179-57.877c2.851-0.877,4.797-3.511,4.797-6.494
		V20.437C497.753,15.866,493.331,12.599,488.961,13.943z"/>
	<path style="fill:#E20A62;" d="M129.363,57.226c0-3.816,0.342-7.223,0.932-10.296L23.039,13.943
		c-4.37-1.344-8.792,1.923-8.792,6.494v257.037c0,2.984,1.946,5.618,4.797,6.494l122.44,37.658
		c-3.704-9.98,0.845-15.183,4.596-17.634c2.011-1.314,2.646-3.928,1.665-6.121c-5.812-12.992,1.129-23.006,7.092-28.655
		c2.562-2.426,1.878-6.687-1.336-8.144c-27.536-12.479-24.139-37.636-24.139-37.636S129.363,95.01,129.363,57.226z"/>
	<path style="fill:#A9D8FC;" d="M350.447,20.07C269.577,20.07,256,72.606,256,72.606v243.989c0,0,13.577-52.536,94.447-52.536
		s117.468-20.07,117.468-20.07V0C467.915,0,431.316,20.07,350.447,20.07z"/>
	<g>
		<path style="fill:#D0E8FE;" d="M291.321,86.553c-2.443-3.345-1.713-8.037,1.631-10.48c13.757-10.052,35.375-16.382,57.83-16.935
			c27.621-0.68,52.894-3.665,75.118-8.873c4.033-0.944,8.069,1.557,9.013,5.591c0.945,4.033-1.558,8.069-5.591,9.014
			c-23.224,5.442-49.525,8.56-78.172,9.264c-19.518,0.48-37.966,5.733-49.35,14.051C298.472,90.617,293.775,89.912,291.321,86.553z"
			/>
	</g>
	<g>
		<path style="fill:#D0E8FE;" d="M291.321,124.337c-2.443-3.345-1.713-8.037,1.631-10.48c13.757-10.052,35.375-16.382,57.83-16.935
			c27.621-0.679,52.894-3.665,75.118-8.873c4.033-0.944,8.069,1.557,9.013,5.591c0.945,4.033-1.558,8.069-5.591,9.014
			c-23.224,5.442-49.525,8.56-78.172,9.264c-19.518,0.48-37.966,5.733-49.35,14.051
			C298.472,128.401,293.775,127.696,291.321,124.337z"/>
	</g>
	<g>
		<path style="fill:#D0E8FE;" d="M291.321,162.122c-2.443-3.345-1.713-8.037,1.631-10.48c13.757-10.052,35.375-16.382,57.83-16.935
			c27.621-0.68,52.894-3.665,75.118-8.873c4.033-0.944,8.069,1.557,9.013,5.591c0.945,4.033-1.558,8.069-5.591,9.014
			c-23.224,5.442-49.525,8.56-78.172,9.264c-19.518,0.48-37.966,5.733-49.35,14.051C298.472,166.186,293.775,165.48,291.321,162.122
			z"/>
	</g>
	<g>
		<path style="fill:#D0E8FE;" d="M291.321,199.906c-2.443-3.345-1.713-8.037,1.631-10.48c13.757-10.052,35.375-16.382,57.83-16.935
			c27.621-0.68,52.894-3.665,75.118-8.873c4.033-0.944,8.069,1.557,9.013,5.591c0.945,4.033-1.558,8.069-5.591,9.014
			c-23.224,5.443-49.525,8.56-78.172,9.264c-19.518,0.48-37.966,5.733-49.35,14.051C298.472,203.97,293.775,203.265,291.321,199.906
			z"/>
	</g>
	<g>
		<path style="fill:#D0E8FE;" d="M291.321,237.691c-2.443-3.345-1.713-8.037,1.631-10.48c13.757-10.052,35.375-16.382,57.83-16.935
			c27.621-0.68,52.894-3.665,75.118-8.873c4.033-0.944,8.069,1.557,9.013,5.591c0.945,4.033-1.558,8.069-5.591,9.014
			c-23.224,5.443-49.525,8.56-78.172,9.264c-19.518,0.48-37.966,5.733-49.35,14.051
			C298.472,241.755,293.775,241.049,291.321,237.691z"/>
	</g>
	<path style="fill:#91D1F9;" d="M467.915,243.989c0,0-36.598,20.07-117.468,20.07c-66.431,0-87.45,35.445-92.838,48.104L256,316.595
		v18.1l229.033-70.442L467.915,243.989z"/>
	<path style="fill:#D0E8FE;" d="M482.151,16.853L467.915,0v243.989l17.119,20.264V24.73
		C485.033,21.846,484.012,19.056,482.151,16.853z"/>
	<path style="fill:#A9D8FC;" d="M29.848,16.853L44.085,0v243.989l-17.118,20.264V24.73C26.967,21.846,27.988,19.056,29.848,16.853z"
		/>
	<path style="fill:#91D1F9;" d="M161.553,20.07c80.87,0,94.447,52.536,94.447,52.536v243.989c0,0-13.577-52.536-94.447-52.536
		c-80.87,0-117.468-20.07-117.468-20.07V0C44.085,0,80.683,20.07,161.553,20.07z"/>
	<path style="fill:#4AC4F4;" d="M129.363,57.226c0-36.508,30.047-37.154,32.077-37.156C80.65,20.05,44.085,0,44.085,0v243.989
		c0,0,34.97,19.169,112.058,20.036c-0.408-1.247-1.301-2.345-2.642-2.952c-27.536-12.479-24.139-37.636-24.139-37.636
		S129.363,95.01,129.363,57.226z"/>
	<path style="fill:#4AC4F4;" d="M44.085,243.989c0,0,36.598,20.07,117.468,20.07c66.431,0,87.45,35.445,92.838,48.104l1.608,4.432
		v18.1L26.967,264.254L44.085,243.989z"/>
	<path style="fill:#3EB6F1;" d="M147.745,297.872c-5.812-12.992,1.129-23.006,7.092-28.655c1.493-1.414,1.876-3.449,1.306-5.191
		c-77.088-0.867-112.058-20.036-112.058-20.036l-17.118,20.264l120.994,37.213C148.318,300.32,148.267,299.039,147.745,297.872z"/>
	<path style="fill:#FFDECF;" d="M321.39,343.504c-2.108-8.863-3.351-17.909-3.351-27.019v-48.047v-24.891
		c0-0.385-0.025-0.763-0.065-1.135c-0.014-0.135-0.039-0.267-0.058-0.401c-0.034-0.229-0.07-0.457-0.119-0.681
		c-0.036-0.167-0.077-0.331-0.121-0.495c-0.047-0.173-0.097-0.345-0.152-0.514c-0.06-0.19-0.123-0.378-0.194-0.563
		c-0.043-0.109-0.091-0.216-0.137-0.324c-1.905-4.488-6.799-7.311-11.923-6.18c-10.963,2.419-25.009,10.153-25.009,33.908v23.958
		c0,8.41-3.109,16.572-8.891,22.678c-7.739,8.173-18.155,23.27-21.036,47.153c-0.403,3.34-3.142,5.917-6.504,6.031
		c-2.266,0.077-4.425-0.26-6.316-0.753l-6.844-2.806v70.791h18.897h20.602h47.872l5.981-55.554
		C325.014,366.875,324.127,355.007,321.39,343.504z"/>
	<path style="fill:#FFCDBE;" d="M243.829,366.982c-2.266,0.077-4.425-0.26-6.316-0.753l-6.844-2.806v70.791h18.897h20.602h47.872
		l4.828-44.843l0,0c-61.901,21.159-72.534-28.421-72.534-28.421C249.931,364.29,247.191,366.868,243.829,366.982z"/>
	<path style="fill:#3D4EC6;" d="M211.246,452.274v55.634C225.758,510.587,240.713,512,256,512c27.657,0,54.242-4.588,79.04-13.035
		v-46.691H211.246z"/>
	<path style="fill:#3342AE;" d="M280.125,510.225c-8.651-1.044-15.189-8.33-15.189-17.044v-23.753
		c0-9.474,7.68-17.154,17.154-17.154h-70.844v55.634C225.758,510.587,240.713,512,256,512c9.077,0,18.036-0.504,26.857-1.466
		C281.945,510.434,281.033,510.334,280.125,510.225z"/>
	<path style="fill:#5766CE;" d="M334.078,419.552h-121.87c-3.845,0-6.962,3.117-6.962,6.962v24.789c0,3.845,3.117,6.962,6.962,6.962
		h121.87c3.845,0,6.962-3.117,6.962-6.962v-24.789C341.04,422.668,337.923,419.552,334.078,419.552z"/>
	<path style="fill:#3D4EC6;" d="M250.468,438.908L250.468,438.908c0-10.69,8.666-19.356,19.356-19.356h-57.616
		c-3.845,0-6.962,3.117-6.962,6.962v24.789c0,3.845,3.117,6.962,6.962,6.962h57.616
		C259.134,458.264,250.468,449.598,250.468,438.908z"/>
	<path style="fill:#FCEAE3;" d="M318.039,268.437v-24.891c0-0.385-0.025-0.763-0.065-1.135c-0.014-0.135-0.039-0.267-0.058-0.401
		c-0.034-0.229-0.07-0.457-0.119-0.681c-0.036-0.167-0.077-0.331-0.121-0.495c-0.047-0.173-0.097-0.345-0.152-0.514
		c-0.06-0.19-0.123-0.378-0.194-0.563c-0.043-0.109-0.091-0.216-0.137-0.324c-0.62-1.461-1.562-2.742-2.721-3.771h-2.438
		c-6.648,0-12.088,5.439-12.088,12.088v9.884c0,6.648,5.439,12.088,12.088,12.088h6.005V268.437z"/>
	<circle style="fill:#8C96DD;" cx="316.645" cy="438.908" r="10.188"/>
	<g>
		<path style="fill:#A9D8FC;" d="M220.679,86.553c2.443-3.345,1.713-8.037-1.631-10.48c-13.757-10.052-35.375-16.382-57.83-16.935
			c-27.621-0.68-52.894-3.665-75.118-8.873c-4.033-0.944-8.069,1.557-9.013,5.591c-0.945,4.033,1.558,8.069,5.591,9.014
			c23.224,5.442,49.525,8.56,78.172,9.264c19.518,0.48,37.966,5.733,49.35,14.051C213.528,90.617,218.224,89.912,220.679,86.553z"/>
	</g>
	<g>
		<path style="fill:#A9D8FC;" d="M220.679,124.337c2.443-3.345,1.713-8.037-1.631-10.48c-13.757-10.052-35.375-16.382-57.83-16.935
			c-27.621-0.679-52.894-3.665-75.118-8.873c-4.033-0.944-8.069,1.557-9.013,5.591c-0.945,4.033,1.558,8.069,5.591,9.014
			c23.224,5.442,49.525,8.56,78.172,9.264c19.518,0.48,37.966,5.733,49.35,14.051C213.528,128.401,218.224,127.696,220.679,124.337z
			"/>
	</g>
	<g>
		<path style="fill:#A9D8FC;" d="M220.679,162.122c2.443-3.345,1.713-8.037-1.631-10.48c-13.757-10.052-35.375-16.382-57.83-16.935
			c-27.621-0.68-52.894-3.665-75.118-8.873c-4.033-0.944-8.069,1.557-9.013,5.591c-0.945,4.033,1.558,8.069,5.591,9.014
			c23.224,5.442,49.525,8.56,78.172,9.264c19.518,0.48,37.966,5.733,49.35,14.051C213.528,166.186,218.224,165.48,220.679,162.122z"
			/>
	</g>
	<g>
		<path style="fill:#A9D8FC;" d="M220.679,199.906c2.443-3.345,1.713-8.037-1.631-10.48c-13.757-10.052-35.375-16.382-57.83-16.935
			c-27.621-0.68-52.894-3.665-75.118-8.873c-4.033-0.944-8.069,1.557-9.013,5.591c-0.945,4.033,1.558,8.069,5.591,9.014
			c23.224,5.443,49.525,8.56,78.172,9.264c19.518,0.48,37.966,5.733,49.35,14.051C213.528,203.97,218.224,203.265,220.679,199.906z"
			/>
	</g>
	<g>
		<path style="fill:#A9D8FC;" d="M220.679,237.691c2.443-3.345,1.713-8.037-1.631-10.48c-13.757-10.052-35.375-16.382-57.83-16.935
			c-27.621-0.68-52.894-3.665-75.118-8.873c-4.033-0.944-8.069,1.557-9.013,5.591c-0.945,4.033,1.558,8.069,5.591,9.014
			c23.224,5.443,49.525,8.56,78.172,9.264c19.518,0.48,37.966,5.733,49.35,14.051C213.528,241.755,218.224,241.049,220.679,237.691z
			"/>
	</g>
</g>
<g>
</g>
<g>
</g>
<g>
</g>
<g>
</g>
<g>
</g>
<g>
</g>
<g>
</g>
<g>
</g>
<g>
</g>
<g>
</g>
<g>
</g>
<g>
</g>
<g>
</g>
<g>
</g>
<g>
</g>
</svg>
