<?xml version="1.0" encoding="iso-8859-1"?>
<!-- Generator: Adobe Illustrator 21.0.0, SVG Export Plug-In . SVG Version: 6.00 Build 0)  -->
<svg version="1.1" id="Capa_1" xmlns="http://www.w3.org/2000/svg" xmlns:xlink="http://www.w3.org/1999/xlink" x="0px" y="0px"
	 viewBox="0 0 512 512" style="enable-background:new 0 0 512 512;" xml:space="preserve">
<g>
	<path style="fill:#E06E53;" d="M86.934,444.318C130.902,486.252,190.444,512,256,512c65.556,0,125.098-25.748,169.066-67.682
		H86.934z"/>
	<path style="fill:#E7387F;" d="M499.565,293.544c0.94-8.721,1.436-17.575,1.436-26.545c0-135.31-109.69-245-245-245
		s-245.001,109.691-245.001,245c0,8.971,0.496,17.824,1.436,26.545H499.565z"/>
	<path style="fill:#91D1F9;" d="M467.075,22.01l-0.473-16.002c-0.102-3.458-3.029-6.167-6.485-6.001
		C331.425,6.204,283.332,82.806,283.332,82.806l0.259,8.751C293.097,81.022,346.22,28.611,467.075,22.01z"/>
	<path style="fill:#4AC4F4;" d="M345.543,46.09c-3.55-1.416-8.151-4.987-4.215-13.712c-40.948,23.28-57.997,50.428-57.997,50.428
		l0.259,8.751c5.453-6.043,25.265-25.863,63.972-42.914C347.394,47.531,346.654,46.533,345.543,46.09z"/>
	<path style="fill:#91D1F9;" d="M228.409,91.558l0.259-8.751c0,0-48.094-76.602-176.786-82.799C48.427-0.159,45.5,2.55,45.398,6.008
		L44.925,22.01C165.78,28.611,218.903,81.022,228.409,91.558z"/>
	<path style="fill:#4AC4F4;" d="M112.54,30.372c0,0-9.225-12.448,7.37-19.303C100.306,5.338,77.723,1.251,51.883,0.007
		C48.427-0.159,45.5,2.55,45.398,6.008L44.925,22.01c24.733,1.351,46.625,4.622,65.891,9.059
		C111.366,30.83,111.937,30.597,112.54,30.372z"/>
	<path style="fill:#A9D8FC;" d="M477.719,45.85l-0.629-19.136c-0.113-3.449-3.034-6.141-6.48-5.98
		c-137.11,6.397-188.616,71.587-188.616,71.587l0.402,12.237C293.419,95.374,352.081,51.755,477.719,45.85z"/>
	<path style="fill:#91D1F9;" d="M353.459,63.422c-3.335-1.783-8.524-5.873-6.013-13.3c0.282-0.835,0.188-1.706-0.182-2.444
		c-46.094,20.376-65.271,44.644-65.271,44.644l0.402,12.237c6.474-5.394,29.392-22.666,72.651-37.199
		c0.014-0.054,0.023-0.105,0.037-0.159C355.482,65.71,354.82,64.15,353.459,63.422z"/>
	<path style="fill:#D0E8FE;" d="M30.018,45.656c-3.44-0.137-6.339,2.559-6.441,6.001l-0.456,15.418l196.489,34.923l1.556-3.663
		C202.265,84.504,144.331,50.192,30.018,45.656z"/>
	<path style="fill:#A9D8FC;" d="M23.577,51.657l-0.456,15.418l67.991,12.084v-2.17c0,0-10.515-17.659,11.071-23.551
		c0,0-0.047-0.071-0.123-0.199c-20.999-3.755-44.932-6.507-72.042-7.582C26.578,45.52,23.679,48.216,23.577,51.657z"/>
	<path style="fill:#D0E8FE;" d="M488.423,49.487c-0.102-3.441-3.001-6.137-6.44-6.001c-115.783,4.593-173.72,39.731-191.85,53.197
		l2.259,5.314l196.552-34.934L488.423,49.487z"/>
	<path style="fill:#A9D8FC;" d="M365.642,87.472c0,0-14.458-5.692-10.559-20.272c0.213-0.796,0.115-1.608-0.221-2.306
		c-34.458,11.512-55.152,24.674-64.73,31.788l2.259,5.314l72.837-12.946L365.642,87.472z"/>
	<path style="fill:#A9D8FC;" d="M229.575,105.442l0.431-13.12c0,0-51.505-65.19-188.615-71.587c-3.447-0.161-6.368,2.531-6.481,5.98
		L34.281,45.85C164.618,51.977,221.955,98.704,229.575,105.442z"/>
	<path style="fill:#91D1F9;" d="M102.183,53.438c0,0-10.116-15.4,10.344-23.061c-20.586-4.854-44.202-8.386-71.136-9.642
		c-3.447-0.161-6.368,2.531-6.481,5.98L34.281,45.85c25.338,1.191,47.906,3.921,67.897,7.589
		C102.18,53.439,102.181,53.438,102.183,53.438z"/>
	<path style="fill:#4AC4F4;" d="M285.619,83.894c-1.125-2.647-3.225-4.747-5.845-5.934c-15.104-6.841-32.445-6.841-47.549,0
		c-2.62,1.187-4.72,3.286-5.845,5.934l-6.771,15.932c0,0,1.008,1.549,2.902,3.807c20.908,11.228,46.07,11.228,66.977,0
		c1.894-2.258,2.902-3.807,2.902-3.807L285.619,83.894z"/>
	<path style="fill:#3EB6F1;" d="M265.688,73.663c-11.228-1.914-22.892-0.489-33.463,4.298c-2.62,1.187-4.72,3.286-5.845,5.934
		l-6.771,15.932c0,0,1.008,1.549,2.902,3.807c11.336,6.088,23.922,8.867,36.403,8.354C250.355,96.196,252.865,82.69,265.688,73.663z
		"/>
	<path style="fill:#EEA200;" d="M219.61,99.827v375.119l0,0c22.404,13.422,50.377,13.422,72.781,0l0,0V99.827
		C269.986,113.248,242.014,113.248,219.61,99.827z"/>
	<g>
		<path style="fill:#ED8700;" d="M256,463.121V124.642c0-5.938,2.443-11.239,6.312-15.039c-14.655,1.31-29.627-1.943-42.703-9.776
			v375.119c15.068,9.027,32.654,11.973,49.372,8.858C261.148,480.017,256,472.04,256,463.121z"/>
	</g>
	<path style="fill:#F6D100;" d="M490.313,64.65L292.39,99.827v374.959l123.194-21.896c46.025-39.549,77.192-95.893,84.001-159.528
		V72.419C499.585,67.509,495.148,63.79,490.313,64.65z"/>
	<path style="fill:#F2BA00;" d="M350.909,424.825V89.426L292.39,99.827v374.959l85.034-15.113
		C362.355,455.501,350.909,441.701,350.909,424.825z"/>
	<path style="fill:#F6D100;" d="M12.414,72.419v220.942c6.809,63.635,37.975,119.98,84.001,159.529l123.194,21.896V99.827
		L21.687,64.65C16.852,63.79,12.414,67.509,12.414,72.419z"/>
	<path style="fill:#F2BA00;" d="M21.687,64.65c-4.835-0.859-9.273,2.859-9.273,7.77v220.942
		c5.225,48.831,24.805,93.358,54.422,129.307c0-98.012,0-301.518,0-318.456c0-25.833,24.274-27.224,24.275-27.224L21.687,64.65z"/>
	<path style="fill:#F2BA00;" d="M467.09,131.641L322.48,157.342c-3.282,0.583-5.672,3.436-5.672,6.769v41.171
		c0,4.278,3.866,7.517,8.078,6.769l144.611-25.702c3.282-0.583,5.672-3.436,5.672-6.769V138.41
		C475.168,134.132,471.303,130.892,467.09,131.641z"/>
	<path style="fill:#EEA200;" d="M322.48,157.342c-3.282,0.583-5.672,3.436-5.672,6.769v41.171c0,4.278,3.866,7.517,8.078,6.769
		l26.023-4.625V152.29L322.48,157.342z"/>
	<g>
		<path style="fill:#F2BA00;" d="M256,355.485c-4.496,0-8.139-3.644-8.139-8.139v-91.63c0-4.495,3.644-8.139,8.139-8.139
			s8.139,3.644,8.139,8.139v91.63C264.139,351.841,260.496,355.485,256,355.485z"/>
	</g>
	<g>
		<path style="fill:#F9DF5F;" d="M376.679,424.107c-0.788-4.426,2.163-8.651,6.589-9.438l22.591-4.015
			c4.423-0.787,8.651,2.164,9.438,6.589c0.787,4.426-2.163,8.651-6.589,9.438l-22.591,4.015
			C381.68,431.485,377.464,428.521,376.679,424.107z"/>
	</g>
	<path style="fill:#E7387F;" d="M361.782,84.238l-22.896,4.069c-1.568,0.279-2.71,1.642-2.71,3.234v89.462
		c0,1.838,2.222,2.758,3.521,1.458l9.753-9.753c0.805-0.806,2.112-0.806,2.918,0l9.753,9.753c1.299,1.3,3.521,0.379,3.521-1.458
		V87.472C365.642,85.428,363.795,83.88,361.782,84.238z"/>
	<path style="fill:#E20A62;" d="M361.782,84.238l-22.896,4.069c-1.568,0.279-2.71,1.642-2.71,3.234v47.417
		c0-7.142,5.123-13.256,12.155-14.506h0c9.027-1.604,17.311,5.337,17.311,14.505V87.472
		C365.642,85.428,363.795,83.88,361.782,84.238z"/>
	<path style="fill:#F2BA00;" d="M189.52,119.28L44.91,93.577c-4.212-0.749-8.078,2.49-8.078,6.769l-0.001,276.237
		c8.307,16.582,18.427,32.099,30.123,46.27l120.159,21.357c4.212,0.749,8.078-2.491,8.078-6.769V126.048
		C195.192,122.716,192.801,119.863,189.52,119.28z"/>
	<path style="fill:#EEA200;" d="M44.91,93.577c-4.212-0.749-8.077,2.49-8.077,6.769l-0.001,276.237
		c8.279,16.525,18.359,31.991,30.005,46.123c0-97.998,0-301.553,0-318.493c0-2.419,0.213-4.623,0.599-6.632L44.91,93.577z"/>
	<path style="fill:#F2BA00;" d="M219.61,372.184v29.633c22.404,13.422,50.377,13.422,72.781,0v-29.633
		C269.986,385.606,242.014,385.606,219.61,372.184z"/>
	<path style="fill:#EEA200;" d="M256,382.251c-12.594,0-25.188-3.355-36.39-10.066v29.633c11.202,6.711,23.796,10.066,36.39,10.066
		V382.251z"/>
	<path style="fill:#F2BA00;" d="M219.61,151.604v29.633c22.404,13.422,50.377,13.422,72.781,0v-29.633
		C269.986,165.025,242.014,165.025,219.61,151.604z"/>
	<path style="fill:#EEA200;" d="M256,161.67c-12.594,0-25.188-3.355-36.39-10.066v29.633c11.202,6.711,23.796,10.066,36.39,10.066
		V161.67z"/>
	<path style="fill:#F6D100;" d="M219.61,400.825v29.633c22.404,13.422,50.377,13.422,72.781,0v-29.633
		C269.986,414.247,242.014,414.247,219.61,400.825z"/>
	<path style="fill:#F2BA00;" d="M256,410.891c-12.594,0-25.188-3.355-36.39-10.066v29.633c11.202,6.711,23.796,10.066,36.39,10.066
		V410.891z"/>
	<path style="fill:#F6D100;" d="M219.61,180.244v29.633c22.404,13.422,50.377,13.422,72.781,0v-29.633
		C269.986,193.666,242.014,193.666,219.61,180.244z"/>
	<path style="fill:#F2BA00;" d="M256,190.31c-12.594,0-25.188-3.355-36.39-10.066v29.633c11.202,6.711,23.796,10.066,36.39,10.066
		V190.31z"/>
</g>
<g>
</g>
<g>
</g>
<g>
</g>
<g>
</g>
<g>
</g>
<g>
</g>
<g>
</g>
<g>
</g>
<g>
</g>
<g>
</g>
<g>
</g>
<g>
</g>
<g>
</g>
<g>
</g>
<g>
</g>
</svg>
