<?xml version="1.0" encoding="iso-8859-1"?>
<!-- Generator: Adobe Illustrator 21.0.0, SVG Export Plug-In . SVG Version: 6.00 Build 0)  -->
<svg version="1.1" id="Capa_1" xmlns="http://www.w3.org/2000/svg" xmlns:xlink="http://www.w3.org/1999/xlink" x="0px" y="0px"
	 viewBox="0 0 512 512" style="enable-background:new 0 0 512 512;" xml:space="preserve">
<g>
	<path style="fill:#3342AE;" d="M256,21.999C120.69,21.999,10.999,131.689,10.999,267c0,70.045,29.4,133.219,76.526,177.871l0,0
		l100.865,57.676l0,0C209.866,508.699,232.547,512,256,512c135.31,0,245-109.69,245-245S391.31,21.999,256,21.999z"/>
	<path style="fill:#D0E8FE;" d="M409.713,1.292c-4.606-2.66-10.492-1.081-13.149,3.523l-17.431,30.192
		c3.223-0.27,6.541,0.415,9.509,2.129c3.219,1.858,5.583,4.683,6.916,7.924l17.678-30.619C415.895,9.837,414.317,3.95,409.713,1.292
		z"/>
	<path style="fill:#F6D100;" d="M389.795,36.313L389.795,36.313c-14.079-8.128-31.946-5.12-42.587,7.17L319.489,75.5
		c-17.241,19.915-32.551,41.423-45.721,64.235l-3.784,6.553l84.476,48.772l3.784-6.553c13.171-22.812,24.142-46.824,32.768-71.713
		l13.867-40.014C410.203,61.419,403.874,44.441,389.795,36.313z"/>
	<g>
		<path style="fill:#F2BA00;" d="M310.941,164.234c13.947-24.157,29.011-47.596,44.988-70.002l25.687-36.021
			c5.101-7.153,10.911-12.441,16.364-15.291c-2.319-2.561-5.059-4.803-8.184-6.607c-14.079-8.128-31.946-5.12-42.587,7.17
			L319.489,75.5c-17.241,19.915-32.551,41.423-45.721,64.235l-3.784,6.553l38.489,22.221L310.941,164.234z"/>
	</g>
	<path style="fill:#F9DF5F;" d="M87.526,444.87c28.131,26.654,62.577,46.706,100.865,57.676l22.698-61.663
		c-28.287-16.332-51.538-29.756-81.195-46.878L87.526,444.87z"/>
	<path style="fill:#F6D100;" d="M129.893,394.005l-27.074,32.504v0c0,0,18.398-5.33,23.892,12.299
		c0.795,2.55,3.334,4.128,5.984,3.796c8.73-1.093,26.782-0.664,35.063,19.231c1.052,2.527,3.777,3.913,6.438,3.27
		c5.994-1.447,16.365-1.257,22.839,13.954l0,0l14.053-38.177C182.8,424.551,159.549,411.127,129.893,394.005z"/>
	<path style="fill:#F6D100;" d="M111.185,464.62c14.873,10.917,31.02,20.198,48.182,27.572l26.372-65.945
		c-14.497-8.37-15.298-8.832-30.497-17.607L111.185,464.62z"/>
	<path style="fill:#F2BA00;" d="M155.242,408.64l-26.13,33.201c1.046,0.629,2.299,0.924,3.583,0.763
		c8.73-1.093,26.782-0.664,35.063,19.231c0.526,1.265,1.472,2.243,2.619,2.825l15.362-38.413
		C171.241,417.877,170.441,417.415,155.242,408.64z"/>
	<path style="fill:#D0E8FE;" d="M224.529,412.375l-76.668-44.264c-7.988-4.612-18.202-1.875-22.814,6.113l0,0
		c-4.612,7.988-1.875,18.202,6.113,22.814l76.668,44.264c7.988,4.612,18.202,1.875,22.814-6.113v0
		C235.254,427.201,232.517,416.987,224.529,412.375z"/>
	<path style="fill:#91D1F9;" d="M169.65,399.976L169.65,399.976c3.789-6.563,11.087-9.822,18.155-8.803l-39.945-23.062
		c-7.988-4.612-18.202-1.875-22.814,6.113l0,0c-4.612,7.988-1.875,18.202,6.113,22.814l39.944,23.062
		C166.688,414.488,165.862,406.539,169.65,399.976z"/>
	<path style="fill:#EB5793;" d="M335.07,461.817l-29.38-115.825l-41.741,72.297c-2.217,3.84-5.872,6.349-9.9,7.276l67.059,65.674
		c3.004,2.942,7.976,2.261,10.079-1.381C336.085,481.374,337.478,471.313,335.07,461.817z"/>
	<path style="fill:#E7387F;" d="M305.689,345.992l-41.741,72.297c-2.217,3.84-5.871,6.349-9.9,7.276l28.606,28.015
		c-0.998-6.537,3.409-12.862,3.409-12.862s11.027-22,20.777-37.25c4.345-6.796,8.241-8.674,11.228-8.674L305.689,345.992z"/>
	<path style="fill:#EB5793;" d="M50.586,296.631l114.998-32.468l-41.741,72.297c-2.217,3.84-2.562,8.26-1.351,12.212l-90.405-25.238
		c-4.05-1.131-5.946-5.777-3.844-9.419C33.141,305.53,41.158,299.293,50.586,296.631z"/>
	<path style="fill:#E7387F;" d="M165.584,264.163l-53.69,15.159c1.852,1.74,4.863,6.658-1.091,17.991
		c-7.909,15.052-16.583,34.442-16.583,34.442s-1.801,6.47-9.096,6.485l37.368,10.432c-1.211-3.952-0.866-8.371,1.351-12.212
		L165.584,264.163z"/>
	<path style="fill:#D0E8FE;" d="M326.399,281.441l-17.877-10.321l-76.967,133.312c-2.81,4.868-8.718,6.815-13.794,4.817
		c0.512,0.39,1.043,0.761,1.615,1.091l24.453,14.118c7.336,4.235,16.804,1.699,21.039-5.637l67.169-116.34
		C336.272,295.144,333.735,285.677,326.399,281.441z"/>
	<path style="fill:#A9D8FC;" d="M150.929,356.942l76.967-133.311l-18.433-10.642c-7.336-4.236-16.804-1.699-21.039,5.637
		l-67.169,116.34c-4.235,7.336-1.699,16.804,5.637,21.039l24.454,14.118c0.667,0.385,1.357,0.695,2.054,0.97
		C149.335,367.66,148.175,361.713,150.929,356.942z"/>
	<g>
		<path style="fill:#A9D8FC;" d="M317.491,327.675l-31.215-18.022c-4.604-2.658-6.182-8.545-3.523-13.149
			c2.658-4.604,8.545-6.182,13.149-3.523l31.215,18.022c4.604,2.658,6.182,8.545,3.523,13.149
			C327.974,328.77,322.081,330.326,317.491,327.675z"/>
	</g>
	<g>
		<path style="fill:#91D1F9;" d="M205.65,262.164l-31.771-18.343c-4.604-2.658-6.182-8.545-3.523-13.149
			c2.658-4.604,8.545-6.182,13.15-3.523l31.771,18.343c4.604,2.658,6.182,8.545,3.523,13.149
			C216.133,263.259,210.24,264.815,205.65,262.164z"/>
	</g>
	<path style="fill:#E6F4FF;" d="M269.984,146.287L148.362,356.942c-3.095,5.36-1.258,12.214,4.102,15.308l32.533,18.783
		l32.533,18.783c5.36,3.095,12.214,1.258,15.308-4.102L354.46,195.059L269.984,146.287z"/>
	<path style="fill:#D0E8FE;" d="M189.608,377.219l120.09-208.003l-39.714-22.929L148.363,356.942
		c-3.095,5.36-1.258,12.214,4.102,15.308l32.533,18.783l4.625,2.67C186.778,388.771,186.556,382.505,189.608,377.219z"/>
	<path style="fill:#EB5793;" d="M223.284,292.6l-48.115,83.337c-4.612,7.988-1.875,18.202,6.113,22.814h0
		c7.988,4.612,18.202,1.875,22.814-6.113l48.115-83.337c4.612-7.988,1.875-18.202-6.113-22.814h0
		C238.11,281.875,227.896,284.612,223.284,292.6z"/>
	<path style="fill:#E7387F;" d="M207.09,354.624L207.09,354.624c-6.528-3.769-9.908-10.874-9.27-17.918l-22.65,39.231
		c-4.612,7.988-1.875,18.202,6.113,22.814l0,0c7.988,4.612,18.202,1.875,22.814-6.113l22.068-38.222
		C220.511,357.839,213.217,358.161,207.09,354.624z"/>
	<g>
		<path style="fill:#F9DF5F;" d="M354.452,204.687c-1.633,0-3.288-0.416-4.804-1.291l-84.476-48.772
			c-4.604-2.658-6.182-8.545-3.523-13.149c2.658-4.605,8.544-6.182,13.15-3.523l84.476,48.772c4.604,2.658,6.182,8.545,3.523,13.149
			C361.014,202.96,357.778,204.687,354.452,204.687z"/>
	</g>
	<path style="fill:#F6D100;" d="M304.366,165.872c1.936-3.354,5.297-5.362,8.876-5.726l-38.444-22.196
		c-4.605-2.659-10.491-1.081-13.149,3.523c-2.658,4.604-1.081,10.491,3.523,13.149l39.042,22.541
		C302.372,173.744,302.281,169.483,304.366,165.872z"/>
	
		<ellipse transform="matrix(0.5 -0.866 0.866 0.5 -50.2551 355.4086)" style="fill:#3D4EC6;" cx="282.665" cy="221.226" rx="24.226" ry="24.226"/>
	<path style="fill:#3342AE;" d="M306.577,217.352c-0.35,1.847-0.992,3.669-1.985,5.389c-4.739,8.207-15.233,11.02-23.441,6.281
		c-8.207-4.739-11.019-15.233-6.281-23.441c2.6-4.504,6.937-7.37,11.675-8.268c-9.645-1.563-19.685,2.837-24.86,11.801
		c-6.69,11.587-2.72,26.403,8.867,33.093c11.587,6.69,26.403,2.72,33.093-8.867C306.549,228.309,307.442,222.67,306.577,217.352z"/>
</g>
<g>
</g>
<g>
</g>
<g>
</g>
<g>
</g>
<g>
</g>
<g>
</g>
<g>
</g>
<g>
</g>
<g>
</g>
<g>
</g>
<g>
</g>
<g>
</g>
<g>
</g>
<g>
</g>
<g>
</g>
</svg>
