<?xml version="1.0" encoding="iso-8859-1"?>
<!-- Generator: Adobe Illustrator 21.0.0, SVG Export Plug-In . SVG Version: 6.00 Build 0)  -->
<svg version="1.1" id="Capa_1" xmlns="http://www.w3.org/2000/svg" xmlns:xlink="http://www.w3.org/1999/xlink" x="0px" y="0px"
	 viewBox="0 0 512 512" style="enable-background:new 0 0 512 512;" xml:space="preserve">
<g>
	<path style="fill:#3342AE;" d="M245.001,21.999C109.691,21.999,0,131.69,0,267c0,22.083,2.939,43.476,8.417,63.829h0l39.996,82.401
		h0C93.074,473.174,164.501,512,245.001,512C380.311,512,490.001,402.31,490.001,267S380.311,21.999,245.001,21.999z"/>
	<path style="fill:#8C96DD;" d="M510.819,203.061c-6.865-25.622-41.948-40.045-101.457-41.709c-18.789-0.526-39.3,0.26-61.02,2.28
		c0.657-7.072,1.2-14.039,1.596-20.858c0.272-4.688-3.308-8.708-7.995-8.98c-4.711-0.283-8.708,3.307-8.98,7.995
		c-0.448,7.717-1.087,15.629-1.879,23.68c-22.18,2.645-45.424,6.494-69.24,11.477c-18.139-16.229-36.351-31.19-54.244-44.574
		c35.135-77.438,73.687-120.996,96.938-114.766c3.776,1.012,7.165,3.32,10.36,7.057c3.05,3.567,8.417,3.989,11.987,0.936
		c3.569-3.052,3.989-8.418,0.937-11.987c-5.426-6.345-11.779-10.527-18.882-12.43c-25.625-6.867-55.655,16.306-86.85,67.009
		c-9.846,16.003-19.417,34.151-28.523,53.959c-17.791-12.601-35.153-23.531-51.682-32.468
		C89.517,61.368,51.925,56.319,33.166,75.074c-18.755,18.757-13.705,56.351,14.607,108.718c8.933,16.522,19.858,33.877,32.453,51.66
		c-31.81,14.607-59.073,30.289-79.78,46.151c0.401,6.813,1.081,13.55,2.027,20.202c20.724-17.63,51.345-35.62,88.043-52.23
		c13.372,17.871,28.315,36.06,44.523,54.176c-4.985,23.826-8.836,47.08-11.48,69.27c-21.235,2.091-41.292,2.983-59.661,2.603
		c-4.672-0.117-8.578,3.629-8.676,8.324c-0.097,4.694,3.629,8.579,8.324,8.676c2.865,0.06,5.768,0.089,8.71,0.089
		c15.537,0,32.119-0.832,49.468-2.446c-2.018,21.712-2.804,42.217-2.278,61.003c0.272,9.74,0.893,18.813,1.842,27.227
		c6.023,3.531,12.208,6.816,18.545,9.833c-4.228-25.298-4.799-59.451-0.837-99.9c22.202-2.647,45.463-6.493,69.276-11.474
		c18.089,16.164,36.328,31.144,54.246,44.554c-9.242,20.394-18.977,39.009-28.998,55.296c-7.887,12.818-15.745,23.788-23.337,32.718
		c6.661,0.948,13.408,1.629,20.23,2.03c5.807-7.615,11.677-16.228,17.59-25.838c9.851-16.012,19.427-34.169,28.537-53.989
		c13.317,9.443,26.383,17.949,38.995,25.349c27.065,15.881,62.507,32.825,90.504,32.825c6.176,0,11.99-0.825,17.272-2.667
		c4.434-1.546,6.774-6.394,5.229-10.827c-1.546-4.434-6.393-6.774-10.828-5.228c-17.757,6.192-51.86-4.293-93.572-28.768
		c-13.085-7.678-26.686-16.596-40.562-26.547c8.8-20.531,17.088-42.585,24.679-65.7c23.116-7.592,45.17-15.88,65.701-24.68
		c9.69,13.51,18.398,26.758,25.932,39.517c2.389,4.043,7.602,5.386,11.644,2.998c4.043-2.388,5.386-7.601,2.998-11.644
		c-7.246-12.27-15.539-24.97-24.713-37.907c19.821-9.111,37.979-18.688,53.992-28.539
		C494.514,258.715,517.685,228.683,510.819,203.061z M329.143,182.826c-2.096,16.785-4.87,34.121-8.307,51.812
		c-6.952-7.427-14.086-14.804-21.377-22.095c-7.316-7.316-14.693-14.448-22.099-21.389
		C295.089,187.705,312.423,184.918,329.143,182.826z M294.753,336.67c-13.014,4.131-26.533,8.096-40.531,11.846
		c-13.776,3.691-27.479,7.023-41.017,9.993c-10.274-9.365-20.487-19.11-30.545-29.168c-10.247-10.247-19.973-20.44-29.177-30.524
		c2.93-13.343,6.248-27.032,10.001-41.039c3.748-13.986,7.709-27.494,11.836-40.497c13.237-4.222,26.789-8.203,40.552-11.89
		c13.793-3.696,27.502-7.031,41.037-10.002c10.084,9.205,20.278,18.93,30.525,29.178c10.055,10.055,19.802,20.268,29.169,30.546
		c-2.973,13.555-6.307,27.257-9.994,41.016C302.913,309.922,298.947,323.462,294.753,336.67z M241.314,181.491
		c-9.889,2.308-19.846,4.797-29.844,7.476c-10.012,2.683-19.877,5.508-29.583,8.448c5.994-17.414,12.27-33.794,18.708-49.038
		C213.793,158.36,227.417,169.407,241.314,181.491z M45.191,87.098c17.022-17.025,72.189,1.422,141.335,50.92
		c-8.803,20.536-17.094,42.597-24.689,65.72c-23.215,7.62-45.283,15.914-65.743,24.673C46.609,159.276,28.168,104.12,45.191,87.098z
		 M106.528,242.58c15.499-6.54,31.901-12.815,48.956-18.71c-2.937,9.693-5.752,19.536-8.424,29.507
		c-2.679,9.998-5.168,19.955-7.476,29.844C127.524,269.351,116.495,255.753,106.528,242.58z M140.93,371.076
		c2.046-16.422,4.793-33.737,8.309-51.818c6.943,7.409,14.077,14.788,21.395,22.107c7.295,7.294,14.673,14.429,22.099,21.381
		C175.008,366.192,157.662,368.984,140.93,371.076z M269.519,405.5c-13.454-10.189-27.088-21.275-40.695-33.093
		c9.878-2.305,19.822-4.793,29.799-7.466c9.994-2.678,19.858-5.5,29.571-8.444C282.319,373.574,276.067,389.976,269.519,405.5z
		 M314.586,330.114c2.945-9.718,5.768-19.586,8.447-29.583c2.672-9.97,5.157-19.913,7.464-29.798
		c11.815,13.603,22.9,27.237,33.089,40.69C348.354,317.855,331.986,324.125,314.586,330.114z M379.593,304.419
		c-13.411-17.918-28.388-36.158-44.547-54.241c4.968-23.756,8.819-47.017,11.472-69.296c22.276-2.192,43.259-3.068,62.37-2.533
		c49.025,1.371,80.99,12.255,85.507,29.113C500.627,230.721,457.055,269.281,379.593,304.419z"/>
	
		<ellipse transform="matrix(0.5 -0.866 0.866 0.5 111.2244 320.515)" style="fill:#F6D100;" cx="333.187" cy="63.934" rx="46.318" ry="46.318"/>
	
		<ellipse transform="matrix(0.5 -0.866 0.866 0.5 111.2244 320.515)" style="fill:#F2BA00;" cx="333.187" cy="63.934" rx="46.318" ry="46.318"/>
	<path style="fill:#EEA200;" d="M340.027,89.13c-22.154-12.79-29.744-41.118-16.954-63.272c1.7-2.944,3.681-5.623,5.878-8.038
		c-14.457,1.34-28.067,9.425-35.878,22.956c-12.79,22.154-5.2,50.481,16.954,63.272c19.21,11.091,43.054,6.849,57.393-8.915
		C358.207,95.986,348.65,94.109,340.027,89.13z"/>
	<path style="fill:#F6D100;" d="M293.074,40.775c-4.52,7.829-6.483,16.428-6.169,24.841c7.995-6.5,19.205-11.773,33.884-10.12
		c18.929,2.132,33.864-10.255,42.087-27.106c-2.012-1.677-4.184-3.214-6.529-4.568C334.192,11.031,305.864,18.621,293.074,40.775z"
		/>
	<path style="fill:#F2BA00;" d="M286.904,65.613c0,0.001,0,0.002,0,0.003c7.348-5.974,17.419-10.895,30.395-10.372
		c-1.339-9.819,0.437-20.139,5.775-29.385c1.7-2.944,3.681-5.623,5.878-8.038l-0.001,0
		C304.319,20.104,285.995,41.197,286.904,65.613z"/>
	<path style="fill:#F6D100;" d="M336.521,91.653c-2.349,7.318-5.385,13.356-8.605,18.301c17.768,2.026,35.872-6.386,45.384-22.861
		c3.827-6.63,5.816-13.812,6.15-20.965C358.696,77.875,343.85,68.822,336.521,91.653z"/>
	<path style="fill:#F2BA00;" d="M340.027,89.13c-0.712-0.411-1.408-0.84-2.09-1.282c-0.499,1.161-0.972,2.422-1.416,3.806
		c-2.349,7.317-5.384,13.354-8.604,18.299c14.757,1.667,29.491-3.813,39.503-14.82C358.207,95.986,348.65,94.109,340.027,89.13z"/>
	<path style="fill:#F2BA00;" d="M291.337,83.771c3.887,8.22,10.22,15.386,18.691,20.276c0.035,0.02,0.07,0.037,0.104,0.057
		c8.743-13.314,16.633-29.055,4.913-28.865C306.112,75.383,297.821,79.364,291.337,83.771z"/>
	
		<ellipse transform="matrix(0.5 -0.866 0.866 0.5 -132.9194 568.3842)" style="fill:#F6D100;" cx="425.775" cy="399.304" rx="46.318" ry="46.318"/>
	
		<ellipse transform="matrix(0.5 -0.866 0.866 0.5 -132.9194 568.3842)" style="fill:#F2BA00;" cx="425.775" cy="399.304" rx="46.318" ry="46.318"/>
	<path style="fill:#EEA200;" d="M432.616,424.499c-22.154-12.791-29.744-41.118-16.954-63.272c1.7-2.944,3.681-5.622,5.879-8.039
		c-14.457,1.34-28.067,9.425-35.879,22.956c-12.79,22.154-5.2,50.481,16.954,63.272c19.21,11.091,43.055,6.849,57.393-8.915
		C450.796,431.355,441.239,429.478,432.616,424.499z"/>
	<path style="fill:#F6D100;" d="M385.662,376.144c-4.52,7.829-6.483,16.428-6.17,24.841c7.995-6.5,19.205-11.773,33.884-10.12
		c18.929,2.132,33.864-10.255,42.087-27.106c-2.012-1.677-4.184-3.214-6.529-4.568C426.781,346.4,398.453,353.991,385.662,376.144z"
		/>
	<path style="fill:#F2BA00;" d="M379.493,400.982c0,0.001,0,0.002,0,0.003c7.348-5.974,17.419-10.895,30.395-10.372
		c-1.339-9.819,0.436-20.139,5.775-29.385c1.7-2.944,3.681-5.622,5.879-8.039h0C396.837,355.479,378.591,376.623,379.493,400.982z"
		/>
	<path style="fill:#F6D100;" d="M429.11,427.023c-2.349,7.318-5.385,13.357-8.605,18.301c17.768,2.026,35.872-6.386,45.384-22.861
		c3.828-6.63,5.817-13.812,6.15-20.965C451.285,413.244,436.439,404.192,429.11,427.023z"/>
	<path style="fill:#F2BA00;" d="M432.616,424.499c-0.712-0.411-1.408-0.84-2.09-1.283c-0.499,1.161-0.972,2.422-1.416,3.806
		c-2.349,7.317-5.384,13.354-8.604,18.299c14.905,1.681,29.593-3.924,39.504-14.82C450.796,431.355,441.239,429.478,432.616,424.499
		z"/>
	<path style="fill:#F2BA00;" d="M383.925,419.14c3.887,8.22,10.22,15.386,18.691,20.276c0.034,0.02,0.07,0.037,0.104,0.057
		c8.743-13.314,16.633-29.055,4.913-28.865C398.701,410.753,390.409,414.733,383.925,419.14z"/>
	<path style="fill:#F6D100;" d="M45.337,334.935c-11.652-6.728-25.011-7.809-36.92-4.107c8.118,30.164,21.838,58.03,39.995,82.401
		c5.522-3.788,10.307-8.836,13.879-15.022C75.081,376.053,67.491,347.726,45.337,334.935z"/>
	<circle style="fill:#EB5793;" cx="235.024" cy="276.954" r="60.252"/>
	<path style="fill:#5766CE;" d="M423.311,487.236c4.434-1.546,6.774-6.394,5.229-10.827c-1.546-4.434-6.393-6.774-10.828-5.228
		c-17.757,6.192-51.86-4.293-93.572-28.768c-13.085-7.678-26.686-16.596-40.562-26.547c3.206-7.48,6.342-15.166,9.403-23.028
		c-13.577,4.61-14.908-6.291-15.037-8.24c-2.748,7.121-5.556,14.1-8.425,20.902c-13.454-10.189-27.088-21.275-40.695-33.093
		c9.878-2.305,19.822-4.793,29.799-7.466c-13.473-6.527-4.402-16.424-4.402-16.424c-13.776,3.691-27.479,7.023-41.017,9.993
		c-10.274-9.365-20.487-19.11-30.545-29.168c-10.247-10.247-19.973-20.44-29.177-30.524c2.615-11.906,5.558-24.103,8.824-36.54
		c-15.321,4.708-15.247-8.899-15.247-8.899c-2.679,9.998-5.168,19.955-7.476,29.844c-12.06-13.87-23.089-27.469-33.056-40.642
		c8.65-3.65,17.589-7.213,26.757-10.678c-12.818-3.435-8.637-12.793-7.027-15.616c-10.38,3.923-20.458,7.969-30.164,12.125
		C46.609,159.276,28.168,104.12,45.191,87.098c1.468-1.468,3.238-2.653,5.258-3.597c-11.949-2.487-11.122-9.961-9.533-14.25
		c-2.86,1.585-5.448,3.523-7.749,5.823c-18.755,18.757-13.705,56.351,14.607,108.718c8.933,16.522,19.858,33.877,32.453,51.66
		c-31.81,14.607-59.073,30.289-79.78,46.151c0.401,6.813,1.081,13.55,2.027,20.202c20.724-17.63,51.345-35.62,88.043-52.23
		c13.372,17.871,28.315,36.06,44.523,54.176c-4.985,23.826-8.836,47.08-11.48,69.27c-21.235,2.091-41.292,2.983-59.661,2.603
		c-4.672-0.117-8.578,3.629-8.676,8.324c-0.097,4.694,3.629,8.579,8.324,8.676c2.865,0.06,5.768,0.089,8.71,0.089
		c15.537,0,32.119-0.832,49.468-2.446c-2.018,21.712-2.804,42.217-2.278,61.003c0.272,9.74,0.893,18.813,1.842,27.227
		c6.023,3.531,12.208,6.816,18.545,9.833c-4.228-25.298-4.799-59.451-0.837-99.9c22.202-2.647,45.463-6.493,69.276-11.474
		c18.089,16.164,36.328,31.144,54.246,44.554c-9.242,20.394-18.977,39.009-28.998,55.296c-7.887,12.818-15.745,23.788-23.337,32.718
		c6.661,0.948,13.408,1.629,20.23,2.03c5.807-7.615,11.677-16.228,17.59-25.838c9.851-16.012,19.427-34.169,28.537-53.989
		c13.317,9.443,26.383,17.949,38.995,25.349c27.065,15.881,62.507,32.825,90.504,32.825
		C412.216,489.903,418.03,489.078,423.311,487.236z M140.93,371.076c2.046-16.422,4.793-33.737,8.309-51.818
		c6.943,7.409,14.077,14.788,21.395,22.107c7.295,7.294,14.673,14.429,22.099,21.381
		C175.008,366.192,157.662,368.984,140.93,371.076z"/>
	<path style="fill:#F2BA00;" d="M45.337,334.935c-11.652-6.728-25.011-7.809-36.92-4.107c8.118,30.164,21.838,58.03,39.995,82.401
		c5.522-3.788,10.307-8.836,13.879-15.022C75.081,376.053,67.491,347.726,45.337,334.935z"/>
	<path style="fill:#F6D100;" d="M8.417,330.829c3.278,12.18,7.468,23.984,12.498,35.335c13.644-2.71,24.418-13.271,30.951-26.66
		c-2.012-1.677-4.184-3.214-6.529-4.568C33.684,328.208,20.326,327.126,8.417,330.829z"/>
	<path style="fill:#F6D100;" d="M48.412,413.23c5.522-3.787,10.306-8.836,13.878-15.023c3.827-6.63,5.817-13.812,6.15-20.965
		c-15.09,8.541-27.053,6.096-35.278,12.897C37.82,398.133,42.909,405.844,48.412,413.23z"/>
	<path style="fill:#E7387F;" d="M263.55,330.033c-16.27-5.607-14.909-17.676-12.893-23.956c0.759-2.365-0.238-4.954-2.358-6.247
		c-23.361-14.255-27.297-36.086-27.878-45.287c-0.153-2.421-1.884-4.456-4.253-4.978c-20.132-4.432-11.776-24.228-11.626-24.578
		c-17.808,10.469-29.769,29.815-29.769,51.966c0,33.276,26.976,60.252,60.252,60.252
		C245.345,337.206,255.057,334.607,263.55,330.033z"/>
	<circle style="fill:#E7387F;" cx="235.047" cy="276.954" r="30.5"/>
	<path style="fill:#E20A62;" d="M250.721,303.119c-0.347-1.335-1.186-2.534-2.423-3.289c-23.361-14.255-27.297-36.086-27.878-45.287
		c-0.084-1.332-0.658-2.536-1.542-3.447c-8.605,5.392-14.331,14.954-14.331,25.858c0,16.845,13.655,30.5,30.499,30.5
		C240.779,307.454,246.14,305.869,250.721,303.119z"/>
</g>
<g>
</g>
<g>
</g>
<g>
</g>
<g>
</g>
<g>
</g>
<g>
</g>
<g>
</g>
<g>
</g>
<g>
</g>
<g>
</g>
<g>
</g>
<g>
</g>
<g>
</g>
<g>
</g>
<g>
</g>
</svg>
