<?xml version="1.0" encoding="iso-8859-1"?>
<!-- Generator: Adobe Illustrator 21.0.0, SVG Export Plug-In . SVG Version: 6.00 Build 0)  -->
<svg version="1.1" id="Capa_1" xmlns="http://www.w3.org/2000/svg" xmlns:xlink="http://www.w3.org/1999/xlink" x="0px" y="0px"
	 viewBox="0 0 512 512" style="enable-background:new 0 0 512 512;" xml:space="preserve">
<g>
	<circle style="fill:#3342AE;" cx="266.999" cy="256" r="245.001"/>
	<path style="fill:#8C96DD;" d="M490.227,203.549c-0.027-3.263-1.891-6.181-4.466-7.667L273.9,73.564
		c-0.092-0.053-0.19-0.09-0.283-0.139c-3.86-2.42-8.739-1.554-11.576,1.825L53.097,195.882c-2.689,1.552-4.472,4.513-4.471,7.744
		v163.557c5.269,10.328,11.255,20.229,17.882,29.645V236.993l50.986,88.311l-45.566,78.923c3.858,5.069,7.909,9.983,12.142,14.731
		l43.748-75.773l55.26,95.713l-78.998,0.065c7.16,6.381,14.696,12.348,22.573,17.863l66.744-0.055l22.437,38.863
		c7.479,1.589,15.083,2.833,22.797,3.723l-24.597-42.603l110.842-0.092l-24.268,42.034c7.837-1.075,15.556-2.516,23.139-4.315
		l21.787-37.736l62.147-0.051c7.867-5.528,15.392-11.508,22.541-17.9l-74.359,0.061l54.481-94.363l41.636,72.254
		c4.195-4.826,8.199-9.822,12.012-14.969l-43.319-75.174l51.679-89.51v152.658c6.743-10.34,12.737-21.213,17.882-32.556v-153.47
		C490.232,203.6,490.227,203.575,490.227,203.549z M268.868,98.881l55.207,95.804H213.556L268.868,98.881z M192.908,194.685H90.935
		l152.96-88.312L192.908,194.685z M293.253,105.386l154.671,89.299H344.712L293.253,105.386z M73.053,212.566h109.531
		l-54.765,94.856L73.053,212.566z M335.205,438.772l-131.49,0.108l-65.574-113.577l65.09-112.738h131.147l65.651,113.928
		L335.205,438.772z M410.358,308.604l-55.342-96.038h110.789L410.358,308.604z"/>
	<path style="fill:#5766CE;" d="M335.735,437.854l-0.53,0.918l-131.49,0.108l-65.574-113.577l50.847-88.069
		c-12.26,2.91-14.867-5.627-15.413-9.066l-45.757,79.254l-54.765-94.856h90.71c-9.927-9.927-3.339-16.09-0.844-17.881H90.935
		l53.139-30.68c-11.324-2.148-10.047-11.699-9.094-15.398l-81.882,47.275c-2.689,1.552-4.472,4.513-4.471,7.744v163.557
		c5.269,10.328,11.255,20.229,17.882,29.645V236.993l50.986,88.311l-45.566,78.923c3.858,5.069,7.909,9.983,12.142,14.731
		l43.748-75.773l55.26,95.713l-78.998,0.065c7.16,6.381,14.696,12.348,22.573,17.863l66.744-0.055l22.437,38.863
		c7.479,1.589,15.083,2.833,22.797,3.723l-24.597-42.603l110.842-0.092l-24.268,42.034c7.837-1.075,15.556-2.516,23.139-4.315
		l21.787-37.736l3.896-0.003L335.735,437.854z"/>
	
		<ellipse transform="matrix(0.5 -0.866 0.866 0.5 64.301 273.346)" style="fill:#31A7ED;" cx="268.875" cy="80.987" rx="37" ry="37"/>
	<path style="fill:#1296D8;" d="M300.804,62.299c1.473,6.088,0.706,12.729-2.673,18.581c-6.982,12.093-22.445,16.236-34.538,9.255
		c-12.093-6.982-16.236-22.446-9.254-34.539c3.379-5.853,8.747-9.836,14.755-11.605c-12.852-0.064-25.377,6.568-32.263,18.495
		c-10.217,17.697-4.154,40.326,13.543,50.543c17.697,10.217,40.326,4.154,50.544-13.543
		C307.804,87.56,307.286,73.397,300.804,62.299z"/>
	
		<ellipse transform="matrix(0.5 -0.866 0.866 0.5 -217.951 518.6228)" style="fill:#F6D100;" cx="340.165" cy="448.063" rx="37" ry="37"/>
	<path style="fill:#F2BA00;" d="M371.023,427.648c1.9,6.206,1.322,13.153-2.179,19.217c-6.693,11.592-21.516,15.564-33.108,8.871
		c-11.592-6.693-15.564-21.516-8.871-33.108c3.501-6.064,9.228-10.038,15.553-11.496c-13.55-0.815-27.046,5.876-34.295,18.431
		c-10.217,17.697-4.154,40.326,13.543,50.543c17.697,10.217,40.326,4.154,50.543-13.543
		C379.457,454.008,378.504,438.974,371.023,427.648z"/>
	
		<ellipse transform="matrix(0.5 -0.866 0.866 0.5 64.3016 518.624)" style="fill:#F6D100;" cx="481.291" cy="203.625" rx="30.704" ry="30.704"/>
	<path style="fill:#F2BA00;" d="M510.504,205.792c-6.634,11.49-21.325,15.426-32.815,8.793c-11.49-6.633-15.426-21.325-8.793-32.814
		c2.116-3.666,5.055-6.559,8.446-8.589c-9.154,1.194-17.67,6.48-22.642,15.092c-8.479,14.685-3.447,33.463,11.238,41.942
		c14.685,8.479,33.463,3.447,41.942-11.238c2.953-5.115,4.263-10.727,4.101-16.227C511.565,203.783,511.077,204.8,510.504,205.792z"
		/>
	
		<ellipse transform="matrix(0.5 -0.866 0.866 0.5 -217.9512 273.3474)" style="fill:#31A7ED;" cx="127.749" cy="325.424" rx="26.957" ry="26.957"/>
	<path style="fill:#1296D8;" d="M151.122,311.999c0.878,4.213,0.289,8.748-2.032,12.768c-5.013,8.683-16.115,11.657-24.798,6.645
		c-8.683-5.013-11.658-16.115-6.645-24.798c2.321-4.02,5.954-6.798,10.041-8.144c-9.286,0.03-18.307,4.854-23.285,13.475
		c-7.444,12.893-3.026,29.38,9.867,36.824c12.893,7.444,29.38,3.026,36.824-9.867C156.072,330.281,155.739,320.056,151.122,311.999z
		"/>
	
		<ellipse transform="matrix(0.5 -0.866 0.866 0.5 -6.4351 396.3042)" style="fill:#EB5793;" cx="339.992" cy="203.725" rx="33.736" ry="33.736"/>
	<path style="fill:#E7387F;" d="M372.578,194.994c-0.491,2.906-1.497,5.776-3.057,8.478c-7.027,12.171-22.59,16.341-34.761,9.314
		c-12.171-7.027-16.341-22.59-9.314-34.761c1.56-2.702,3.543-5.007,5.814-6.886c-8.339,2.235-15.826,7.651-20.484,15.718
		c-9.316,16.135-3.787,36.768,12.348,46.084c16.135,9.316,36.768,3.787,46.084-12.348
		C373.866,212.525,374.813,203.334,372.578,194.994z"/>
	
		<ellipse transform="matrix(0.5 -0.866 0.866 0.5 -147.5611 151.6673)" style="fill:#9ED369;" cx="57.567" cy="203.625" rx="57.558" ry="57.558"/>
	<path style="fill:#82CD64;" d="M112.027,185.044c0.543,8.15-1.239,16.545-5.63,24.15c-11.792,20.425-37.909,27.423-58.334,15.63
		c-20.425-11.792-27.423-37.909-15.631-58.334c6.247-10.819,16.513-17.869,27.823-20.356c-20.803-0.955-41.404,9.432-52.535,28.712
		c-15.894,27.529-6.462,62.731,21.068,78.625c27.529,15.894,62.731,6.462,78.625-21.067
		C116.054,217.438,117.195,200.21,112.027,185.044z"/>
	<g>
		<path style="fill:#31A7ED;" d="M331.843,306.434c-6.672,0-11.921-5.457-11.921-11.921c0-7.52,6.97-13.196,14.258-11.683
			c5.4,1.028,9.585,5.888,9.585,11.683C343.764,301.068,338.451,306.434,331.843,306.434z"/>
	</g>
	<g>
		<path style="fill:#F6D100;" d="M286.817,326.938c-4.943,0-8.941-4.014-8.941-8.941c0-5.7,5.256-9.854,10.693-8.762
			c4.268,0.907,7.189,4.531,7.189,8.762C295.758,322.97,291.712,326.938,286.817,326.938z"/>
	</g>
	<g>
		<path style="fill:#F6D100;" d="M449.003,144.2c-5.013,0-8.952-4.084-8.952-8.941c0-5.573,5.115-9.855,10.693-8.762
			c4.324,0.899,7.189,4.608,7.189,8.762C457.932,140.212,453.927,144.2,449.003,144.2z"/>
	</g>
	<g>
		<path style="fill:#EB5793;" d="M267.434,415.011c-5.086,0-8.941-4.177-8.941-8.941c0-5.567,5.148-9.875,10.693-8.762
			c4.27,0.891,7.189,4.551,7.189,8.762C276.375,411.007,272.381,415.011,267.434,415.011z"/>
	</g>
</g>
<g>
</g>
<g>
</g>
<g>
</g>
<g>
</g>
<g>
</g>
<g>
</g>
<g>
</g>
<g>
</g>
<g>
</g>
<g>
</g>
<g>
</g>
<g>
</g>
<g>
</g>
<g>
</g>
<g>
</g>
</svg>
