<?xml version="1.0" encoding="iso-8859-1"?>
<!-- Generator: Adobe Illustrator 21.0.0, SVG Export Plug-In . SVG Version: 6.00 Build 0)  -->
<svg version="1.1" id="Capa_1" xmlns="http://www.w3.org/2000/svg" xmlns:xlink="http://www.w3.org/1999/xlink" x="0px" y="0px"
	 viewBox="0 0 512 512" style="enable-background:new 0 0 512 512;" xml:space="preserve">
<g>
	<path style="fill:#E7387F;" d="M448.032,419.145c33.157-41.793,52.969-94.653,52.969-152.146c0-135.31-109.691-245-245-245
		c-135.31,0-245.001,109.69-245.001,245c0,57.493,19.812,110.353,52.968,152.146H448.032z"/>
	<path style="fill:#F9DF5F;" d="M285.017,66.081c-6.797,5.174-19.408,17.46-10.724,32.495c7.08,12.258,21.473,10.852,31.17,8.126
		C294.727,95.417,287.738,81.227,285.017,66.081z"/>
	<g>
		<path style="fill:#EEA200;" d="M290.852,84.918c-0.351,5.823-5.171,10.441-11.083,10.441c-3.175,0-6.032-1.338-8.058-3.473
			c0.429,2.156,1.254,4.39,2.582,6.69c7.08,12.258,21.473,10.852,31.17,8.127C299.34,100.266,294.441,92.883,290.852,84.918z"/>
	</g>
	<path style="fill:#F9DF5F;" d="M218.741,66.081c-2.72,15.147-9.709,29.337-20.446,40.622c9.696,2.725,24.09,4.131,31.17-8.126
		C238.149,83.541,225.538,71.254,218.741,66.081z"/>
	<g>
		<path style="fill:#EEA200;" d="M224.085,95.359c-5.978,0-10.84-4.722-11.093-10.637c-3.596,8.039-8.523,15.492-14.697,21.981
			c9.696,2.725,24.09,4.131,31.17-8.127c1.3-2.25,2.114-4.438,2.551-6.55C229.998,94.081,227.192,95.359,224.085,95.359z"/>
	</g>
	<path style="fill:#D0E8FE;" d="M306.531,15.294c20.592-3.274,63.294-7.96,110.965-0.876c10.555,1.568,18.319,10.721,18.319,21.392
		v23.165c0,38.134-30.146,69.915-68.268,70.857c-0.945,0.023-1.903,0.035-2.875,0.035c-19.976,0-35.337-6.938-46.987-16.354
		c-22.816-18.442-33.116-48.31-27.677-77.139l1.154-6.118C292.621,22.524,298.762,16.53,306.531,15.294z"/>
	<path style="fill:#A9D8FC;" d="M385.338,117.65c-0.004-0.007-0.008-0.014-0.011-0.022c-0.581-1.23-1.61-2.236-2.955-2.748
		c-60.412-22.976-54.321-73.496-51.149-88.088c0.297-1.367,0.017-2.729-0.68-3.86h0c-0.101-0.123-0.665-1.141-1.906-1.88
		c-3.078-1.831-5.379-4.441-6.118-7.911c-6.216,0.697-11.606,1.457-15.986,2.154c-7.77,1.236-13.911,7.23-15.369,14.961
		l-1.154,6.118c-5.439,28.829,4.861,58.698,27.677,77.139c11.65,9.416,27.012,16.354,46.987,16.354c0.971,0,1.929-0.012,2.875-0.035
		c6.46-0.16,12.683-1.224,18.577-3.035c-0.458-2.006-0.541-4.203-0.305-6.267C385.926,119.592,385.774,118.586,385.338,117.65z"/>
	<path style="fill:#D0E8FE;" d="M197.227,15.294c-20.592-3.274-63.295-7.96-110.965-0.876C75.708,15.986,67.943,25.14,67.943,35.81
		v23.165c0,38.134,30.146,69.915,68.268,70.857c0.945,0.023,1.903,0.035,2.874,0.035c19.976,0,35.338-6.938,46.988-16.354
		c22.816-18.442,33.116-48.31,27.677-77.139l-1.154-6.118C211.138,22.524,204.997,16.53,197.227,15.294z"/>
	<path style="fill:#A9D8FC;" d="M160.807,112.773c-59.288-22.549-53.31-72.129-50.198-86.45c0.485-2.233-0.574-4.465-2.538-5.634
		c-3.973-2.364-5.625-5.344-6.109-8.21c-5.158,0.515-10.396,1.15-15.7,1.938C75.708,15.986,67.943,25.14,67.943,35.81v23.165
		c0,38.134,30.146,69.915,68.268,70.857c0.945,0.023,1.903,0.035,2.875,0.035c9.591,0,18.107-1.612,25.671-4.317
		c-0.806-2.539-0.801-5.159-0.565-7.232C164.467,115.907,163.076,113.636,160.807,112.773z"/>
	<path style="fill:#D0E8FE;" d="M391.768,357.673L391.768,357.673c0-17.437,9.127-32.836,22.832-41.687v-7.913H107.195
		c-9.92,0-18.036,8.116-18.036,18.036v63.127c0,9.92,8.116,18.036,18.036,18.036H414.6v-7.913
		C400.895,390.509,391.768,375.11,391.768,357.673z"/>
	<path style="fill:#A9D8FC;" d="M178.977,389.236v-63.127c0-9.92,8.116-18.036,18.036-18.036h-89.818
		c-9.92,0-18.036,8.116-18.036,18.036v63.127c0,9.92,8.117,18.036,18.036,18.036h89.818
		C187.093,407.272,178.977,399.156,178.977,389.236z"/>
	<path style="fill:#D0E8FE;" d="M420.444,179.812c0-9.814,4.894-18.535,12.356-23.861v-5.447H76.961
		c-9.92,0-18.036,8.116-18.036,18.036v22.546c0,9.92,8.117,18.036,18.036,18.036H432.8v-5.447
		C425.338,198.348,420.444,189.627,420.444,179.812z"/>
	<path style="fill:#A9D8FC;" d="M148.744,191.085V168.54c0-9.92,8.116-18.036,18.036-18.036H76.962
		c-9.92,0-18.036,8.116-18.036,18.036v22.546c0,9.92,8.117,18.036,18.036,18.036h89.818
		C156.86,209.121,148.744,201.005,148.744,191.085z"/>
	<path style="fill:#D0E8FE;" d="M391.693,229.077H90.125v3.592c9.095,4.99,15.297,14.663,15.297,25.716l0,0
		c0,11.054-6.202,20.727-15.297,25.717v3.592h301.568c9.92,0,18.036-8.116,18.036-18.036v-22.545
		C409.729,237.193,401.613,229.077,391.693,229.077z"/>
	<path style="fill:#A9D8FC;" d="M195.24,258.385c0-11.053-6.202-20.726-15.297-25.716v-3.592H90.125v3.592
		c9.095,4.99,15.297,14.663,15.297,25.716c0,11.054-6.202,20.727-15.297,25.717v3.592h89.818v-3.592
		C189.038,279.112,195.24,269.439,195.24,258.385z"/>
	<path style="fill:#D0E8FE;" d="M440.119,427.145H70.584c29.764,34.431,68.96,60.476,113.568,74.14h143.696
		c44.581-13.655,83.757-39.677,113.515-74.077C440.95,427.18,440.539,427.145,440.119,427.145z"/>
	<g>
		<path style="fill:#A9D8FC;" d="M179.025,483.779V444.65c0-9.625,7.873-17.501,17.497-17.505H70.584
			c29.764,34.431,68.96,60.476,113.568,74.14h12.378C186.902,501.285,179.025,493.407,179.025,483.779z"/>
	</g>
	<g>
		<path style="fill:#3D4EC6;" d="M310.95,121.846c-25.674-20.752-37.734-54.265-31.47-87.459l1.154-6.118
			c2.293-12.152,12.024-21.619,24.216-23.557c21.689-3.449,65.368-8.152,114.222-0.892c15.654,2.326,27.458,16.079,27.458,31.99
			v23.165c0,21.276-8.104,41.445-22.819,56.791C392.758,148.047,342.916,147.685,310.95,121.846z M308.214,25.876L308.214,25.876
			c-7.572,1.204-6.698,9.822-7.676,12.484c-7.677,40.685,20.783,81.896,66.745,80.761c31.879-0.788,57.816-27.769,57.816-60.145
			V35.81c0-5.375-3.946-10.016-9.178-10.793C380.639,19.774,342.362,20.446,308.214,25.876z"/>
	</g>
	<path style="fill:#3342AE;" d="M386.395,127.899L386.395,127.899c-0.722-2.274-0.854-4.924-0.575-7.369
		c0.107-0.938-0.045-1.944-0.482-2.88c-0.004-0.007-0.008-0.014-0.011-0.022c-0.266-0.562-0.635-1.069-1.075-1.512
		c-5.368,1.81-11.065,2.858-16.968,3.004c-45.963,1.135-74.422-40.076-66.745-80.761c0.978-2.662,0.104-11.28,7.676-12.484l0,0
		c7.298-1.16,14.792-2.089,22.397-2.804c-0.026-0.045-0.042-0.096-0.07-0.141h0c-0.101-0.123-0.665-1.141-1.906-1.88
		c-3.214-1.912-5.6-4.663-6.225-8.366c-0.902-5.341,2.194-10.292,2.194-10.292L324.29,2.17c-7.611,0.796-14.178,1.705-19.441,2.542
		c-12.191,1.939-21.923,11.405-24.216,23.557l-1.154,6.118c-6.264,33.195,5.796,66.707,31.47,87.46
		c22.862,18.479,54.864,23.919,82.563,13.715C389.414,133.783,387.346,130.898,386.395,127.899z"/>
	<g>
		<path style="fill:#3D4EC6;" d="M80.048,115.767c-30.2-31.496-21.204-67.078-22.82-79.957c0-15.911,11.805-29.664,27.459-31.99
			c48.853-7.259,92.533-2.556,114.222,0.893v0c12.192,1.939,21.923,11.405,24.216,23.557l1.154,6.118
			c6.263,33.196-5.797,66.708-31.47,87.459C160.939,147.603,111.104,148.157,80.048,115.767z M87.837,25.017
			c-5.233,0.778-9.179,5.418-9.179,10.793v23.165c0,52.875,61.484,77.884,100.679,46.204c19.529-15.784,28.681-41.388,23.883-66.82
			c-0.966-2.629-0.107-11.28-7.676-12.483v0C161.355,20.44,123.084,19.779,87.837,25.017z"/>
	</g>
	<path style="fill:#3342AE;" d="M80.048,115.767c25.224,26.307,62.835,30.882,93.148,17.872c-0.085-0.031-0.16-0.064-0.247-0.094
		c-8.647-2.993-9.293-10.521-8.757-15.227c0.152-1.336-0.221-2.62-0.958-3.654c-37.934,15.271-84.575-9.635-84.575-55.689V35.81
		c0-5.376,3.946-10.016,9.179-10.793c7.26-1.079,14.651-1.893,22.105-2.482c-0.455-0.738-1.087-1.379-1.871-1.845
		c-11.239-6.687-3.956-18.311-3.956-18.311l-1.089-0.773C97.02,2.169,90.896,2.897,84.687,3.819
		C69.033,6.146,57.228,19.898,57.228,35.81C58.843,48.689,49.848,84.271,80.048,115.767z"/>
	<path style="fill:#8C96DD;" d="M288.566,27.401c-21.544-11.621-51.511-11.678-73.108-0.145c-2.858,1.526-4.395,4.535-3.972,7.536
		l1.939,13.805c0.284,2.023,2.803,2.728,4.369,1.761c22.593-13.957,45.873-13.902,68.391,0.134c1.656,1.032,3.873,0.07,4.131-1.767
		l1.992-14.181C292.709,31.676,291.24,28.844,288.566,27.401z"/>
	<g>
		<path style="fill:#F2BA00;" d="M422.841,417.988H107.194c-15.853,0-28.751-12.898-28.751-28.751V326.11
			c0-15.853,12.898-28.751,28.751-28.751h315.647c5.917,0,10.715,4.797,10.715,10.715c0,5.918-4.798,10.715-10.715,10.715H107.194
			c-3.968,0-7.321,3.353-7.321,7.321v63.127c0,3.968,3.353,7.321,7.321,7.321h315.647c5.917,0,10.715,4.797,10.715,10.715
			S428.759,417.988,422.841,417.988z"/>
	</g>
	<path style="fill:#EEA200;" d="M173.781,407.272c0-5.918,4.798-10.715,10.715-10.715h-77.301c-3.968,0-7.321-3.353-7.321-7.321
		V326.11c0-3.968,3.353-7.321,7.321-7.321h77.301c-5.917,0-10.715-4.797-10.715-10.715c0-5.918,4.798-10.715,10.715-10.715h-77.301
		c-15.853,0-28.751,12.898-28.751,28.751v63.127c0,15.853,12.898,28.751,28.751,28.751h77.301
		C178.578,417.988,173.781,413.19,173.781,407.272z"/>
	<g>
		<path style="fill:#31A7ED;" d="M440.928,219.836H76.962c-15.854,0-28.752-12.898-28.752-28.751V168.54
			c0-15.854,12.898-28.751,28.752-28.751h363.966c5.917,0,10.715,4.797,10.715,10.715c0,5.918-4.798,10.715-10.715,10.715H76.962
			c-3.969,0-7.322,3.353-7.322,7.321v22.545c0,3.968,3.353,7.321,7.322,7.321h363.966c5.917,0,10.715,4.797,10.715,10.715
			C451.643,215.039,446.846,219.836,440.928,219.836z"/>
	</g>
	<path style="fill:#1296D8;" d="M141.56,209.121c0-5.918,4.798-10.715,10.715-10.715H76.962c-3.969,0-7.322-3.353-7.322-7.321
		V168.54c0-3.968,3.353-7.321,7.322-7.321h75.313c-5.917,0-10.715-4.797-10.715-10.715c0-5.918,4.798-10.715,10.715-10.715H76.962
		c-15.854,0-28.752,12.898-28.752,28.751v22.545c0,15.854,12.898,28.751,28.752,28.751h75.313
		C146.358,219.836,141.56,215.039,141.56,209.121z"/>
	<path style="fill:#09A858;" d="M440.119,416.43H61.852c5.781,7.5,11.987,14.655,18.582,21.43h351.133
		c6.177-6.346,12.021-13.018,17.487-20.002C446.239,416.935,443.238,416.43,440.119,416.43z"/>
	<path style="fill:#008E4A;" d="M184.117,416.43H61.852c5.781,7.5,11.987,14.655,18.582,21.43H184.31
		c-2.955,0-5.767-1.24-7.787-3.396C169.808,427.296,175.028,416.43,184.117,416.43z"/>
	<path style="fill:#09A858;" d="M155.659,490.57C186.284,504.336,220.246,512,256,512c35.754,0,69.716-7.664,100.341-21.43H155.659z
		"/>
	<g>
		<path style="fill:#008E4A;" d="M186.932,490.57h-31.273c9.57,4.302,19.466,8.008,29.641,11.07
			C179.07,499.765,180.426,490.57,186.932,490.57z"/>
	</g>
	<g>
		<path style="fill:#F6D100;" d="M391.692,298.409H81.996c-5.917,0-10.715-4.797-10.715-10.715s4.798-10.715,10.715-10.715h309.696
			c3.969,0,7.322-3.353,7.322-7.321v-22.545c0-3.968-3.353-7.321-7.322-7.321H81.996c-5.917,0-10.715-4.797-10.715-10.715
			c0-5.918,4.798-10.715,10.715-10.715h309.696c15.854,0,28.752,12.898,28.752,28.751v22.545
			C420.444,285.511,407.546,298.409,391.692,298.409z"/>
	</g>
	<g>
		<path style="fill:#F2BA00;" d="M178.781,287.694c0-5.918,4.798-10.715,10.715-10.715h-107.5c-5.917,0-10.715,4.797-10.715,10.715
			s4.798,10.715,10.715,10.715h107.5C183.579,298.409,178.781,293.612,178.781,287.694z"/>
		<path style="fill:#F2BA00;" d="M81.996,239.791h107.5c-5.917,0-10.715-4.797-10.715-10.715c0-5.918,4.798-10.715,10.715-10.715
			h-107.5c-5.917,0-10.715,4.797-10.715,10.715C71.281,234.994,76.079,239.791,81.996,239.791z"/>
	</g>
	<path style="fill:#E7387F;" d="M338.554,357.673h-22.462c-1.831,0-3.315,1.484-3.315,3.315v91.429c0,1.814,2.194,2.723,3.477,1.44
		l9.63-9.63c0.795-0.795,2.085-0.795,2.88,0l9.63,9.63c1.283,1.283,3.477,0.374,3.477-1.44v-91.428
		C341.87,359.158,340.386,357.673,338.554,357.673z"/>
	<path style="fill:#E20A62;" d="M338.554,357.673h-22.462c-1.831,0-3.315,1.484-3.315,3.315v39.981
		c0-8.033,6.512-14.546,14.546-14.546c8.034,0,14.547,6.513,14.547,14.547v-39.981C341.87,359.158,340.386,357.673,338.554,357.673z
		"/>
	<g>
		<path style="fill:#644BF7;" d="M245.532,30.158c0-5.886,4.421-10.732,10.122-11.42c-14.071-0.621-28.385,2.212-40.196,8.519
			c-2.858,1.526-4.395,4.535-3.972,7.536l1.938,13.805c0.284,2.023,2.803,2.728,4.369,1.761
			c10.963-6.773,22.089-10.236,33.211-10.413C247.724,37.917,245.532,34.298,245.532,30.158z"/>
	</g>
</g>
<g>
</g>
<g>
</g>
<g>
</g>
<g>
</g>
<g>
</g>
<g>
</g>
<g>
</g>
<g>
</g>
<g>
</g>
<g>
</g>
<g>
</g>
<g>
</g>
<g>
</g>
<g>
</g>
<g>
</g>
</svg>
