<?xml version="1.0" encoding="iso-8859-1"?>
<!-- Generator: Adobe Illustrator 21.0.0, SVG Export Plug-In . SVG Version: 6.00 Build 0)  -->
<svg version="1.1" id="Capa_1" xmlns="http://www.w3.org/2000/svg" xmlns:xlink="http://www.w3.org/1999/xlink" x="0px" y="0px"
	 viewBox="0 0 512 512" style="enable-background:new 0 0 512 512;" xml:space="preserve">
<g>
	<path style="fill:#3342AE;" d="M256,21.999c-135.31,0-245.001,109.69-245.001,245.001c0,54.571,17.85,104.968,48.018,145.69
		l164.398,97.149C234.077,511.255,244.951,512,256,512c135.31,0,245.001-109.691,245.001-245.001S391.31,21.999,256,21.999z"/>
	<path style="fill:#4AC4F4;" d="M425.014,135.907c-0.576-0.068-1.159-0.19-1.748-0.415c-48.693-18.673-100.8-48.76-141.314-81.588
		c-0.49-0.396-0.887-0.841-1.233-1.306c-39.763,3.251-80.948,20.67-117.702,49.76c3.281-0.12,6.577,1.017,9.117,3.381
		c57.847,53.832,185.576,127.585,261.15,150.775c3.317,1.017,5.95,3.304,7.487,6.205
		C447.586,216.344,442.079,171.968,425.014,135.907z"/>
	<path style="fill:#3EB6F1;" d="M225.224,146.305c31.904-57.829,89.297-66.883,89.297-66.883c0.281-0.281,0.571-0.535,0.856-0.805
		c-11.74-7.957-22.97-16.242-33.424-24.713c-0.49-0.396-0.887-0.841-1.233-1.306c-39.763,3.251-80.948,20.67-117.702,49.76
		c3.281-0.12,6.577,1.017,9.117,3.381c13.582,12.64,31.018,26.378,50.725,40.301C224.32,146.12,225.224,146.305,225.224,146.305z"/>
	<path style="fill:#3D4EC6;" d="M347.993,187.502l17.794-30.82c4.927-8.533,1.976-19.546-6.558-24.473l-42.807-24.715
		c-8.533-4.927-19.546-1.976-24.473,6.557l-17.611,30.504C301.098,162.615,327.15,177.09,347.993,187.502z"/>
	<path style="fill:#232E7A;" d="M334.101,188.741l13.03-22.569c3.608-6.249,1.447-14.314-4.802-17.921l-31.348-18.099
		c-6.249-3.608-14.314-1.447-17.922,4.802l-12.897,22.338C299.759,170.516,318.837,181.116,334.101,188.741z"/>
	<path style="fill:#D0E8FE;" d="M431.531,127.113c-12.964-28.038-32.842-51.152-59.289-66.421
		c-26.447-15.269-56.403-20.926-87.165-18.135c-6.215,0.564-8.546,8.411-3.697,12.34c40.514,32.828,92.621,62.915,141.314,81.588
		C428.52,138.719,434.15,132.777,431.531,127.113z"/>
	<path style="fill:#A9D8FC;" d="M285.077,42.556c-6.215,0.564-8.546,8.411-3.697,12.34c10.371,8.403,21.505,16.625,33.143,24.524
		c21.29-21.287,53.421-11.284,53.421-11.284l4.299-7.445C345.795,45.423,315.839,39.765,285.077,42.556z"/>
	<g>
		<path style="fill:#91D1F9;" d="M367.944,68.136c-4.111-2.374-5.52-7.631-3.146-11.743l21.716-37.613
			c2.373-4.112,7.629-5.521,11.743-3.146c4.111,2.374,5.52,7.631,3.147,11.743L379.686,64.99
			C377.31,69.107,372.051,70.507,367.944,68.136z"/>
	</g>
	
		<ellipse transform="matrix(0.5 -0.866 0.866 0.5 179.4141 352.6408)" style="fill:#EB5793;" cx="395.104" cy="20.943" rx="20.939" ry="20.939"/>
	<path style="fill:#E7387F;" d="M414.342,19.046c-3.505,6.072-11.27,8.152-17.341,4.647c-6.072-3.506-8.152-11.27-4.647-17.341
		c1.698-2.942,4.399-4.936,7.42-5.823c-8.725-1.999-18.094,1.788-22.803,9.945c-5.782,10.015-2.351,22.821,7.664,28.603
		c10.015,5.782,22.821,2.351,28.603-7.664c2.744-4.753,3.39-10.128,2.266-15.089C415.226,17.253,414.849,18.168,414.342,19.046z"/>
	<path style="fill:#5766CE;" d="M392.204,204.237c-1.682-3.965-4.941-6.921-8.691-8.308c-18.927-7.004-77.669-33.965-131.739-76.135
		c-0.542-0.423-1.114-0.81-1.71-1.154c-1.554-0.68-5.552-4.271-12.116-3.464c-14.138,1.74-28.408,5.227-42.556,10.377
		c55.485,43.949,143.285,94.644,209.103,120.726C401.881,231.453,397.766,217.35,392.204,204.237z"/>
	<g>
		<path style="fill:#3D4EC6;" d="M286.347,144.502c-11.452-7.524-23.117-15.773-34.573-24.708c-0.542-0.423-1.114-0.81-1.709-1.154
			c-1.554-0.68-5.552-4.271-12.116-3.464c-14.137,1.74-28.408,5.227-42.556,10.377c20.743,16.43,46.003,33.802,72.942,50.48
			C257.557,162.386,268.731,142.131,286.347,144.502z"/>
	</g>
	<path style="fill:#F9DF5F;" d="M225.587,510.122l35.907-117.884c-23.092-4.737-45.337-13.01-66.204-25.057
		c-20.867-12.047-39.153-27.176-54.802-44.805l-82.752,88.556C96.646,464.438,156.676,501.589,225.587,510.122z"/>
	<path style="fill:#F6D100;" d="M195.29,367.181c-20.867-12.047-39.153-27.176-54.802-44.805l-50.715,54.272
		c0,0,35.047-13.267,46.001,20.058c1.63,4.96,6.611,8.004,11.781,7.273c11.51-1.627,30.486-0.536,39.948,20.963
		c2.193,4.984,7.606,7.633,12.869,6.236c11.56-3.068,30.918-3.564,42.806,21.195l0,0l18.317-60.135
		C238.402,387.501,216.157,379.228,195.29,367.181z"/>
	<path style="fill:#F6D100;" d="M174.336,353.414l-71.858,104.509c18.154,14.616,38.431,26.694,60.303,35.7l54.909-115.179
		c-7.619-3.302-15.096-7.046-22.399-11.263C187.986,362.964,181.006,358.362,174.336,353.414z"/>
	<path style="fill:#F2BA00;" d="M195.29,367.181c-7.304-4.217-14.285-8.819-20.954-13.767l-33.808,49.169
		c2.058,1.21,4.518,1.75,7.026,1.396c11.51-1.627,30.486-0.536,39.948,20.963c1.111,2.524,3.05,4.446,5.375,5.55l24.813-52.048
		C210.071,375.142,202.594,371.398,195.29,367.181z"/>
	<path style="fill:#D0E8FE;" d="M442.794,268.657c0.454-5.931-3.25-11.391-8.937-13.136
		c-75.574-23.19-203.304-96.942-261.15-150.775c-4.354-4.052-10.935-4.53-15.844-1.171l-20.242,13.849
		c85.755,72.001,193.14,135.267,304.302,175.689L442.794,268.657z"/>
	<path style="fill:#A9D8FC;" d="M225.224,146.305c-20.44-14.353-38.526-28.539-52.517-41.559c-4.354-4.052-10.935-4.53-15.844-1.171
		l-20.242,13.849c19.934,16.737,41.049,32.992,63.096,48.608C204.448,141.979,225.222,146.305,225.224,146.305z"/>
	<g>
		<path style="fill:#8C96DD;" d="M89.773,235.706c19.101,57.174,54.345,104.407,104.762,133.515
			c50.417,29.109,108.944,36.015,168.009,23.969C268.411,355.631,169.388,298.465,89.773,235.706z"/>
	</g>
	<g>
		<path style="fill:#5766CE;" d="M210.122,317.709c0.301,0.178,0.604,0.352,0.906,0.53c-42.986-25.362-84.221-53.341-121.254-82.534
			c17.449,52.23,48.377,96.154,92.031,125.553C154.664,342.427,181.387,300.722,210.122,317.709z"/>
	</g>
	<path style="fill:#D0E8FE;" d="M39.884,160.302l2.082,15.227c2.177,15.92,10.14,30.483,22.393,40.879
		c91.257,77.429,214.96,148.84,327.605,189.143c15.129,5.413,31.723,5.028,46.598-1.047l14.228-5.81
		C311.942,355.12,147.97,260.424,39.884,160.302z"/>
	<path style="fill:#A9D8FC;" d="M39.884,160.302l2.082,15.227c2.177,15.92,10.14,30.483,22.393,40.879
		c8.428,7.151,17.136,14.249,26.083,21.278c-11.787-24.106,1.403-33.001,1.403-33.001h0.001
		C73.455,190.112,56.042,175.269,39.884,160.302z"/>
	<circle style="fill:#3342AE;" cx="335.003" cy="121.829" r="20.482"/>
	<path style="fill:#232E7A;" d="M345.244,127.664c-5.656,0-10.241-4.585-10.241-10.241c0-5.656,4.585-10.241,10.241-10.241
		c2.072,0,3.997,0.62,5.608,1.678c-3.756-4.585-9.46-7.513-15.849-7.513c-11.312,0-20.482,9.17-20.482,20.482
		s9.17,20.482,20.482,20.482c11.312,0,20.482-9.17,20.482-20.482c0-0.866-0.072-1.715-0.176-2.553
		C354.437,124.046,350.267,127.664,345.244,127.664z"/>
	<path style="fill:#A9D8FC;" d="M486.449,389.329l-45.527-96.217C335.69,254.846,227.208,193.481,136.62,117.423l-106.09,8.681
		c-10.111,0.827-14.559,13.143-7.323,20.254c111.837,109.896,296.409,217.017,449.363,259.44
		C482.346,408.508,490.788,398.498,486.449,389.329z"/>
	<path style="fill:#4AC4F4;" d="M199.711,166.054c0-0.002,0.001-0.003,0.001-0.005c-21.764-15.417-42.875-31.653-63.091-48.626
		l-106.09,8.681c-10.111,0.827-14.559,13.143-7.323,20.254c20.346,19.992,43.107,39.891,67.639,59.326
		C152.204,205.683,199.711,166.054,199.711,166.054z"/>
</g>
<g>
</g>
<g>
</g>
<g>
</g>
<g>
</g>
<g>
</g>
<g>
</g>
<g>
</g>
<g>
</g>
<g>
</g>
<g>
</g>
<g>
</g>
<g>
</g>
<g>
</g>
<g>
</g>
<g>
</g>
</svg>
