<?xml version="1.0" encoding="iso-8859-1"?>
<!-- Generator: Adobe Illustrator 21.0.0, SVG Export Plug-In . SVG Version: 6.00 Build 0)  -->
<svg version="1.1" id="Capa_1" xmlns="http://www.w3.org/2000/svg" xmlns:xlink="http://www.w3.org/1999/xlink" x="0px" y="0px"
	 viewBox="0 0 512 512" style="enable-background:new 0 0 512 512;" xml:space="preserve">
<g>
	<path style="fill:#F6D100;" d="M245,10.999C109.69,10.999,0,120.69,0,256c0,39.364,9.298,76.55,25.795,109.508l366.988,85.904
		C451.841,406.678,490.001,335.8,490.001,256C490.001,120.69,380.311,10.999,245,10.999z"/>
	<path style="fill:#F98F6E;" d="M393.782,450.646c27.551-41.513,43.652-91.207,43.652-144.486V109.477
		c0-2.058-0.235-4.042-0.659-5.942c-5.36-6.733-11.068-13.175-17.096-19.304c-4.971-1.803-10.539-2.184-16.102-0.702h-0.001
		c-55.267,14.728-113.475,2.147-157.327-32.523c-10.717-8.471-25.683-8.473-36.395-0.001
		c-44.468,35.159-102.839,47.04-157.329,32.525c-16.863-4.496-33.858,8.065-33.858,25.947v196.683
		c0,19.991,2.279,39.475,6.566,58.217c39.994,80.944,123.372,136.624,219.768,136.624
		C300.963,501.001,352.532,482.224,393.782,450.646z"/>
	<path style="fill:#EF7D5E;" d="M25.232,364.376C65.226,445.321,148.604,501.001,245,501.001
		c55.962,0,107.532-18.777,148.782-50.355c27.551-41.513,43.652-91.207,43.652-144.486v-33.333c-19.187,24.814-36.23,0-36.23,0
		H54.894c-21.937,21.937-36.227,0-36.227,0v33.333C18.667,326.15,20.945,345.634,25.232,364.376z"/>
	<path style="fill:#EF7D5E;" d="M314.628,121.532v362.292c52.838-41.75,86.576-106.311,86.576-177.665V121.304
		C372.233,127.298,342.823,127.227,314.628,121.532z"/>
	<g>
		<path style="fill:#E06E53;" d="M228.051,85.064v415.343c5.602,0.383,11.251,0.594,16.95,0.594c18.639,0,36.788-2.092,54.235-6.035
			c5.289-3.507,10.428-7.219,15.392-11.142V121.532c-28.767-5.811-56.259-17.495-80.726-34.601
			C232.183,85.729,230.148,85.064,228.051,85.064z"/>
		<polygon style="fill:#E06E53;" points="314.628,121.532 314.628,121.532 314.632,121.533 		"/>
	</g>
	<path style="fill:#E06E53;" d="M59.918,122.281c-2.615-0.477-5.021,1.531-5.021,4.188v179.689
		c0,63.842,27.023,122.231,70.555,163.724c5.226,2.927,10.569,5.668,16.022,8.214V121.532
		C114.906,126.899,87.259,127.271,59.918,122.281z"/>
	<g>
		<polygon style="fill:#EF7D5E;" points="141.469,121.533 141.474,121.532 141.474,121.532 		"/>
		<path style="fill:#EF7D5E;" d="M141.474,121.532v356.566c26.606,12.423,55.809,20.206,86.577,22.309V85.064
			c-2.097,0-4.133,0.665-5.851,1.867C197.732,104.036,170.24,115.72,141.474,121.532z"/>
	</g>
	<path style="fill:#E06E53;" d="M314.628,121.532v362.292c52.838-41.75,86.576-106.311,86.576-177.665V121.304
		C372.233,127.298,342.823,127.227,314.628,121.532z"/>
	<g>
		<path style="fill:#D3644F;" d="M228.051,85.064v415.343c5.602,0.383,11.251,0.594,16.95,0.594c18.639,0,36.788-2.092,54.235-6.035
			c5.289-3.507,10.428-7.219,15.392-11.142V121.532c-28.767-5.811-56.259-17.495-80.726-34.601
			C232.183,85.729,230.148,85.064,228.051,85.064z"/>
		<polygon style="fill:#D3644F;" points="314.628,121.532 314.628,121.532 314.632,121.533 		"/>
	</g>
	<path style="fill:#D3644F;" d="M59.918,122.281c-2.615-0.477-5.021,1.531-5.021,4.188v179.689
		c0,63.842,27.023,122.231,70.555,163.724c5.226,2.927,10.569,5.668,16.022,8.214V121.532
		C114.906,126.899,87.259,127.271,59.918,122.281z"/>
	<g>
		<path style="fill:#E06E53;" d="M141.474,121.532v356.566c26.606,12.423,55.809,20.206,86.577,22.309V85.064
			c-2.097,0-4.133,0.665-5.851,1.867C197.732,104.036,170.24,115.72,141.474,121.532z"/>
	</g>
	<g>
		<path style="fill:#EF7D5E;" d="M314.627,121.532v144.688c0,23.905,19.379,43.284,43.284,43.284h0
			c23.907,0,43.287-19.379,43.284-43.286c-0.003-27.062-0.004-71.583,0.009-144.913
			C372.233,127.298,342.823,127.227,314.627,121.532z"/>
		<path style="fill:#E06E53;" d="M228.05,85.064v181.156c0,23.905,19.379,43.284,43.284,43.284h0.009
			c23.905,0,43.284-19.379,43.284-43.284V121.532c-28.766-5.811-56.258-17.495-80.725-34.601
			C232.183,85.729,230.147,85.064,228.05,85.064z"/>
		<path style="fill:#E06E53;" d="M59.918,122.281c-2.615-0.477-5.02,1.531-5.02,4.188c0.006,37.777-0.009,98.653-0.002,139.763
			c0.004,23.902,19.382,43.27,43.284,43.27h0.01c23.905,0,43.284-19.379,43.284-43.284V121.532
			C114.906,126.899,87.259,127.271,59.918,122.281z"/>
		<path style="fill:#EF7D5E;" d="M141.474,121.532v144.688c0,23.905,19.379,43.284,43.284,43.284h0.009
			c23.905,0,43.284-19.379,43.284-43.284V85.064c-2.097,0-4.132,0.665-5.851,1.867C197.732,104.036,170.24,115.72,141.474,121.532z"
			/>
	</g>
	<g>
		<g>
			<path style="fill:#F98F6E;" d="M98.206,172.666c-5.666,0-10.265-4.593-10.265-10.259c0-5.666,4.588-10.26,10.254-10.26h0.011
				c5.666,0,10.259,4.593,10.259,10.26C108.466,168.073,103.873,172.666,98.206,172.666z"/>
		</g>
	</g>
	<g>
		<g>
			<path style="fill:#F98F6E;" d="M98.206,368.656c-5.666,0-10.265-4.593-10.265-10.259c0-5.666,4.588-10.259,10.254-10.259h0.011
				c5.666,0,10.259,4.593,10.259,10.259C108.466,364.063,103.873,368.656,98.206,368.656z"/>
		</g>
	</g>
	<g>
		<g>
			<path style="fill:#F98F6E;" d="M184.78,159.209c-5.666,0-10.265-4.593-10.265-10.26s4.588-10.259,10.254-10.259h0.01
				c5.666,0,10.26,4.593,10.26,10.259S190.447,159.209,184.78,159.209z"/>
		</g>
	</g>
	<g>
		<g>
			<path style="fill:#F98F6E;" d="M356.915,368.656c-5.666,0-10.264-4.593-10.264-10.259c0-5.666,4.589-10.259,10.255-10.259h0.01
				c5.667,0,10.26,4.593,10.26,10.259C367.174,364.063,362.581,368.656,356.915,368.656z"/>
		</g>
	</g>
	<g>
		<g>
			<path style="fill:#F98F6E;" d="M270.34,159.209c-5.666,0-10.264-4.593-10.264-10.26s4.588-10.259,10.254-10.259h0.01
				c5.666,0,10.26,4.593,10.26,10.259S276.007,159.209,270.34,159.209z"/>
		</g>
	</g>
	<path style="fill:#D0E8FE;" d="M511.707,136.637l-10.643-71.781l0,0c-0.69-4.657-2.571-7.593-4.771-9.446L235.135,366.646
		c12.108,10.16,18.728,24.458,19.558,39.117l247.54-244.354C509.501,155.373,513.093,145.982,511.707,136.637z"/>
	<path style="fill:#A9D8FC;" d="M314.627,346.599c0,0-31.826,3.517-35.708-25.582c-0.214-1.605-1.066-2.961-2.268-3.849
		l-41.517,49.478c12.108,10.16,18.728,24.458,19.558,39.117L314.627,346.599L314.627,346.599z"/>
	<path style="fill:#A9D8FC;" d="M235.135,366.646L496.293,55.409c-3.033-2.555-6.671-3.045-8.658-3.099l-1.473,0.041h-0.001
		l-72.539,1.984c-9.444,0.258-18.068,5.426-22.75,13.631L193.216,354.177C207.796,352.45,223.027,356.486,235.135,366.646z"/>
	<path style="fill:#91D1F9;" d="M272.708,316.082c-9.411,0.93-27.274-1.521-30.885-32.289l-48.607,70.384
		c14.58-1.727,29.811,2.309,41.918,12.469l41.517-49.478C275.558,316.359,274.175,315.937,272.708,316.082z"/>
	<path style="fill:#F6D100;" d="M157.497,373.438c6.374-7.596,14.381-13.022,23.08-16.228l-15.111-12.68
		c-11.488-9.64-28.775-8.127-38.415,3.361v0c-9.64,11.488-8.127,28.775,3.361,38.415l15.111,12.68
		C147.169,389.862,151.123,381.034,157.497,373.438z"/>
	<path style="fill:#F9DF5F;" d="M269.012,431.416l-15.111-12.68c-1.647,9.123-5.6,17.951-11.974,25.547
		c-6.374,7.596-14.381,13.023-23.08,16.228l15.111,12.68c11.488,9.64,28.775,8.128,38.415-3.361l0,0
		C282.013,458.343,280.5,441.056,269.012,431.416z"/>
	<path style="fill:#E7387F;" d="M150.063,434.039l-28.308,33.736c12.969,7.564,26.696,13.967,41.038,19.075l20.744-24.722
		c-6.962-2.161-13.62-5.709-19.554-10.688C158.05,446.46,153.4,440.52,150.063,434.039z"/>
	
		<ellipse transform="matrix(0.6428 -0.766 0.766 0.6428 -241.8663 299.0389)" style="fill:#F6D100;" cx="199.712" cy="408.861" rx="56.531" ry="56.531"/>
	<path style="fill:#F2BA00;" d="M214.52,434.334c1.22-2.59,0.359-5.717-2.04-7.279c-19.784-12.886-22.251-31.703-22.319-39.823
		c-0.019-2.283-1.369-4.363-3.479-5.232c-18.627-7.675-7.511-25.662-7.392-25.855c-8.611,3.327-16.53,8.807-22.884,16.38
		c-20.069,23.917-16.949,59.574,6.968,79.642c16.342,13.712,38.162,16.592,56.748,9.415
		C208.706,451.949,211.606,440.52,214.52,434.334z"/>
	
		<ellipse transform="matrix(0.6428 -0.766 0.766 0.6428 -241.866 299.0377)" style="fill:#F2BA00;" cx="199.712" cy="408.861" rx="27.267" ry="27.267"/>
	<path style="fill:#EEA200;" d="M182.185,429.749c9.566,8.026,23.022,8.355,32.86,1.658c-0.138-1.723-1.034-3.356-2.564-4.353
		c-19.784-12.886-22.251-31.703-22.319-39.823c-0.011-1.268-0.444-2.465-1.178-3.436c-3.812,1.628-7.312,4.146-10.159,7.539
		C169.144,402.87,170.649,420.069,182.185,429.749z"/>
</g>
<g>
</g>
<g>
</g>
<g>
</g>
<g>
</g>
<g>
</g>
<g>
</g>
<g>
</g>
<g>
</g>
<g>
</g>
<g>
</g>
<g>
</g>
<g>
</g>
<g>
</g>
<g>
</g>
<g>
</g>
</svg>
