<?xml version="1.0" encoding="iso-8859-1"?>
<!-- Generator: Adobe Illustrator 21.0.0, SVG Export Plug-In . SVG Version: 6.00 Build 0)  -->
<svg version="1.1" id="Capa_1" xmlns="http://www.w3.org/2000/svg" xmlns:xlink="http://www.w3.org/1999/xlink" x="0px" y="0px"
	 viewBox="0 0 512 512" style="enable-background:new 0 0 512 512;" xml:space="preserve">
<g>
	<path style="fill:#82CD64;" d="M445.829,421.881c34.481-42.211,55.172-96.127,55.172-154.882
		c0-135.31-109.691-245.001-245.001-245.001s-245,109.691-245,245.001c0,58.755,20.691,112.671,55.172,154.882L445.829,421.881z"/>
	<path style="fill:#3D4EC6;" d="M256,512c77.017,0,145.72-35.548,190.634-91.119V31.584C446.634,14.213,432.421,0,415.05,0H96.95
		C79.579,0,65.366,14.213,65.366,31.584v389.297C110.28,476.452,178.983,512,256,512z"/>
	<path style="fill:#3342AE;" d="M157.002,30.584c0-14.655,10.116-27.063,23.71-30.584H96.95C79.579,0,65.366,14.213,65.366,31.584
		v389.297c24.365,30.146,55.74,54.38,91.636,70.263V30.584z"/>
	<path style="fill:#31A7ED;" d="M398.378,299.5H113.622c-7.316,0-13.247-5.931-13.247-13.247V78.782
		c0-7.316,5.931-13.247,13.247-13.247h284.756c7.316,0,13.247,5.931,13.247,13.247v207.471
		C411.625,293.569,405.694,299.5,398.378,299.5z"/>
	<path style="fill:#1296D8;" d="M157.002,65.535h-43.38c-7.316,0-13.247,5.931-13.247,13.247v207.471
		c0,7.316,5.931,13.247,13.247,13.247h43.38V65.535z"/>
	<circle style="fill:#3342AE;" cx="162.929" cy="404.096" r="58.792"/>
	<path style="fill:#232E7A;" d="M157.002,345.602c-29.686,2.972-52.865,28.026-52.865,58.495c0,30.469,23.179,55.522,52.865,58.495
		V345.602z"/>
	<path style="fill:#5766CE;" d="M100.374,0v19.663c0,7.316,5.931,13.247,13.247,13.247h284.756c7.316,0,13.247-5.931,13.247-13.247
		V0H100.374z"/>
	<path style="fill:#3D4EC6;" d="M100.374,19.663c0,7.316,5.931,13.247,13.247,13.247h43.38v-2.326
		c0-14.655,10.116-27.063,23.71-30.584h-80.338V19.663z"/>
	<circle style="fill:#EB5793;" cx="256" cy="356.706" r="11.401"/>
	<path style="fill:#3342AE;" d="M389.673,381.415h-15.276c-1.42,0-2.575-1.155-2.575-2.575v-15.277
		c0-12.923-10.308-23.802-22.978-24.254c-13.608-0.454-24.706,10.369-24.706,23.827v15.703c0,1.42-1.155,2.575-2.575,2.575h-15.276
		c-12.924,0-23.804,10.308-24.254,22.977c-0.48,13.505,10.294,24.706,23.827,24.706h15.703c1.42,0,2.575,1.155,2.575,2.575v15.276
		c0,12.923,10.308,23.802,22.978,24.254c13.623,0.463,24.706-10.389,24.706-23.826v-15.704c0-1.42,1.155-2.575,2.575-2.575H390.1
		c13.489,0,24.308-11.155,23.827-24.704v-0.001C413.476,391.723,402.595,381.415,389.673,381.415z"/>
	<path style="fill:#232E7A;" d="M306.287,381.415c-12.924,0-23.804,10.308-24.254,22.977c-0.48,13.505,10.294,24.706,23.827,24.706
		h15.703c1.42,0,2.575,1.155,2.575,2.575v15.276c0,12.923,10.308,23.802,22.978,24.254c13.623,0.463,24.706-10.389,24.706-23.826
		v-15.704c-57.908,4.411-50.259-50.258-50.259-50.258H306.287z"/>
	<path style="fill:#5766CE;" d="M289.189,489.182l-15.297,15.298c-1.986,1.986-3.122,4.495-3.427,7.083
		c11.869-0.691,23.515-2.211,34.871-4.533l0.851-0.851c4.694-4.694,4.694-12.303,0-16.997
		C301.492,484.488,293.884,484.489,289.189,489.182z"/>
	<path style="fill:#5766CE;" d="M221.109,489.182l-15.297,15.298c-0.624,0.623-1.158,1.301-1.616,2.014
		c9.521,2.05,19.246,3.545,29.143,4.453l4.768-4.768c4.694-4.694,4.694-12.303,0-16.997
		C233.412,484.488,225.804,484.489,221.109,489.182z"/>
	<path style="fill:#D0E8FE;" d="M337.288,182.406c0-6.58-5.384-11.964-11.964-11.964h-58.39c-6.58,0-11.964,5.384-11.964,11.964
		c0,6.58,5.384,11.964,11.964,11.964h58.39C331.904,194.37,337.288,188.986,337.288,182.406z"/>
	<path style="fill:#D0E8FE;" d="M411.625,158.458v-23.886c-0.137-0.005-0.271-0.021-0.409-0.021h-61.965
		c-6.58,0-11.964,5.384-11.964,11.964c0,6.58,5.384,11.964,11.964,11.964h61.965C411.354,158.479,411.488,158.462,411.625,158.458z"
		/>
	<path style="fill:#91D1F9;" d="M289.978,182.406c0-6.58,5.384-11.964,11.964-11.964h-35.009c-6.58,0-11.964,5.384-11.964,11.964
		c0,6.58,5.384,11.964,11.964,11.964h35.009C295.362,194.37,289.978,188.986,289.978,182.406z"/>
	<path style="fill:#91D1F9;" d="M372.296,146.514c0-6.58,5.384-11.964,11.964-11.964h-35.009c-6.58,0-11.964,5.384-11.964,11.964
		c0,6.58,5.384,11.964,11.964,11.964h35.009C377.68,158.479,372.296,153.095,372.296,146.514z"/>
	<path style="fill:#9ED369;" d="M111.242,182.835h22.369c4.242,0,7.682,3.439,7.682,7.682v1.988c0,4.243,3.439,7.682,7.682,7.682
		l0,0c4.243,0,7.682,3.439,7.682,7.682v3.272c0,4.243,3.439,7.682,7.682,7.682h18.828c4.243,0,7.682,3.439,7.682,7.682v17.096
		h-79.606L111.242,182.835z"/>
	<path style="fill:#5DB33A;" d="M157.002,213.426c-0.224-0.722-0.345-1.489-0.345-2.284v-3.272c0-4.243-3.44-7.682-7.682-7.682
		c-4.242,0-7.682-3.439-7.682-7.682v-1.988c0-4.243-3.439-7.682-7.682-7.682h-22.369v60.766h45.76V213.426z"/>
	<g>
		<path style="fill:#91D1F9;" d="M135.614,112.513c-6.689,0-12.019-5.455-12.019-12.019c0-5.569,3.911-10.62,9.676-11.791
			c6.306-1.271,12.773,2.738,14.134,9.447c0.156,0.769,0.228,1.563,0.228,2.344C147.633,107.342,142.025,112.513,135.614,112.513z"
			/>
	</g>
	<g>
		<path style="fill:#91D1F9;" d="M166.466,112.513c-6.486,0-12.019-5.24-12.019-12.019c0-7.72,7.118-13.25,14.363-11.779
			c5.523,1.036,9.675,6.019,9.675,11.779C178.485,106.994,173.208,112.513,166.466,112.513z"/>
	</g>
	<g>
		<path style="fill:#D0E8FE;" d="M197.307,112.513c-6.436,0-12.019-5.201-12.019-12.019c0-7.568,6.958-13.283,14.363-11.791
			c5.737,1.167,9.675,6.181,9.675,11.791C209.326,107.091,203.941,112.513,197.307,112.513z"/>
	</g>
	<path style="fill:#F6D100;" d="M272.184,242.316h-171.81v43.937c0,7.316,5.931,13.247,13.247,13.247h232.014l-55.936-50.452
		C284.895,244.715,278.654,242.316,272.184,242.316z"/>
	<path style="fill:#F2BA00;" d="M113.622,299.5h43.38v-57.184h-56.627v43.937C100.375,293.569,106.306,299.5,113.622,299.5z"/>
	<g>
		<path style="fill:#3342AE;" d="M398.378,311.519H113.622c-13.932,0-25.267-11.335-25.267-25.266V78.782
			c0-13.932,11.335-25.266,25.267-25.266h284.756c13.931,0,25.266,11.335,25.266,25.266v207.47
			C423.644,300.184,412.309,311.519,398.378,311.519z M113.622,77.554c-0.677,0-1.229,0.551-1.229,1.229v207.47
			c0,0.678,0.552,1.229,1.229,1.229h284.756c0.677,0,1.228-0.551,1.228-1.229V78.782c0-0.678-0.551-1.229-1.228-1.229H113.622z"/>
	</g>
	<path style="fill:#232E7A;" d="M113.622,77.554h44.127c-6.638,0-12.019-5.381-12.019-12.019c0-6.638,5.381-12.019,12.019-12.019
		h-44.127c-13.932,0-25.267,11.334-25.267,25.266v207.47c0,13.932,11.335,25.266,25.267,25.266h44.127
		c-6.638,0-12.019-5.381-12.019-12.019v0c0-6.637,5.381-12.018,12.018-12.019h-44.126c-0.677,0-1.229-0.551-1.229-1.228V78.782
		C112.393,78.105,112.945,77.554,113.622,77.554z"/>
	<path style="fill:#5766CE;" d="M221.718,403.459c-0.337-9.476-8.413-16.849-17.895-16.849h-14.981c-2.423,0-4.6-1.029-6.136-2.668
		l-19.946,19.993l20.144,20.101c1.522-1.515,3.62-2.452,5.937-2.452h15.4C214.111,421.583,222.071,413.407,221.718,403.459z"/>
	<path style="fill:#5766CE;" d="M142.832,423.91c1.757,1.675,2.618,3.872,2.618,6.091l0,0v15.4c0,9.857,8.161,17.83,18.125,17.475
		c9.46-0.336,16.849-8.391,16.849-17.894v-14.981l0,0c0-0.009,0.001-0.017,0.001-0.026c0.007-2.28,0.924-4.393,2.479-5.94
		l-20.144-20.101L142.832,423.91z"/>
	<path style="fill:#5766CE;" d="M180.424,362.791c0-9.869-8.176-17.829-18.124-17.475c-9.476,0.337-16.849,8.413-16.849,17.895
		v14.981c0,2.346-0.961,4.466-2.509,5.992c0.004-0.004,0.009-0.008,0.013-0.012l19.806,19.763l19.946-19.993
		c-1.411-1.505-2.282-3.524-2.282-5.751V362.791z"/>
	<path style="fill:#3D4EC6;" d="M137.032,386.61h-14.981c-9.482,0-17.558,7.373-17.895,16.849
		c-0.354,9.947,7.605,18.125,17.476,18.125h15.4c2.251,0,4.29,0.888,5.8,2.327l19.928-19.976l-19.806-19.763
		C142.391,384.576,140.515,386.61,137.032,386.61z"/>
	<path style="fill:#3342AE;" d="M175.663,401.309l14.732-14.7h-1.552c-4.662,0-8.418-3.813-8.418-8.418v-1.456l-14.706,14.674
		c-1.541,1.538-4.036,1.538-5.577,0l-14.69-14.658v1.44c0,4.654-3.784,8.418-8.418,8.418h-1.568l14.732,14.7
		c1.546,1.542,1.546,4.047,0,5.59l-14.717,14.685h1.554c4.574,0,8.418,3.715,8.418,8.418v1.455l14.69-14.659
		c1.541-1.537,4.036-1.537,5.577,0l14.706,14.675v-1.471c0-0.008,0.001-0.017,0.001-0.025c0.014-4.623,3.764-8.392,8.417-8.392
		h1.537l-14.716-14.685C174.117,405.356,174.117,402.852,175.663,401.309z"/>
	<circle style="fill:#F6D100;" cx="347.98" cy="363.137" r="17.832"/>
	<circle style="fill:#F6D100;" cx="347.98" cy="447.377" r="17.832"/>
	<circle style="fill:#F6D100;" cx="305.859" cy="405.257" r="17.832"/>
	<circle style="fill:#F6D100;" cx="390.1" cy="405.257" r="17.832"/>
	<path style="fill:#F2BA00;" d="M396.29,410.711c-6.43,0-11.643-5.213-11.643-11.643c0-5.482,3.794-10.067,8.897-11.304
		c-1.115-0.218-2.264-0.339-3.443-0.339c-9.849,0-17.832,7.984-17.832,17.832s7.984,17.832,17.832,17.832
		c9.848,0,17.832-7.984,17.832-17.832c0-1.178-0.121-2.328-0.339-3.443C406.357,406.917,401.772,410.711,396.29,410.711z"/>
	<path style="fill:#F2BA00;" d="M354.169,452.831c-6.43,0-11.643-5.213-11.643-11.643c0-5.482,3.794-10.067,8.897-11.304
		c-1.115-0.218-2.264-0.339-3.443-0.339c-9.849,0-17.832,7.984-17.832,17.832c0,9.848,7.984,17.832,17.832,17.832
		c9.848,0,17.832-7.984,17.832-17.832c0-1.178-0.121-2.328-0.339-3.443C364.237,449.037,359.652,452.831,354.169,452.831z"/>
	<path style="fill:#F2BA00;" d="M354.169,368.591c-6.43,0-11.643-5.213-11.643-11.643c0-5.483,3.794-10.067,8.897-11.304
		c-1.115-0.218-2.264-0.339-3.443-0.339c-9.849,0-17.832,7.984-17.832,17.832c0,9.848,7.984,17.832,17.832,17.832
		c9.848,0,17.832-7.984,17.832-17.832c0-1.178-0.121-2.328-0.339-3.443C364.237,364.796,359.652,368.591,354.169,368.591z"/>
	<path style="fill:#F2BA00;" d="M312.049,410.711c-6.43,0-11.643-5.213-11.643-11.643c0-5.483,3.794-10.067,8.897-11.304
		c-1.115-0.218-2.264-0.339-3.443-0.339c-9.849,0-17.832,7.984-17.832,17.832c0,9.848,7.984,17.832,17.832,17.832
		c9.848,0,17.832-7.984,17.832-17.832c0-1.178-0.121-2.328-0.339-3.443C322.116,406.917,317.531,410.711,312.049,410.711z"/>
	<path style="fill:#232E7A;" d="M144.45,375.751v1.44c0,4.654-3.784,8.418-8.418,8.418h-1.569l15.732,15.7
		c1.546,1.542,1.546,4.047,0,5.59l-15.717,15.685h1.554c4.574,0,8.418,3.715,8.418,8.418v1.455l15.69-15.659
		c-9.756-13.964,0-25.388,0-25.388L144.45,375.751z"/>
</g>
<g>
</g>
<g>
</g>
<g>
</g>
<g>
</g>
<g>
</g>
<g>
</g>
<g>
</g>
<g>
</g>
<g>
</g>
<g>
</g>
<g>
</g>
<g>
</g>
<g>
</g>
<g>
</g>
<g>
</g>
</svg>
