<?xml version="1.0" encoding="iso-8859-1"?>
<!-- Generator: Adobe Illustrator 21.0.0, SVG Export Plug-In . SVG Version: 6.00 Build 0)  -->
<svg version="1.1" id="Capa_1" xmlns="http://www.w3.org/2000/svg" xmlns:xlink="http://www.w3.org/1999/xlink" x="0px" y="0px"
	 viewBox="0 0 512 512" style="enable-background:new 0 0 512 512;" xml:space="preserve">
<g>
	<path style="fill:#3342AE;" d="M245.001,10.999c-56.114,0-107.811,18.878-149.116,50.612l40.84,414.207
		c32.651,16.114,69.402,25.183,108.276,25.183c135.31,0,245.001-109.69,245.001-245S380.311,10.999,245.001,10.999z"/>
	<path style="fill:#A9D8FC;" d="M439.589,61.015h0.882c0,0,30.081-3.488,44.068,27.641c7.88,17.538,4.685,30.543,5.165,70.298
		c0.056,4.66-3.704,8.476-8.365,8.476h-77.747v-60.213C403.591,84.46,416.103,61.015,439.589,61.015z"/>
	<path style="fill:#4AC4F4;" d="M464.93,66.505c-12.398-6.876-24.459-5.49-24.459-5.49h-0.882
		c-23.486,0-35.998,23.445-35.998,46.202v60.213h43.18v-60.213C446.771,91.158,453.01,74.769,464.93,66.505z"/>
	<path style="fill:#D0E8FE;" d="M443.72,60.898H96.814C37.987,105.649,0,176.383,0,256c0,96.854,56.207,180.572,137.776,220.34
		h214.467c20.209-9.855,38.855-22.414,55.48-37.197V107.1C407.722,84.343,420.234,60.898,443.72,60.898z"/>
	<path style="fill:#A9D8FC;" d="M96.814,60.898C37.987,105.649,0,176.383,0,256c0,87.855,46.248,164.9,115.722,208.141V107.1
		c0-20.056,9.722-41.411,28.105-46.202H96.814z"/>
	<path style="fill:#E7387F;" d="M511.706,381.947L466.385,267.03c-2.092,0.968-4.464,1.735-6.909,2.518
		c-3.849,1.232-7.829,2.507-10.918,4.755c-3.041,2.213-5.452,5.577-7.784,8.831c-3.124,4.357-6.073,8.471-10.23,9.821
		c-3.927,1.277-8.629-0.264-13.605-1.895c-3.919-1.285-7.971-2.613-11.94-2.613c-3.781,0-7.637,1.207-11.382,2.431l46.976,119.114
		c1.329,3.37,6.068,3.45,7.511,0.128l16.004-36.847c0.894-2.06,3.289-3.004,5.348-2.109l36.847,16.004
		C509.626,388.61,513.034,385.316,511.706,381.947z"/>
	<g>
		<path style="fill:#E20A62;" d="M460.609,306.807c8.838,0,17.098,2.473,24.129,6.761l-18.354-46.539
			c-2.092,0.968-4.464,1.735-6.909,2.518c-3.849,1.232-7.829,2.507-10.918,4.755c-3.041,2.213-5.452,5.577-7.784,8.831
			c-3.124,4.356-6.073,8.471-10.23,9.821c-3.927,1.277-8.629-0.264-13.605-1.895c-3.919-1.285-7.971-2.613-11.94-2.613
			c-3.781,0-7.637,1.206-11.382,2.431l21.334,54.095C418.84,323.277,437.795,306.807,460.609,306.807z"/>
	</g>
	<path style="fill:#EB5793;" d="M405,288.447c-3.968,0-8.021,1.329-11.94,2.613c-4.975,1.631-9.671,3.171-13.604,1.895
		c-4.158-1.35-7.107-5.465-10.23-9.821c-2.332-3.254-4.743-6.618-7.785-8.831c-3.089-2.248-7.069-3.523-10.918-4.755
		c-2.444-0.783-4.816-1.549-6.908-2.517l-45.321,114.918c-1.329,3.37,2.079,6.664,5.401,5.22l36.847-16.004
		c2.06-0.895,4.454,0.05,5.349,2.109l16.004,36.847c1.443,3.322,6.182,3.241,7.511-0.128l46.976-119.114
		C412.637,289.653,408.781,288.447,405,288.447z"/>
	<g>
		<path style="fill:#E7387F;" d="M351.276,306.807c21.712,0,39.936,14.915,44.999,35.056l20.107-50.985
			c-3.745-1.225-7.602-2.431-11.383-2.431c-3.968,0-8.021,1.329-11.94,2.613c-4.975,1.631-9.671,3.171-13.604,1.895
			c-4.158-1.35-7.107-5.465-10.23-9.821c-2.333-3.254-4.743-6.618-7.785-8.831c-3.089-2.248-7.069-3.523-10.918-4.755
			c-2.444-0.783-4.816-1.549-6.908-2.517l-19.019,48.226C332.145,309.939,341.342,306.807,351.276,306.807z"/>
	</g>
	<path style="fill:#E20A62;" d="M440.774,283.133c-3.124,4.357-6.073,8.471-10.23,9.821c-2.739,0.891-5.856,0.409-9.18-0.517
		l37.05,93.946l5.694-13.11c0.894-2.06,3.289-3.004,5.348-2.109l13.111,5.694l-38.632-97.956
		C442.837,280.264,441.796,281.707,440.774,283.133z"/>
	<path style="fill:#E20A62;" d="M440.774,283.133c-3.124,4.357-6.073,8.471-10.23,9.821c-2.739,0.891-5.856,0.409-9.18-0.517
		l37.05,93.946l5.694-13.11c0.894-2.06,3.289-3.004,5.348-2.109l13.111,5.694l-38.632-97.956
		C442.837,280.264,441.796,281.707,440.774,283.133z"/>
	<path style="fill:#B5084E;" d="M421.364,292.438l9.823,24.908c6.663-5.477,14.876-9.129,23.887-10.201l-11.138-28.243l-0.002,0.002
		c-1.096,1.359-2.135,2.797-3.154,4.22c-0.002,0.003-0.004,0.006-0.007,0.009C434.687,291.622,431.473,295.25,421.364,292.438z"/>
	<path style="fill:#E7387F;" d="M379.456,292.954c-4.158-1.35-7.107-5.465-10.23-9.821c-1.022-1.426-2.063-2.868-3.162-4.231
		l-38.631,97.955l13.111-5.694c2.06-0.894,4.454,0.05,5.349,2.109l5.694,13.11l37.05-93.946
		C385.315,293.363,382.199,293.844,379.456,292.954z"/>
	<path style="fill:#E20A62;" d="M379.264,316.202l9.372-23.765c-3.322,0.925-6.437,1.407-9.18,0.517
		c-4.158-1.35-7.107-5.465-10.23-9.821c-1.022-1.426-2.063-2.868-3.163-4.231l-11.069,28.066
		C364.071,307.689,372.411,311.011,379.264,316.202z"/>
	<g>
		<path style="fill:#F6D100;" d="M251.09,184.76c-51.329-30.257-114.36-30.544-166.177,0c-6.291,3.707-14.397,1.614-18.104-4.676
			c-3.708-6.29-1.614-14.396,4.676-18.104c59.803-35.252,133.13-35.31,193.033,0c6.29,3.708,8.384,11.813,4.676,18.104
			C265.474,186.394,257.361,188.457,251.09,184.76z"/>
	</g>
	<g>
		<path style="fill:#91D1F9;" d="M281.158,310.052H54.845c-4.75,0-8.6-3.85-8.6-8.6c0-4.75,3.85-8.6,8.6-8.6h226.313
			c4.75,0,8.6,3.85,8.6,8.6C289.759,306.201,285.909,310.052,281.158,310.052z"/>
	</g>
	<g>
		<path style="fill:#91D1F9;" d="M281.158,346.206H54.845c-4.75,0-8.6-3.851-8.6-8.6c0-4.75,3.85-8.6,8.6-8.6h226.313
			c4.75,0,8.6,3.851,8.6,8.6C289.759,342.355,285.909,346.206,281.158,346.206z"/>
	</g>
	<g>
		<path style="fill:#91D1F9;" d="M213.247,382.36h-90.49c-4.751,0-8.601-3.851-8.601-8.601c0-4.75,3.85-8.6,8.601-8.6h90.49
			c4.751,0,8.601,3.851,8.601,8.6C221.848,378.51,217.997,382.36,213.247,382.36z"/>
	</g>
	<g>
		<g>
			<path style="fill:#91D1F9;" d="M281.158,273.897H54.845c-4.75,0-8.6-3.85-8.6-8.6c0-4.75,3.85-8.601,8.6-8.601h226.313
				c4.75,0,8.6,3.851,8.6,8.601C289.759,270.047,285.909,273.897,281.158,273.897z"/>
		</g>
	</g>
	<g>
		<g>
			<path style="fill:#91D1F9;" d="M281.158,237.743H54.845c-4.75,0-8.6-3.851-8.6-8.601c0-4.75,3.85-8.6,8.6-8.6h226.313
				c4.75,0,8.6,3.851,8.6,8.6C289.759,233.892,285.909,237.743,281.158,237.743z"/>
		</g>
	</g>
	<path style="fill:#4AC4F4;" d="M107.745,301.451c0-4.75,3.85-8.6,8.6-8.6h-61.5c-4.75,0-8.601,3.851-8.601,8.6
		c0,4.75,3.85,8.6,8.601,8.6h61.5C111.595,310.052,107.745,306.201,107.745,301.451z"/>
	<path style="fill:#4AC4F4;" d="M107.745,337.605c0-4.75,3.85-8.6,8.6-8.6h-61.5c-4.75,0-8.601,3.851-8.601,8.6
		c0,4.75,3.85,8.601,8.601,8.601h61.5C111.595,346.206,107.745,342.355,107.745,337.605z"/>
	<path style="fill:#4AC4F4;" d="M107.745,265.297c0-4.75,3.85-8.6,8.6-8.6h-61.5c-4.75,0-8.601,3.851-8.601,8.6
		c0,4.75,3.85,8.6,8.601,8.6h61.5C111.595,273.897,107.745,270.047,107.745,265.297z"/>
	<path style="fill:#4AC4F4;" d="M107.745,229.142c0-4.749,3.85-8.6,8.6-8.6h-61.5c-4.75,0-8.601,3.851-8.601,8.6
		c0,4.75,3.85,8.601,8.601,8.601h61.5C111.595,237.743,107.745,233.892,107.745,229.142z"/>
	<path style="fill:#F6D100;" d="M494.208,209.359c0,9.137-10.247,16.543-12.924,24.787c-2.774,8.544,1.067,20.54-4.109,27.652
		c-5.228,7.183-17.858,7.211-25.041,12.439c-7.112,5.176-11.014,17.208-19.558,19.983c-8.244,2.677-18.436-4.677-27.572-4.677
		c-9.137,0-19.328,7.354-27.573,4.677c-8.544-2.774-12.446-14.807-19.558-19.983c-7.183-5.228-19.814-5.256-25.041-12.439
		c-5.176-7.112-1.335-19.108-4.109-27.652c-2.677-8.244-12.924-15.65-12.924-24.786c0-9.137,10.247-16.543,12.924-24.787
		c2.774-8.544-1.067-20.54,4.109-27.652c5.228-7.183,17.858-7.212,25.041-12.439c7.112-5.176,11.014-17.208,19.558-19.983
		c8.244-2.677,18.436,4.677,27.572,4.677c9.137,0,19.328-7.354,27.573-4.677c8.544,2.774,12.446,14.807,19.558,19.983
		c7.183,5.228,19.814,5.256,25.041,12.439c5.176,7.112,1.334,19.108,4.109,27.652C483.961,192.816,494.208,200.222,494.208,209.359z
		"/>
	<path style="fill:#F2BA00;" d="M445.154,281.99c-12.118-7.083-9.566-17.554-7.244-22.779c0.739-1.663-0.042-3.57-1.716-4.282
		c-6.526-2.777-7.311-8.287-7.159-11.477c0.069-1.443-0.794-2.77-2.164-3.229c-38.69-12.942-44.118-49.789-44.877-60.504
		c-0.114-1.61-1.441-2.823-3.053-2.898c-9.416-0.437-9.831-7.363-9.245-11.445c0.227-1.578-0.696-3.119-2.23-3.554
		c-12.95-3.669-9.592-17.341-9.592-17.341c-7.183,5.228-19.814,5.256-25.041,12.439c-5.176,7.112-1.335,19.108-4.109,27.652
		c-2.677,8.244-12.924,15.65-12.924,24.787c0,9.136,10.247,16.542,12.924,24.786c2.774,8.544-1.067,20.54,4.109,27.652
		c5.228,7.183,17.858,7.212,25.041,12.439c7.112,5.176,11.014,17.209,19.558,19.983c8.245,2.677,18.436-4.677,27.573-4.677
		c9.137,0,19.328,7.354,27.572,4.677C437.955,292.472,441.495,287.056,445.154,281.99L445.154,281.99z"/>
	<circle style="fill:#F2BA00;" cx="405.003" cy="209.359" r="48.995"/>
	<path style="fill:#EEA200;" d="M430.999,250.883c-1.788-2.564-2.058-5.446-1.964-7.431c0.069-1.443-0.794-2.77-2.164-3.229
		c-38.69-12.942-44.118-49.789-44.877-60.504c-0.114-1.61-1.441-2.823-3.053-2.898c-3.814-0.177-6.135-1.427-7.527-3.113
		c-9.479,8.935-15.406,21.597-15.406,35.652c0,27.06,21.936,48.995,48.996,48.995C414.555,258.354,423.463,255.61,430.999,250.883z"
		/>
	<g>
		<path style="fill:#F9DF5F;" d="M405.002,267.478c-32.047,0-58.118-26.072-58.118-58.119c0-32.047,26.071-58.119,58.118-58.119
			s58.119,26.072,58.119,58.119C463.121,241.405,437.049,267.478,405.002,267.478z M405.002,169.487
			c-21.985,0-39.871,17.887-39.871,39.872c0,21.986,17.886,39.872,39.871,39.872c21.986,0,39.872-17.886,39.872-39.872
			C444.874,187.373,426.988,169.487,405.002,169.487z"/>
	</g>
	<path style="fill:#F6D100;" d="M438.074,257.112c-0.245-0.942-0.904-1.768-1.88-2.183c-6.526-2.777-7.311-8.287-7.159-11.477
		c0.033-0.698-0.156-1.367-0.51-1.925c-6.599,4.838-14.73,7.704-23.522,7.704c-21.985,0-39.871-17.886-39.871-39.872
		c0-12.943,6.203-24.461,15.788-31.75c-0.535-0.46-1.223-0.753-1.979-0.788c-9.416-0.437-9.831-7.363-9.245-11.445
		c0.096-0.669-0.025-1.327-0.301-1.901c-13.682,10.643-22.51,27.247-22.51,45.884c0,32.047,26.071,58.119,58.118,58.119
		C417.283,267.478,428.679,263.638,438.074,257.112z"/>
	<g>
		<path style="fill:#F2BA00;" d="M129.693,150.73c0-5.636,3.307-10.488,8.08-12.757c-22.977,3.731-45.454,11.728-66.287,24.008
			c-6.29,3.708-8.384,11.813-4.676,18.104c3.707,6.29,11.813,8.383,18.104,4.676c17.447-10.285,36.167-17.058,55.283-20.384
			C134.152,162.77,129.693,157.278,129.693,150.73z"/>
	</g>
</g>
<g>
</g>
<g>
</g>
<g>
</g>
<g>
</g>
<g>
</g>
<g>
</g>
<g>
</g>
<g>
</g>
<g>
</g>
<g>
</g>
<g>
</g>
<g>
</g>
<g>
</g>
<g>
</g>
<g>
</g>
</svg>
