<?xml version="1.0" encoding="iso-8859-1"?>
<!-- Generator: Adobe Illustrator 21.0.0, SVG Export Plug-In . SVG Version: 6.00 Build 0)  -->
<svg version="1.1" id="Capa_1" xmlns="http://www.w3.org/2000/svg" xmlns:xlink="http://www.w3.org/1999/xlink" x="0px" y="0px"
	 viewBox="0 0 512 512" style="enable-background:new 0 0 512 512;" xml:space="preserve">
<g>
	<path style="fill:#31A7ED;" d="M245.001,5.5c-96.745,0-180.381,56.081-220.204,137.501L22.219,352.56
		c38.707,84.352,123.897,142.94,222.782,142.94c135.31,0,245.001-109.691,245.001-245.001C490.001,115.19,380.311,5.5,245.001,5.5z"
		/>
	<path style="fill:#5766CE;" d="M180.255,144.478c0.051-0.624,0.084-1.254,0.084-1.891c0-12.548-10.172-22.72-22.719-22.72
		c-12.548,0-22.719,10.172-22.719,22.72c0,0.638,0.033,1.267,0.085,1.891H180.255z"/>
	<path style="fill:#3D4EC6;" d="M167.214,121.992c-2.915-1.361-6.165-2.125-9.594-2.125c-12.548,0-22.719,10.172-22.719,22.72
		c0,0.637,0.033,1.267,0.084,1.891h19.188c-0.052-0.624-0.085-1.254-0.085-1.891C154.089,133.468,159.462,125.609,167.214,121.992z"
		/>
	<path style="fill:#3D4EC6;" d="M22.332,148.198c30.329,17.861,52.841,51.574,52.841,88.358c0,12.261-2.179,24.01-6.167,34.889
		c-2.231,6.087,2.356,12.423,8.839,12.403c0.055,0,0.11,0,0.165,0c30.448,0,55.131,24.683,55.131,55.132
		c0,7.247-1.412,14.16-3.954,20.5h56.866c-2.542-6.339-3.954-13.252-3.954-20.5c0-30.449,24.683-55.132,55.131-55.132
		c0.055,0,0.11,0,0.164,0c6.483,0.019,11.07-6.316,8.839-12.403c-3.987-10.878-6.167-22.628-6.167-34.889
		c0-37.692,20.584-70.332,50.479-87.745l0.88-7.874H25.822C24.621,143.336,23.456,145.756,22.332,148.198z"/>
	<path style="fill:#3342AE;" d="M25.822,140.938c-1.201,2.398-2.366,4.818-3.49,7.26c30.329,17.861,52.841,51.574,52.841,88.358
		c0,12.261-2.179,24.01-6.167,34.889c-2.231,6.087,2.356,12.423,8.839,12.403c0.055,0,0.11,0,0.165,0
		c30.448,0,55.131,24.683,55.131,55.132c0,7.247-1.412,14.16-3.954,20.5h56.866c-2.542-6.339-3.954-13.252-3.954-20.5
		c0-17.486,8.15-33.059,20.847-43.159c0.2-2.424,0.688-4.158,0.688-4.158c-13.479,0-18.51-6.795-20.319-12.835
		c-1.614-5.389-6.428-9.181-12.053-9.181h-4.636c-24.633,0-44.601-19.969-44.601-44.601v-84.108H25.822z"/>
	<path style="fill:#3D4EC6;" d="M336.253,141.88L336.253,141.88c18.459,0,35.76,4.938,50.672,13.552l-3.503-28.571
		c-0.779-6.356-5.291-11.614-11.443-13.391c-10.978-3.169-22.576-4.873-34.575-4.873h0c-12.531,0-24.629,1.851-36.037,5.294
		c-7.299,2.203-12.613,8.499-13.46,16.075l-2.88,25.78C300.065,146.937,317.567,141.88,336.253,141.88z"/>
	<path style="fill:#3342AE;" d="M337.405,108.598c-12.531,0-24.629,1.851-36.037,5.294c-7.299,2.203-12.613,8.499-13.46,16.075
		l-2.88,25.78c15.036-8.81,32.539-13.866,51.224-13.866h0c1.393,0,2.777,0.037,4.156,0.093c-0.852-1.143-1.841-2.298-3.005-3.461
		C319.909,121.016,337.405,108.598,337.405,108.598z"/>
	<path style="fill:#8C96DD;" d="M323.033,350.177c63.861,7.308,119.977-39.889,125.215-102.467l-15.714-43.285h0
		c-13.442-40.295-51.466-69.346-96.28-69.346h0c-56.044,0-101.477,45.433-101.477,101.477c0,12.261,2.18,24.01,6.167,34.889
		c2.231,6.087-2.356,12.422-8.839,12.403c-0.055,0-0.11,0-0.164,0h0c-30.448,0-55.131,24.683-55.131,55.131
		c0,30.449,24.683,55.131,55.131,55.131h0c22.878,0,42.5-13.935,50.843-33.781c2.816-6.699,11.84-7.775,16.071-1.867l2.091,2.919
		C305.369,353.586,314.045,349.149,323.033,350.177z"/>
	<path style="fill:#5766CE;" d="M323.033,350.177c17.631,2.018,34.669-0.124,50.212-5.591l-0.951-1.697
		c-34.102-9.873-19.538-39.903-19.538-39.903c-29.14-10.775-17.408-37.82-17.408-37.82c-39.549-13.596-29.302-52.011-29.302-52.011
		c-49.017-7.607-33.618-55.485-33.618-55.486c-22.966,18.604-37.652,47.029-37.652,78.888c0,12.261,2.18,24.01,6.167,34.889
		c2.231,6.087-2.356,12.422-8.839,12.403c-0.055,0-0.11,0-0.164,0h0c-30.448,0-55.131,24.683-55.131,55.131
		c0,30.449,24.683,55.131,55.131,55.131h0c22.878,0,42.5-13.935,50.843-33.781c2.816-6.699,11.84-7.775,16.071-1.867l2.091,2.919
		C305.369,353.586,314.045,349.149,323.033,350.177z"/>
	<path style="fill:#3D4EC6;" d="M252.491,363.435l-36.094-52.423c-18.194,0-12.798-19.226-12.764-19.344
		c-16.067,9.634-26.824,27.214-26.824,47.311c0,30.449,24.683,55.131,55.131,55.131h0c13.189,0,25.291-4.638,34.778-12.363l0,0
		C246.039,381.747,252.491,363.435,252.491,363.435z"/>
	<path style="fill:#3D4EC6;" d="M83.3,283.848L83.3,283.848c-0.055,0-0.11,0-0.164,0c-6.483,0.019-11.071-6.316-8.839-12.403
		c3.987-10.878,6.167-22.628,6.167-34.889c0-40.023-23.172-74.628-56.83-91.146C8.487,177.259,0,212.887,0,250.5
		c0,37.244,8.325,72.538,23.193,104.147c3.742-0.266,7.594,1.71,9.264,5.683c8.343,19.845,27.965,33.781,50.843,33.781h0
		c30.448,0,55.131-24.683,55.131-55.131C138.431,308.531,113.748,283.848,83.3,283.848z"/>
	<path style="fill:#3D4EC6;" d="M507.739,411.579l-61.508-169.426c-2.237,64.279-58.862,113.714-123.557,106.31
		c-9.25-1.059-18.177,3.755-22.321,12.093v0l83.333,116.372c19.935,27.839,56.942,37.412,87.876,22.731h0
		C504.524,484.016,520.19,445.875,507.739,411.579z"/>
	<path style="fill:#3342AE;" d="M471.561,499.66L471.561,499.66c6.945-3.296,13.112-7.6,18.42-12.647
		c-35.381,10.559-49.918-23.25-49.918-23.25L372.294,342.89c-0.001,0-0.003-0.001-0.004-0.001
		c-15.351,5.434-32.19,7.57-49.617,5.575c-9.25-1.059-18.177,3.755-22.321,12.093v0l83.333,116.372
		C403.62,504.768,440.627,514.34,471.561,499.66z"/>
	<g>
		<path style="fill:#31A7ED;" d="M164.947,277.583h-14.656c-4.383,0-7.936-3.553-7.936-7.936c0-4.383,3.552-7.936,7.936-7.936
			h14.656c4.383,0,7.936,3.553,7.936,7.936C172.883,274.03,169.331,277.583,164.947,277.583z"/>
	</g>
	<path style="fill:#5766CE;" d="M126.283,207.335h-8.517c-6.187,0-11.203,5.016-11.203,11.203c0,6.187,5.016,11.203,11.203,11.203
		h8.517c6.187,0,11.203-5.016,11.203-11.203C137.486,212.35,132.47,207.335,126.283,207.335z"/>
	<path style="fill:#5766CE;" d="M205.935,215.133l-18.218-8.085c-2.463-1.093-5.236,0.71-5.236,3.405v16.17
		c0,2.695,2.773,4.498,5.236,3.405l18.218-8.085C208.887,220.632,208.887,216.443,205.935,215.133z"/>
	<path style="fill:#3342AE;" d="M46.378,237.457c-0.407-11.434-10.152-20.332-21.593-20.332H6.707c-1.547,0-3.003-0.36-4.311-0.983
		C0.819,227.369,0,238.839,0,250.5c0,3.731,0.106,7.437,0.272,11.128c1.752-1.437,3.993-2.301,6.436-2.301h18.583
		C37.2,259.328,46.805,249.461,46.378,237.457z"/>
	<path style="fill:#3D4EC6;" d="M83.3,307.03L83.3,307.03c-17.645,0-31.95,14.304-31.95,31.95l0,0
		c0,17.645,14.304,31.95,31.95,31.95l0,0c17.645,0,31.95-14.305,31.95-31.95l0,0C115.249,321.334,100.945,307.03,83.3,307.03z"/>
	<path style="fill:#3342AE;" d="M114.683,333.003c-2.176,9.381-10.567,16.379-20.61,16.379c-11.695,0-21.176-9.481-21.176-21.176
		c0-10.043,6.998-18.434,16.379-20.61c-1.937-0.367-3.932-0.566-5.976-0.566c-17.645,0-31.95,14.304-31.95,31.95
		c0,17.645,14.305,31.95,31.95,31.95c17.645,0,31.95-14.305,31.95-31.95C115.249,336.936,115.05,334.94,114.683,333.003z"/>
	<path style="fill:#3D4EC6;" d="M231.939,307.03L231.939,307.03c17.645,0,31.95,14.304,31.95,31.95l0,0
		c0,17.645-14.304,31.95-31.949,31.95h0c-17.645,0-31.949-14.305-31.949-31.95l0,0C199.99,321.334,214.294,307.03,231.939,307.03z"
		/>
	<path style="fill:#3D4EC6;" d="M407.123,237.316L407.123,237.316c-0.474-13.323-11.926-24.161-25.529-24.161h-16.945
		c-2.333,0-4.231-1.899-4.231-4.232v-16.945c0-13.602-10.839-25.055-24.161-25.528c-14.386-0.505-25.98,11.011-25.98,25.054v17.419
		c0,2.333-1.898,4.232-4.231,4.232h-16.945c-13.602,0-25.054,10.839-25.528,24.161c-0.505,14.236,10.856,25.979,25.054,25.979
		h17.419c2.333,0,4.231,1.898,4.231,4.231v16.945c0,22.193,26.435,33.998,42.479,18.515c4.941-4.768,7.662-11.175,7.662-18.041
		v-17.419c0-2.333,1.898-4.231,4.231-4.231h17.419C396.252,263.296,407.629,251.567,407.123,237.316z"/>
	<path style="fill:#3342AE;" d="M289.101,213.155c-13.602,0-25.054,10.839-25.528,24.161c-0.505,14.236,10.856,25.979,25.054,25.979
		h17.419c2.333,0,4.231,1.898,4.231,4.231v16.945c0,22.193,26.435,33.998,42.479,18.515v0c-29.14-10.775-17.408-37.82-17.408-37.82
		c-39.549-13.596-29.302-52.011-29.302-52.011H289.101z"/>
	<circle style="fill:#EB5793;" cx="382.068" cy="238.225" r="19.78"/>
	<path style="fill:#E7387F;" d="M388.043,246.056c-7.625,0-13.805-6.181-13.805-13.805c0-6.671,4.732-12.237,11.023-13.525
		c-1.041-0.169-2.102-0.281-3.192-0.281c-10.924,0-19.78,8.856-19.78,19.78c0,10.924,8.856,19.78,19.78,19.78
		c10.924,0,19.78-8.856,19.78-19.78c0-1.089-0.111-2.15-0.281-3.192C400.28,241.324,394.714,246.056,388.043,246.056z"/>
	<path style="fill:#3342AE;" d="M263.323,333.003c-2.176,9.381-10.567,16.379-20.61,16.379c-11.695,0-21.176-9.481-21.176-21.176
		c0-10.043,6.998-18.434,16.379-20.61c-1.937-0.367-3.932-0.566-5.976-0.566c-17.645,0-31.95,14.304-31.95,31.95
		c0,17.645,14.304,31.95,31.95,31.95c17.645,0,31.95-14.305,31.95-31.95C263.889,336.936,263.689,334.94,263.323,333.003z"/>
	<circle style="fill:#31A7ED;" cx="288.627" cy="238.225" r="19.78"/>
	<path style="fill:#1296D8;" d="M294.601,246.056c-7.625,0-13.805-6.181-13.805-13.805c0-6.671,4.732-12.237,11.023-13.525
		c-1.041-0.169-2.102-0.281-3.192-0.281c-10.924,0-19.78,8.856-19.78,19.78c0,10.924,8.856,19.78,19.78,19.78
		c10.924,0,19.78-8.856,19.78-19.78c0-1.089-0.111-2.15-0.281-3.192C306.839,241.324,301.272,246.056,294.601,246.056z"/>
	<circle style="fill:#F6D100;" cx="335.348" cy="191.505" r="19.78"/>
	<path style="fill:#F2BA00;" d="M341.322,199.335c-7.625,0-13.805-6.181-13.805-13.805c0-6.671,4.732-12.237,11.023-13.525
		c-1.041-0.169-2.102-0.281-3.192-0.281c-10.924,0-19.78,8.856-19.78,19.78c0,10.924,8.856,19.78,19.78,19.78
		c10.924,0,19.78-8.856,19.78-19.78c0-1.089-0.111-2.15-0.281-3.192C353.559,194.603,347.993,199.335,341.322,199.335z"/>
	<circle style="fill:#9ED369;" cx="335.348" cy="284.946" r="19.78"/>
	<path style="fill:#82CD64;" d="M341.323,292.777c-7.625,0-13.805-6.181-13.805-13.805c0-6.671,4.732-12.237,11.023-13.525
		c-1.041-0.169-2.102-0.281-3.192-0.281c-10.924,0-19.78,8.856-19.78,19.78c0,10.924,8.856,19.78,19.78,19.78
		c10.924,0,19.78-8.856,19.78-19.78c0-1.089-0.111-2.15-0.281-3.192C353.56,288.045,347.994,292.777,341.323,292.777z"/>
</g>
<g>
</g>
<g>
</g>
<g>
</g>
<g>
</g>
<g>
</g>
<g>
</g>
<g>
</g>
<g>
</g>
<g>
</g>
<g>
</g>
<g>
</g>
<g>
</g>
<g>
</g>
<g>
</g>
<g>
</g>
</svg>
