<?xml version="1.0" encoding="iso-8859-1"?>
<!-- Generator: Adobe Illustrator 21.0.0, SVG Export Plug-In . SVG Version: 6.00 Build 0)  -->
<svg version="1.1" id="Capa_1" xmlns="http://www.w3.org/2000/svg" xmlns:xlink="http://www.w3.org/1999/xlink" x="0px" y="0px"
	 viewBox="0 0 512 512" style="enable-background:new 0 0 512 512;" xml:space="preserve">
<g>
	<path style="fill:#82CD64;" d="M416.511,59.901c-131.591-26.211-304.235-2.354-321.124,0.09
		c-51.698,44.919-84.388,111.146-84.388,185.01c0,135.31,109.691,245.001,245.001,245.001s245.001-109.691,245.001-245.001
		C501.001,171.088,468.269,104.821,416.511,59.901z"/>
	<path style="fill:#8C96DD;" d="M181.506,54.492h148.988l20.346-35.453C321.668,6.78,289.627,0,256,0
		c-33.626,0-65.668,6.78-94.84,19.039L181.506,54.492z"/>
	<path style="fill:#717ED6;" d="M259.056,23.239c-1.512,2.192-1.532,5.102-0.08,7.333c3.222,4.952,6.706,14.237-2.976,23.919h0
		h74.495l20.346-35.453C321.668,6.78,289.627,0,256,0C256,0,267.714,10.685,259.056,23.239z"/>
	<path style="fill:#717ED6;" d="M165.654,26.87h180.692l4.494-7.831C321.669,6.78,289.627,0,256,0
		c-33.626,0-65.668,6.78-94.84,19.039L165.654,26.87z"/>
	<path style="fill:#5766CE;" d="M259.056,23.239c-0.752,1.09-1.133,2.357-1.15,3.631h88.44l4.494-7.831
		C321.669,6.78,289.627,0,256,0C256,0,267.714,10.685,259.056,23.239z"/>
	<path style="fill:#3D4EC6;" d="M349.239,18.385L252.24,175.482l50.245,70.235h0.894c0.673,0,1.297-0.349,1.65-0.922L417.963,61.189
		C397.742,43.357,374.557,28.813,349.239,18.385z"/>
	<g>
		<path style="fill:#3342AE;" d="M335.102,164.283c-24.721,0-44.761-20.04-44.761-44.761c0-2.216,0.167-4.393,0.478-6.523
			l-38.579,62.482l50.245,70.235h0.894c0.673,0,1.297-0.349,1.65-0.922l53.654-87.23
			C351.835,161.819,343.758,164.283,335.102,164.283z"/>
	</g>
	<path style="fill:#D0E8FE;" d="M308.55,286.105H202.233c-10.717,0-19.437-8.719-19.437-19.436V248.37
		c0-10.717,8.72-19.436,19.437-19.436H308.55c10.717,0,19.437,8.719,19.437,19.436v18.299
		C327.987,277.386,319.267,286.105,308.55,286.105z M202.233,245.724c-1.459,0-2.646,1.187-2.646,2.646v18.299
		c0,1.459,1.187,2.646,2.646,2.646H308.55c1.459,0,2.646-1.187,2.646-2.646V248.37c0-1.459-1.187-2.646-2.646-2.646H202.233z"/>
	<g>
		<path style="fill:#A9D8FC;" d="M287.359,269.315h-85.126c-1.459,0-2.646-1.187-2.646-2.646V248.37
			c0-1.459,1.187-2.646,2.646-2.646h51.638v-16.79h-51.638c-10.717,0-19.437,8.719-19.437,19.436v18.299
			c0,10.717,8.72,19.436,19.437,19.436h85.038c-3.479-1.198-5.983-4.493-5.983-8.379
			C281.288,273.807,283.833,270.487,287.359,269.315z"/>
	</g>
	<path style="fill:#5766CE;" d="M162.676,18.419c-25.285,10.426-48.44,24.958-68.64,42.77l109.33,177.745
		c2.592,4.215,7.186,6.782,12.135,6.782h86.984L162.676,18.419z"/>
	<path style="fill:#D0E8FE;" d="M255.696,303.084c5.026,0,9.968,0.36,14.807,1.039v-30.269c0-8.346-6.765-15.111-15.111-15.111
		c-8.346,0-15.111,6.765-15.111,15.111v30.353C245.313,303.472,250.459,303.084,255.696,303.084z"/>
	<path style="fill:#A9D8FC;" d="M255.391,288.208c-8.218,0-14.889-6.563-15.092-14.732c-0.003,0.127-0.019,0.251-0.019,0.379v30.353
		c5.033-0.736,10.179-1.124,15.416-1.124c5.026,0,9.968,0.36,14.807,1.039v-30.269c0-0.128-0.016-0.252-0.019-0.379
		C270.28,281.645,263.609,288.208,255.391,288.208z"/>
	<circle style="fill:#F6D100;" cx="255.696" cy="406.423" r="105.577"/>
	<path style="fill:#F2BA00;" d="M348.613,456.591c-18.822,5.545-24.476-4.747-26.163-10.858c-0.616-2.23-2.69-3.723-4.998-3.557
		c-22.187,1.604-31.432-13.638-34.395-20.312c-0.797-1.795-2.59-2.914-4.553-2.868c-33.116,0.772-36.696-24.939-36.905-34.299
		c-0.044-1.955-1.252-3.703-3.084-4.387c-20.672-7.712-20.361-26.855-19.046-35.518c0.361-2.376-1.077-4.633-3.377-5.33
		c-18.249-5.525-11.293-25.553-11.293-25.553h0c-32.594,17.971-54.678,52.661-54.678,92.513
		c0,58.309,47.269,105.577,105.577,105.577C295.846,512,330.76,489.587,348.613,456.591z"/>
	<circle style="fill:#F2BA00;" cx="255.696" cy="406.423" r="74.853"/>
	<path style="fill:#EEA200;" d="M320.841,443.273c-0.925-0.763-2.117-1.189-3.389-1.097c-22.187,1.604-31.432-13.638-34.395-20.312
		c-0.797-1.795-2.59-2.914-4.553-2.868c-33.116,0.772-36.696-24.939-36.905-34.299c-0.044-1.955-1.252-3.703-3.084-4.387
		c-20.672-7.712-20.361-26.855-19.046-35.518c0.189-1.244-0.124-2.448-0.787-3.42c-22.594,12.885-37.837,37.18-37.837,65.05
		c0,41.34,33.513,74.853,74.853,74.853C283.634,481.276,307.981,465.958,320.841,443.273z"/>
	<path style="fill:#F9DF5F;" d="M295.813,400.703c4.478-4.365,2.007-11.969-4.181-12.868l-16.232-2.359
		c-2.457-0.357-4.582-1.9-5.68-4.127l-7.259-14.709c-2.768-5.607-10.763-5.607-13.531,0l-7.259,14.709
		c-1.099,2.227-3.223,3.77-5.68,4.127l-16.232,2.359c-6.188,0.899-8.659,8.504-4.181,12.868l11.746,11.449
		c1.778,1.733,2.589,4.23,2.17,6.678l-2.773,16.166c-1.057,6.163,5.412,10.863,10.946,7.953l14.519-7.633
		c2.198-1.156,4.823-1.156,7.021,0l14.518,7.633c5.535,2.91,12.003-1.79,10.946-7.953l-2.773-16.166
		c-0.42-2.447,0.391-4.944,2.169-6.678L295.813,400.703z"/>
	<path style="fill:#F6D100;" d="M227.324,412.152c1.778,1.733,2.589,4.23,2.17,6.678l-2.773,16.166
		c-1.057,6.163,5.412,10.863,10.946,7.953l14.519-7.633c2.198-1.155,4.823-1.155,7.021,0l14.518,7.633
		c5.535,2.91,12.003-1.79,10.946-7.953l-2.475-14.432c-0.93-1.012-2.264-1.602-3.693-1.568
		c-33.116,0.772-36.696-24.939-36.905-34.299c-0.018-0.803-0.241-1.565-0.615-2.239c-1.185,1.619-2.971,2.725-4.993,3.018
		l-16.232,2.359c-6.188,0.899-8.659,8.504-4.181,12.868L227.324,412.152z"/>
	<g>
		<path style="fill:#3D4EC6;" d="M231.561,130.411L162.676,18.419c-25.285,10.426-48.44,24.958-68.64,42.77l67.343,109.485
			C157.572,132.135,201.106,108.228,231.561,130.411z"/>
	</g>
</g>
<g>
</g>
<g>
</g>
<g>
</g>
<g>
</g>
<g>
</g>
<g>
</g>
<g>
</g>
<g>
</g>
<g>
</g>
<g>
</g>
<g>
</g>
<g>
</g>
<g>
</g>
<g>
</g>
<g>
</g>
</svg>
