<?xml version="1.0" encoding="iso-8859-1"?>
<!-- Generator: Adobe Illustrator 21.0.0, SVG Export Plug-In . SVG Version: 6.00 Build 0)  -->
<svg version="1.1" id="Capa_1" xmlns="http://www.w3.org/2000/svg" xmlns:xlink="http://www.w3.org/1999/xlink" x="0px" y="0px"
	 viewBox="0 0 512 512" style="enable-background:new 0 0 512 512;" xml:space="preserve">
<g>
	<path style="fill:#3342AE;" d="M256,21.999c-111.256,0-205.175,74.164-235.057,175.746L51.94,402.611
		C95.846,468.546,170.843,512,256,512c135.31,0,245-109.69,245-245.001C501,131.689,391.31,21.999,256,21.999z"/>
	<g>
		<path style="fill:#8C96DD;" d="M400.54,82.228l-31.238-43.287c-2.685-3.72-1.845-8.913,1.876-11.597
			c3.72-2.685,8.911-1.845,11.598,1.875l31.238,43.287c2.685,3.72,1.845,8.913-1.875,11.597
			C408.417,86.788,403.226,85.947,400.54,82.228z"/>
	</g>
	<path style="fill:#5766CE;" d="M414.013,72.505l-13.748-19.051c0.058,3.205-1.397,6.386-4.194,8.404
		c-2.786,2.011-6.247,2.393-9.262,1.342l13.731,19.028c2.685,3.719,7.876,4.56,11.597,1.874
		C415.859,81.418,416.698,76.225,414.013,72.505z"/>
	<g>
		<path style="fill:#8C96DD;" d="M371.342,156.391c-3.84-2.51-4.917-7.659-2.407-11.499l32.087-49.076
			c2.51-3.84,7.658-4.915,11.499-2.407c3.84,2.51,4.917,7.659,2.407,11.499l-32.087,49.076
			C380.328,157.829,375.18,158.898,371.342,156.391z"/>
	</g>
	<path style="fill:#5766CE;" d="M387.066,132.158c-2.89-1.889-4.435-5.054-4.398-8.268l-13.732,21.002
		c-2.51,3.84-1.433,8.989,2.407,11.499c3.838,2.507,8.986,1.438,11.499-2.407l13.913-21.279
		C393.757,134.204,390.071,134.121,387.066,132.158z"/>
	<path style="fill:#F98F6E;" d="M10.999,266.999c0,50.987,15.581,98.332,42.233,137.546h352.407V242.512H12.214
		C11.415,250.567,10.999,258.734,10.999,266.999z"/>
	<g>
		<path style="fill:#EF7D5E;" d="M91.567,386.204V265.91c0-12.869,10.529-23.398,23.398-23.398H12.214
			c-0.799,8.055-1.215,16.222-1.215,24.487c0,50.987,15.581,98.332,42.233,137.546h47.257
			C95.065,400.25,91.567,393.618,91.567,386.204z"/>
	</g>
	<path style="fill:#E06E53;" d="M398.993,465.948c15.172-10.924,29.043-23.54,41.339-37.573V242.512h-41.339V465.948z"/>
	<path style="fill:#D3644F;" d="M398.993,242.512v75.893c0-11.309,9.168-20.477,20.477-20.477h0.385
		c11.309,0,20.477,9.168,20.477,20.477v-75.893H398.993z"/>
	<path style="fill:#EF7D5E;" d="M11.713,248.157H443.96c8.531,0,15.447-6.915,15.447-15.447c0-8.531-6.915-15.447-15.447-15.447
		H16.055C13.975,227.35,12.512,237.66,11.713,248.157z"/>
	<path style="fill:#E06E53;" d="M85.272,232.711c0-8.531,6.916-15.447,15.447-15.447H16.055c-2.08,10.086-3.544,20.396-4.342,30.893
		h89.005C92.187,248.157,85.272,241.242,85.272,232.711z"/>
	<path style="fill:#D0E8FE;" d="M15.828,218.401h453.51c6.319,0,11.442-5.123,11.442-11.442c0-6.319-5.123-11.442-11.442-11.442
		H21.606C19.326,203,17.391,210.633,15.828,218.401z"/>
	<path style="fill:#A9D8FC;" d="M89.828,206.959c0-6.319,5.123-11.442,11.442-11.442H21.606c-2.279,7.483-4.214,15.116-5.778,22.884
		h85.442C94.951,218.401,89.828,213.277,89.828,206.959z"/>
	<path style="fill:#4AC4F4;" d="M192.103,190.058v-25.693c0-3.015-2.444-5.459-5.459-5.459H73.981c-3.015,0-5.459,2.444-5.459,5.459
		v25.693c0,3.015,2.444,5.459,5.459,5.459h112.663C189.659,195.517,192.103,193.073,192.103,190.058z"/>
	<path style="fill:#31A7ED;" d="M124.723,177.211L124.723,177.211c0-10.11,8.196-18.305,18.306-18.305H73.981
		c-3.015,0-5.459,2.444-5.459,5.459v25.693c0,3.015,2.444,5.459,5.459,5.459h69.047
		C132.919,195.517,124.723,187.321,124.723,177.211z"/>
	<rect x="99.929" y="158.906" style="fill:#31A7ED;" width="60.232" height="36.611"/>
	<path style="fill:#1296D8;" d="M143.025,158.906H99.929v36.611h43.099c-10.11,0-18.305-8.196-18.305-18.305v0
		C124.723,167.103,132.917,158.908,143.025,158.906z"/>
	<path style="fill:#09A858;" d="M206.853,153.447v-25.693c0-3.015-2.444-5.459-5.459-5.459H88.731c-3.015,0-5.459,2.444-5.459,5.459
		v25.693c0,3.015,2.444,5.459,5.459,5.459h112.663C204.408,158.906,206.853,156.462,206.853,153.447z"/>
	<path style="fill:#008E4A;" d="M139.522,140.6c0-10.11,8.196-18.305,18.305-18.305H88.731c-3.015,0-5.459,2.444-5.459,5.459v25.693
		c0,3.015,2.444,5.459,5.459,5.459h69.096C147.717,158.906,139.522,150.71,139.522,140.6z"/>
	<path style="fill:#EB5793;" d="M206.853,80.267V54.574c0-3.015-2.444-5.459-5.459-5.459H88.731c-3.015,0-5.459,2.444-5.459,5.459
		v25.693c0,3.015,2.444,5.459,5.459,5.459h112.663C204.408,85.726,206.853,83.282,206.853,80.267z"/>
	<path style="fill:#E7387F;" d="M132.938,67.421L132.938,67.421c0-10.11,8.195-18.306,18.305-18.306H88.731
		c-3.015,0-5.459,2.444-5.459,5.459v25.693c0,3.015,2.444,5.459,5.459,5.459h62.513C141.134,85.726,132.938,77.53,132.938,67.421z"
		/>
	<rect x="114.679" y="122.295" style="fill:#008E4A;" width="60.232" height="36.611"/>
	<path style="fill:#00783B;" d="M157.822,122.295h-43.143v36.611h43.148c-10.11,0-18.306-8.195-18.306-18.305
		C139.522,130.492,147.715,122.298,157.822,122.295z"/>
	<path style="fill:#F2BA00;" d="M192.103,116.836V91.143c0-3.015-2.444-5.459-5.459-5.459H73.981c-3.015,0-5.459,2.444-5.459,5.459
		v25.692c0,3.015,2.444,5.459,5.459,5.459h112.663C189.659,122.295,192.103,119.851,192.103,116.836z"/>
	<path style="fill:#EEA200;" d="M126.272,103.99L126.272,103.99c0-10.11,8.195-18.305,18.305-18.305H73.981
		c-3.015,0-5.459,2.444-5.459,5.459v25.692c0,3.015,2.444,5.459,5.459,5.459h70.596C134.467,122.295,126.272,114.099,126.272,103.99
		z"/>
	<rect x="145.062" y="85.684" style="fill:#F6D100;" width="20.837" height="36.611"/>
	<rect x="94.192" y="85.684" style="fill:#F2BA00;" width="20.837" height="36.611"/>
	<path style="fill:#4AC4F4;" d="M356.115,23.884c0-6.987,5.664-12.652,12.651-12.652c0.766,0,1.512,0.08,2.241,0.21
		c-0.253-1.595-0.783-3.174-1.638-4.656c-3.747-6.49-12.045-8.713-18.535-4.966L331.41,13.035l13.568,23.501l12.403-7.161
		C356.578,27.712,356.115,25.854,356.115,23.884z"/>
	<g>
		<path style="fill:#91D1F9;" d="M406.799,174.848v-14.647c0-5.92-4.843-10.764-10.763-10.764h-41.863
			c-5.92,0-10.763,4.844-10.763,10.764v14.647H406.799z"/>
	</g>
	<path style="fill:#4AC4F4;" d="M385.461,149.438h-31.288c-5.92,0-10.763,4.844-10.763,10.764v14.647h31.288v-14.647
		C374.698,154.281,379.542,149.438,385.461,149.438z"/>
	<path style="fill:#A9D8FC;" d="M311.399,73.63l-28.903-50.062l31.194-18.01c6.641-3.834,15.212-1.538,19.047,5.104l14.96,25.911
		c3.834,6.641,1.538,15.212-5.104,19.047L311.399,73.63z"/>
	<path style="fill:#91D1F9;" d="M332.737,10.662c-3.834-6.641-12.405-8.938-19.047-5.104l-31.194,18.01l14.452,25.031L330.893,29
		c5.128-2.961,11.746-1.188,14.707,3.94L332.737,10.662z"/>
	<g>
		<path style="fill:#D0E8FE;" d="M303.529,76.613l-27.552-47.721c-2.294-3.973-0.932-9.054,3.04-11.348
			c3.972-2.294,9.055-0.933,11.348,3.04l27.552,47.721c2.294,3.973,0.932,9.054-3.041,11.348
			C310.93,81.934,305.837,80.613,303.529,76.613z"/>
	</g>
	<path style="fill:#A9D8FC;" d="M294.397,44.338c3.129-1.807,6.855-1.643,9.743,0.105l-13.774-23.858
		c-2.293-3.973-7.376-5.335-11.348-3.041c-3.973,2.294-5.335,7.374-3.041,11.348l13.647,23.637
		C289.659,49.259,291.361,46.091,294.397,44.338z"/>
	<path style="fill:#A9D8FC;" d="M419.536,184.075c0-6.319-5.123-11.442-11.442-11.442h-65.167c-6.319,0-11.442,5.123-11.442,11.442
		c0,6.319,5.123,11.442,11.442,11.442h65.167C414.413,195.517,419.536,190.393,419.536,184.075z"/>
	<path style="fill:#91D1F9;" d="M362.774,184.075c0-6.319,5.123-11.442,11.442-11.442h-31.288c-6.319,0-11.442,5.123-11.442,11.442
		c0,6.319,5.123,11.442,11.442,11.442h31.288C367.897,195.517,362.774,190.393,362.774,184.075z"/>
	<circle style="fill:#D0E8FE;" cx="368.459" cy="23.576" r="15.394"/>
	<path style="fill:#A9D8FC;" d="M373.409,29.07c-5.768,0-10.444-4.676-10.444-10.444c0-4.993,3.506-9.161,8.189-10.193
		c-0.877-0.155-1.775-0.251-2.696-0.251c-8.502,0-15.394,6.892-15.394,15.394c0,8.502,6.892,15.394,15.394,15.394
		c8.502,0,15.393-6.892,15.393-15.394c0-0.921-0.095-1.819-0.25-2.696C382.57,25.564,378.402,29.07,373.409,29.07z"/>
	<circle style="fill:#D0E8FE;" cx="410.193" cy="88.64" r="15.394"/>
	<path style="fill:#A9D8FC;" d="M415.143,94.133c-5.768,0-10.444-4.676-10.444-10.444c0-4.993,3.506-9.161,8.189-10.193
		c-0.877-0.155-1.775-0.251-2.696-0.251c-8.502,0-15.394,6.892-15.394,15.394c0,8.502,6.892,15.394,15.394,15.394
		c8.502,0,15.393-6.892,15.393-15.394c0-0.921-0.095-1.819-0.25-2.695C424.305,90.627,420.136,94.133,415.143,94.133z"/>
</g>
<g>
</g>
<g>
</g>
<g>
</g>
<g>
</g>
<g>
</g>
<g>
</g>
<g>
</g>
<g>
</g>
<g>
</g>
<g>
</g>
<g>
</g>
<g>
</g>
<g>
</g>
<g>
</g>
<g>
</g>
</svg>
