<?xml version="1.0" encoding="iso-8859-1"?>
<!-- Generator: Adobe Illustrator 21.0.0, SVG Export Plug-In . SVG Version: 6.00 Build 0)  -->
<svg version="1.1" id="Capa_1" xmlns="http://www.w3.org/2000/svg" xmlns:xlink="http://www.w3.org/1999/xlink" x="0px" y="0px"
	 viewBox="0 0 512 512" style="enable-background:new 0 0 512 512;" xml:space="preserve">
<g>
	<path style="fill:#82CD64;" d="M245.001,10.999c-80.944,0-152.709,39.262-197.319,99.772l80.484,360.629
		c34.727,18.876,74.529,29.6,116.835,29.6c135.31,0,245.001-109.69,245.001-245S380.311,10.999,245.001,10.999z"/>
	<path style="fill:#3342AE;" d="M111.367,461.362c38.434,25.061,84.328,39.638,133.634,39.638
		c49.305,0,95.199-14.577,133.634-39.638H111.367z"/>
	<path style="fill:#232E7A;" d="M294.268,461.362H111.367C149.801,486.423,195.695,501,245.001,501
		c13.137,0,26.029-1.045,38.606-3.037C268.537,489.019,272.528,461.362,294.268,461.362z"/>
	<path style="fill:#EF7D5E;" d="M425.368,152.767c0-19.067-15.6-34.667-34.667-34.667H42.479C15.678,157.383,0,204.858,0,256
		c0,16.571,1.655,32.755,4.791,48.403c17.465,13.022,39.078,20.751,62.41,20.751h253.37c57.639,0,104.798-47.159,104.798-104.798
		V152.767z"/>
	<path style="fill:#E06E53;" d="M143.381,288.967V153.868c0-17.385,12.256-32.037,28.551-35.769H42.479
		C15.678,157.383,0,204.858,0,256c0,16.571,1.655,32.755,4.791,48.403c17.465,13.022,39.078,20.751,62.41,20.751h106.838
		C156.703,322.252,143.381,307.093,143.381,288.967z"/>
	<path style="fill:#E06E53;" d="M425.368,421.792V217.255c0,57.639-47.159,104.797-104.798,104.797H67.201
		c-23.643,0-45.52-7.94-63.105-21.278C17.8,374.975,64.933,437.45,129.3,472.001h231.402
		C385.005,458.955,406.849,441.929,425.368,421.792z"/>
	<g>
		<path style="fill:#D3644F;" d="M163.074,425.837V322.052H67.201c-23.643,0-45.52-7.94-63.105-21.278
			C17.8,374.975,64.933,437.45,129.3,472h58.598C172.942,462.092,163.074,445.12,163.074,425.837z"/>
	</g>
	<path style="fill:#E06E53;" d="M226.459,206.969l-22.287-22.287c-5.658-5.658-14.915-5.658-20.573,0l-22.287,22.287
		c-5.657,5.657-5.657,14.915,0,20.572l22.287,22.287c5.657,5.658,14.915,5.658,20.573,0l22.287-22.287
		C232.117,221.884,232.117,212.626,226.459,206.969z"/>
	<path style="fill:#D3644F;" d="M201.955,233.664l-23.246-23.246c-5.042-5.041-5.76-12.818-2.187-18.658l-15.21,15.21
		c-5.657,5.657-5.657,14.915,0,20.572l22.287,22.287c5.657,5.658,14.915,5.658,20.573,0l12.208-12.208
		C211.374,238.865,205.849,237.557,201.955,233.664z"/>
	<path style="fill:#F6D100;" d="M350.609,109.722h-27.753c-4.053,0-7.338,3.285-7.338,7.338c0,27.005,0,206.166,0,221.497
		c0,11.717,9.498,21.215,21.214,21.215c11.717,0,21.215-9.498,21.215-21.215c0-10.642,0-210.891,0-221.497
		C357.947,113.007,354.661,109.722,350.609,109.722z"/>
	<path style="fill:#F2BA00;" d="M29.825,315.117v58.12c11.386,20.853,25.715,39.867,42.429,56.488V322.052h-5.053
		C54.05,322.052,41.449,319.59,29.825,315.117z"/>
	<path style="fill:#EEA200;" d="M67.201,322.052c-13.151,0-25.752-2.462-37.376-6.935v58.12c2.303,4.218,4.732,8.356,7.271,12.418
		c4.338-3.708,10.195-5.659,16.39-4.839c11.876,1.572,18.768,10.938,18.768,20.716v-79.48H67.201z"/>
	<path style="fill:#F6D100;" d="M29.825,275.895v62.662c0,11.717,9.498,21.215,21.214,21.215c11.716,0,21.215-9.498,21.215-21.215
		v-62.662H29.825z"/>
	<path style="fill:#D0E8FE;" d="M472.613,412.119L472.613,412.119c0-16.405,8.138-30.992,20.567-39.954v-9.29H211.637
		c-9.849,0-17.907,8.059-17.907,17.907v62.674c0,9.849,8.058,17.906,17.907,17.906H493.18v-9.29
		C480.75,443.111,472.613,428.523,472.613,412.119z"/>
	<path style="fill:#D0E8FE;" d="M428.136,235.535L428.136,235.535c0-8.893,4.047-16.883,10.386-22.232v-6.866H237.535
		c-9.849,0-17.907,8.058-17.907,17.906v22.383c0,9.849,8.058,17.907,17.907,17.907h200.987v-6.867
		C432.183,252.418,428.136,244.428,428.136,235.535z"/>
	<path style="fill:#D0E8FE;" d="M470.437,284.445H194.689v8.29c5.429,5.294,8.818,12.673,8.818,20.808l0,0
		c0,8.135-3.388,15.515-8.818,20.809v8.29h275.748c9.849,0,17.907-8.058,17.907-17.907v-22.384
		C488.344,292.503,480.285,284.445,470.437,284.445z"/>
	<path style="fill:#A9D8FC;" d="M275.644,443.456v-62.674c0-9.849,8.058-17.907,17.907-17.907h-81.914
		c-9.849,0-17.907,8.058-17.907,17.907v62.674c0,9.849,8.058,17.906,17.907,17.906h81.914
		C283.702,461.362,275.644,453.304,275.644,443.456z"/>
	<path style="fill:#A9D8FC;" d="M301.542,246.727v-22.383c0-9.849,8.058-17.906,17.907-17.906h-81.914
		c-9.849,0-17.907,8.058-17.907,17.906v22.383c0,9.849,8.058,17.907,17.907,17.907h81.914
		C309.6,264.634,301.542,256.576,301.542,246.727z"/>
	<path style="fill:#A9D8FC;" d="M285.421,313.544c0-8.135-3.388-15.514-8.818-20.808v-8.29h-81.914v8.29
		c5.43,5.294,8.818,12.673,8.818,20.808c0,8.135-3.388,15.515-8.818,20.809v8.29h81.914v-8.29
		C282.032,329.058,285.421,321.679,285.421,313.544z"/>
	<path style="fill:#F6D100;" d="M64.916,109.722H48.447c-6.861,9.203-13.089,18.905-18.623,29.041v132.019h42.429V117.06
		C72.254,113.007,68.968,109.722,64.916,109.722z"/>
	<circle style="fill:#F2BA00;" cx="51.039" cy="243.832" r="14.785"/>
	<path style="fill:#D0E8FE;" d="M80.6,283.874H21.479c-10.66,0-19.333-8.672-19.333-19.332v-31.229
		c0-10.66,8.673-19.332,19.333-19.332H80.6c10.659,0,19.332,8.672,19.332,19.332v31.229C99.931,275.202,91.259,283.874,80.6,283.874
		z M21.479,229.939c-1.829,0-3.375,1.545-3.375,3.374v31.229c0,1.829,1.546,3.374,3.375,3.374H80.6c1.829,0,3.374-1.545,3.374-3.374
		v-31.229c0-1.829-1.545-3.374-3.374-3.374H21.479z"/>
	<g>
		<path style="fill:#A9D8FC;" d="M67.824,276.19c0-3.67,2.171-6.825,5.294-8.273H21.479c-1.829,0-3.375-1.545-3.375-3.374v-31.229
			c0-1.829,1.546-3.374,3.375-3.374h51.163c-2.867-1.538-4.818-4.563-4.818-8.044c0-3.388,1.851-6.339,4.593-7.913H21.479
			c-10.66,0-19.333,8.672-19.333,19.332v31.229c0,10.659,8.673,19.332,19.333,19.332H72.04
			C69.507,282.252,67.824,279.42,67.824,276.19z"/>
	</g>
	<g>
		<path style="fill:#FFFFFF;" d="M51.039,250.523c-4.407,0-7.979-3.572-7.979-7.979v-29.113c0-4.406,3.572-7.979,7.979-7.979
			s7.979,3.572,7.979,7.979v29.113C59.018,246.951,55.446,250.523,51.039,250.523z"/>
	</g>
	<path style="fill:#D0E8FE;" d="M51.039,232.524c-4.407,0-7.979-3.572-7.979-7.979v18c0,4.406,3.571,7.979,7.979,7.979
		c4.407,0,7.979-3.572,7.979-7.979v-18C59.018,228.951,55.446,232.524,51.039,232.524z"/>
	<path style="fill:#F9DF5F;" d="M67.849,265.108H34.229c-2.433,0-4.405,1.972-4.405,4.405v13.353c0,2.433,1.972,4.405,4.405,4.405
		h33.619c2.433,0,4.405-1.972,4.405-4.405v-13.353C72.254,267.081,70.282,265.108,67.849,265.108z"/>
	<path style="fill:#D3644F;" d="M72.254,125.546c0,13.902,11.27,25.172,25.172,25.172s25.172-11.27,25.172-25.172
		c0-2.593-0.393-5.093-1.121-7.447H73.374C72.647,120.453,72.254,122.954,72.254,125.546z"/>
	<path style="fill:#E06E53;" d="M265.174,125.546c0,13.902,11.27,25.172,25.172,25.172c13.902,0,25.172-11.27,25.172-25.172
		c0-2.593-0.393-5.093-1.121-7.447h-48.102C265.567,120.453,265.174,122.954,265.174,125.546z"/>
	<g>
		<path style="fill:#D0E8FE;" d="M290.607,135.323c-5.875,0-10.638-4.763-10.638-10.638V84.301c0-11.525-9.377-20.902-20.903-20.902
			h-130.36c-11.525,0-20.902,9.377-20.902,20.902v40.383c0,5.875-4.763,10.638-10.638,10.638c-5.875,0-10.638-4.763-10.638-10.638
			V84.301c0-23.258,18.921-42.179,42.179-42.179h130.36c23.257,0,42.18,18.921,42.18,42.179v40.383
			C301.245,130.56,296.482,135.323,290.607,135.323z"/>
	</g>
	<g>
		<path style="fill:#A9D8FC;" d="M289.835,65.224c3.177,0,6.069,1.194,8.276,3.145c-6.299-15.38-21.424-26.246-39.045-26.246
			h-130.36c-23.257,0-42.179,18.921-42.179,42.179v40.383c0,5.875,4.763,10.638,10.638,10.638c5.875,0,10.638-4.763,10.638-10.638
			V84.301c0-11.525,9.377-20.903,20.902-20.903h130.36c8.116,0,15.149,4.658,18.611,11.433
			C278.987,69.324,283.926,65.224,289.835,65.224z"/>
	</g>
	<path style="fill:#E06E53;" d="M254.802,64.58H132.97c-8.001,0-14.547-6.546-14.547-14.547v15.835
		c0,8.001,6.546,14.547,14.547,14.547h121.832c8.001,0,14.547-6.546,14.547-14.547V50.033
		C269.349,58.034,262.803,64.58,254.802,64.58z"/>
	<g>
		<path style="fill:#D3644F;" d="M181.121,72.967c0-4.126,2.917-7.57,6.8-8.387h-54.952c-8.001,0-14.547-6.546-14.547-14.547v15.835
			c0,8.001,6.546,14.547,14.547,14.547h52.489C182.87,78.939,181.121,76.16,181.121,72.967z"/>
	</g>
	<path style="fill:#EF7D5E;" d="M254.802,65.792H132.97c-8.001,0-14.547-6.546-14.547-14.547v-3.031
		c0-8.001,6.546-14.547,14.547-14.547h121.832c8.001,0,14.547,6.546,14.547,14.547v3.031
		C269.349,59.246,262.802,65.792,254.802,65.792z"/>
	<path style="fill:#E06E53;" d="M170.756,49.73L170.756,49.73c0-8.834,7.228-16.063,16.063-16.063H132.97
		c-8.001,0-14.547,6.546-14.547,14.547v3.031c0,8.001,6.546,14.547,14.547,14.547h53.849
		C177.984,65.792,170.756,58.564,170.756,49.73z"/>
	<g>
		<path style="fill:#F6D100;" d="M501.362,472.001H211.637c-15.74,0-28.545-12.805-28.545-28.545v-62.674
			c0-15.74,12.805-28.545,28.545-28.545h289.725c5.875,0,10.638,4.763,10.638,10.638c0,5.875-4.763,10.638-10.638,10.638H211.637
			c-3.94,0-7.269,3.328-7.269,7.268v62.674c0,3.94,3.329,7.268,7.269,7.268h289.725c5.875,0,10.638,4.763,10.638,10.638
			C512,467.238,507.237,472.001,501.362,472.001z"/>
	</g>
	<path style="fill:#F2BA00;" d="M268.758,461.363c0-5.876,4.763-10.638,10.638-10.638h-67.759c-3.94,0-7.269-3.329-7.269-7.269
		v-62.674c0-3.94,3.329-7.269,7.269-7.269h67.759c-5.875,0-10.638-4.763-10.638-10.638c0-5.875,4.763-10.638,10.638-10.638h-67.759
		c-15.74,0-28.546,12.805-28.546,28.545v62.674c0,15.74,12.806,28.545,28.546,28.545h67.759
		C273.521,472,268.758,467.238,268.758,461.363z"/>
	<g>
		<path style="fill:#EB5793;" d="M446.592,275.272H237.535c-15.74,0-28.545-12.805-28.545-28.545v-22.383
			c0-15.74,12.805-28.545,28.545-28.545h209.056c5.875,0,10.638,4.763,10.638,10.638c0,5.876-4.763,10.638-10.638,10.638H237.535
			c-3.94,0-7.269,3.329-7.269,7.268v22.383c0,3.94,3.329,7.269,7.269,7.269h209.056c5.875,0,10.638,4.763,10.638,10.638
			C457.23,270.509,452.467,275.272,446.592,275.272z"/>
	</g>
	<path style="fill:#E7387F;" d="M297.861,264.633c0-5.875,4.763-10.638,10.638-10.638h-70.964c-3.94,0-7.269-3.329-7.269-7.269
		v-22.383c0-3.94,3.329-7.268,7.269-7.268h70.964c-5.875,0-10.638-4.763-10.638-10.638c0-5.875,4.763-10.638,10.638-10.638h-70.964
		c-15.74,0-28.545,12.805-28.545,28.545v22.383c0,15.74,12.805,28.545,28.545,28.545h70.964
		C302.625,275.271,297.861,270.509,297.861,264.633z"/>
	<g>
		<path style="fill:#31A7ED;" d="M470.436,353.28H186.619c-5.875,0-10.638-4.763-10.638-10.638c0-5.876,4.763-10.638,10.638-10.638
			h283.818c3.941,0,7.269-3.328,7.269-7.269v-22.383c0-3.94-3.328-7.269-7.269-7.269H186.619c-5.875,0-10.638-4.763-10.638-10.638
			s4.763-10.638,10.638-10.638h283.818c15.74,0,28.545,12.805,28.545,28.545v22.383C498.982,340.475,486.177,353.28,470.436,353.28z
			"/>
	</g>
	<g>
		<path style="fill:#1296D8;" d="M186.619,295.083h93.558c-5.875,0-10.638-4.763-10.638-10.638c0-5.875,4.763-10.638,10.638-10.638
			h-93.558c-5.875,0-10.638,4.763-10.638,10.638C175.981,290.321,180.744,295.083,186.619,295.083z"/>
		<path style="fill:#1296D8;" d="M269.539,342.642c0-5.876,4.763-10.638,10.638-10.638h-93.558c-5.875,0-10.638,4.763-10.638,10.638
			c0,5.875,4.763,10.638,10.638,10.638h93.558C274.302,353.28,269.539,348.517,269.539,342.642z"/>
	</g>
</g>
<g>
</g>
<g>
</g>
<g>
</g>
<g>
</g>
<g>
</g>
<g>
</g>
<g>
</g>
<g>
</g>
<g>
</g>
<g>
</g>
<g>
</g>
<g>
</g>
<g>
</g>
<g>
</g>
<g>
</g>
</svg>
