<?xml version="1.0" encoding="iso-8859-1"?>
<!-- Generator: Adobe Illustrator 21.0.0, SVG Export Plug-In . SVG Version: 6.00 Build 0)  -->
<svg version="1.1" id="Capa_1" xmlns="http://www.w3.org/2000/svg" xmlns:xlink="http://www.w3.org/1999/xlink" x="0px" y="0px"
	 viewBox="0 0 512 512" style="enable-background:new 0 0 512 512;" xml:space="preserve">
<g>
	<path style="fill:#F6D100;" d="M443.754,424.381c35.723-42.572,57.247-97.459,57.247-157.381
		c0-135.31-109.69-245.001-245.001-245.001S10.999,131.689,10.999,267c0,59.922,21.524,114.809,57.247,157.381L443.754,424.381z"/>
	<path style="fill:#3D4EC6;" d="M88.093,48.004V428.79l20.671,34.02c15.385,11.588,32.177,21.406,50.076,29.152l0.001-0.001
		l28.384,10.237v0.001c5.44,1.589,10.96,2.99,16.551,4.205l0.001-0.002l29.652,4.553l0,0.005C240.862,511.64,248.389,512,256,512
		c1.832,0,3.658-0.027,5.48-0.067l162.427-77.659V48.004H88.093z"/>
	<polygon style="fill:#3342AE;" points="423.907,434.274 423.907,48.004 348.238,48.004 348.238,470.453 	"/>
	<g>
		<rect x="104.331" y="367.7" style="fill:#D0E8FE;" width="304.746" height="22.909"/>
	</g>
	<g>
		<rect x="104.331" y="196.454" style="fill:#D0E8FE;" width="304.746" height="22.909"/>
	</g>
	<path style="fill:#A9D8FC;" d="M343.692,367.7c6.326,0,11.455,5.128,11.455,11.455c0,6.326-5.128,11.454-11.455,11.454h65.385
		V367.7H343.692z"/>
	<path style="fill:#A9D8FC;" d="M343.692,196.454c6.326,0,11.455,5.128,11.455,11.454s-5.128,11.455-11.455,11.455h65.385v-22.909
		H343.692z"/>
	<path style="fill:#E06E53;" d="M67.401,423.381c12.207,14.705,26.101,27.959,41.385,39.466V48.004H67.401V423.381z"/>
	<path style="fill:#E06E53;" d="M403.215,462.847c15.284-11.507,29.178-24.76,41.385-39.466V48.004h-41.385V462.847z"/>
	<path style="fill:#D3644F;" d="M67.401,48.004v92.768c0-11.386,9.23-20.616,20.617-20.616h0.152
		c11.386,0,20.616,9.23,20.616,20.616V48.004H67.401z"/>
	<path style="fill:#D3644F;" d="M403.215,48.004v92.768c0-11.386,9.23-20.616,20.616-20.616h0.152
		c11.386,0,20.616,9.23,20.616,20.616V48.004H403.215z"/>
	<path style="fill:#09A858;" d="M368.595,416.373h-27.839c-2.717,0-4.92,2.203-4.92,4.92v77.391
		c13.097-4.512,25.693-10.1,37.679-16.664v-60.727C373.515,418.576,371.312,416.373,368.595,416.373z"/>
	<path style="fill:#008E4A;" d="M363.089,485.408c-13.457,6.548-27.253-3.366-27.253-16.667v29.944
		c13.097-4.513,25.693-10.1,37.679-16.665v-13.4C373.515,475.743,369.494,482.291,363.089,485.408z"/>
	<path style="fill:#F6D100;" d="M284.118,416.373h-19.861c-2.717,0-4.92,2.203-4.92,4.92v90.665
		c10.058-0.134,19.97-0.871,29.7-2.183v-88.482C289.037,418.576,286.835,416.373,284.118,416.373z"/>
	<path style="fill:#F6D100;" d="M398.295,416.373h-19.861c-2.717,0-4.92,2.203-4.92,4.92v60.727
		c10.38-5.685,20.302-12.098,29.7-19.174v-41.553C403.215,418.576,401.012,416.373,398.295,416.373z"/>
	<path style="fill:#4AC4F4;" d="M255.737,420.252l-19.009-5.753c-2.601-0.787-5.347,0.683-6.134,3.284l-26.818,88.62
		c9.684,2.103,19.579,3.632,29.652,4.553l25.592-84.57C259.808,423.785,258.338,421.039,255.737,420.252z"/>
	<path style="fill:#F6D100;" d="M222.946,430.489l-17.2-9.93c-2.353-1.358-5.362-0.552-6.721,1.801l-40.186,69.603
		c9.184,3.972,18.658,7.398,28.384,10.237l37.522-64.99C226.105,434.856,225.299,431.847,222.946,430.489z"/>
	<path style="fill:#EB5793;" d="M330.916,432.643h-36.959c-2.717,0-4.92,2.203-4.92,4.92v72.212
		c16.152-2.178,31.804-5.925,46.799-11.091v-61.122C335.836,434.846,333.633,432.643,330.916,432.643z"/>
	<path style="fill:#E7387F;" d="M318.582,496.265c-15.712,4.138-29.545-7.492-29.545-22.286v35.796
		c16.152-2.177,31.804-5.925,46.799-11.09v-24.828C335.836,484.375,328.754,493.586,318.582,496.265z"/>
	<path style="fill:#09A858;" d="M294.356,367.487l19.009-5.753c2.6-0.787,4.071-3.533,3.284-6.134l-32.984-108.997
		c-0.787-2.6-3.533-4.071-6.134-3.284l-19.009,5.753c-2.601,0.787-4.071,3.533-3.284,6.134l32.985,108.997
		C289.01,366.804,291.756,368.275,294.356,367.487z"/>
	<path style="fill:#4AC4F4;" d="M353.172,366.453l17.2-9.93c2.353-1.359,3.159-4.367,1.801-6.72l-56.939-98.621
		c-1.359-2.353-4.367-3.159-6.72-1.801l-17.2,9.93c-2.353,1.359-3.159,4.367-1.801,6.72l56.939,98.621
		C347.81,367.005,350.819,367.811,353.172,366.453z"/>
	<g>
		<path style="fill:#31A7ED;" d="M372.172,349.802l-31.339-54.28c0.257,1.132,0.405,2.305,0.405,3.516
			c0,8.74-7.085,15.824-15.824,15.824c-3.61,0-6.927-1.223-9.59-3.258l30.627,53.048c1.359,2.353,4.367,3.159,6.721,1.801l17.2-9.93
			C372.725,355.164,373.531,352.155,372.172,349.802z"/>
	</g>
	<polygon style="fill:#31A7ED;" points="358.019,325.288 332.808,341.019 302.641,288.769 327.852,273.037 	"/>
	<g>
		<path style="fill:#1296D8;" d="M340.834,295.522c0.257,1.132,0.405,2.305,0.405,3.515c0,8.74-7.085,15.824-15.824,15.824
			c-3.61,0-6.928-1.223-9.59-3.258l16.983,29.416l25.212-15.732L340.834,295.522z"/>
	</g>
	<g>
		<path style="fill:#4AC4F4;" d="M397.749,196.454h-25.721c-3.018,0-5.465-2.447-5.465-5.465V78.201
			c0-3.018,2.447-5.465,5.465-5.465h25.721c3.018,0,5.465,2.447,5.465,5.465v112.787
			C403.215,194.007,400.768,196.454,397.749,196.454z"/>
		<path style="fill:#31A7ED;" d="M384.889,140.12L384.889,140.12c-10.121,0-18.326-8.204-18.326-18.325v69.194
			c0,3.018,2.447,5.465,5.465,5.465h25.721c3.019,0,5.465-2.447,5.465-5.465v-69.194C403.215,131.916,395.01,140.12,384.889,140.12z
			"/>
		<rect x="366.564" y="104.178" style="fill:#31A7ED;" width="36.651" height="60.299"/>
		<path style="fill:#1296D8;" d="M384.889,140.12L384.889,140.12c-10.121,0-18.324-8.203-18.326-18.323v42.679h36.651v-42.682
			C403.215,131.916,395.01,140.12,384.889,140.12z"/>
	</g>
	<path style="fill:#F6D100;" d="M287.796,196.454h-25.721c-3.018,0-5.465-2.447-5.465-5.465V78.201c0-3.018,2.447-5.465,5.465-5.465
		h25.721c3.018,0,5.465,2.447,5.465,5.465v112.787C293.261,194.007,290.814,196.454,287.796,196.454z"/>
	<path style="fill:#F2BA00;" d="M274.935,141.03L274.935,141.03c-10.121,0-18.326-8.205-18.326-18.326v68.284
		c0,3.018,2.447,5.465,5.465,5.465h25.721c3.018,0,5.465-2.447,5.465-5.465v-68.284C293.261,132.825,285.056,141.03,274.935,141.03z
		"/>
	<path style="fill:#09A858;" d="M251.145,196.454h-25.721c-3.018,0-5.465-2.447-5.465-5.465V78.201c0-3.018,2.447-5.465,5.465-5.465
		h25.721c3.018,0,5.465,2.447,5.465,5.465v112.787C256.61,194.007,254.163,196.454,251.145,196.454z"/>
	<path style="fill:#008E4A;" d="M238.284,141.03L238.284,141.03c-10.121,0-18.326-8.205-18.326-18.326v68.284
		c0,3.018,2.447,5.465,5.465,5.465h25.721c3.018,0,5.465-2.447,5.465-5.465v-68.284C256.61,132.825,248.405,141.03,238.284,141.03z"
		/>
	<rect x="219.959" y="149.361" style="fill:#00783B;" width="36.651" height="20.86"/>
	<rect x="219.959" y="98.435" style="fill:#008E4A;" width="36.651" height="20.86"/>
	<path style="fill:#F6D100;" d="M272.767,333.08v-19.86c0-2.717-2.203-4.92-4.92-4.92H153.97c-2.717,0-4.92,2.203-4.92,4.92v19.86
		c0,2.717,2.203,4.92,4.92,4.92h113.878C270.565,338,272.767,335.797,272.767,333.08z"/>
	<path style="fill:#F2BA00;" d="M210.641,323.15c0-8.201,6.648-14.85,14.85-14.85H153.97c-2.717,0-4.92,2.203-4.92,4.92v19.86
		c0,2.717,2.203,4.92,4.92,4.92h71.522C217.29,338,210.641,331.351,210.641,323.15z"/>
	<path style="fill:#EB5793;" d="M256.498,266.421v36.959c0,2.717-2.203,4.92-4.92,4.92H153.97c-2.717,0-4.92-2.203-4.92-4.92
		v-36.959c0-2.717,2.203-4.92,4.92-4.92h97.608C254.295,261.501,256.498,263.704,256.498,266.421z"/>
	<path style="fill:#E7387F;" d="M202.276,284.901L202.276,284.901c0-12.923,10.476-23.399,23.399-23.399H153.97
		c-2.717,0-4.92,2.203-4.92,4.92v36.959c0,2.717,2.203,4.92,4.92,4.92h71.706C212.752,308.3,202.276,297.824,202.276,284.901z"/>
	<g>
		<path style="fill:#EF7D5E;" d="M448.231,52.699H63.769c-8.541,0-15.464-6.923-15.464-15.464s6.923-15.464,15.464-15.464h384.462
			c8.541,0,15.464,6.923,15.464,15.464S456.771,52.699,448.231,52.699z"/>
	</g>
	<path style="fill:#E06E53;" d="M154.851,37.235c0-8.541,6.923-15.464,15.464-15.464H63.769c-8.541,0-15.464,6.923-15.464,15.464
		c0,8.541,6.923,15.464,15.464,15.464h106.546C161.774,52.699,154.851,45.776,154.851,37.235z"/>
	<g>
		<path style="fill:#F98F6E;" d="M463.695,22.909H48.305c-6.326,0-11.455-5.129-11.455-11.455C36.851,5.129,41.98,0,48.305,0
			h415.389c6.326,0,11.455,5.129,11.455,11.455C475.149,17.781,470.02,22.909,463.695,22.909z"/>
	</g>
	<path style="fill:#EF7D5E;" d="M154.851,11.455C154.851,5.129,159.98,0,166.305,0h-118C41.98,0,36.851,5.129,36.851,11.455
		c0,6.326,5.129,11.455,11.455,11.455h118C159.98,22.909,154.851,17.781,154.851,11.455z"/>
	<rect x="256.61" y="149.361" style="fill:#F6D100;" width="36.651" height="20.86"/>
	<rect x="256.61" y="98.435" style="fill:#F9DF5F;" width="36.651" height="20.86"/>
	<rect x="180.492" y="308.3" style="fill:#F9DF5F;" width="60.299" height="29.7"/>
	<path style="fill:#F6D100;" d="M225.488,308.3h-44.995V338h44.999c-8.201,0-14.85-6.649-14.85-14.85
		C210.641,314.95,217.288,308.302,225.488,308.3z"/>
	<rect x="335.836" y="443.099" style="fill:#008E4A;" width="37.679" height="21.677"/>
	<path style="fill:#F9DF5F;" d="M259.337,511.958c10.058-0.134,19.97-0.871,29.7-2.183v-61.96h-29.7V511.958z"/>
	<path style="fill:#F6D100;" d="M275.44,489.207c-8.34,0.653-14.785-5.017-16.102-12.194v34.944
		c10.058-0.134,19.97-0.871,29.7-2.183v-32.726C287.809,483.593,282.309,488.67,275.44,489.207z"/>
	<path style="fill:#F9DF5F;" d="M158.841,491.962c9.184,3.972,18.658,7.398,28.384,10.237l24.394-42.252l-25.212-15.732
		L158.841,491.962z"/>
	<path style="fill:#F9DF5F;" d="M373.515,482.02c10.38-5.685,20.302-12.098,29.7-19.174v-15.031h-29.7V482.02z"/>
	<g>
		<path style="fill:#F6D100;" d="M373.515,466.513v15.507c4.563-2.499,9.032-5.147,13.413-7.923
			C381.076,477.682,373.515,473.415,373.515,466.513z"/>
	</g>
	<g>
		<path style="fill:#09A858;" d="M361.098,196.454h-25.721c-3.018,0-5.465-2.447-5.465-5.465V78.201
			c0-3.018,2.447-5.465,5.465-5.465h25.721c3.018,0,5.465,2.447,5.465,5.465v112.787
			C366.564,194.007,364.117,196.454,361.098,196.454z"/>
		<path style="fill:#008E4A;" d="M348.238,140.12L348.238,140.12c-10.121,0-18.326-8.204-18.326-18.325v69.194
			c0,3.018,2.447,5.465,5.465,5.465h25.721c3.018,0,5.465-2.447,5.465-5.465v-69.194C366.564,131.916,358.359,140.12,348.238,140.12
			z"/>
		<rect x="329.912" y="104.178" style="fill:#008E4A;" width="36.651" height="60.299"/>
		<path style="fill:#00783B;" d="M348.238,140.12L348.238,140.12c-10.121,0-18.324-8.203-18.326-18.323v42.679h36.651v-42.682
			C366.564,131.916,358.359,140.12,348.238,140.12z"/>
	</g>
	<g>
		<path style="fill:#EB5793;" d="M324.447,196.454h-25.721c-3.018,0-5.465-2.447-5.465-5.465V78.201
			c0-3.018,2.447-5.465,5.465-5.465h25.721c3.018,0,5.465,2.447,5.465,5.465v112.787
			C329.912,194.007,327.465,196.454,324.447,196.454z"/>
		<path style="fill:#E7387F;" d="M311.587,140.12L311.587,140.12c-10.121,0-18.326-8.204-18.326-18.325v69.194
			c0,3.018,2.447,5.465,5.465,5.465h25.721c3.018,0,5.465-2.447,5.465-5.465v-69.194C329.912,131.916,321.708,140.12,311.587,140.12
			z"/>
		<rect x="293.261" y="104.178" style="fill:#E7387F;" width="36.651" height="60.299"/>
		<path style="fill:#E20A62;" d="M311.587,140.12L311.587,140.12c-10.12,0-18.324-8.203-18.326-18.323v42.679h36.651v-42.682
			C329.912,131.916,321.708,140.12,311.587,140.12z"/>
	</g>
	<path style="fill:#F6D100;" d="M214.493,196.454h-25.721c-3.018,0-5.465-2.447-5.465-5.465V78.201c0-3.018,2.447-5.465,5.465-5.465
		h25.721c3.018,0,5.465,2.447,5.465,5.465v112.787C219.958,194.007,217.512,196.454,214.493,196.454z"/>
	<path style="fill:#F2BA00;" d="M201.633,141.03L201.633,141.03c-10.121,0-18.326-8.205-18.326-18.326v68.284
		c0,3.018,2.447,5.465,5.465,5.465h25.721c3.018,0,5.465-2.447,5.465-5.465v-68.284C219.958,132.825,211.754,141.03,201.633,141.03z
		"/>
	<rect x="183.307" y="149.361" style="fill:#F6D100;" width="36.651" height="20.86"/>
	<rect x="183.307" y="98.435" style="fill:#F9DF5F;" width="36.651" height="20.86"/>
	<g>
		<path style="fill:#008E4A;" d="M316.65,355.601l-16.544-54.671c-0.457,8.329-7.336,14.948-15.78,14.948
			c-5.176,0-9.757-2.496-12.644-6.338l16.542,54.664c0.787,2.601,3.533,4.071,6.134,3.284l19.009-5.753
			C315.966,360.948,317.436,358.202,316.65,355.601z"/>
	</g>
	<path style="fill:#F6D100;" d="M256.498,362.78v-19.861c0-2.717-2.203-4.92-4.92-4.92H137.7c-2.717,0-4.92,2.203-4.92,4.92v19.861
		c0,2.717,2.203,4.92,4.92,4.92h113.878C254.295,367.7,256.498,365.497,256.498,362.78z"/>
	<path style="fill:#F2BA00;" d="M194.372,352.85c0-8.201,6.648-14.85,14.85-14.85H137.7c-2.717,0-4.92,2.203-4.92,4.92v19.861
		c0,2.717,2.203,4.92,4.92,4.92h71.522C201.02,367.7,194.372,361.051,194.372,352.85z"/>
	<rect x="164.222" y="338" style="fill:#F9DF5F;" width="60.299" height="29.7"/>
	<path style="fill:#F6D100;" d="M209.218,338h-44.995v29.7h44.999c-8.201,0-14.85-6.649-14.85-14.85
		C194.372,344.65,201.018,338.002,209.218,338z"/>
	<g>
		<path style="fill:#F6D100;" d="M173.127,467.217l-14.286,24.744c9.184,3.972,18.658,7.398,28.384,10.237l10.809-18.722
			C186.537,492.872,169.01,482.106,173.127,467.217z"/>
	</g>
	<g>
		<path style="fill:#31A7ED;" d="M231.505,482.613c-8.232,0-15.043-6.012-16.329-13.881l-11.4,37.67
			c9.684,2.103,19.579,3.632,29.652,4.553l10.173-33.615C240.578,480.578,236.284,482.613,231.505,482.613z"/>
	</g>
</g>
<g>
</g>
<g>
</g>
<g>
</g>
<g>
</g>
<g>
</g>
<g>
</g>
<g>
</g>
<g>
</g>
<g>
</g>
<g>
</g>
<g>
</g>
<g>
</g>
<g>
</g>
<g>
</g>
<g>
</g>
</svg>
