<?xml version="1.0" encoding="iso-8859-1"?>
<!-- Generator: Adobe Illustrator 21.0.0, SVG Export Plug-In . SVG Version: 6.00 Build 0)  -->
<svg version="1.1" id="Capa_1" xmlns="http://www.w3.org/2000/svg" xmlns:xlink="http://www.w3.org/1999/xlink" x="0px" y="0px"
	 viewBox="0 0 512 512" style="enable-background:new 0 0 512 512;" xml:space="preserve">
<g>
	<path style="fill:#E7387F;" d="M448.618,418.418c32.808-41.677,52.382-94.261,52.382-151.418c0-135.31-109.69-245-245.001-245
		c-135.31,0-245.001,109.691-245.001,245c0,57.157,19.574,109.741,52.382,151.418H448.618z"/>
	<path style="fill:#D0E8FE;" d="M421.987,0H90.013C74.878,0,62.609,12.269,62.609,27.405v390.013
		C107.44,474.974,177.393,512,256,512c78.607,0,148.56-37.026,193.391-94.582V27.405C449.391,12.269,437.122,0,421.987,0z"/>
	<path style="fill:#A9D8FC;" d="M172.275,26.405c0-12.595,8.499-23.197,20.072-26.405H90.013C74.878,0,62.609,12.269,62.609,27.405
		v390.013c28.059,36.024,65.961,64.003,109.666,79.897V26.405z"/>
	<path style="fill:#A9D8FC;" d="M397.349,325.412c10.156-10.098,10.155-26.746-0.001-36.843c-1.868-1.857-1.952-4.908-0.061-6.742
		c15.979-15.497,5.588-44.598-18.394-44.598c-23.944,0-34.416,29.079-18.395,44.599c1.892,1.833,1.808,4.885-0.061,6.742
		c-10.155,10.097-10.154,26.747,0.002,36.844c1.868,1.857,1.952,4.908,0.061,6.742c-15.973,15.494-5.597,44.598,18.393,44.598
		c23.948,0,34.414-29.081,18.396-44.599C395.397,330.322,395.481,327.27,397.349,325.412z"/>
	<path style="fill:#4AC4F4;" d="M378.893,237.229c-23.944,0-34.416,29.079-18.395,44.599c1.892,1.833,1.808,4.885-0.061,6.743
		c-10.155,10.097-10.154,26.747,0.002,36.844c1.868,1.857,1.952,4.908,0.061,6.742c-15.973,15.494-5.597,44.598,18.393,44.598h0
		c-5.16-5.16,0-9.417,0-9.417c-10.013-18.099,0-33.322,0-33.322c-5.634-5.634,0-10.362,0-10.362c-11.013-18.449,0-33.322,0-33.322
		c-5.809-5.809,0-10.362,0-10.362c-10.18-19.3,0-33.322,0-33.322C372.992,240.744,378.893,237.229,378.893,237.229z"/>
	<path style="fill:#A9D8FC;" d="M378.893,380.305c-18.743,0-33.993,15.249-33.993,33.994v71.537c0,3.133,0.435,6.165,1.232,9.049
		c24.423-9.668,46.915-23.154,66.755-39.713v-40.873C412.887,395.554,397.637,380.305,378.893,380.305z"/>
	<g>
		<path style="fill:#4AC4F4;" d="M391.824,394.194c-1.56-0.889-2.625-2.548-2.625-4.473c0-2.854,2.313-5.167,5.167-5.167
			c0.44,0,0.861,0.072,1.269,0.175c-4.946-2.811-10.656-4.426-16.74-4.426c-18.743,0-33.993,15.249-33.993,33.994v71.537
			c0,3.133,0.435,6.165,1.232,9.049c16.146-6.391,31.442-14.461,45.691-23.975V394.194z"/>
	</g>
	<g>
		<path style="fill:#3D4EC6;" d="M416.277,67.425H95.723c-11.776,0-21.323,9.546-21.323,21.323v82.351
			c0,11.776,9.547,21.323,21.323,21.323h320.555c11.776,0,21.323-9.546,21.323-21.323V88.748
			C437.6,76.972,428.054,67.425,416.277,67.425z"/>
	</g>
	<path style="fill:#3342AE;" d="M172.275,192.422V67.425H95.723c-11.776,0-21.323,9.546-21.323,21.323v82.351
		c0,11.776,9.547,21.323,21.323,21.323H172.275z"/>
	<g>
		<path style="fill:#91D1F9;" d="M135.694,0v11.611c0,7.591,6.21,13.801,13.801,13.801h213.012c7.59,0,13.801-6.21,13.801-13.801V0
			H135.694z"/>
	</g>
	<path style="fill:#4AC4F4;" d="M135.694,11.611c0,7.591,6.21,13.801,13.801,13.801h22.822C172.753,13.258,181.081,3.122,192.347,0
		h-56.654V11.611z"/>
	<g>
		<g>
			<path style="fill:#91D1F9;" d="M416.293,204.194H95.707c-18.25,0-33.098-14.846-33.098-33.094V88.748
				c0-18.248,14.848-33.094,33.098-33.094h320.586c18.25,0,33.098,14.846,33.098,33.094v82.351
				C449.391,189.348,434.543,204.194,416.293,204.194z M95.707,79.197c-5.268,0-9.552,4.284-9.552,9.551v82.351
				c0,5.267,4.285,9.552,9.552,9.552h320.586c5.268,0,9.553-4.285,9.553-9.552V88.748c0-5.267-4.285-9.551-9.553-9.551H95.707z"/>
		</g>
	</g>
	<path style="fill:#A9D8FC;" d="M281.692,241.783c-16.233,9.372-21.815,30.203-12.443,46.436
		c9.372,16.233,30.203,21.815,46.436,12.442c16.233-9.372,21.814-30.203,12.442-46.436
		C318.756,237.993,297.926,232.411,281.692,241.783z"/>
	<path style="fill:#4AC4F4;" d="M288.694,238.738c-2.394,0.737-4.743,1.741-7.002,3.045c-16.234,9.372-21.815,30.203-12.443,46.436
		c9.372,16.233,30.203,21.815,46.436,12.442c2.257-1.303,4.3-2.834,6.134-4.537c-6.827-0.093-6.497-6.812-6.497-6.812l-23.983-41.54
		C284.929,243.951,288.677,238.762,288.694,238.738z"/>
	
		<ellipse transform="matrix(0.866 -0.5 0.5 0.866 -95.5943 185.6818)" style="fill:#4AC4F4;" cx="298.689" cy="271.222" rx="24.576" ry="24.576"/>
	<path style="fill:#31A7ED;" d="M294.509,273.634c-4.709-8.156-5.573-17.471-3.17-25.862c-1.687,0.53-3.343,1.245-4.938,2.166
		c-11.755,6.786-15.782,21.817-8.996,33.572c6.786,11.755,21.817,15.782,33.572,8.995c1.595-0.921,3.043-1.999,4.346-3.195
		C306.854,287.197,299.219,281.791,294.509,273.634z"/>
	<circle style="fill:#4AC4F4;" cx="378.894" cy="263.307" r="16.661"/>
	<path style="fill:#31A7ED;" d="M378.893,246.646c-9.201,0-16.661,7.46-16.661,16.661c0,9.202,7.46,16.661,16.661,16.661
		C368.714,260.668,378.893,246.646,378.893,246.646z"/>
	<path style="fill:#EB5793;" d="M378.894,389.722c-13.573,0-24.576,11.004-24.576,24.577v71.538c0,1.842,0.209,3.634,0.593,5.36
		c17.334-7.659,33.614-17.262,48.56-28.545v-48.352C403.47,400.725,392.467,389.722,378.894,389.722z"/>
	<path style="fill:#E7387F;" d="M376.317,414.298c0-9.617,5.528-17.939,13.576-21.976c-3.31-1.66-7.044-2.6-11-2.6
		c-13.573,0-24.576,11.004-24.576,24.577v71.538c0,1.842,0.209,3.634,0.593,5.36c7.336-3.241,14.47-6.851,21.407-10.769V414.298z"/>
	<g>
		<path style="fill:#5766CE;" d="M210.982,161.747c-6.501,0-11.771-5.27-11.771-11.771v-5.962c0-6.501,5.271-11.771,11.771-11.771
			c6.501,0,11.771,5.27,11.771,11.771v5.962C222.753,156.477,217.482,161.747,210.982,161.747z"/>
	</g>
	<g>
		<path style="fill:#5766CE;" d="M255.483,161.747c-6.501,0-11.771-5.27-11.771-11.771v-5.962c0-6.501,5.271-11.771,11.771-11.771
			c6.501,0,11.771,5.27,11.771,11.771v5.962C267.254,156.477,261.984,161.747,255.483,161.747z"/>
	</g>
	<g>
		<path style="fill:#5766CE;" d="M299.986,161.747c-6.501,0-11.771-5.27-11.771-11.771v-5.962c0-6.501,5.271-11.771,11.771-11.771
			c6.501,0,11.771,5.27,11.771,11.771v5.962C311.757,156.477,306.486,161.747,299.986,161.747z"/>
	</g>
	<g>
		<path style="fill:#5766CE;" d="M344.488,161.747c-6.501,0-11.771-5.27-11.771-11.771v-5.962c0-6.501,5.271-11.771,11.771-11.771
			s11.771,5.27,11.771,11.771v5.962C356.26,156.477,350.989,161.747,344.488,161.747z"/>
	</g>
	<g>
		<path style="fill:#5766CE;" d="M388.991,161.747c-6.501,0-11.772-5.27-11.772-11.771v-5.962c0-6.501,5.271-11.771,11.772-11.771
			c6.501,0,11.771,5.27,11.771,11.771v5.962C400.762,156.477,395.492,161.747,388.991,161.747z"/>
	</g>
	<g>
		<path style="fill:#5766CE;" d="M131.804,111.533h-18.099c-4.876,0-8.829-3.953-8.829-8.829c0-4.876,3.952-8.829,8.829-8.829
			h18.099c4.876,0,8.828,3.953,8.828,8.829C140.632,107.581,136.68,111.533,131.804,111.533z"/>
	</g>
	<path style="fill:#4AC4F4;" d="M95.707,79.197h75.41c-6.501,0-11.771-5.27-11.771-11.771s5.27-11.771,11.771-11.771h-75.41
		c-18.25,0-33.098,14.846-33.098,33.094v82.351c0,18.248,14.848,33.094,33.098,33.094h75.409c-6.501-0.001-11.77-5.271-11.77-11.771
		v0c0-6.501,5.27-11.771,11.771-11.771h-75.41c-5.268,0-9.552-4.285-9.552-9.551V88.748C86.154,83.481,90.439,79.197,95.707,79.197z
		"/>
	<circle style="fill:#4AC4F4;" cx="378.894" cy="306.991" r="16.661"/>
	<path style="fill:#31A7ED;" d="M378.893,290.33c-9.201,0-16.661,7.46-16.661,16.661c0,9.202,7.46,16.661,16.661,16.661
		C368.714,304.352,378.893,290.331,378.893,290.33z"/>
	<circle style="fill:#4AC4F4;" cx="378.894" cy="350.676" r="16.661"/>
	<path style="fill:#31A7ED;" d="M378.893,334.014c-9.201,0-16.661,7.46-16.661,16.661c0,9.202,7.46,16.661,16.661,16.661
		C368.714,348.037,378.893,334.015,378.893,334.014z"/>
	<path style="fill:#A9D8FC;" d="M281.692,313.328c-16.233,9.372-21.815,30.203-12.443,46.436
		c9.372,16.233,30.203,21.815,46.436,12.442c16.233-9.372,21.814-30.203,12.442-46.436
		C318.756,309.537,297.926,303.955,281.692,313.328z"/>
	<path style="fill:#4AC4F4;" d="M288.694,310.283c-2.394,0.737-4.743,1.741-7.002,3.045c-16.234,9.372-21.815,30.203-12.443,46.436
		c9.372,16.233,30.203,21.815,46.436,12.442c2.257-1.303,4.3-2.834,6.134-4.538c-6.827-0.092-6.497-6.812-6.497-6.812l-23.983-41.54
		C284.929,315.495,288.677,310.307,288.694,310.283z"/>
	
		<ellipse transform="matrix(0.866 -0.5 0.5 0.866 -131.3666 195.267)" style="fill:#4AC4F4;" cx="298.689" cy="342.766" rx="24.576" ry="24.576"/>
	<path style="fill:#31A7ED;" d="M294.509,345.179c-4.709-8.156-5.573-17.471-3.17-25.862c-1.687,0.53-3.343,1.245-4.938,2.166
		c-11.755,6.786-15.782,21.817-8.996,33.572c6.786,11.755,21.817,15.782,33.572,8.996c1.595-0.921,3.043-1.999,4.346-3.195
		C306.854,358.742,299.219,353.335,294.509,345.179z"/>
	<path style="fill:#A9D8FC;" d="M281.692,384.852c-16.233,9.372-21.815,30.203-12.443,46.436
		c9.372,16.233,30.203,21.815,46.436,12.442c16.233-9.372,21.814-30.203,12.442-46.436
		C318.756,381.062,297.926,375.48,281.692,384.852z"/>
	<path style="fill:#4AC4F4;" d="M288.694,381.807c-2.394,0.737-4.743,1.741-7.002,3.045c-16.234,9.372-21.815,30.203-12.443,46.436
		c9.372,16.233,30.203,21.815,46.436,12.442c2.257-1.303,4.3-2.835,6.134-4.538c-6.827-0.092-6.497-6.812-6.497-6.812l-23.983-41.54
		C284.929,387.02,288.677,381.831,288.694,381.807z"/>
	
		<ellipse transform="matrix(0.866 -0.5 0.5 0.866 -167.129 204.8495)" style="fill:#4AC4F4;" cx="298.689" cy="414.291" rx="24.576" ry="24.576"/>
	<path style="fill:#31A7ED;" d="M294.509,416.703c-4.709-8.156-5.573-17.471-3.17-25.862c-1.687,0.53-3.343,1.245-4.938,2.166
		c-11.755,6.786-15.782,21.817-8.996,33.572c6.786,11.755,21.817,15.782,33.572,8.996c1.595-0.921,3.043-1.999,4.346-3.195
		C306.854,430.266,299.219,424.86,294.509,416.703z"/>
	<path style="fill:#A9D8FC;" d="M328.128,468.84c-9.372-16.233-30.203-21.815-46.436-12.443
		c-16.233,9.372-21.815,30.203-12.443,46.436c1.853,3.21,4.16,5.996,6.785,8.339c18.359-1.487,36.142-5,53.133-10.311
		C334,491.021,334.009,479.026,328.128,468.84z"/>
	<path style="fill:#4AC4F4;" d="M315.322,503.925l-23.983-41.54c-6.411-3.821-2.662-9.01-2.645-9.034
		c-2.394,0.737-4.743,1.741-7.002,3.045c-16.234,9.373-21.815,30.203-12.443,46.436c1.853,3.21,4.16,5.996,6.785,8.339
		c13.444-1.089,26.578-3.264,39.32-6.436C315.311,504.247,315.322,503.925,315.322,503.925z"/>
	<path style="fill:#4AC4F4;" d="M319.973,473.547c-6.787-11.755-21.817-15.782-33.572-8.996
		c-11.755,6.787-15.782,21.817-8.996,33.572c3.285,5.689,8.502,9.561,14.343,11.28c7.522-1.1,14.93-2.547,22.214-4.314
		C323.368,497.648,326.148,484.243,319.973,473.547z"/>
	<path style="fill:#31A7ED;" d="M315.324,503.925c-8.469-2.114-16.105-7.52-20.814-15.677c-4.709-8.156-5.573-17.471-3.17-25.862
		c-1.687,0.53-3.343,1.245-4.938,2.166c-11.755,6.787-15.782,21.817-8.996,33.572c3.285,5.689,8.502,9.561,14.343,11.28
		c7.514-1.099,14.914-2.544,22.19-4.308C314.415,504.718,314.881,504.331,315.324,503.925z"/>
	<path style="fill:#A9D8FC;" d="M201.482,241.783c-16.233,9.372-21.815,30.203-12.443,46.436
		c9.372,16.233,30.203,21.815,46.436,12.442c16.233-9.372,21.814-30.203,12.442-46.436
		C238.545,237.993,217.715,232.411,201.482,241.783z"/>
	<path style="fill:#4AC4F4;" d="M208.484,238.738c-2.394,0.737-4.743,1.741-7.002,3.045c-16.233,9.372-21.815,30.203-12.443,46.436
		c9.372,16.233,30.203,21.815,46.436,12.442c2.257-1.303,4.3-2.834,6.134-4.537c-6.827-0.093-6.497-6.812-6.497-6.812l-23.983-41.54
		C204.718,243.951,208.466,238.762,208.484,238.738z"/>
	
		<ellipse transform="matrix(0.866 -0.5 0.5 0.866 -106.3404 145.576)" style="fill:#4AC4F4;" cx="218.478" cy="271.222" rx="24.576" ry="24.576"/>
	<path style="fill:#31A7ED;" d="M214.299,273.634c-4.709-8.156-5.573-17.471-3.17-25.862c-1.687,0.53-3.343,1.245-4.938,2.166
		c-11.755,6.786-15.782,21.817-8.996,33.572c6.787,11.755,21.817,15.782,33.572,8.995c1.596-0.921,3.043-1.999,4.346-3.195
		C226.644,287.197,219.008,281.791,214.299,273.634z"/>
	<path style="fill:#A9D8FC;" d="M201.482,456.397c-16.185,9.344-21.777,30.078-12.522,46.289c16.61,4.717,33.931,7.74,51.777,8.837
		c12.07-10.451,15.454-28.356,7.181-42.684C238.545,452.606,217.715,447.025,201.482,456.397z"/>
	<path style="fill:#4AC4F4;" d="M235.111,503.925l-23.983-41.54c-6.411-3.821-2.662-9.01-2.645-9.034
		c-2.394,0.737-4.743,1.741-7.002,3.045c-16.185,9.344-21.777,30.078-12.522,46.29c16.604,4.715,33.919,7.738,51.757,8.836
		c0.299-0.259,0.603-0.516,0.892-0.784C234.782,510.645,235.111,503.925,235.111,503.925z"/>
	<path style="fill:#4AC4F4;" d="M206.19,464.552c-11.755,6.787-15.782,21.817-8.996,33.572c2.135,3.698,5.088,6.63,8.496,8.703
		c5.916,1.235,11.917,2.233,17.981,3.033c2.432-0.526,4.824-1.429,7.095-2.74c11.755-6.787,15.782-21.817,8.996-33.572
		C232.976,461.793,217.945,457.765,206.19,464.552z"/>
	<path style="fill:#31A7ED;" d="M214.299,488.248c-4.709-8.156-5.573-17.471-3.17-25.862c-1.687,0.53-3.343,1.245-4.938,2.166
		c-11.755,6.787-15.782,21.817-8.996,33.572c2.135,3.698,5.088,6.63,8.496,8.703c5.916,1.235,11.917,2.233,17.981,3.033
		c2.432-0.526,4.825-1.429,7.095-2.74c1.596-0.921,3.043-1.999,4.346-3.195C226.644,501.811,219.008,496.404,214.299,488.248z"/>
	<path style="fill:#A9D8FC;" d="M201.482,384.852c-16.233,9.372-21.815,30.203-12.443,46.436
		c9.372,16.233,30.203,21.815,46.436,12.442c16.233-9.372,21.814-30.203,12.442-46.436
		C238.545,381.062,217.715,375.48,201.482,384.852z"/>
	<path style="fill:#4AC4F4;" d="M208.484,381.807c-2.394,0.737-4.743,1.741-7.002,3.045c-16.233,9.372-21.815,30.203-12.443,46.436
		c9.372,16.233,30.203,21.815,46.436,12.442c2.257-1.303,4.3-2.835,6.134-4.538c-6.827-0.092-6.497-6.812-6.497-6.812l-23.983-41.54
		C204.718,387.02,208.466,381.831,208.484,381.807z"/>
	
		<ellipse transform="matrix(0.866 -0.5 0.5 0.866 -177.875 164.7436)" style="fill:#4AC4F4;" cx="218.478" cy="414.291" rx="24.576" ry="24.576"/>
	<path style="fill:#31A7ED;" d="M214.299,416.703c-4.709-8.156-5.573-17.471-3.17-25.862c-1.687,0.53-3.343,1.245-4.938,2.166
		c-11.755,6.786-15.782,21.817-8.996,33.572c6.787,11.755,21.817,15.782,33.572,8.996c1.596-0.921,3.043-1.999,4.346-3.195
		C226.644,430.266,219.008,424.86,214.299,416.703z"/>
	<path style="fill:#A9D8FC;" d="M201.482,313.328c-16.233,9.372-21.815,30.203-12.443,46.436
		c9.372,16.233,30.203,21.815,46.436,12.442c16.233-9.372,21.814-30.203,12.442-46.436
		C238.545,309.537,217.715,303.955,201.482,313.328z"/>
	<path style="fill:#4AC4F4;" d="M208.484,310.283c-2.394,0.737-4.743,1.741-7.002,3.045c-16.233,9.372-21.815,30.203-12.443,46.436
		c9.372,16.233,30.203,21.815,46.436,12.442c2.257-1.303,4.3-2.834,6.134-4.538c-6.827-0.092-6.497-6.812-6.497-6.812l-23.983-41.54
		C204.718,315.495,208.466,310.307,208.484,310.283z"/>
	
		<ellipse transform="matrix(0.866 -0.5 0.5 0.866 -142.1126 155.1611)" style="fill:#4AC4F4;" cx="218.478" cy="342.766" rx="24.576" ry="24.576"/>
	<path style="fill:#31A7ED;" d="M214.299,345.179c-4.709-8.156-5.573-17.471-3.17-25.862c-1.687,0.53-3.343,1.245-4.938,2.166
		c-11.755,6.786-15.782,21.817-8.996,33.572c6.787,11.755,21.817,15.782,33.572,8.996c1.596-0.921,3.043-1.999,4.346-3.195
		C226.644,358.742,219.008,353.335,214.299,345.179z"/>
	<path style="fill:#4AC4F4;" d="M121.278,242.607c-16.233,9.372-21.815,30.203-12.443,46.436
		c9.372,16.233,30.203,21.815,46.436,12.442c16.233-9.372,21.814-30.203,12.442-46.436
		C158.342,238.816,137.512,233.234,121.278,242.607z"/>
	<path style="fill:#31A7ED;" d="M128.28,239.562c-2.393,0.737-4.743,1.741-7.002,3.045c-16.233,9.372-21.815,30.203-12.443,46.436
		c9.372,16.233,30.203,21.815,46.436,12.442c2.257-1.303,4.3-2.835,6.134-4.538c-6.827-0.092-6.497-6.812-6.497-6.812l-23.983-41.54
		C124.515,244.774,128.263,239.586,128.28,239.562z"/>
	
		<ellipse transform="matrix(0.866 -0.5 0.5 0.866 -117.4977 105.5852)" style="fill:#31A7ED;" cx="138.275" cy="272.045" rx="24.576" ry="24.576"/>
	<path style="fill:#1296D8;" d="M134.095,274.458c-4.709-8.156-5.573-17.471-3.17-25.862c-1.687,0.53-3.343,1.245-4.938,2.166
		c-11.755,6.786-15.782,21.817-8.996,33.572c6.787,11.755,21.817,15.782,33.572,8.995c1.595-0.921,3.043-1.999,4.346-3.195
		C146.44,288.021,138.804,282.614,134.095,274.458z"/>
	<path style="fill:#4AC4F4;" d="M121.278,456.397c-3.884,2.242-7.151,5.146-9.756,8.48c17.952,13.132,37.766,23.863,58.96,31.761
		c2.987-8.921,2.295-19.03-2.768-27.799C158.342,452.606,137.512,447.025,121.278,456.397z"/>
	<path style="fill:#31A7ED;" d="M121.278,456.397c-3.884,2.243-7.151,5.146-9.756,8.48c10.221,7.477,21.055,14.16,32.391,20.005
		l-12.988-22.496c-6.411-3.821-2.662-9.01-2.645-9.034C125.887,454.089,123.537,455.093,121.278,456.397z"/>
	<path style="fill:#31A7ED;" d="M125.987,464.552c-2.653,1.532-4.908,3.486-6.739,5.726c13.292,8.961,27.507,16.65,42.478,22.898
		c1.979-6.329,1.409-13.433-2.168-19.628C152.772,461.793,137.742,457.765,125.987,464.552z"/>
	<path style="fill:#1296D8;" d="M125.987,464.552c-2.653,1.532-4.908,3.486-6.739,5.726c3.553,2.396,7.17,4.704,10.853,6.914
		c-0.848-4.979-0.54-10.042,0.824-14.806C129.238,462.916,127.582,463.631,125.987,464.552z"/>
	<path style="fill:#4AC4F4;" d="M121.278,385.133c-16.233,9.372-21.815,30.203-12.443,46.436
		c9.372,16.233,30.203,21.815,46.436,12.442c16.233-9.372,21.814-30.203,12.442-46.436
		C158.342,381.343,137.512,375.761,121.278,385.133z"/>
	<path style="fill:#31A7ED;" d="M128.28,382.088c-2.393,0.737-4.743,1.741-7.002,3.045c-16.233,9.372-21.815,30.203-12.443,46.436
		c9.372,16.233,30.203,21.815,46.436,12.442c2.257-1.303,4.3-2.835,6.134-4.538c-6.827-0.092-6.497-6.812-6.497-6.812l-23.983-41.54
		C124.515,387.301,128.263,382.112,128.28,382.088z"/>
	
		<ellipse transform="matrix(0.866 -0.5 0.5 0.866 -188.7608 124.6798)" style="fill:#31A7ED;" cx="138.275" cy="414.572" rx="24.576" ry="24.576"/>
	<path style="fill:#1296D8;" d="M134.095,416.984c-4.709-8.156-5.573-17.471-3.17-25.862c-1.687,0.53-3.343,1.245-4.938,2.166
		c-11.755,6.786-15.782,21.817-8.996,33.572c6.787,11.755,21.817,15.782,33.572,8.995c1.595-0.921,3.043-1.998,4.346-3.195
		C146.44,430.547,138.804,425.141,134.095,416.984z"/>
	<path style="fill:#4AC4F4;" d="M121.278,313.87c-16.233,9.372-21.815,30.203-12.443,46.436
		c9.372,16.233,30.203,21.815,46.436,12.442c16.233-9.372,21.814-30.203,12.442-46.436
		C158.342,310.08,137.512,304.498,121.278,313.87z"/>
	<path style="fill:#31A7ED;" d="M128.28,310.825c-2.393,0.737-4.743,1.741-7.002,3.045c-16.233,9.372-21.815,30.203-12.443,46.436
		c9.372,16.233,30.203,21.815,46.436,12.442c2.257-1.303,4.3-2.835,6.134-4.538c-6.827-0.092-6.497-6.812-6.497-6.812l-23.983-41.54
		C124.515,316.038,128.263,310.849,128.28,310.825z"/>
	
		<ellipse transform="matrix(0.866 -0.5 0.5 0.866 -153.1295 115.1328)" style="fill:#31A7ED;" cx="138.275" cy="343.309" rx="24.576" ry="24.576"/>
	<path style="fill:#1296D8;" d="M134.095,345.721c-4.709-8.156-5.573-17.471-3.17-25.862c-1.687,0.53-3.343,1.245-4.938,2.166
		c-11.755,6.787-15.782,21.817-8.996,33.572c6.787,11.755,21.817,15.782,33.572,8.995c1.595-0.921,3.043-1.999,4.346-3.195
		C146.44,359.284,138.804,353.878,134.095,345.721z"/>
</g>
<g>
</g>
<g>
</g>
<g>
</g>
<g>
</g>
<g>
</g>
<g>
</g>
<g>
</g>
<g>
</g>
<g>
</g>
<g>
</g>
<g>
</g>
<g>
</g>
<g>
</g>
<g>
</g>
<g>
</g>
</svg>
