<?xml version="1.0" encoding="iso-8859-1"?>
<!-- Generator: Adobe Illustrator 21.0.0, SVG Export Plug-In . SVG Version: 6.00 Build 0)  -->
<svg version="1.1" id="Capa_1" xmlns="http://www.w3.org/2000/svg" xmlns:xlink="http://www.w3.org/1999/xlink" x="0px" y="0px"
	 viewBox="0 0 512 512" style="enable-background:new 0 0 512 512;" xml:space="preserve">
<g>
	<path style="fill:#82CD64;" d="M458.186,405.384c27.003-39.377,42.814-87.031,42.814-138.384
		c0-135.31-109.69-245.001-245.001-245.001S11,131.689,11,267c0,51.353,15.811,99.007,42.814,138.384H458.186z"/>
	<path style="fill:#E6F4FF;" d="M355.821,339.591c3.406,35.188,10.94,93.208,26.133,137.582
		c30.631-18.396,56.911-43.292,76.925-72.789C424.009,356.268,355.821,339.591,355.821,339.591z"/>
	<path style="fill:#FFCDBE;" d="M196.189,334.234c-0.834,7.106,0.133,14.933,2.881,22.542c6.408,17.745,21.745,34.205,45.582,48.922
		l0.395,0.244h21.908l0.395-0.244c46.7-28.831,49.977-58.084,48.48-71.464h-0.185c-0.57-1.941-2.792-7.047-3.904-15.471
		c-1.043-7.907-1.516-15.742-1.695-22.522H256h-54.045c-0.179,6.78-0.652,14.615-1.695,22.522
		c-1.112,8.424-3.334,13.53-3.904,15.471H196.189z"/>
	<path style="fill:#FCB19F;" d="M255.255,296.242h-53.3c-0.179,6.78-0.652,14.615-1.695,22.522
		c-1.112,8.424-3.334,13.53-3.904,15.471h-0.167c-0.834,7.106,0.133,14.933,2.881,22.542c3.869,10.715,11.018,20.958,21.304,30.636
		c1.842,0.172,2.925,0.468,2.925,0.468C257.922,363.783,257.236,316.082,255.255,296.242z"/>
	<path style="fill:#A9D8FC;" d="M355.821,339.591c-6.757-1.547-13.735-2.825-20.739-3.748c2.572,1.651,4.652,3.626,6.178,5.924
		l0.001,0.001c1.225,1.844,1.845,4.182,1.743,6.582c-1.213,28.687-15.137,56.569-41.383,82.871
		c-4.723,4.735-10.899,1.941-14.159-0.146c-1.695-1.086-3.254-2.072-4.707-2.992l-2.301-1.456l-7.247,11.56h-34.416l-7.247-11.561
		l-2.403,1.522c-1.425,0.902-2.949,1.866-4.605,2.927c-3.259,2.087-9.431,4.882-14.159,0.146
		c-26.245-26.301-40.169-54.184-41.382-82.871c-0.102-2.399,0.517-4.737,1.742-6.583c1.526-2.299,3.606-4.273,6.178-5.924
		c0,0-82.426,11.924-123.797,68.54C97.184,469.327,171.607,512,256,512c46.062,0,89.148-12.721,125.955-34.827
		C366.762,432.799,359.228,374.779,355.821,339.591z"/>
	<path style="fill:#91D1F9;" d="M93.319,450.174c10.235,9.096,21.235,17.346,32.895,24.643c4.884-20.243,9.288-42.368,9.288-56.33
		C135.502,418.487,112.623,423.633,93.319,450.174z"/>
	<g>
		<path style="fill:#EF75A7;" d="M246.033,495.53c4.432,4.278,11.501,4.277,15.933-0.001c6.026-5.817,11.514-11.875,16.528-18.105
			l-4.38-37.6H256h-18.113l-4.876,41.849C237.051,486.414,241.385,491.043,246.033,495.53z"/>
	</g>
	<path style="fill:#EF456E;" d="M248.374,457.987h7.668h7.668c5.807,0,10.917,3.277,13.47,8.165l-3.067-26.328H256h-18.113
		l-3.095,26.566C237.302,461.373,242.475,457.987,248.374,457.987z"/>
	<path style="fill:#644BF7;" d="M256,512c48.206,0,93.154-13.932,131.055-37.975c-9.706-33.243-24.669-90.159-27.429-133.534
		c-10.177-2.523-20.974-4.425-31.655-5.462c-2.608,46.503-16.387,110.423-66.005,158.32c-4.431,4.278-11.501,4.279-15.933,0.001
		c-49.469-47.753-63.313-111.429-65.979-157.897c-10.812,1.261-21.652,3.371-31.752,6.085
		c-2.873,41.921-17.132,96.915-26.763,130.278C160.141,497.211,206.34,512,256,512z"/>
	<path style="fill:#3D4EC6;" d="M180.054,335.454c-10.812,1.261-21.652,3.371-31.752,6.085c-1.615,23.573-6.831,51.278-12.8,76.948
		c40.43,0,51.818-12.544,51.818-12.544c1.262-1.918,2.557-3.625,3.868-5.177C184.291,377.595,181.176,355.001,180.054,335.454z"/>
	<path style="fill:#8C96DD;" d="M261.966,493.349c-4.431,4.278-11.501,4.279-15.933,0.001
		c-49.469-47.753-63.313-111.429-65.979-157.897c-5.721,0.667-11.446,1.578-17.069,2.685c4.738,52.582,20.544,117.95,64.233,172.17
		C236.66,511.414,246.261,512,256,512c8.232,0,16.368-0.413,24.392-1.206c44.19-54.566,60.018-120.528,64.69-173.391
		c-5.663-1.011-11.402-1.819-17.111-2.374C325.363,381.532,311.584,445.452,261.966,493.349z"/>
	<path style="fill:#644BF7;" d="M187.32,405.942c1.262-1.918,2.557-3.625,3.868-5.177c-6.897-23.171-10.012-45.765-11.134-65.312
		c-5.721,0.667-11.446,1.578-17.068,2.685c2.062,22.887,6.233,48.199,13.87,73.959C184.534,409.001,187.32,405.942,187.32,405.942z"
		/>
	<path style="fill:#D0E8FE;" d="M342.622,340.863c-4.296-6.472-13.152-11.563-28.664-12.455c-0.519-0.03-0.716,0.86-0.572,1.438
		c1.379,5.523,8.939,39.989-46.896,74.461c-2.852,1.762-3.986,5.831-2.49,9.147c3.373,7.479,8.947,10.269,22.581,18.999
		c5.378,3.443,11.551,4.58,16.196-0.077c13.679-13.709,40.152-43.608,41.859-83.957
		C344.751,345.701,344.055,343.022,342.622,340.863z"/>
	<path style="fill:#D0E8FE;" d="M169.378,340.863c4.296-6.472,13.152-11.563,28.664-12.455c0.519-0.03,0.716,0.86,0.572,1.438
		c-1.379,5.523-8.939,39.989,46.896,74.461c2.852,1.762,3.986,5.831,2.49,9.147c-3.373,7.479-8.947,10.269-22.581,18.999
		c-5.378,3.443-11.551,4.58-16.196-0.077c-13.679-13.709-40.152-43.608-41.859-83.957
		C167.249,345.701,167.945,343.022,169.378,340.863z"/>
	<path style="fill:#A9D8FC;" d="M198.613,329.847c0.144-0.578-0.052-1.468-0.572-1.438c-15.512,0.892-24.368,5.983-28.664,12.455
		c-1.433,2.158-2.129,4.838-2.015,7.556c0.968,22.888,9.906,42.408,19.957,57.523c15.602-23.711,35.979-18.062,35.979-18.062l0,0
		C191.942,359.548,197.455,334.486,198.613,329.847z"/>
	<path style="fill:#E6F4FF;" d="M313.387,329.847c-0.144-0.578,0.052-1.468,0.572-1.438c15.512,0.892,24.368,5.983,28.664,12.455
		c1.433,2.158,2.129,4.838,2.015,7.556c-0.968,22.888-9.906,42.408-19.957,57.523c-15.602-23.711-35.979-18.062-35.979-18.062l0,0
		C320.058,359.548,314.545,334.486,313.387,329.847z"/>
	<path style="fill:#E20A62;" d="M277.827,423.976l-9.749-16.551c-1.138-1.932-3.212-3.117-5.454-3.117H248.88
		c-2.242,0-4.316,1.186-5.454,3.117l-9.748,16.551c-1.777,3.018-1.726,6.774,0.134,9.742l3.827,6.106h36.226l3.827-6.106
		C279.553,430.751,279.605,426.994,277.827,423.976z"/>
	<g>
		<path style="fill:#D3644F;" d="M379.918,222.868c-0.903,9.463-8.891,16.89-18.587,16.89c-4.405,0-8.452-1.542-11.65-4.102
			c2.049,11.222,1.72,23.546-2.747,35.352c-9.477,25.044-10.759,49.827-10.852,59.799c-0.009,0.983,1.35,1.243,1.706,0.327
			l2.802-7.195c0.36-0.924,1.718-0.637,1.693,0.354c-1.002,39.992,20.948,64.484,35.009,76.016c2.963,2.43,7.191-0.52,6.071-4.184
			c-8.415-27.526,10.005-50.422,13.502-109.35C398.465,259.828,390.532,238.742,379.918,222.868z"/>
	</g>
	<g>
		<path style="fill:#BF5041;" d="M379.918,222.868c-0.903,9.463-8.891,16.89-18.587,16.89c-4.405,0-8.452-1.542-11.65-4.102
			c2.049,11.222,1.72,23.546-2.747,35.352c-2.798,7.394-4.877,14.762-6.426,21.735c5.804-5.71,13.763-9.237,22.548-9.237
			c15.662,0,28.701,11.198,31.566,26.022c0.962-6.958,1.753-14.49,2.243-22.753C398.465,259.828,390.532,238.742,379.918,222.868z"
			/>
	</g>
	<g>
		<path style="fill:#D3644F;" d="M162.595,235.655c-3.197,2.561-7.244,4.103-11.649,4.103c-9.696,0-17.684-7.428-18.587-16.891
			c-10.615,15.875-18.548,36.961-16.948,63.909c3.497,58.928,21.917,81.824,13.502,109.35c-1.12,3.664,3.108,6.614,6.071,4.184
			c14.061-11.532,36.011-36.023,35.009-76.016c-0.025-0.991,1.334-1.278,1.693-0.354l2.802,7.195
			c0.357,0.916,1.715,0.656,1.706-0.327c-0.094-9.972-1.376-34.755-10.852-59.799C160.875,259.202,160.546,246.878,162.595,235.655z
			"/>
	</g>
	<g>
		<path style="fill:#BF5041;" d="M148.552,283.506c9.231,0,17.548,3.896,23.413,10.126c-1.568-7.234-3.706-14.916-6.623-22.624
			c-4.467-11.806-4.797-24.13-2.747-35.353c-3.197,2.561-7.244,4.103-11.649,4.103c-9.696,0-17.684-7.428-18.587-16.891
			c-10.615,15.875-18.547,36.961-16.948,63.909c0.447,7.527,1.139,14.459,1.986,20.895
			C120.951,293.778,133.552,283.506,148.552,283.506z"/>
	</g>
	<circle style="fill:#F6D100;" cx="361.331" cy="221.081" r="20.312"/>
	<path style="fill:#F2BA00;" d="M378.47,230.435c-11.218,0-20.312-9.094-20.312-20.312c0-3.358,0.829-6.518,2.272-9.309
		c-10.797,0.475-19.411,9.353-19.411,20.267c0,11.218,9.094,20.312,20.313,20.312c7.86,0,14.663-4.472,18.04-11.003
		C379.07,230.403,378.774,230.435,378.47,230.435z"/>
	<circle style="fill:#F6D100;" cx="150.946" cy="221.081" r="20.312"/>
	<path style="fill:#F2BA00;" d="M133.806,230.435c11.218,0,20.312-9.094,20.312-20.312c0-3.358-0.829-6.518-2.272-9.309
		c10.797,0.475,19.411,9.353,19.411,20.267c0,11.218-9.094,20.312-20.313,20.312c-7.86,0-14.663-4.472-18.04-11.003
		C133.206,230.403,133.502,230.435,133.806,230.435z"/>
	<path style="fill:#FFCDBE;" d="M135.744,152.887c5.527-5.404,17.817-3.334,24.179,0.907c-7.011,22.942-0.924,61.464-0.924,61.464
		c0.237,1.045,0.485,2.057,0.727,3.085c-16.039,0.246-19.908-10.196-20.68-17.33c-0.355-3.283-1.141-6.561-2.359-9.801
		C132.719,180.658,124.428,163.951,135.744,152.887z"/>
	<g>
		<path style="fill:#FCB19F;" d="M145.636,189.747c4.329,0,8.214-1.861,10.931-4.813c0.208,16.22,2.432,30.324,2.432,30.324
			c0.237,1.045,0.485,2.057,0.727,3.085c-16.039,0.246-19.907-10.196-20.68-17.33c-0.355-3.283-1.141-6.561-2.359-9.801
			c-0.823-2.189-1.832-4.646-2.814-7.259C136.594,187.471,140.844,189.747,145.636,189.747z"/>
	</g>
	<path style="fill:#FFCDBE;" d="M376.468,152.887c-5.527-5.404-17.818-3.334-24.179,0.907c7.011,22.942,0.924,61.464,0.924,61.464
		c-0.237,1.045-0.485,2.057-0.728,3.085c16.039,0.246,19.907-10.196,20.68-17.33c0.355-3.283,1.141-6.561,2.359-9.801
		C379.493,180.658,387.785,163.951,376.468,152.887z"/>
	<g>
		<path style="fill:#FCB19F;" d="M366.576,189.747c-4.329,0-8.214-1.861-10.931-4.813c-0.208,16.22-2.432,30.324-2.432,30.324
			c-0.237,1.045-0.485,2.057-0.728,3.085c16.039,0.246,19.908-10.196,20.68-17.33c0.355-3.283,1.141-6.561,2.359-9.801
			c0.823-2.189,1.832-4.646,2.814-7.259C375.619,187.471,371.368,189.747,366.576,189.747z"/>
	</g>
	<g>
		<path style="fill:#FFDECF;" d="M361.345,161.184c-6.662-23.455-19.212-43.808-36.462-58.603
			c-18.073-15.5-40.242-23.991-62.023-23.991c-3.036,0-6.069,0.165-9.079,0.5c-33.396,3.711-44.395-4.597-47.981-9.878
			c-0.64-0.939-1.757-1.359-2.848-1.068c-1.089,0.29-1.848,1.206-1.935,2.334c-0.762,9.923-9.603,15.784-18.963,21.989
			c-11.406,7.561-24.334,16.132-21.549,33.607c3.13,19.632-1.051,36.434-5.109,47.071c-0.12,0.316-0.295,0.588-0.492,0.832
			c-0.936,15.522,0.616,32.104,2.225,41.456c6.583,29.058,16.119,54.394,28.34,75.309c12.406,21.232,31.193,29.861,54.332,39.871
			c10.364,4.482,22.247,4.483,32.608,0c23.138-10.011,41.926-18.64,54.332-39.871c12.219-20.908,21.755-46.246,28.352-75.36
			c1.982-12.599,4.048-36.124,0.822-54.198H361.345z"/>
		<path style="fill:#FFDECF;" d="M367.239,68.592v-8.15h-3.855C364.776,63.082,366.062,65.799,367.239,68.592z"/>
	</g>
	<g>
		<path style="fill:#FFCDBE;" d="M270.109,321.626c-17.635-9.678-31.955-18.02-41.41-38.545
			c-9.314-20.219-16.582-44.712-21.6-72.803c-1.227-9.04-2.409-25.071-1.696-40.077c0.151-0.236,0.284-0.499,0.375-0.805
			c3.093-10.283,6.28-26.525,3.894-45.505c-2.123-16.893,7.73-25.179,16.424-32.489c4.29-3.607,8.427-7.1,11.177-11.393
			c-20.748-0.215-28.558-6.505-31.473-10.797c-0.64-0.939-1.757-1.359-2.848-1.068c-1.089,0.29-1.849,1.206-1.935,2.334
			c-0.762,9.923-9.603,15.784-18.963,21.989c-11.406,7.561-24.334,16.132-21.549,33.607c3.13,19.632-1.051,36.434-5.109,47.071
			c-0.12,0.316-0.295,0.588-0.493,0.832c-0.936,15.522,0.616,32.105,2.226,41.456c6.583,29.057,16.119,54.394,28.34,75.309
			c12.406,21.232,31.193,29.861,54.331,39.871c10.364,4.482,22.247,4.483,32.608,0c4.621-1.999,9.065-3.944,13.323-5.945
			C280.45,325.352,275.053,324.338,270.109,321.626z"/>
	</g>
	<path style="fill:#D3644F;" d="M323.621,17.457c-16.94-9.908-36.052-15.465-55.624-16.899c-22.537-1.652-55.063-0.58-69.981,16.548
		c-1.26,1.446-2.989,2.407-4.901,2.563c-11.937,0.968-58.563,22.852-58.239,93.083c0.102,22.138,7.421,22.287,14.085,60.343
		c0.215,1.147,0.921,2.192,1.965,2.835c2.298,1.415,5.038,0.321,6-2.2c3.826-10.028,8.456-27.467,5.196-47.91
		c-4.779-29.982,38.707-31.489,40.526-55.214c0.072-0.939,1.271-1.252,1.8-0.473c4.046,5.958,15.747,14.336,49.515,10.584
		c48.097-5.344,101.499,33.019,110.067,101.831c0.303,2.428,3.691,2.73,4.422,0.396C377.948,152.626,398.798,61.428,323.621,17.457z
		"/>
	<path style="fill:#BF5041;" d="M293.661,4.937c-8.365-2.285-16.969-3.741-25.665-4.379c-22.536-1.652-55.063-0.58-69.981,16.548
		c-1.26,1.446-2.989,2.407-4.901,2.562c-11.936,0.968-58.563,22.852-58.239,93.083c0.102,22.138,7.421,22.287,14.085,60.342
		c0.215,1.147,0.921,2.192,1.965,2.835c2.298,1.415,5.038,0.321,6-2.2c3.826-10.028,8.456-27.467,5.196-47.91
		c-4.78-29.982,38.707-31.489,40.526-55.214c0.072-0.939,1.271-1.252,1.8-0.473c3.309,4.873,11.745,11.36,33.177,11.511
		c-0.117-0.544-0.229-1.083-0.351-1.632C220.867,6.172,293.641,4.937,293.661,4.937z"/>
	<g>
		<path style="fill:#91D1F9;" d="M274.166,187.002c-3.699,2.816-10.563,9.503-5.837,17.686c3.853,6.672,11.687,5.906,16.965,4.423
			C279.451,202.969,275.647,195.246,274.166,187.002z"/>
		<path style="fill:#91D1F9;" d="M238.093,187.002c-1.481,8.244-5.284,15.967-11.128,22.109c5.278,1.483,13.112,2.249,16.965-4.423
			C248.657,196.505,241.793,189.818,238.093,187.002z"/>
		<g>
			<path style="fill:#3D4EC6;" d="M288.28,217.354c-13.974-11.295-20.538-29.535-17.128-47.602l0.628-3.33
				c1.248-6.614,6.544-11.767,13.18-12.822c11.804-1.877,35.578-4.437,62.168-0.486c8.52,1.266,14.945,8.751,14.945,17.412v12.608
				c0,11.58-4.411,22.557-12.42,30.91C332.807,231.614,305.679,231.417,288.28,217.354z"/>
		</g>
		<path style="fill:#3342AE;" d="M333.785,224.602c-5.803-1.638-6.056-5.41-5.398-8.048c0.414-1.662-0.47-3.394-2.035-4.091
			c-24.945-11.125-24.789-38.923-24.19-46.956c0.097-1.298-0.511-2.529-1.57-3.285c-6.21-4.428-1.884-10.31-1.883-10.312
			c-5.507,0.494-10.177,1.123-13.748,1.691c-6.635,1.055-11.932,6.208-13.18,12.822l-0.628,3.33
			c-3.409,18.067,3.154,36.307,17.128,47.602C300.88,227.538,318.58,230.443,333.785,224.602z"/>
		<g>
			<path style="fill:#3D4EC6;" d="M162.606,214.045c-16.437-17.142-11.541-36.509-12.42-43.519c0-8.66,6.425-16.146,14.945-17.412
				c26.589-3.951,50.364-1.391,62.168,0.486l0,0c6.636,1.055,11.932,6.208,13.18,12.822l0.628,3.33
				c3.409,18.068-3.155,36.308-17.128,47.602C206.633,231.373,179.509,231.674,162.606,214.045z"/>
		</g>
		<path style="fill:#3342AE;" d="M162.606,214.045c13.729,14.318,34.199,16.808,50.698,9.727c-0.046-0.017-0.087-0.035-0.134-0.051
			c-4.706-1.629-5.058-5.726-4.766-8.288c0.083-0.727-0.12-1.426-0.521-1.989c-20.646,8.312-46.032-5.244-46.032-30.31v-12.608
			c0-2.926,2.148-5.451,4.996-5.874c3.951-0.587,7.974-1.031,12.031-1.351c-0.248-0.402-0.591-0.751-1.018-1.004
			c-6.117-3.64-2.153-9.966-2.153-9.966l-0.592-0.421c-3.27,0.307-6.603,0.703-9.982,1.205c-8.52,1.266-14.945,8.752-14.945,17.412
			C151.065,177.536,146.169,196.902,162.606,214.045z"/>
		<path style="fill:#8C96DD;" d="M276.097,165.949c-11.726-6.325-28.036-6.356-39.791-0.079c-1.555,0.831-2.392,2.468-2.162,4.102
			l1.055,7.514c0.155,1.101,1.526,1.485,2.378,0.958c12.297-7.597,24.967-7.566,37.223,0.073c0.901,0.562,2.108,0.038,2.249-0.962
			l1.084-7.718C278.352,168.276,277.553,166.735,276.097,165.949z"/>
		<g>
			<path style="fill:#644BF7;" d="M252.675,167.45c0-3.204,2.406-5.841,5.509-6.216c-7.658-0.338-15.449,1.204-21.878,4.637
				c-1.555,0.831-2.392,2.468-2.162,4.102l1.055,7.514c0.155,1.101,1.526,1.485,2.378,0.958c5.967-3.686,12.022-5.571,18.076-5.668
				C253.868,171.673,252.675,169.703,252.675,167.45z"/>
		</g>
		<path style="fill:#91D1F9;" d="M286.792,165.12L286.792,165.12c-4.121,0.655-3.646,5.346-4.178,6.794
			c-4.178,22.144,11.312,44.574,36.328,43.956c17.351-0.429,31.468-15.114,31.468-32.736v-12.608c0-2.926-2.148-5.451-4.995-5.874
			C326.21,161.798,305.378,162.164,286.792,165.12z"/>
		<path style="fill:#4AC4F4;" d="M326.351,212.463c-24.945-11.125-24.789-38.923-24.19-46.956c0.058-0.769-0.137-1.512-0.522-2.149
			c-5.055,0.407-10.028,0.995-14.848,1.762l0,0c-4.121,0.655-3.646,5.346-4.178,6.795c-4.178,22.144,11.311,44.574,36.328,43.956
			c3.203-0.079,6.294-0.647,9.208-1.627C327.791,213.474,327.167,212.826,326.351,212.463z"/>
		<path style="fill:#91D1F9;" d="M166.846,164.652c-2.848,0.423-4.996,2.949-4.996,5.874v12.608
			c0,28.779,33.464,42.39,54.797,25.148c10.629-8.591,15.61-22.527,12.999-36.368c-0.526-1.431-0.058-6.139-4.178-6.794l0,0
			C206.86,162.161,186.03,161.801,166.846,164.652z"/>
		<path style="fill:#4AC4F4;" d="M178.877,163.301L178.877,163.301c-4.057,0.32-8.08,0.764-12.031,1.351
			c-2.848,0.423-4.996,2.949-4.996,5.874v12.608c0,25.064,25.38,38.613,46.025,30.307
			C173.651,199.127,178.877,163.301,178.877,163.301z"/>
	</g>
	<g>
		<path style="fill:#FFCDBE;" d="M274.09,269.472c-0.04,0-4.217-0.09-7.788-2.099c-1.759-0.99-3.877-1.11-5.737-0.325l-4.426,1.867
			l-4.426-1.867c-1.86-0.785-3.978-0.665-5.737,0.325c-3.534,1.988-7.663,2.096-7.827,2.099c-3.588,0.02-6.49,2.935-6.49,6.528
			c0,3.606,2.923,6.528,6.528,6.528c0.646,0,5.672-0.076,11.15-2.312l4.264,1.799c1.636,0.69,3.444,0.689,5.074,0l4.264-1.799
			c5.478,2.236,10.504,2.312,11.15,2.312c3.605,0,6.528-2.922,6.528-6.528C280.617,272.394,277.695,269.472,274.09,269.472z"/>
	</g>
	<g>
		<path style="fill:#FFCDBE;" d="M271.697,230.147l-6.692-1.201c-1.522-0.274-3.09,0.003-4.428,0.779l-5.305,3.076l-5.303-3.076
			c-1.337-0.776-2.906-1.05-4.428-0.779l-6.692,1.201c-3.549,0.637-5.909,4.03-5.272,7.578c0.636,3.549,4.03,5.906,7.578,5.271
			l4.335-0.778l6.507,3.774c0.007,0.004,0.014,0.006,0.021,0.011c1.94,1.113,4.386,1.212,6.505,0.001
			c0.008-0.005,0.016-0.007,0.024-0.012l6.508-3.774l4.335,0.778c3.543,0.64,6.941-1.723,7.578-5.271
			C277.606,234.177,275.246,230.784,271.697,230.147z"/>
	</g>
</g>
<g>
</g>
<g>
</g>
<g>
</g>
<g>
</g>
<g>
</g>
<g>
</g>
<g>
</g>
<g>
</g>
<g>
</g>
<g>
</g>
<g>
</g>
<g>
</g>
<g>
</g>
<g>
</g>
<g>
</g>
</svg>
