<?xml version="1.0" encoding="iso-8859-1"?>
<!-- Generator: Adobe Illustrator 21.0.0, SVG Export Plug-In . SVG Version: 6.00 Build 0)  -->
<svg version="1.1" id="Capa_1" xmlns="http://www.w3.org/2000/svg" xmlns:xlink="http://www.w3.org/1999/xlink" x="0px" y="0px"
	 viewBox="0 0 512 512" style="enable-background:new 0 0 512 512;" xml:space="preserve">
<g>
	<path style="fill:#F6D100;" d="M489.716,340.685c7.326-23.258,11.284-48.008,11.284-73.686c0-135.31-109.69-245-245.001-245
		s-245.001,109.691-245.001,245c0,25.677,3.959,50.428,11.284,73.686H489.716z"/>
	<path style="fill:#91D1F9;" d="M354.155,491.526c64.967-28.442,115.219-84.242,136.179-152.841v-38.83H354.155V491.526z"/>
	<path style="fill:#4AC4F4;" d="M395.231,451.634V299.855h-41.076v191.671c16.978-7.433,32.939-16.75,47.646-27.66
		C397.849,461.222,395.231,456.72,395.231,451.634z"/>
	<path style="fill:#91D1F9;" d="M21.666,338.685c20.96,68.599,71.211,124.399,136.179,152.841V299.855H21.666V338.685z"/>
	<path style="fill:#4AC4F4;" d="M116.769,451.634V299.855h41.076v191.671c-16.978-7.433-32.938-16.75-47.646-27.66
		C114.151,461.222,116.769,456.72,116.769,451.634z"/>
	<path style="fill:#31A7ED;" d="M398.449,466.346h-44.294v25.18C369.845,484.657,384.68,476.202,398.449,466.346z"/>
	<path style="fill:#31A7ED;" d="M157.845,491.526v-25.18h-44.294C127.32,476.202,142.155,484.657,157.845,491.526z"/>
	<path style="fill:#5766CE;" d="M500.343,292.428l-30.132-55.79c-2.49-4.61-7.307-7.483-12.546-7.483H354.155v74.141h139.706
		C499.44,303.296,502.994,297.336,500.343,292.428z"/>
	<path style="fill:#3D4EC6;" d="M395.231,242.417c0-5.834,3.45-10.888,8.403-13.262h-49.48v74.141h41.076V242.417z"/>
	<path style="fill:#5766CE;" d="M11.657,292.428l30.131-55.79c2.49-4.61,7.307-7.483,12.546-7.483h103.511v74.141H18.139
		C12.56,303.296,9.006,297.336,11.657,292.428z"/>
	<path style="fill:#3D4EC6;" d="M116.769,242.417c0-5.834-3.45-10.888-8.403-13.262h49.48v74.141h-41.076V242.417z"/>
	<rect x="402.998" y="338.793" style="fill:#F6D100;" width="42.288" height="70.97"/>
	<path style="fill:#E06E53;" d="M453.053,412.593v-73.8c0-4.289-3.477-7.767-7.767-7.767h-42.288c-4.289,0-7.767,3.477-7.767,7.767
		v78.737h54.074C450.575,415.901,451.823,414.254,453.053,412.593z M437.519,401.996h-26.754v-19.952h26.754V401.996z
		 M437.519,366.511h-26.754V346.56h26.754V366.511z"/>
	<rect x="67.323" y="338.793" style="fill:#F6D100;" width="42.288" height="70.97"/>
	<path style="fill:#E06E53;" d="M109.611,331.026H67.323c-4.29,0-7.767,3.477-7.767,7.767v74.635c1.031,1.38,2.08,2.744,3.139,4.102
		h54.683v-78.737C117.378,334.503,113.901,331.026,109.611,331.026z M101.844,401.996H75.09v-19.952h26.754V401.996z
		 M101.844,366.511H75.09V346.56h26.754V366.511z"/>
	<path style="fill:#E7387F;" d="M290.726,43.71h-7.507v8.716v6.299v7.518c0-4.146,3.361-7.507,7.507-7.507l-0.001-0.01h0.001
		c4.146,0,7.507-3.361,7.507-7.507C298.234,47.071,294.873,43.71,290.726,43.71z"/>
	<path style="fill:#EB5793;" d="M256.035,14.455V43.71c20.682,0,21.209,0,34.691,0c4.146,0,7.507,3.361,7.507,7.507
		c0-2.844,0-29.103,0-27.729c0-4.989-4.044-9.034-9.034-9.034H256.035z"/>
	<path style="fill:#E20A62;" d="M313.061,44.495h-14.828v6.723c0,4.146-3.361,7.507-7.507,7.507v0.01
		c-4.223,0-7.631,3.486-7.504,7.738c0.123,4.109,3.708,7.277,7.818,7.277h22.021c2.534,0,4.589-2.055,4.589-4.589V49.084
		C317.651,46.55,315.596,44.495,313.061,44.495z"/>
	<g>
		<path style="fill:#D0E8FE;" d="M256.035,93.024c-4.29,0-7.767-3.477-7.767-7.767V7.767c0-4.29,3.477-7.767,7.767-7.767
			c4.29,0,7.767,3.477,7.767,7.767v77.49C263.801,89.547,260.325,93.024,256.035,93.024z"/>
	</g>
	<path style="fill:#91D1F9;" d="M256.035,54.504c-4.29,0-7.767-3.477-7.767-7.767v38.52c0,4.289,3.477,7.767,7.767,7.767
		c4.29,0,7.767-3.477,7.767-7.767v-38.52C263.801,51.027,260.325,54.504,256.035,54.504z"/>
	<path style="fill:#D0E8FE;" d="M356.226,229.155H155.774V490.62C186.369,504.354,220.291,512,256,512s69.631-7.646,100.226-21.38
		V229.155z"/>
	<path style="fill:#A9D8FC;" d="M195.254,229.155h-39.48V490.62c12.627,5.668,25.828,10.28,39.48,13.765V229.155z"/>
	<polygon style="fill:#D0E8FE;" points="256.035,85.257 155.774,185.518 155.774,229.155 356.226,229.155 356.226,185.448 	"/>
	<path style="fill:#A9D8FC;" d="M155.774,185.518v43.637h39.48v-14.607c0-5.01,2.017-9.808,5.597-13.313l79.253-77.608l-1.04-15.341
		l-23.028-23.028L155.774,185.518z"/>
	<circle style="fill:#D0E8FE;" cx="256.035" cy="171.453" r="35.262"/>
	<path style="fill:#A9D8FC;" d="M276.384,200.242c-1.309-1.851-1.689-4.081-1.745-5.79c-0.054-1.639-1.096-3.07-2.632-3.646
		c-24.962-9.371-29.299-32.194-30.052-40.111c-0.145-1.528-1.138-2.864-2.586-3.373c-2.395-0.843-3.94-2.207-4.926-3.738
		c-8.315,6.451-13.672,16.532-13.672,27.87c0,19.475,15.787,35.262,35.262,35.262C263.617,206.715,270.634,204.314,276.384,200.242z
		"/>
	<g>
		<path style="fill:#3D4EC6;" d="M369.105,208.338c-2.651,0-5.3-1.011-7.323-3.033L256.035,99.558L150.288,205.305
			c-4.045,4.044-10.6,4.045-14.646,0.001c-4.044-4.044-4.044-10.602,0-14.646l113.07-113.07c1.943-1.942,4.576-3.033,7.323-3.033
			c2.747,0,5.38,1.091,7.323,3.033l113.07,113.07c4.044,4.044,4.044,10.602,0,14.645
			C374.405,207.327,371.756,208.338,369.105,208.338z"/>
	</g>
	<g>
		<path style="fill:#3342AE;" d="M279.632,120.352c0-6.489,5.261-11.75,11.75-11.75c1.23,0,2.415,0.191,3.53,0.541L263.358,77.59
			c-1.943-1.942-4.576-3.033-7.323-3.033c-2.747,0-5.38,1.091-7.323,3.033l-113.07,113.07c-4.044,4.044-4.044,10.601,0,14.646
			c4.045,4.044,10.601,4.044,14.646-0.001L256.035,99.558l24.069,24.069C279.802,122.586,279.632,121.49,279.632,120.352z"/>
	</g>
	<path style="fill:#8C96DD;" d="M256,71.765L256,71.765c-7.342,0-13.349,6.007-13.349,13.349v13.43
		c0,7.342,6.007,13.349,13.349,13.349l0,0c7.342,0,13.349-6.007,13.349-13.349v-13.43C269.349,77.772,263.342,71.765,256,71.765z"/>
	<path style="fill:#5766CE;" d="M256,95.805c-6.894,0-12.609-5.296-13.282-12.02c-0.044,0.438-0.068,0.881-0.068,1.329v13.43
		c0,7.342,6.007,13.35,13.349,13.35c7.342,0,13.349-6.007,13.349-13.35v-13.43c0-0.449-0.024-0.892-0.068-1.329
		C268.609,90.509,262.894,95.805,256,95.805z"/>
	<g>
		<path style="fill:#91D1F9;" d="M356.226,236.922H155.774c-4.29,0-7.767-3.477-7.767-7.767c0-4.289,3.477-7.767,7.767-7.767
			h200.452c4.29,0,7.767,3.477,7.767,7.767C363.993,233.444,360.516,236.922,356.226,236.922z"/>
	</g>
	<path style="fill:#4AC4F4;" d="M188.507,229.155c0-4.29,3.477-7.767,7.767-7.767h-40.5c-4.29,0-7.767,3.477-7.767,7.767
		c0,4.29,3.477,7.767,7.767,7.767h40.5C191.984,236.921,188.507,233.444,188.507,229.155z"/>
	<g>
		<path style="fill:#F6D100;" d="M202.397,419.074h107.154c-2.787-26.995-25.599-48.048-53.331-48.048
			C228.488,371.026,205.184,392.079,202.397,419.074z"/>
	</g>
	<path style="fill:#F2BA00;" d="M290.01,383.023c-9.222-7.497-20.978-11.997-33.79-11.997c-27.732,0-51.037,21.053-53.824,48.048
		h99.002C286.576,413.69,282.515,395.007,290.01,383.023z"/>
	<g>
		<path style="fill:#F6D100;" d="M256.22,371.026c-11.05,0-21.313,3.351-29.845,9.08l29.846,38.968l29.845-38.968
			C277.533,374.377,267.271,371.026,256.22,371.026z"/>
	</g>
	<path style="fill:#F98F6E;" d="M317.277,418.276c-3.28-31.77-29.948-55.018-61.052-55.018l-0.004,0h0h-0.001
		c-31.597,0-58.342,23.949-61.548,55.018c-0.227,2.187,0.486,4.367,1.958,6c1.473,1.632,3.569,2.564,5.768,2.564h107.154
		c2.199,0,4.294-0.932,5.768-2.565C316.791,422.644,317.503,420.464,317.277,418.276z M274.411,382.549l-18.19,23.751
		l-18.188-23.747C249.748,377.518,262.925,377.571,274.411,382.549z M224.935,390.999l15.554,20.308h-28.608
		C214.333,403.434,218.926,396.456,224.935,390.999z M271.952,411.307l15.526-20.272c5.835,5.423,10.262,12.366,12.637,20.272
		H271.952z"/>
	<rect x="277.899" y="260.739" style="fill:#F6D100;" width="42.288" height="70.97"/>
	<path style="fill:#E06E53;" d="M320.187,252.972h-42.288c-4.29,0-7.767,3.477-7.767,7.767v78.737h57.822v-78.737
		C327.954,256.449,324.477,252.972,320.187,252.972z M312.42,268.506v19.951h-26.754v-19.951H312.42z M285.666,323.942v-19.952
		h26.754v19.952H285.666z"/>
	<g>
		<path style="fill:#91D1F9;" d="M256.035,214.482c-23.725,0-43.028-19.303-43.028-43.029c0-23.726,19.303-43.029,43.028-43.029
			c23.726,0,43.029,19.303,43.029,43.029C299.064,195.179,279.761,214.482,256.035,214.482z M256.035,143.958
			c-15.161,0-27.494,12.334-27.494,27.495c0,15.161,12.334,27.495,27.494,27.495c15.161,0,27.495-12.334,27.495-27.495
			C283.53,156.292,271.196,143.958,256.035,143.958z"/>
	</g>
	<g>
		<path style="fill:#3D4EC6;" d="M256.304,179.22c-4.29,0-7.767-3.477-7.767-7.767v-14.419c0-4.289,3.477-7.767,7.767-7.767
			c4.29,0,7.767,3.477,7.767,7.767v14.419C264.07,175.742,260.594,179.22,256.304,179.22z"/>
	</g>
	<g>
		<path style="fill:#E7387F;" d="M256.304,179.22h-12.122c-4.29,0-7.767-3.477-7.767-7.767c0-4.289,3.477-7.767,7.767-7.767h12.122
			c4.29,0,7.767,3.477,7.767,7.767C264.07,175.742,260.594,179.22,256.304,179.22z"/>
	</g>
	<path style="fill:#4AC4F4;" d="M284.407,203.762c-8.197-0.068-9.652-5.795-9.768-9.311c-0.026-0.789-0.285-1.526-0.714-2.146
		c-4.813,4.135-11.063,6.643-17.891,6.643c-15.161,0-27.494-12.334-27.494-27.495c0-9.614,4.963-18.086,12.458-23.002
		c-0.43-0.502-0.98-0.902-1.628-1.13c-7.258-2.553-6.73-9.883-6.371-12.184c-12.005,7.643-19.993,21.06-19.993,36.315
		c0,23.726,19.303,43.029,43.028,43.029C266.898,214.482,276.826,210.427,284.407,203.762z"/>
	<path style="fill:#EF7D5E;" d="M445.286,331.026h-21.554c-4.29,0-7.767,3.477-7.767,7.767l0,0c0,4.289,3.477,7.767,7.767,7.767
		h13.787v19.951h-13.787c-4.29,0-7.767,3.477-7.767,7.767l0,0c0,4.289,3.477,7.767,7.767,7.767h13.787v19.952h-13.787
		c-4.29,0-7.767,3.477-7.767,7.767v0c0,4.29,3.477,7.767,7.767,7.767h25.573c1.27-1.629,2.518-3.276,3.748-4.937v-73.8
		C453.053,334.503,449.575,331.026,445.286,331.026z"/>
	<path style="fill:#EF7D5E;" d="M109.611,331.026H88.057c-4.289,0-7.767,3.477-7.767,7.767l0,0c0,4.289,3.477,7.767,7.767,7.767
		h13.787v19.951H88.057c-4.289,0-7.767,3.477-7.767,7.767l0,0c0,4.289,3.477,7.767,7.767,7.767h13.787v19.952H88.057
		c-4.289,0-7.767,3.477-7.767,7.767v0c0,4.29,3.477,7.767,7.767,7.767h25.573c1.27-1.629,2.518-3.276,3.748-4.937v-73.8
		C117.378,334.503,113.901,331.026,109.611,331.026z"/>
	<path style="fill:#E06E53;" d="M451.958,414.069c-0.007,0-0.013-0.001-0.013-0.001h-55.6c-4.29,0-7.767,3.477-7.767,7.767
		c0,4.29,3.477,7.767,7.767,7.767h42.899C443.685,424.601,447.933,419.424,451.958,414.069z"/>
	<path style="fill:#D3644F;" d="M411.078,421.835c0-4.29,3.477-7.767,7.767-7.767h-22.5c-4.29,0-7.767,3.477-7.767,7.767
		c0,4.29,3.477,7.767,7.767,7.767h22.5C414.555,429.602,411.078,426.125,411.078,421.835z"/>
	<path style="fill:#E06E53;" d="M116.263,414.069H60.67c-0.204,0-0.405,0.015-0.605,0.03c4.019,5.344,8.258,10.511,12.691,15.503
		h43.507c4.29,0,7.767-3.477,7.767-7.767C124.03,417.546,120.553,414.069,116.263,414.069z"/>
	<path style="fill:#D3644F;" d="M75.315,421.835c0-4.29,3.477-7.767,7.767-7.767H60.67c-0.204,0-0.405,0.015-0.605,0.03
		c4.019,5.344,8.258,10.511,12.691,15.503h10.326C78.792,429.602,75.315,426.125,75.315,421.835z"/>
	<path style="fill:#EF7D5E;" d="M320.187,252.972h-21.554c-4.289,0-7.767,3.477-7.767,7.767v0c0,4.29,3.477,7.767,7.767,7.767
		h13.787v19.951h-13.787c-4.289,0-7.767,3.477-7.767,7.767l0,0c0,4.29,3.477,7.767,7.767,7.767h13.787v19.952h-13.787
		c-4.289,0-7.767,3.477-7.767,7.767v0c0,4.29,3.477,7.767,7.767,7.767h29.321l0,0v-78.737
		C327.954,256.449,324.477,252.972,320.187,252.972z"/>
	<g>
		<path style="fill:#E06E53;" d="M326.84,351.548h-55.594c-4.29,0-7.767-3.477-7.767-7.767c0-4.289,3.477-7.767,7.767-7.767h55.594
			c4.29,0,7.767,3.477,7.767,7.767C334.607,348.071,331.13,351.548,326.84,351.548z"/>
	</g>
	<path style="fill:#D3644F;" d="M285.979,343.782c0-4.29,3.477-7.767,7.767-7.767h-22.5c-4.29,0-7.767,3.477-7.767,7.767
		c0,4.29,3.477,7.767,7.767,7.767h22.5C289.456,351.548,285.979,348.071,285.979,343.782z"/>
	<rect x="192.255" y="260.739" style="fill:#F6D100;" width="42.288" height="70.97"/>
	<path style="fill:#E06E53;" d="M234.543,252.972h-42.288c-4.29,0-7.767,3.477-7.767,7.767v78.737h57.822v-78.737
		C242.31,256.449,238.833,252.972,234.543,252.972z M226.776,268.506v19.951h-26.754v-19.951H226.776z M200.022,323.942v-19.952
		h26.754v19.952H200.022z"/>
	<path style="fill:#EF7D5E;" d="M234.543,252.972h-21.554c-4.29,0-7.767,3.477-7.767,7.767v0c0,4.29,3.477,7.767,7.767,7.767h13.787
		v19.951h-13.787c-4.29,0-7.767,3.477-7.767,7.767l0,0c0,4.29,3.477,7.767,7.767,7.767h13.787v19.952h-13.787
		c-4.29,0-7.767,3.477-7.767,7.767v0c0,4.29,3.477,7.767,7.767,7.767h29.321l0,0v-78.737
		C242.31,256.449,238.832,252.972,234.543,252.972z"/>
	<g>
		<path style="fill:#E06E53;" d="M241.196,351.548h-55.594c-4.29,0-7.767-3.477-7.767-7.767c0-4.289,3.477-7.767,7.767-7.767h55.594
			c4.29,0,7.767,3.477,7.767,7.767C248.962,348.071,245.485,351.548,241.196,351.548z"/>
	</g>
	<path style="fill:#D3644F;" d="M200.335,343.782c0-4.29,3.477-7.767,7.767-7.767h-22.5c-4.29,0-7.767,3.477-7.767,7.767
		c0,4.29,3.477,7.767,7.767,7.767h22.5C203.812,351.548,200.335,348.071,200.335,343.782z"/>
	<path style="fill:#EF7D5E;" d="M289.798,411.307h-17.846l15.519-20.263c-0.338-0.943-0.532-1.954-0.532-3.013
		c0-4.932,3.998-8.929,8.929-8.929c0.607,0,1.199,0.062,1.772,0.177c-11.02-10.035-25.644-16.021-41.415-16.021l-0.004,0h0h-0.001
		c-31.596,0-58.341,23.949-61.548,55.018c-0.227,2.187,0.486,4.367,1.958,6c1.473,1.632,3.569,2.564,5.768,2.564h87.401V411.307z
		 M211.881,411.307c2.451-7.873,7.045-14.851,13.054-20.308l15.554,20.308H211.881z M238.033,382.554
		c11.715-5.036,24.891-4.982,36.378-0.004l-18.19,23.751L238.033,382.554z"/>
	<g>
		<path style="fill:#F2BA00;" d="M249.226,419.074h-46.829c-0.189,1.831-0.288,3.689-0.288,5.57v79.589h47.117V419.074z"/>
	</g>
	<g>
		<path style="fill:#F6D100;" d="M309.551,419.074h-46.726v85.159h47.013v-79.589C309.839,422.763,309.74,420.905,309.551,419.074z"
			/>
	</g>
	<g>
		<path style="fill:#F2BA00;" d="M289.633,419.074h-26.807v85.159h26.972v-79.589C289.798,422.763,289.741,420.905,289.633,419.074z
			"/>
	</g>
	<g>
		<rect x="202.109" y="471.233" style="fill:#F6D100;" width="47.117" height="33.001"/>
	</g>
	<path style="fill:#E06E53;" d="M194.342,424.644v79.527c17.917,4.645,36.63,7.311,55.893,7.756
		c3.811-0.496,6.758-3.747,6.758-7.694v-92.926h-61.179C194.846,415.519,194.342,420.155,194.342,424.644z M209.876,426.841h31.583
		v69.626h-31.583V426.841z"/>
	<path style="fill:#E06E53;" d="M256.993,463.466h-62.651v40.705C214.042,509.278,234.703,512,256,512
		c0.332,0,0.661-0.011,0.993-0.013V463.466z M241.459,496.466h-31.583V479h31.583V496.466z"/>
	<path style="fill:#F98F6E;" d="M317.658,463.466h-0.052v-38.822c0-4.473-0.498-9.11-1.463-13.337h-59.922v52.159
		c0,14.228,0,34.292,0,48.531c21.082-0.02,41.85-2.748,61.385-7.812v-0.001c0.017-0.005,0.035-0.009,0.052-0.013V463.466z
		 M270.593,478.999h31.479v17.467h-31.479V478.999z M270.593,426.841h31.479v36.625h-31.479V426.841z"/>
	<g>
		<path style="fill:#EF7D5E;" d="M286.066,502.84c0-3.52,2.854-6.374,6.374-6.374h-21.847v-17.467h23.24
			c-4.289,0-7.767-3.477-7.767-7.767c0-4.29,3.477-7.767,7.767-7.767h-23.24v-36.625h23.24c-4.289,0-7.767-3.477-7.767-7.767
			c0-4.29,3.477-7.767,7.767-7.767h-37.612v52.159c0,14.228,0,34.292,0,48.531c12.552-0.012,24.991-0.991,37.126-2.844
			C289.511,509.724,286.066,506.722,286.066,502.84z"/>
	</g>
</g>
<g>
</g>
<g>
</g>
<g>
</g>
<g>
</g>
<g>
</g>
<g>
</g>
<g>
</g>
<g>
</g>
<g>
</g>
<g>
</g>
<g>
</g>
<g>
</g>
<g>
</g>
<g>
</g>
<g>
</g>
</svg>
