<?xml version="1.0" encoding="iso-8859-1"?>
<!-- Generator: Adobe Illustrator 21.0.0, SVG Export Plug-In . SVG Version: 6.00 Build 0)  -->
<svg version="1.1" id="Capa_1" xmlns="http://www.w3.org/2000/svg" xmlns:xlink="http://www.w3.org/1999/xlink" x="0px" y="0px"
	 viewBox="0 0 512 512" style="enable-background:new 0 0 512 512;" xml:space="preserve">
<g>
	<path style="fill:#E06E53;" d="M51.447,377.999l128.359,112.512c27.091,10.321,56.478,15.989,87.193,15.989
		c62.005,0,118.621-23.045,161.777-61.023v0l72.613-112.48l0,0C508.281,310.376,512,286.373,512,261.5
		c0-135.31-109.69-245-245.001-245S21.999,126.19,21.999,261.5c0,42.173,10.659,81.856,29.425,116.506L51.447,377.999z"/>
	<path style="fill:#91D1F9;" d="M382.69,428.641L270.751,10.878c-1.037-3.87-5.015-6.167-8.884-5.13L113.104,45.609v406.502
		c19.903,16.091,42.372,29.131,66.705,38.402l197.751-52.987C381.43,436.489,383.727,432.511,382.69,428.641z"/>
	<path style="fill:#4AC4F4;" d="M113.104,45.609L5.378,74.475c-3.87,1.037-6.167,5.014-5.129,8.884l94.375,352.215
		c5.874,5.818,12.045,11.335,18.48,16.537V45.609z"/>
	<path style="fill:#D0E8FE;" d="M324.237,32.496H135.802c-11.422,0-22.376,4.537-30.453,12.614L64.061,86.397
		c-8.077,8.077-12.614,19.031-12.614,30.453v261.148c23.502,43.401,59.722,78.902,103.669,101.505h169.121
		c4.006,0,7.254-3.248,7.254-7.254V39.75C331.492,35.744,328.244,32.496,324.237,32.496z"/>
	<g>
		<path style="fill:#A9D8FC;" d="M109.087,41.798c-1.3,1.029-2.553,2.128-3.738,3.312L64.061,86.397
			c-8.076,8.077-12.614,19.031-12.614,30.453v261.148c14.665,27.082,34.283,51.086,57.639,70.802V41.798z"/>
	</g>
	<path style="fill:#A9D8FC;" d="M117.963,36.376L117.963,36.376c-0.794,0.453-6.744,2.866-12.614,8.734
		c-6.41,6.41-31.657,31.657-41.288,41.287c-0.001,0.001-0.003,0.003-0.004,0.004c-3.587,3.589-6.593,7.916-8.729,12.608
		l-0.001,0.002l0,0c-2.526,5.55-3.88,11.623-3.88,17.839c0,0,4.329-17.839,35.198-17.839h24.064c4.006,0,7.254-3.248,7.254-7.254
		V67.694c0-30.824,17.839-35.198,17.839-35.198C129.586,32.496,123.513,33.849,117.963,36.376z"/>
	<g>
		<path style="fill:#91D1F9;" d="M188.651,257.394h-26.924c-4.963,0-8.985-4.023-8.985-8.985c0-4.962,4.022-8.985,8.985-8.985
			h26.924c4.963,0,8.985,4.023,8.985,8.985C197.636,253.371,193.614,257.394,188.651,257.394z"/>
	</g>
	<g>
		<path style="fill:#5766CE;" d="M175.503,293.341h-13.776c-4.963,0-8.985-4.023-8.985-8.985c0-4.962,4.022-8.985,8.985-8.985
			h13.776c4.963,0,8.985,4.023,8.985,8.985C184.488,289.319,180.465,293.341,175.503,293.341z"/>
	</g>
	<g>
		<path style="fill:#91D1F9;" d="M127.491,257.394h-6.419c-4.963,0-8.985-4.023-8.985-8.985c0-4.962,4.022-8.985,8.985-8.985h6.419
			c4.963,0,8.985,4.023,8.985,8.985C136.476,253.371,132.454,257.394,127.491,257.394z"/>
	</g>
	<g>
		<path style="fill:#91D1F9;" d="M261.868,168.723H161.727c-4.963,0-8.985-4.023-8.985-8.985s4.022-8.985,8.985-8.985h100.141
			c4.963,0,8.985,4.023,8.985,8.985S266.831,168.723,261.868,168.723z"/>
	</g>
	<g>
		<path style="fill:#5766CE;" d="M240.124,204.671h-78.397c-4.963,0-8.985-4.023-8.985-8.985s4.022-8.985,8.985-8.985h78.397
			c4.963,0,8.985,4.023,8.985,8.985S245.087,204.671,240.124,204.671z"/>
	</g>
	<g>
		<path style="fill:#91D1F9;" d="M127.491,168.723h-6.419c-4.963,0-8.985-4.023-8.985-8.985s4.022-8.985,8.985-8.985h6.419
			c4.963,0,8.985,4.023,8.985,8.985S132.454,168.723,127.491,168.723z"/>
	</g>
	<g>
		<path style="fill:#91D1F9;" d="M261.868,346.065H161.727c-4.963,0-8.985-4.023-8.985-8.985c0-4.962,4.022-8.985,8.985-8.985
			h100.141c4.963,0,8.985,4.023,8.985,8.985C270.853,342.042,266.831,346.065,261.868,346.065z"/>
	</g>
	<g>
		<path style="fill:#91D1F9;" d="M127.491,346.065h-6.419c-4.963,0-8.985-4.023-8.985-8.985c0-4.962,4.022-8.985,8.985-8.985h6.419
			c4.963,0,8.985,4.023,8.985,8.985C136.476,342.042,132.454,346.065,127.491,346.065z"/>
	</g>
	<g>
		<path style="fill:#EAB39B;" d="M237.877,234.134c0,0-16.112-32.948,8.125-55.69c11.504-10.794,19.999-18.848,25.756-24.337
			l-6.59-1.816c0,0-10.908,10.6-35.145,33.342c-24.237,22.742-8.124,55.69-8.124,55.69c8.101,21.512,15.929,36.426,26.386,34.683
			c5.95-0.992,8.498-5.154,9.585-8.273C250.436,263.853,244.241,251.031,237.877,234.134z"/>
	</g>
	<path style="fill:#FFCDBE;" d="M308.911,164.343l-43.743-12.051c0,0-10.908,10.6-35.145,33.342
		c-24.237,22.742-8.124,55.69-8.124,55.69c8.101,21.512,15.929,36.426,26.386,34.683c9.799-1.634,10.38-11.872,10.38-11.872
		c0.283-5.632-0.332-12.431-1.406-19.45l18.528-34.696c0,0,26.369,16.504,44.974,19.535c18.605,3.031,18.026-12.975,18.026-12.975
		C348.192,179.948,308.911,164.343,308.911,164.343z"/>
	<g>
		<path style="fill:#FCB19F;" d="M332.365,210.127c-18.605-3.031-44.973-19.535-44.973-19.535l-10.666,19.973
			c4.851,2.941,27.505,16.266,44.033,18.959c18.605,3.031,18.026-12.975,18.026-12.975c0.559-2.175,0.941-4.273,1.175-6.301
			C337.872,210.604,335.372,210.617,332.365,210.127z"/>
	</g>
	<path style="fill:#FFDECF;" d="M405.716,235.52c-1.298-1.804-2.23-3.842-2.769-5.998c-6.509-26.034-15.493-56.585-28.984-80.844
		c-2.676-4.813-6.458-8.912-11.005-12.018c-8.842-6.041-24.823-16.168-33.418-16.791c-24.361-1.767-55.531-14.331-71.83-2.599
		c-23.757,17.101-69.047,71.1-59.566,84.272c1.754,2.437,4.526,3.89,8.785,3.097l10.48-4.141
		c15.773-8.322,36.999-30.292,44.997-38.902c2.092-2.252,5.233-3.198,8.217-2.46c7.536,1.863,18.635,5.58,26.245,7.369
		c19.519,4.587,34.491,18.684,37.105,38.726c0.601,4.607,1.194,8.711,0.714,11.615c0,0-1.008,11.463-9.764,10.037l-29.25-8.992
		c-2.76-1.718-41.879-43.234-67.954-20.572c-0.827,0.719-1.982,1.346-1.923,1.303c-2.875,2.248-5.265,5.825-4.898,9.378
		c0.29,3.369,3.092,4.767,23.689,24.319c9.01,8.515,18.161,17.526,22.285,23.256c6.875,9.551,43.253,24.831,59.918,31.465
		c5.498,2.189,10.257,5.898,13.714,10.702l25.479,35.499c27.587-15.203,49.314-38.014,63.351-64.834L405.716,235.52z"/>
	<g>
		<path style="fill:#FFCDBE;" d="M405.716,235.52c-1.298-1.804-2.23-3.842-2.769-5.998c-1.795-7.179-3.787-14.706-6.001-22.345
			c0.348,2.808,0.548,5.662,0.548,8.565c0,38.09-30.878,68.969-68.969,68.969c-3.044,0-6.036-0.218-8.976-0.601
			c2.665,1.098,5.114,2.086,7.24,2.932c5.498,2.189,10.257,5.898,13.714,10.702l25.479,35.499
			c27.587-15.203,49.314-38.014,63.351-64.834L405.716,235.52z"/>
	</g>
	<path style="fill:#F9D6BF;" d="M206.93,204.639l10.479-4.141c14.426-7.611,33.895-26.95,44.997-38.902
		c0.001-0.001,0.003-0.002,0.004-0.003c3.576-3.839,8.334-2.452,8.244-2.449c3.493,0.864,8.255,2.276,11.756,3.316
		c0.017,0.005,0.034,0.01,0.051,0.015l0,0c5.078,1.508,10.261,3.055,14.408,4.03c19.71,4.631,34.157,18.714,36.994,38.006
		l0.017-0.014c0.549,4.275,1.324,9.225,0.808,12.35c-0.512,3.655-1.822,7.655-5.072,9.384l-0.001,0.001
		c0,0,23.36,0.142,23.704-22.795c0.636-3.849-0.607-9.534-1.119-15.463c-1.593-18.383-15.054-33.561-33.007-37.825l-51.384-12.204
		c-3.813-0.944-7.834,0.253-10.508,3.131c-41.208,44.363-59.506,50.384-59.572,50.432l-0.002,0.007
		c-0.007,0.024-0.012,0.047-0.019,0.071c-0.901,3.191-1.492,7.277,0.438,9.958c1.151,1.599,2.744,2.769,4.905,3.164
		C204.181,204.913,205.466,204.911,206.93,204.639z"/>
	<path style="fill:#EB5793;" d="M369.975,55.723l-4.52-3.765c-7.61-6.339-19.022-5.298-25.361,2.312l-5.334,6.403l32.192,26.814
		l5.333-6.403C378.625,73.474,377.585,62.061,369.975,55.723z"/>
	<path style="fill:#E7387F;" d="M356.892,67.356c4.206-5.05,10.187-7.78,16.306-8.091c-0.897-1.29-1.961-2.491-3.223-3.542
		l-4.52-3.765c-7.61-6.339-19.022-5.299-25.361,2.312l-5.334,6.403l16.352,13.62L356.892,67.356z"/>
	<path style="fill:#FFF2BD;" d="M195.609,277.234c-1.822-3.091-4.188-5.947-7.121-8.39s-6.169-4.254-9.539-5.487l9.701-27.44
		l9.233-11.085l32.192,26.814l-9.233,11.085L195.609,277.234z"/>
	<path style="fill:#F9DF5F;" d="M208.13,245.263c-7.484,0.682-14.894,11.982-20.391,22.984c-2.732-2.14-5.703-3.761-8.789-4.89
		l9.702-27.44l9.233-11.085l16.079,13.393C214.275,241.94,212.893,244.829,208.13,245.263z"/>
	<g>
		<path style="fill:#EF7D5E;" d="M188.891,268.361c2.992,2.492,5.398,5.413,7.234,8.576l-19.9,11.437
			c-2.634,1.514-5.742-1.075-4.729-3.939l7.651-21.64C182.591,264.03,185.899,265.868,188.891,268.361z"/>
	</g>
	<path style="fill:#E06E53;" d="M176.226,288.374c-2.634,1.514-5.742-1.075-4.729-3.939l7.651-21.639
		c3.116,1.117,6.118,2.734,8.879,4.878c-3.679,7.279-6.534,14.508-8.035,18.536L176.226,288.374z"/>
	<path style="fill:#F6D100;" d="M219.473,248.009c-2.611-2.175-5.961-2.86-9.03-2.163c-0.815,0.185-1.67-0.047-2.314-0.583h0
		L336.581,91.22l16.096,13.407L220.844,262.73C224.531,258.301,223.918,251.711,219.473,248.009z"/>
	<g>
		<path style="fill:#F2BA00;" d="M281.646,189.812c-1.339,0.481-2.775,0.757-4.279,0.757c-6.143,0-11.448-4.431-12.472-10.51
			c-0.117-0.692-0.492-1.27-1.012-1.658l-55.753,66.861h0c0.644,0.536,1.499,0.768,2.314,0.583c3.069-0.697,6.419-0.012,9.03,2.163
			c4.444,3.702,5.058,10.292,1.371,14.72L281.646,189.812z"/>
	</g>
	<path style="fill:#F2BA00;" d="M208.13,245.263c-0.643-0.536-1.027-1.335-0.992-2.17c0.131-3.145-1.149-6.316-3.76-8.49
		c-4.445-3.702-11.038-3.113-14.727,1.315L320.485,77.813l16.096,13.407L208.13,245.263L208.13,245.263z"/>
	<g>
		<path style="fill:#EEA200;" d="M262.211,177.889c-7.5,0.361-13.9-6.02-13.158-13.887c0.02-0.212,0.057-0.419,0.088-0.628
			l-60.49,72.544c3.689-4.428,10.282-5.017,14.727-1.315c2.611,2.175,3.891,5.346,3.76,8.49c-0.035,0.835,0.348,1.634,0.992,2.17
			l55.753-66.861C263.418,178.055,262.838,177.859,262.211,177.889z"/>
	</g>
	<path style="fill:#91D1F9;" d="M349.551,105.651l-29.318-24.42c-3.004-2.502-3.414-7.006-0.912-10.009
		c2.502-3.003,7.006-3.414,10.009-0.912l29.318,24.42c3.003,2.502,3.414,7.006,0.912,10.009
		C357.059,107.742,352.555,108.153,349.551,105.651z"/>
	<path style="fill:#4AC4F4;" d="M333.788,83.272c2.124-2.55,5.624-3.317,8.552-2.126l-13.01-10.836
		c-3.003-2.502-7.507-2.091-10.009,0.912c-2.502,3.003-2.091,7.507,0.912,10.009l13.01,10.836
		C331.543,89.403,331.664,85.822,333.788,83.272z"/>
	<path style="fill:#A9D8FC;" d="M357.432,96.19l-29.318-24.42c-3.004-2.502-3.414-7.006-0.912-10.009
		c2.502-3.003,7.006-3.414,10.009-0.912l29.318,24.42c3.004,2.502,3.414,7.006,0.912,10.009
		C364.939,98.281,360.435,98.691,357.432,96.19z"/>
	<path style="fill:#91D1F9;" d="M343.181,75.07c2.113-2.536,5.579-3.313,8.502-2.168l-14.472-12.055
		c-3.003-2.501-7.508-2.091-10.009,0.912c-2.502,3.003-2.091,7.508,0.912,10.009l14.473,12.055
		C340.931,81.156,341.069,77.607,343.181,75.07z"/>
	<g>
		<path style="fill:#FFDECF;" d="M316.549,224.31l-20.876-6.418c-2.76-1.718-41.879-43.234-67.954-20.572
			c-0.827,0.719-1.982,1.346-1.923,1.303c-2.875,2.248-5.265,5.826-4.898,9.378c0.29,3.369,3.092,4.767,23.689,24.319
			c9.01,8.515,18.161,17.526,22.286,23.256c4.056,5.635,18.382,13.263,32.869,19.934L316.549,224.31z"/>
	</g>
	<path style="fill:#FCEAE3;" d="M245.988,202.23c-6.607-6.084-16.99-5.657-23.075,0.95l-1.702,1.848
		c-0.494,1.696-0.359,2.873,0.103,4.565c1.562,3.336,11.772,11.337,30.727,29.883l4.72-5.125c6.084-6.607,5.657-16.991-0.95-23.075
		L245.988,202.23z"/>
	<path style="fill:#3D4EC6;" d="M440.307,251.701l-100.43,75.459l88.899,118.316c33.708-29.663,59.196-68.438,72.613-112.48
		L440.307,251.701z"/>
	<path style="fill:#3342AE;" d="M419.227,344.905c-13.975-18.599-10.226-45.005,8.373-58.979l24.558-18.452l-11.851-15.773
		l-100.43,75.459l88.899,118.316c13.465-11.85,25.614-25.157,36.21-39.669L419.227,344.905z"/>
	<path style="fill:#5766CE;" d="M436.648,248.457l-98.869,74.286c-3.119,2.344-3.748,6.772-1.405,9.892l15.11,20.11
		c2.344,3.119,6.772,3.748,9.892,1.404l98.869-74.286c3.119-2.344,3.748-6.772,1.404-9.892l-15.11-20.11
		C444.196,246.742,439.768,246.113,436.648,248.457z"/>
	<path style="fill:#3D4EC6;" d="M386.039,311.051L386.039,311.051c-5.567-7.409-5.355-17.357-0.142-24.461l-48.117,36.153
		c-3.119,2.344-3.748,6.772-1.405,9.892l15.11,20.11c2.344,3.119,6.773,3.748,9.892,1.404l48.117-36.154
		C401.219,321.025,391.605,318.46,386.039,311.051z"/>
	
		<ellipse transform="matrix(0.7995 -0.6007 0.6007 0.7995 -77.9754 315.9859)" style="fill:#8C96DD;" cx="434.304" cy="274.786" rx="10.338" ry="10.339"/>
	<g>
		<path style="fill:#91D1F9;" d="M85.162,73.82c0-3.948,0.898-7.687,2.5-11.023c-8.819,8.819-18.446,18.446-23.6,23.6
			c-0.001,0.001-0.003,0.003-0.004,0.004c-3.587,3.589-6.593,7.916-8.729,12.607l-0.001,0.002c-2.526,5.55-3.88,11.623-3.88,17.839
			c0,0,4.329-17.839,35.198-17.839h20.05C94.496,97.106,85.162,86.554,85.162,73.82z"/>
	</g>
</g>
<g>
</g>
<g>
</g>
<g>
</g>
<g>
</g>
<g>
</g>
<g>
</g>
<g>
</g>
<g>
</g>
<g>
</g>
<g>
</g>
<g>
</g>
<g>
</g>
<g>
</g>
<g>
</g>
<g>
</g>
</svg>
