<?xml version="1.0" encoding="iso-8859-1"?>
<!-- Generator: Adobe Illustrator 21.0.0, SVG Export Plug-In . SVG Version: 6.00 Build 0)  -->
<svg version="1.1" id="Capa_1" xmlns="http://www.w3.org/2000/svg" xmlns:xlink="http://www.w3.org/1999/xlink" x="0px" y="0px"
	 viewBox="0 0 512 512" style="enable-background:new 0 0 512 512;" xml:space="preserve">
<g>
	<path style="fill:#F6D100;" d="M456.939,407.182c27.762-39.72,44.061-88.045,44.061-140.183
		c0-135.31-109.691-245.001-245.001-245.001S10.999,131.689,10.999,266.999c0,43.811,11.512,84.928,31.656,120.514
		C58.122,389.468,373.526,428.945,456.939,407.182z"/>
	<path style="fill:#4AC4F4;" d="M420.788,165.861h27.316c12.285,0,22.336-10.051,22.336-22.336
		c0-12.285-10.051-22.336-22.336-22.336h-27.316V165.861z"/>
	<path style="fill:#E7387F;" d="M420.788,448.302c13.887-12.63,26.305-26.843,36.996-42.338c-2.933-1.422-6.218-2.221-9.68-2.221
		h-27.316V448.302z"/>
	<path style="fill:#09A858;" d="M448.104,191.827h-27.316v44.673h27.316c12.285,0,22.336-10.051,22.336-22.336
		S460.389,191.827,448.104,191.827z"/>
	<path style="fill:#9ED369;" d="M448.104,262.465h-27.316v44.673h27.316c12.285,0,22.336-10.051,22.336-22.336
		S460.389,262.465,448.104,262.465z"/>
	<path style="fill:#5766CE;" d="M448.104,333.104h-27.316v44.673h27.316c12.285,0,22.336-10.051,22.336-22.336
		S460.389,333.104,448.104,333.104z"/>
	<path style="fill:#31A7ED;" d="M437.526,145.666c-1.056-11.181,6.268-20.938,16.399-23.698c-1.858-0.505-3.809-0.779-5.821-0.779
		h-27.316v44.672h27.316c2.091,0,4.115-0.297,6.039-0.841C445.319,162.59,438.418,155.107,437.526,145.666z"/>
	<path style="fill:#008E4A;" d="M437.526,212.022c0.892-9.441,7.793-16.924,16.617-19.354c-1.923-0.544-3.947-0.842-6.039-0.842
		h-27.316v44.673h27.316c2.012,0,3.963-0.274,5.821-0.779C443.794,232.96,436.47,223.203,437.526,212.022z"/>
	<path style="fill:#82CD64;" d="M437.526,282.66c0.892-9.441,7.793-16.924,16.617-19.354c-1.923-0.544-3.947-0.841-6.039-0.841
		h-27.316v44.673h27.316c2.012,0,3.963-0.274,5.821-0.779C443.794,303.598,436.47,293.841,437.526,282.66z"/>
	<path style="fill:#3D4EC6;" d="M437.526,353.299c0.892-9.441,7.793-16.924,16.617-19.354c-1.923-0.544-3.947-0.841-6.039-0.841
		h-27.316v44.673h27.316c2.012,0,3.963-0.275,5.821-0.779C443.794,374.237,436.47,364.48,437.526,353.299z"/>
	<path style="fill:#E06E53;" d="M414.972,89.538H80.744c-21.552,0-39.185-17.633-39.185-39.185v0
		c0-21.552,17.633-39.185,39.185-39.185h334.227c5.656,0,10.284,4.628,10.284,10.284v57.802
		C425.256,84.91,420.628,89.538,414.972,89.538z"/>
	<g>
		<path style="fill:#D3644F;" d="M166.219,31.766c-5.566-0.544-9.917-5.236-9.917-10.945c0-4.163,2.314-7.785,5.725-9.653H80.744
			c-21.552,0-39.185,17.633-39.185,39.185c0,21.551,17.633,39.185,39.185,39.185h85.475V31.766z"/>
	</g>
	<g>
		<path style="fill:#91D1F9;" d="M397.549,88.614V31.579c-12.614,5.751-21.13,16.401-21.13,28.523
			C376.418,72.223,384.938,82.864,397.549,88.614z"/>
	</g>
	<path style="fill:#D0E8FE;" d="M396.839,32.961c1.241-0.566,0.824-2.429-0.541-2.429H80.744c-19.521,0-35.827,11.238-38.726,25.796
		c2.899,18.742,19.205,33.21,38.726,33.21h322.309c-15.333-4.484-26.32-16.007-26.32-29.436
		C376.733,48.567,384.836,38.433,396.839,32.961z"/>
	<path style="fill:#A9D8FC;" d="M166.873,89.493c-37.76-1.798-36.514-58.523,1.287-58.958c0.191-0.002,0.383-0.003,0.574-0.003
		H80.744c-19.521,0-35.827,11.238-38.726,25.796c2.899,18.742,19.204,33.21,38.726,33.21h88
		C168.117,89.537,167.493,89.522,166.873,89.493z"/>
	<path style="fill:#EF7D5E;" d="M414.972,87.304H80.744c-20.802,0-37.948-16.429-39.116-36.951H41.56v335.2
		C83.332,460.95,163.699,512,256,512c65.651,0,125.269-25.825,169.256-67.867V77.02C425.256,82.676,420.628,87.304,414.972,87.304z"
		/>
	<path style="fill:#E06E53;" d="M256,512c65.651,0,125.269-25.825,169.256-67.867v-40.39H81.244
		c-20.802,0-37.948-16.429-39.116-36.951H42.06v19.646C83.97,461.347,164.062,512,256,512z"/>
	<path style="fill:#F98F6E;" d="M83.91,441.365c9.348,9.227,19.426,17.717,30.154,25.355V87.304H83.91V441.365z"/>
	<path style="fill:#EF7D5E;" d="M88.891,413.147c-3.399-3.173-4.981-7.054-4.981-11.149v39.367
		c9.348,9.227,19.426,17.716,30.154,25.355v-64.451C114.063,415.356,98.457,422.079,88.891,413.147z"/>
	<g>
		<path style="fill:#F2BA00;" d="M343.123,100.706c-6.168,0-11.168-5-11.168-11.168v-78.37C331.955,5,336.956,0,343.123,0
			c6.168,0,11.168,5,11.168,11.168v78.37C354.292,95.706,349.291,100.706,343.123,100.706z"/>
	</g>
	<path style="fill:#F6D100;" d="M343.123,78.37c-6.167,0-11.168,5-11.168,11.168v410.441c7.617-2.482,15.068-5.325,22.336-8.513
		V89.538C354.292,83.37,349.291,78.37,343.123,78.37z"/>
	<path style="fill:#F2BA00;" d="M347.206,413.441c-7.296,2.928-15.25-2.372-15.25-10.234v96.772
		c7.617-2.481,15.068-5.325,22.336-8.512v-88.35C354.292,407.428,351.819,411.59,347.206,413.441z"/>
</g>
<g>
</g>
<g>
</g>
<g>
</g>
<g>
</g>
<g>
</g>
<g>
</g>
<g>
</g>
<g>
</g>
<g>
</g>
<g>
</g>
<g>
</g>
<g>
</g>
<g>
</g>
<g>
</g>
<g>
</g>
</svg>
