<?xml version="1.0" encoding="iso-8859-1"?>
<!-- Generator: Adobe Illustrator 21.0.0, SVG Export Plug-In . SVG Version: 6.00 Build 0)  -->
<svg version="1.1" id="Capa_1" xmlns="http://www.w3.org/2000/svg" xmlns:xlink="http://www.w3.org/1999/xlink" x="0px" y="0px"
	 viewBox="0 0 512.038 512.038" style="enable-background:new 0 0 512.038 512.038;" xml:space="preserve">
<g>
	<path style="fill:#F6D100;" d="M491.889,333.503c5.944-21.137,9.13-43.429,9.13-66.466c0-135.31-109.69-245-245.001-245
		c-135.31,0-245.001,109.69-245.001,245s109.69,245.001,245.001,245.001c68.199,0,129.88-27.875,174.298-72.841L491.889,333.503z"/>
	<g>
		<path style="fill:#A9D8FC;" d="M82.326,0.112l-0.841,0c0,0-28.693-3.332-42.041,26.359c-7.52,16.728-4.475,29.134-4.94,67.056
			c-0.054,4.446,3.532,8.086,7.978,8.087l74.163,0.014l0.011-57.437C116.66,22.483,104.729,0.117,82.326,0.112z"/>
	</g>
	<path style="fill:#4AC4F4;" d="M82.326,0.112l-0.841,0c0,0-11.508-1.325-23.339,5.236c11.373,7.884,17.322,23.521,17.32,38.842
		l-0.011,57.43l41.191,0.008l0.011-57.437C116.66,22.483,104.729,0.117,82.326,0.112z"/>
	<g>
		<path style="fill:#91D1F9;" d="M272.545,71.277L56.714,71.235c21.675,0.004,33.217,22.37,33.213,44.078L89.87,411.606
			c-0.001,3.55,2.783,6.428,6.217,6.429l203.394,0.039c3.435,0.001,6.219-2.877,6.22-6.426l0.057-296.292
			C305.762,93.881,294.401,71.281,272.545,71.277z"/>
	</g>
	<g>
		<path style="fill:#91D1F9;" d="M57.527,71.235l-0.814,0c0,0-27.76-3.332-40.674,26.359c-7.276,16.728-4.337,66.338-4.787,104.26
			c-0.053,4.445,3.417,8.086,7.718,8.087l71.751,0.014l0.018-94.641C90.745,93.606,79.202,71.24,57.527,71.235z"/>
	</g>
	<path style="fill:#4AC4F4;" d="M57.527,71.236l-0.814,0c0,0-9.129-1.084-19.35,3.579c12.693,7.164,19.353,24.016,19.35,40.5
		l-0.018,94.635l34.027,0.007l0.018-94.642C90.745,93.606,79.202,71.24,57.527,71.236z"/>
	<g>
		<path style="fill:#FFCDBE;" d="M406.896,305.67l-81.102-108.818l-66.402,49.49c0,0,25.937,49.881,66.289,64.412
			c9.161,3.299,17.253,9.023,23.072,16.83l10.263,13.77L406.896,305.67z"/>
	</g>
	<path style="fill:#FFDECF;" d="M408.475,256.955c0,0,6.639-56.808-37.95-93.441c0,0-24.284-42.161-52.431-51.407l-0.006,31.763
		l27.491,38.236l-12.329,9.189l81.102,108.818l16.902-12.597L408.475,256.955z"/>
	<g>
		<path style="fill:#D0E8FE;" d="M301.472,0.043L78.386,0c22.403,0.004,34.334,22.37,34.33,44.079l-0.067,345.791
			c-0.001,3.55,2.877,6.428,6.426,6.429l210.231,0.04c3.55,0.001,6.428-2.877,6.429-6.426l0.067-345.791
			C335.806,22.648,324.063,0.047,301.472,0.043z"/>
	</g>
	<path style="fill:#A9D8FC;" d="M150.38,389.913l0.067-345.791c0.004-21.474-11.739-44.074-34.33-44.079l-36.59-0.007
		c21.662,0.755,33.193,22.708,33.189,44.043l-0.066,345.791c-0.001,3.55,2.877,6.428,6.426,6.429l25.549,0.005
		C147.858,395.967,150.379,393.235,150.38,389.913z"/>
	<path style="fill:#FFDECF;" d="M403.465,240.441c-6.111-9.826-13.746-18.616-22.618-26.041c-6.835-5.72-13.1-12.09-18.426-19.236
		l-28.091-37.691l-14.553-19.526c-0.225-0.302-0.466-0.584-0.714-0.852c-0.091-0.098-0.187-0.187-0.28-0.28
		c-0.16-0.161-0.322-0.318-0.491-0.465c-0.126-0.11-0.254-0.215-0.384-0.318c-0.138-0.109-0.278-0.214-0.42-0.314
		c-0.158-0.113-0.317-0.224-0.481-0.328c-0.098-0.061-0.198-0.116-0.297-0.174c-4.118-2.407-9.607-1.76-12.966,2.123
		c-7.186,8.307-13.682,22.586,0.206,41.221l14.007,18.794c4.917,6.597,7.25,14.817,6.285,22.988
		c-1.292,10.936-0.636,28.869,11.066,49.288c1.036,1.808,1.153,3.922,0.451,5.752l-0.005,27.041l26.962,36.175l14.824-11.048
		l16.161-12.045l45.613-31.971L403.465,240.441z"/>
	<g>
		<path style="fill:#FFCDBE;" d="M408.575,246.584c1.307,38.813-35.914,67.089-72.754,55.931l26.893,36.083
			c65.639-48.921,24.595-17.729,76.597-55.064L408.575,246.584z"/>
	</g>
	<path style="fill:#FCEAE3;" d="M334.33,157.473l-14.553-19.526c-0.225-0.302-0.466-0.584-0.714-0.852
		c-0.091-0.098-0.187-0.187-0.28-0.28c-0.16-0.161-0.322-0.318-0.491-0.465c-0.126-0.11-0.254-0.215-0.384-0.318
		c-0.138-0.109-0.278-0.214-0.42-0.314c-0.158-0.113-0.317-0.224-0.481-0.328c-0.098-0.061-0.198-0.116-0.297-0.174
		c-1.353-0.791-2.854-1.245-4.379-1.37l-1.822,1.358c-5.226,3.895-6.315,11.357-2.42,16.583l5.791,7.77
		c3.895,5.226,11.358,6.315,16.583,2.42l4.645-3.462L334.33,157.473z"/>
	<path style="fill:#EB5793;" d="M293.207,97.441l-29.199-59.552c-2.992-6.121-11.766-6.063-14.731-0.003l-29.222,59.541
		c-1.996,4.067-0.317,8.983,3.751,10.979c4.06,1.994,8.98,0.323,10.979-3.75l6.397-13.034l30.902,0.006l6.392,13.036
		c1.998,4.077,6.919,5.745,10.977,3.754C293.52,106.424,295.201,101.509,293.207,97.441z M249.233,75.216l7.405-15.088l7.399,15.091
		L249.233,75.216z"/>
	<g>
		<path style="fill:#91D1F9;" d="M278.639,157.195l-85.321-0.016c-4.531-0.001-8.203-3.675-8.202-8.205
			c0.001-4.531,3.674-8.203,8.206-8.202l85.321,0.016c4.532,0.001,8.203,3.675,8.202,8.206
			C286.843,153.524,283.17,157.196,278.639,157.195z"/>
	</g>
	<g>
		<path style="fill:#5766CE;" d="M278.633,187.823l-85.321-0.017c-4.532-0.001-8.203-3.675-8.202-8.205
			c0.001-4.531,3.674-8.203,8.206-8.202l85.321,0.016c4.532,0.001,8.203,3.675,8.203,8.206
			C286.837,184.152,283.164,187.824,278.633,187.823z"/>
	</g>
	<g>
		<path style="fill:#91D1F9;" d="M164.147,157.173l-5.469-0.001c-4.532-0.001-8.203-3.675-8.202-8.205
			c0.001-4.531,3.674-8.203,8.205-8.202l5.469,0.001c4.531,0.001,8.203,3.675,8.202,8.206S168.679,157.174,164.147,157.173z"/>
	</g>
	<g>
		<path style="fill:#91D1F9;" d="M278.624,232.743l-85.321-0.016c-4.531-0.001-8.203-3.675-8.202-8.206
			c0.001-4.531,3.674-8.203,8.206-8.202l85.321,0.016c4.531,0.001,8.203,3.675,8.202,8.205
			C286.829,229.072,283.156,232.744,278.624,232.743z"/>
	</g>
	<g>
		<path style="fill:#5766CE;" d="M278.618,263.371l-85.321-0.017c-4.531-0.001-8.203-3.675-8.202-8.205
			c0.001-4.531,3.674-8.203,8.206-8.202l85.321,0.016c4.531,0.001,8.203,3.675,8.202,8.206
			C286.823,259.7,283.15,263.372,278.618,263.371z"/>
	</g>
	<g>
		<path style="fill:#91D1F9;" d="M164.133,232.721l-5.469-0.001c-4.531-0.001-8.203-3.675-8.202-8.206
			c0.001-4.531,3.674-8.203,8.206-8.202l5.469,0.001c4.531,0.001,8.203,3.675,8.202,8.206
			C172.338,229.05,168.664,232.722,164.133,232.721z"/>
	</g>
	<g>
		<path style="fill:#91D1F9;" d="M278.61,308.292l-85.321-0.016c-4.531-0.001-8.203-3.675-8.202-8.206
			c0.001-4.531,3.674-8.203,8.205-8.202l85.321,0.016c4.531,0.001,8.203,3.675,8.202,8.206
			C286.814,304.62,283.141,308.293,278.61,308.292z"/>
	</g>
	<g>
		<path style="fill:#5766CE;" d="M278.604,338.92l-85.321-0.016c-4.531-0.001-8.203-3.675-8.202-8.206
			c0.001-4.531,3.674-8.203,8.206-8.202l85.321,0.016c4.531,0.001,8.203,3.675,8.202,8.206
			C286.808,335.248,283.135,338.921,278.604,338.92z"/>
	</g>
	<g>
		<path style="fill:#91D1F9;" d="M164.118,308.27l-5.469-0.001c-4.532-0.001-8.203-3.675-8.202-8.206
			c0.001-4.531,3.674-8.203,8.205-8.202l5.469,0.001c4.532,0.001,8.203,3.675,8.202,8.206
			C172.323,304.598,168.65,308.271,164.118,308.27z"/>
	</g>
	<path style="fill:#3D4EC6;" d="M430.317,439.197c28.706-29.06,50.2-65.255,61.573-105.694l-54.502-66.243l-88.575,72.875
		L430.317,439.197z"/>
	<path style="fill:#3342AE;" d="M459.094,401.858l-39.622-48.158c-10.531-12.8-8.692-31.713,4.108-42.245l29.918-24.615
		l-16.109-19.58l-88.575,72.875l81.504,99.062c10.991-11.127,20.92-23.303,29.634-36.359
		C459.662,402.516,459.372,402.195,459.094,401.858z"/>
	<path style="fill:#5766CE;" d="M433.919,264.448l-87.198,71.742c-2.751,2.263-3.147,6.329-0.883,9.08l14.593,17.736
		c2.263,2.751,6.329,3.146,9.08,0.883l87.198-71.743c2.751-2.264,3.146-6.328,0.883-9.08l-14.593-17.736
		C440.736,262.58,436.671,262.184,433.919,264.448z"/>
	<path style="fill:#3D4EC6;" d="M392.212,321.987L392.212,321.987c-5.35-6.503-5.599-15.525-1.222-22.219l-44.268,36.422
		c-2.751,2.263-3.147,6.329-0.883,9.08l14.593,17.736c2.263,2.751,6.329,3.146,9.08,0.883l44.268-36.422
		C406.367,330.473,397.562,328.49,392.212,321.987z"/>
	
		<ellipse transform="matrix(0.7722 -0.6353 0.6353 0.7722 -84.7461 340.7315)" style="fill:#8C96DD;" cx="432.841" cy="288.56" rx="9.44" ry="9.44"/>
</g>
<g>
</g>
<g>
</g>
<g>
</g>
<g>
</g>
<g>
</g>
<g>
</g>
<g>
</g>
<g>
</g>
<g>
</g>
<g>
</g>
<g>
</g>
<g>
</g>
<g>
</g>
<g>
</g>
<g>
</g>
</svg>
