<?xml version="1.0" encoding="iso-8859-1"?>
<!-- Generator: Adobe Illustrator 21.0.0, SVG Export Plug-In . SVG Version: 6.00 Build 0)  -->
<svg version="1.1" id="Capa_1" xmlns="http://www.w3.org/2000/svg" xmlns:xlink="http://www.w3.org/1999/xlink" x="0px" y="0px"
	 viewBox="0 0 512 512" style="enable-background:new 0 0 512 512;" xml:space="preserve">
<g>
	<circle style="fill:#3342AE;" cx="256" cy="266.999" r="245.001"/>
	<g>
		<path style="fill:#E06E53;" d="M268.471,35.433V12.472C268.471,5.583,262.888,0,256,0c-6.888,0-12.472,5.583-12.472,12.472v22.962
			H268.471z"/>
	</g>
	<path style="fill:#D3644F;" d="M256,23.267c-6.605,0-11.996-5.138-12.429-11.633c-0.019,0.278-0.042,0.555-0.042,0.838v22.962
		h24.943V12.472c0-0.283-0.024-0.56-0.042-0.838C267.996,18.129,262.605,23.267,256,23.267z"/>
	<path style="fill:#F98F6E;" d="M291.277,43.583c0-6.888-5.583-12.472-12.472-12.472h-45.611c-6.888,0-12.472,5.583-12.472,12.472
		c0,6.888,5.584,12.472,12.472,12.472h45.611C285.693,56.054,291.277,50.471,291.277,43.583z"/>
	<path style="fill:#EF7D5E;" d="M252.723,43.583c0-6.888,5.584-12.472,12.472-12.472h-32c-6.888,0-12.472,5.583-12.472,12.472
		c0,6.888,5.584,12.472,12.472,12.472h32C258.307,56.054,252.723,50.471,252.723,43.583z"/>
	<rect x="53.8" y="75.092" style="fill:#008E4A;" width="404.399" height="292.708"/>
	<path style="fill:#00783B;" d="M114.742,333.344V109.547c0-19.029,15.426-34.456,34.456-34.456H53.8V367.8h95.397
		C130.168,367.8,114.742,352.373,114.742,333.344z"/>
	<path style="fill:#E06E53;" d="M241.905,511.587C246.571,511.852,251.268,512,256,512c3.637,0,7.251-0.095,10.849-0.252v-104.14
		h-24.943V511.587z"/>
	<path style="fill:#D3644F;" d="M241.905,407.608v44.464c0-6.888,5.584-12.471,12.472-12.471c6.888,0,12.472,5.584,12.472,12.471
		v-44.464H241.905z"/>
	<path style="fill:#EF7D5E;" d="M333.734,407.608h-28.802l48.606,84.188c7.673-3.334,15.141-7.048,22.382-11.12L333.734,407.608z"/>
	<g>
		<path style="fill:#E06E53;" d="M349.086,434.198l-15.352-26.59h-28.802l23.272,40.308
			C326.56,436.221,339.255,428.169,349.086,434.198z"/>
	</g>
	<path style="fill:#EF7D5E;" d="M133.632,479.294c7.19,4.153,14.611,7.949,22.238,11.369l47.951-83.054H175.02L133.632,479.294z"/>
	<path style="fill:#EF7D5E;" d="M133.632,479.294c7.19,4.153,14.611,7.949,22.238,11.369l47.951-83.054H175.02L133.632,479.294z"/>
	<g>
		<path style="fill:#E06E53;" d="M180.953,445.979c0,0.458-0.025,0.911-0.069,1.357l22.937-39.728H175.02l-15.488,26.826
			C168.59,428.463,180.953,434.881,180.953,445.979z"/>
	</g>
	<g>
		<path style="fill:#F98F6E;" d="M343.242,473.808H164.476c-4.293,0-7.772-3.48-7.772-7.772c0-4.292,3.479-7.772,7.772-7.772
			h178.766c4.293,0,7.772,3.48,7.772,7.772C351.014,470.328,347.535,473.808,343.242,473.808z"/>
	</g>
	<path style="fill:#E06E53;" d="M212.704,466.035c0-4.293,3.479-7.772,7.772-7.772h-56c-4.293,0-7.772,3.48-7.772,7.772
		c0,4.293,3.479,7.773,7.772,7.773h56C216.183,473.808,212.704,470.328,212.704,466.035z"/>
	<path style="fill:#F98F6E;" d="M365.878,397.209c0-6.888-5.583-12.471-12.471-12.471H158.593c-6.888,0-12.472,5.583-12.472,12.471
		c0,6.888,5.584,12.472,12.472,12.472h194.813C360.295,409.681,365.878,404.097,365.878,397.209z"/>
	<path style="fill:#EF7D5E;" d="M230.548,397.209c0-6.888,5.583-12.471,12.471-12.471h-84.426c-6.888,0-12.472,5.583-12.472,12.471
		c0,6.888,5.584,12.472,12.472,12.472h84.426C236.131,409.681,230.548,404.097,230.548,397.209z"/>
	<g>
		<path style="fill:#15BC64;" d="M356.831,313.473H172.193c-4.293,0-7.772-3.48-7.772-7.772V121.062
			c0-6.899,8.373-10.389,13.269-5.496l184.638,184.639C367.207,305.085,363.747,313.473,356.831,313.473z M179.965,297.928h158.101
			L179.965,139.826V297.928z"/>
	</g>
	<g>
		<path style="fill:#15BC64;" d="M359.847,278.231l-57.908-57.907c-3.035-3.035-3.035-7.957,0-10.992
			c3.036-3.035,7.957-3.035,10.993,0l57.908,57.907c3.035,3.035,3.035,7.957,0,10.992
			C367.804,281.267,362.884,281.266,359.847,278.231z"/>
	</g>
	<g>
		<path style="fill:#15BC64;" d="M257.307,175.69l-57.646-57.645c-3.035-3.035-3.035-7.957,0-10.992
			c3.036-3.035,7.957-3.035,10.993,0l57.646,57.645c3.035,3.035,3.035,7.957,0,10.992
			C265.263,178.726,260.343,178.726,257.307,175.69z"/>
	</g>
	<g>
		<path style="fill:#D0E8FE;" d="M284.438,203.029c-5.769,0-10.363-4.671-10.363-10.363c0-6.614,6.081-11.427,12.384-10.156
			c4.93,1.001,8.332,5.282,8.332,10.156C294.791,198.394,290.16,203.029,284.438,203.029z"/>
	</g>
	<g>
		<path style="fill:#D0E8FE;" d="M295.289,342.373c-5.709,0-10.363-4.649-10.363-10.363c0-6.574,6.047-11.436,12.394-10.166
			c4.896,1.01,8.332,5.248,8.332,10.166C305.652,337.802,300.923,342.373,295.289,342.373z"/>
	</g>
	<g>
		<path style="fill:#D0E8FE;" d="M143.26,195.194c-5.678,0-10.363-4.6-10.363-10.363c0-6.62,6.113-11.421,12.395-10.156
			c4.903,1.011,8.332,5.243,8.332,10.156C153.623,190.442,149.073,195.194,143.26,195.194z"/>
	</g>
	<g>
		<path style="fill:#15BC64;" d="M264.512,313.473c-4.293,0-7.772-3.48-7.772-7.772v-92.319c0-4.292,3.479-7.772,7.772-7.772
			c4.293,0,7.772,3.48,7.772,7.772V305.7C272.284,309.993,268.805,313.473,264.512,313.473z"/>
	</g>
	<g>
		<path style="fill:#15BC64;" d="M264.512,221.154h-92.319c-4.293,0-7.772-3.48-7.772-7.773c0-4.292,3.479-7.772,7.772-7.772h92.319
			c4.293,0,7.772,3.48,7.772,7.772C272.284,217.674,268.805,221.154,264.512,221.154z"/>
	</g>
	<g>
		<path style="fill:#15BC64;" d="M172.193,313.473c-6.864,0-10.406-8.359-5.496-13.268l92.319-92.319
			c3.036-3.035,7.957-3.035,10.993,0c3.035,3.035,3.035,7.957,0,10.992l-92.319,92.319
			C176.171,312.714,174.181,313.473,172.193,313.473z"/>
	</g>
	<g>
		<path style="fill:#D0E8FE;" d="M463.285,79.937H48.715c-6.888,0-12.472-5.583-12.472-12.472s5.584-12.472,12.472-12.472h414.57
			c6.888,0,12.471,5.583,12.471,12.472S470.173,79.937,463.285,79.937z"/>
	</g>
	<g>
		<path style="fill:#D0E8FE;" d="M463.285,385.774H48.715c-6.888,0-12.472-5.583-12.472-12.472c0-6.888,5.584-12.471,12.472-12.471
			h414.57c6.888,0,12.471,5.583,12.471,12.471C475.756,380.19,470.173,385.774,463.285,385.774z"/>
	</g>
	<path style="fill:#A9D8FC;" d="M120.91,67.465c0-6.888,5.583-12.472,12.472-12.472H48.715c-6.888,0-12.472,5.583-12.472,12.472
		c0,6.888,5.584,12.472,12.472,12.472h84.667C126.494,79.937,120.91,74.353,120.91,67.465z"/>
	<path style="fill:#A9D8FC;" d="M120.91,373.302c0-6.888,5.583-12.471,12.472-12.471H48.715c-6.888,0-12.472,5.583-12.472,12.471
		c0,6.888,5.584,12.472,12.472,12.472h84.667C126.494,385.774,120.91,380.19,120.91,373.302z"/>
	<g>
		<path style="fill:#09A858;" d="M241.577,297.928h-61.612V139.826l8.171,8.171c-1.283-6.725,4.983-12.374,11.51-10.475
			l-21.957-21.957c-4.896-4.893-13.269-1.403-13.269,5.496V305.7c0,4.293,3.479,7.772,7.772,7.772h70.543
			C236.623,310.352,236.012,301.909,241.577,297.928z"/>
	</g>
	<g>
		<path style="fill:#09A858;" d="M228.625,258.541c-5.04,0-9.125-4.085-9.125-9.125c0-0.805,0.115-1.582,0.311-2.326l-53.114,53.114
			c-4.91,4.91-1.367,13.268,5.496,13.268c1.989,0,3.978-0.759,5.497-2.277l52.863-52.863
			C229.931,258.467,229.287,258.541,228.625,258.541z"/>
	</g>
	<g>
		<path style="fill:#09A858;" d="M205.125,213.377c0-3.289,1.745-6.162,4.354-7.768h-37.287c-4.293,0-7.772,3.48-7.772,7.772
			c0,4.292,3.479,7.772,7.772,7.772h37.302C206.877,219.55,205.125,216.671,205.125,213.377z"/>
	</g>
</g>
<g>
</g>
<g>
</g>
<g>
</g>
<g>
</g>
<g>
</g>
<g>
</g>
<g>
</g>
<g>
</g>
<g>
</g>
<g>
</g>
<g>
</g>
<g>
</g>
<g>
</g>
<g>
</g>
<g>
</g>
</svg>
