<?xml version="1.0" encoding="iso-8859-1"?>
<!-- Generator: Adobe Illustrator 21.0.0, SVG Export Plug-In . SVG Version: 6.00 Build 0)  -->
<svg version="1.1" id="Capa_1" xmlns="http://www.w3.org/2000/svg" xmlns:xlink="http://www.w3.org/1999/xlink" x="0px" y="0px"
	 viewBox="0 0 512 512" style="enable-background:new 0 0 512 512;" xml:space="preserve">
<g>
	<path style="fill:#3342AE;" d="M488.078,345.72c8.378-24.707,12.923-51.183,12.923-78.72c0-135.31-109.69-245.001-245-245.001
		S11,131.689,11,266.999c0,27.538,4.545,54.014,12.923,78.72H488.078z"/>
	<path style="fill:#EB5793;" d="M470.159,316.984c-2.91-2.136-3.961-5.992-2.479-9.284c6.158-13.683,16.823-48.775-18.41-77.254
		c-2.213-1.789-3.205-4.683-2.615-7.467c2.184-10.3,5.226-35.804-12.621-53.651c-10.339-10.339-21.003-15.059-29.584-17.131
		c-3.676-0.887-6.073-4.345-5.776-8.115c0.102-1.29,0.154-2.594,0.154-3.91c0-27.705-22.46-50.164-50.164-50.164
		c-0.018,0-0.037,0-0.055,0c-3.171,0.004-6.014-1.855-7.229-4.784c-4.528-10.912-14.156-23.937-34.547-26.794
		c-26.057-3.651-39.324,10.066-45.962,22.895c-4.291,8.294-6.352,17.562-6.352,26.9v403.757c0.495,0.003,0.987,0.019,1.482,0.019
		c108.142,0,199.912-70.069,232.407-167.28C485.396,330.288,476.182,321.405,470.159,316.984z"/>
	<path style="fill:#E7387F;" d="M470.159,316.984c-2.54-1.865-3.662-5.04-2.921-8.007c-5.285,10.215-19.082,29.485-50.782,38.591
		c-5.003,1.437-9.494,3.106-13.551,4.934c-4.731-1.463-10.513-4.038-15.19-8.584c-17.642-17.147-40.328-8.896-41.284-8.536
		c-4.734,1.779-7.129,7.058-5.35,11.791c1.778,4.735,7.059,7.129,11.791,5.351c0.125-0.048,12.674-4.616,22.082,4.526
		c2.769,2.691,5.944,5.073,9.422,7.147c-11.857,10.39-15.978,21.78-17.38,27.795c-1.149,4.925,1.912,9.848,6.837,10.997
		c4.955,1.152,9.854-1.941,10.996-6.837c4.742-20.332,29.278-28.854,36.685-30.982c31.251-8.977,48.39-26.588,57.349-40.024
		C475.865,321.562,472.723,318.866,470.159,316.984z"/>
	<path style="fill:#E7387F;" d="M449.27,230.446c-1.821-1.472-2.798-3.694-2.764-5.986c-2.847,6.838-12.47,25.77-36.957,42.365
		c-4.187,2.837-5.28,8.53-2.444,12.716c1.77,2.613,4.653,4.021,7.588,4.021c1.768,0,3.555-0.512,5.128-1.578
		c21.535-14.594,33.342-30.873,39.45-41.931C456.438,236.796,453.146,233.58,449.27,230.446z"/>
	<path style="fill:#E7387F;" d="M373.023,156.11c9.604-4.695,22.075-4.888,30.094-4.371c-2.907-1.312-4.703-4.365-4.444-7.657
		c0.102-1.29,0.154-2.594,0.154-3.91c0-2.35-0.174-4.658-0.487-6.922c-9.817-0.095-22.505,1.102-33.359,6.409
		c-4.544,2.221-6.426,7.704-4.205,12.247C362.997,156.446,368.478,158.332,373.023,156.11z"/>
	<path style="fill:#E7387F;" d="M205.168,58.429c-20.391,2.857-30.019,15.883-34.547,26.794c-1.215,2.929-4.058,4.788-7.229,4.784
		c-0.018,0-0.037,0-0.055,0c-27.705,0-50.164,22.459-50.164,50.164c0,1.316,0.052,2.62,0.154,3.91c0.297,3.77-2.1,7.228-5.776,8.115
		c-8.58,2.071-19.244,6.791-29.584,17.131c-17.848,17.848-14.805,43.351-12.621,53.651c0.59,2.784-0.402,5.678-2.615,7.467
		c-35.233,28.479-24.568,63.571-18.41,77.254c1.482,3.292,0.431,7.148-2.479,9.284c-6.024,4.421-15.237,13.303-18.248,27.735
		C56.089,441.931,147.858,512,256,512c0.496,0,0.988-0.016,1.483-0.019V108.225c0-9.338-2.061-18.606-6.352-26.9
		C244.493,68.495,231.225,54.778,205.168,58.429z"/>
	<path style="fill:#E20A62;" d="M127.886,465.899c2.236-3.399,1.832-7.887-1.025-10.784c-11.879-12.04-36.925-44.933-10.877-88.857
		c1.636-2.759,1.548-6.207-0.168-8.917c-6.351-10.027-19.579-35.78-7.727-61.646c6.866-14.984,16.281-24.158,24.534-29.716
		c3.536-2.381,4.711-6.976,2.917-10.843c-0.614-1.323-1.181-2.681-1.698-4.071c-10.877-29.275,4.038-61.824,33.312-72.7
		c0.02-0.007,0.039-0.015,0.059-0.022c3.352-1.241,5.626-4.322,5.76-7.893c0.501-13.307,5.561-30.851,25.985-41.875
		c26.099-14.087,45.504-4.803,57.554,6.147c0.334,0.304,0.644,0.631,0.971,0.941v-27.441c0-9.338-2.061-18.606-6.352-26.9
		c-6.637-12.829-19.905-26.546-45.962-22.895c-20.391,2.857-30.019,15.883-34.547,26.794c-1.215,2.929-4.058,4.788-7.229,4.784
		c-0.018,0-0.037,0-0.055,0c-27.705,0-50.164,22.459-50.164,50.164c0,1.316,0.052,2.62,0.154,3.91c0.297,3.77-2.1,7.228-5.776,8.115
		c-8.58,2.071-19.244,6.792-29.583,17.131c-17.848,17.847-14.805,43.351-12.621,53.651c0.59,2.783-0.402,5.678-2.615,7.467
		c-35.233,28.479-24.568,63.571-18.41,77.254c1.481,3.292,0.431,7.148-2.479,9.284c-6.024,4.421-15.237,13.303-18.248,27.735
		c17.863,53.438,53.641,98.668,100.2,128.572C125.131,470.39,126.572,467.897,127.886,465.899z"/>
	<path style="fill:#C40955;" d="M41.841,316.984c2.541-1.865,3.662-5.04,2.921-8.007c5.285,10.215,19.082,29.485,50.782,38.591
		c5.003,1.437,9.494,3.106,13.551,4.934c4.731-1.463,10.513-4.038,15.19-8.584c17.642-17.147,40.328-8.896,41.284-8.536
		c4.734,1.779,7.129,7.058,5.35,11.791c-1.778,4.735-7.059,7.129-11.791,5.351c-0.125-0.048-12.674-4.616-22.082,4.526
		c-2.769,2.691-5.944,5.073-9.422,7.147c11.856,10.39,15.978,21.78,17.38,27.795c1.149,4.925-1.912,9.848-6.837,10.997
		c-4.955,1.152-9.854-1.941-10.995-6.837c-4.743-20.332-29.278-28.854-36.685-30.982c-31.251-8.977-48.39-26.588-57.349-40.024
		C36.135,321.562,39.277,318.866,41.841,316.984z"/>
	<path style="fill:#C40955;" d="M62.73,230.446c1.821-1.472,2.798-3.694,2.764-5.986c2.847,6.838,12.469,25.77,36.957,42.365
		c4.187,2.837,5.28,8.53,2.444,12.716c-1.77,2.613-4.653,4.021-7.588,4.021c-1.768,0-3.555-0.512-5.128-1.578
		c-21.535-14.594-33.342-30.873-39.45-41.931C55.562,236.796,58.854,233.58,62.73,230.446z"/>
	<path style="fill:#C40955;" d="M138.976,156.11c-9.604-4.695-22.075-4.888-30.094-4.371c2.907-1.312,4.703-4.365,4.444-7.657
		c-0.102-1.29-0.154-2.594-0.154-3.91c0-2.35,0.174-4.658,0.487-6.922c9.817-0.095,22.505,1.102,33.36,6.409
		c4.543,2.221,6.426,7.704,4.205,12.247C149.003,156.446,143.522,158.332,138.976,156.11z"/>
	<g>
		<path style="fill:#F6D100;" d="M435.023,102.88c-0.094,0-0.19-0.001-0.285-0.004l-20.414-0.625
			c-5.055-0.155-9.026-4.378-8.871-9.432c0.155-5.054,4.348-9.037,9.431-8.872l20.414,0.625c5.055,0.155,9.026,4.378,8.871,9.432
			C444.018,98.963,439.95,102.88,435.023,102.88z"/>
	</g>
	<g>
		<path style="fill:#F6D100;" d="M393.621,60.31c-2.322-4.492-0.564-10.015,3.927-12.338l18.142-9.381
			c4.491-2.322,10.017-0.565,12.339,3.928c2.322,4.492,0.564,10.016-3.927,12.339l-18.141,9.381
			C401.467,66.56,395.944,64.803,393.621,60.31z"/>
	</g>
	<g>
		<path style="fill:#F6D100;" d="M374.034,35.127c-4.44-2.421-6.075-7.982-3.655-12.421l9.777-17.93
			c2.421-4.44,7.98-6.077,12.422-3.655c4.44,2.421,6.075,7.982,3.655,12.421l-9.777,17.93
			C384.048,35.889,378.495,37.559,374.034,35.127z"/>
	</g>
	<g>
		<path style="fill:#F6D100;" d="M73.674,102.88c-4.927,0-8.994-3.917-9.146-8.876c-0.155-5.054,3.817-9.277,8.872-9.432
			l20.413-0.625c5.057-0.146,9.277,3.817,9.432,8.872c0.155,5.054-3.817,9.277-8.872,9.432l-20.413,0.625
			C73.864,102.878,73.768,102.88,73.674,102.88z"/>
	</g>
	<g>
		<path style="fill:#F6D100;" d="M102.737,64.238l-18.141-9.381c-4.492-2.323-6.25-7.847-3.928-12.339
			c2.322-4.492,7.845-6.249,12.339-3.928l18.141,9.381c4.492,2.323,6.25,7.847,3.928,12.338
			C112.754,64.801,107.231,66.56,102.737,64.238z"/>
	</g>
	<g>
		<path style="fill:#F6D100;" d="M122.24,31.472l-9.778-17.931c-2.421-4.44-0.784-10.001,3.655-12.422
			c4.441-2.421,10.002-0.785,12.422,3.655l9.778,17.93c2.421,4.44,0.785,10.001-3.654,12.422
			C130.194,37.563,124.646,35.884,122.24,31.472z"/>
	</g>
	<path style="fill:#F6D100;" d="M378.762,138.245C378.762,69.626,323.136,14,254.517,14c-68.618,0-124.245,55.626-124.245,124.245
		c0,29.271,27.063,77.407,27.063,77.407l34.879,64.042h0c39.268,19.408,85.337,19.408,124.604,0h0l34.879-64.042
		C351.699,215.652,378.762,167.516,378.762,138.245z"/>
	<path style="fill:#F2BA00;" d="M238.73,279.694L238.73,279.694l-26.182-64.042c0,0-20.315-48.136-20.315-77.407
		c0-62.61,34.765-114.394,79.981-122.985c-5.781-0.824-11.687-1.26-17.696-1.26c-68.618,0-124.245,55.626-124.245,124.245
		c0,29.271,27.063,77.407,27.063,77.407l34.879,64.042h0.001c25.074,12.393,52.919,16.859,79.998,13.425
		C260.707,291.175,249.384,286.709,238.73,279.694z"/>
	<path style="fill:#F2BA00;" d="M316.639,279.78c-15.594-6.533-37.733-10.614-62.295-10.614c-24.465,0-46.528,4.049-62.112,10.536
		C231.436,299.072,277.417,299.097,316.639,279.78z"/>
	<path style="fill:#EEA200;" d="M236.827,293.118v-23.242c-17.385,1.426-32.836,4.93-44.594,9.826
		C206.423,286.713,221.503,291.176,236.827,293.118z"/>
	<g>
		<path style="fill:#F2BA00;" d="M289.223,200.575h-69.758c-4.408,0-7.981-3.573-7.981-7.981c0-4.408,3.573-7.981,7.981-7.981
			h69.758c4.408,0,7.981,3.573,7.981,7.981C297.204,197.002,293.631,200.575,289.223,200.575z"/>
	</g>
	<path style="fill:#5766CE;" d="M219.041,363.342c1.798,18.009,16.994,32.071,35.476,32.071c18.482,0,33.678-14.062,35.476-32.071
		C266.717,369.276,242.318,369.276,219.041,363.342z"/>
	<path style="fill:#3D4EC6;" d="M249.971,367.719c-10.399-0.329-20.771-1.787-30.929-4.377c1.545,15.483,12.999,28.04,27.925,31.26
		C236.692,388.819,238,371.469,249.971,367.719z"/>
	<g>
		<path style="fill:#EEA200;" d="M261.127,249.86c-1.66,0-3.333-0.515-4.765-1.584c-3.533-2.635-4.262-7.635-1.627-11.169
			l18.359-24.62c1.444-1.938,2.208-4.126,2.208-6.327v-20.748c0-4.408,3.573-7.981,7.981-7.981c4.408,0,7.981,3.573,7.981,7.981
			v20.748c0,5.666-1.858,11.154-5.373,15.869l-18.359,24.621C265.964,248.751,263.56,249.86,261.127,249.86z"/>
	</g>
	<g>
		<path style="fill:#ED8700;" d="M268.199,219.051l-13.465,18.057c-2.634,3.533-1.906,8.534,1.627,11.169
			c3.532,2.635,8.534,1.907,11.169-1.627l14.941-20.036C276.399,230.185,268.659,226.105,268.199,219.051z"/>
	</g>
	<g>
		<path style="fill:#EEA200;" d="M247.908,249.86c-2.434,0-4.837-1.109-6.404-3.211l-18.359-24.62
			c-3.516-4.715-5.375-10.202-5.375-15.869v-20.748c0-4.408,3.573-7.981,7.981-7.981c4.408,0,7.981,3.573,7.981,7.981v20.748
			c0,2.202,0.764,4.389,2.208,6.327l18.36,24.621c2.634,3.533,1.906,8.534-1.627,11.169
			C251.241,249.345,249.567,249.86,247.908,249.86z"/>
	</g>
	<g>
		<path style="fill:#ED8700;" d="M254.3,237.108l-14.147-18.971c0.003,0.097,0.015,0.192,0.015,0.29
			c0,6.799-6.943,11.379-13.176,8.761l14.512,19.461c2.64,3.54,7.643,4.258,11.169,1.627
			C256.206,245.642,256.935,240.641,254.3,237.108z"/>
	</g>
	<path style="fill:#4AC4F4;" d="M268.636,261.964c-2.452-1.064-3.971-3.562-3.971-6.235v-17.593c0-5.604-4.543-10.147-10.147-10.147
		h0c-5.605,0-10.148,4.543-10.148,10.148v17.56c0,2.684-1.531,5.189-3.998,6.248c-3.617,1.552-6.15,5.145-6.15,9.33v21.499
		c13.436,1.959,27.089,1.963,40.525,0.01v-21.51C274.747,267.105,272.232,263.525,268.636,261.964z"/>
	<path style="fill:#31A7ED;" d="M254.682,284.915c-10.524,0.012-18.32-7.33-20.082-16.372c-0.243,0.87-0.379,1.784-0.379,2.732
		v21.499c13.436,1.959,27.089,1.963,40.525,0.01v-21.51c0-0.95-0.136-1.866-0.38-2.738
		C272.566,277.815,264.466,284.904,254.682,284.915z"/>
	<path style="fill:#D0E8FE;" d="M316.82,279.694l-1.509-0.092c-38.434,18.432-83.153,18.432-121.586,0l-1.509,0.092
		c-4.006,6.27-5.605,13.778-4.501,21.136l6.004,40.028c1.265,8.433,6.407,15.788,13.893,19.871l0,0
		c30.389,10.5,63.422,10.5,93.811,0l0,0c7.486-4.084,12.628-11.438,13.893-19.871l6.004-40.028
		C322.424,293.472,320.825,285.964,316.82,279.694z"/>
	<path style="fill:#A9D8FC;" d="M231.062,333.721c1.618-2.773,1.593-6.245-0.113-8.964c-11.983-19.101,3.273-32.803,3.273-32.803
		l-0.005-0.01c-13.89-2.026-27.548-6.134-40.493-12.342l-1.509,0.091c-4.005,6.27-5.605,13.778-4.501,21.136l6.004,40.028
		c1.265,8.433,6.407,15.788,13.893,19.871c10.687,3.693,21.702,6.081,32.813,7.177C222.161,355.21,226.917,340.825,231.062,333.721z
		"/>
	<path style="fill:#A9D8FC;" d="M318.961,316.561c-40.921,18.716-87.967,18.716-128.887,0l3.644,24.297
		c1.265,8.433,6.407,15.788,13.893,19.871c30.389,10.5,63.422,10.5,93.811,0c7.487-4.084,12.628-11.438,13.893-19.871
		L318.961,316.561z"/>
	<path style="fill:#4AC4F4;" d="M193.718,340.857c1.265,8.433,6.407,15.788,13.893,19.871c10.687,3.693,21.702,6.081,32.813,7.177
		c-18.265-12.695-13.509-27.08-9.364-34.184c0.852-1.46,1.235-3.112,1.171-4.747c-14.427-2.096-28.628-6.225-42.159-12.413
		L193.718,340.857z"/>
	<circle style="fill:#F9DF5F;" cx="323.734" cy="88.79" r="18.056"/>
	<circle style="fill:#F9DF5F;" cx="292.301" cy="113.029" r="9.829"/>
</g>
<g>
</g>
<g>
</g>
<g>
</g>
<g>
</g>
<g>
</g>
<g>
</g>
<g>
</g>
<g>
</g>
<g>
</g>
<g>
</g>
<g>
</g>
<g>
</g>
<g>
</g>
<g>
</g>
<g>
</g>
</svg>
