<?xml version="1.0" encoding="iso-8859-1"?>
<!-- Generator: Adobe Illustrator 21.0.0, SVG Export Plug-In . SVG Version: 6.00 Build 0)  -->
<svg version="1.1" id="Capa_1" xmlns="http://www.w3.org/2000/svg" xmlns:xlink="http://www.w3.org/1999/xlink" x="0px" y="0px"
	 viewBox="0 0 512 512" style="enable-background:new 0 0 512 512;" xml:space="preserve">
<g>
	<path style="fill:#3342AE;" d="M256,21.999c-135.31,0-245,109.691-245,245c0,82.972,41.253,156.301,104.359,200.622l273.982,4.934
		C456.547,428.869,501,353.13,501,266.999C501,131.689,391.31,21.999,256,21.999z"/>
	<g>
		<path style="fill:#509B08;" d="M310.88,101.392l-15.272-45.211c-1.444-4.273,0.851-8.907,5.123-10.351
			c4.273-1.445,8.908,0.85,10.351,5.123l15.272,45.211c1.444,4.273-0.851,8.907-5.123,10.351
			C316.94,107.965,312.317,105.647,310.88,101.392z"/>
	</g>
	<g>
		<path style="fill:#509B08;" d="M352.754,225.355l-14.221-42.102c-1.444-4.273,0.851-8.907,5.123-10.351
			c4.274-1.445,8.908,0.85,10.351,5.123l14.221,42.102c1.444,4.273-0.851,8.907-5.123,10.351
			C358.815,231.928,354.191,229.61,352.754,225.355z"/>
	</g>
	<g>
		<path style="fill:#509B08;" d="M288.477,139.225l-19.954-4c-4.422-0.886-7.288-5.19-6.402-9.612
			c0.886-4.422,5.184-7.291,9.613-6.402l19.954,4c4.421,0.886,7.288,5.19,6.401,9.612
			C297.2,137.264,292.878,140.109,288.477,139.225z"/>
	</g>
	<g>
		<path style="fill:#509B08;" d="M415.557,164.699l-42.359-8.492c-4.422-0.886-7.289-5.19-6.402-9.612
			c0.886-4.422,5.183-7.29,9.613-6.402l42.359,8.491c4.422,0.886,7.289,5.19,6.402,9.612
			C424.28,162.739,419.958,165.584,415.557,164.699z"/>
	</g>
	<g>
		<path style="fill:#509B08;" d="M287.104,191.254c-3.387-2.979-3.718-8.139-0.739-11.526l11.412-12.974
			c2.979-3.386,8.139-3.717,11.526-0.738c3.387,2.979,3.718,8.139,0.739,11.526l-11.412,12.974
			C295.648,193.905,290.487,194.231,287.104,191.254z"/>
	</g>
	<g>
		<path style="fill:#509B08;" d="M355.583,113.401c-3.387-2.979-3.718-8.139-0.739-11.526l17.434-19.82
			c2.979-3.386,8.14-3.717,11.526-0.738c3.387,2.979,3.718,8.139,0.739,11.526l-17.434,19.82
			C364.127,116.052,358.967,116.378,355.583,113.401z"/>
	</g>
	<g>
		
			<rect x="147.255" y="63.44" transform="matrix(0.928 -0.3727 0.3727 0.928 -21.2103 66.5461)" style="fill:#5766CE;" width="28.53" height="49.388"/>
	</g>
	<path style="fill:#3D4EC6;" d="M172.511,77.226c-0.31,6.017-4.016,11.602-9.974,13.994l0,0c-5.646,2.267-11.821,1.075-16.184-2.571
		l11.132,27.717l26.475-10.632L172.511,77.226z"/>
	<path style="fill:#5766CE;" d="M298.096,311.562l-7.774-19.355c-0.468-1.164-1.084-2.22-1.797-3.182l-25.58,10.275
		c0.15,1.188,0.435,2.377,0.903,3.54l7.774,19.355c2.936,7.311,11.243,10.857,18.553,7.921
		C297.486,327.18,301.032,318.873,298.096,311.562z"/>
	<path style="fill:#3D4EC6;" d="M244.17,306.841l-26.475,10.634l4.885,12.163c2.936,7.311,11.243,10.857,18.553,7.921
		c7.311-2.936,10.858-11.243,7.922-18.554L244.17,306.841z"/>
	<g>
		
			<rect x="220.037" y="247.777" transform="matrix(0.928 -0.3727 0.3727 0.928 -81.2956 106.3033)" style="fill:#5766CE;" width="28.531" height="31.287"/>
	</g>
	<path style="fill:#3D4EC6;" d="M245.106,252.042c-0.241,5.955-3.886,11.504-9.774,13.87c-5.928,2.381-12.448,0.862-16.741-3.335
		l8.305,20.677l26.475-10.634L245.106,252.042z"/>
	<path style="fill:#D0E8FE;" d="M257.197,228.935l-50.448-125.612c-2.06-5.129-7.886-7.616-13.015-5.556l-45.974,18.465
		c-5.128,2.06-7.616,7.886-5.556,13.014l50.448,125.612c2.06,5.128,7.886,7.616,13.015,5.556l45.974-18.465
		C256.769,239.89,259.256,234.063,257.197,228.935z"/>
	<path style="fill:#A9D8FC;" d="M228.331,243.257l-52.198-129.97c-1.169-2.911-0.915-6.037,0.423-8.62l-28.796,11.566
		c-5.128,2.06-7.616,7.887-5.556,13.014l50.448,125.612c2.06,5.128,7.886,7.616,13.015,5.556L234.088,249
		C231.558,247.984,229.427,245.986,228.331,243.257z"/>
	<path style="fill:#8C96DD;" d="M169.758,53.44L149.77,3.67c-1.204-2.997-4.609-4.451-7.606-3.247l-26.212,10.528
		c-2.997,1.204-4.451,4.609-3.247,7.606l19.988,49.769c1.204,2.997,4.609,4.451,7.606,3.247l26.212-10.527
		C169.508,59.842,170.962,56.436,169.758,53.44z"/>
	<path style="fill:#5766CE;" d="M151.607,61.574l-20.656-51.432c-0.739-1.84-0.503-3.826,0.456-5.398l-15.455,6.208
		c-2.997,1.203-4.451,4.609-3.247,7.605l19.988,49.769c1.204,2.997,4.609,4.45,7.606,3.247l15.749-6.325
		C154.111,64.864,152.398,63.543,151.607,61.574z"/>
	<g>
		<path style="fill:#D0E8FE;" d="M138.247,439.589l32.844-41.776c-1.386-3.477-2.157-7.266-2.157-11.237
			c0-0.95,0.05-1.888,0.135-2.815c-23.723-26.225-38.174-60.996-38.174-99.144c0-26.92,7.198-52.158,19.77-73.899
			c-11.669-1.547-21.241-9.718-24.817-20.614c-28.203,31.416-45.367,72.943-45.367,118.485
			C80.482,360.468,102.751,407.143,138.247,439.589z"/>
	</g>
	<g>
		<path style="fill:#A9D8FC;" d="M168.934,386.576c0-0.95,0.049-1.888,0.135-2.815c-14.296-15.804-25.218-34.716-31.646-55.596
			c-6.744,24.98-39.853,30.766-54.605,9.264c6.572,40.2,26.653,75.857,55.429,102.16l32.844-41.776
			C169.705,394.336,168.934,390.547,168.934,386.576z"/>
	</g>
	<g>
		<path style="fill:#8C96DD;" d="M209.479,321.184c-6.106,0-11.886-3.655-14.301-9.668c-3.172-7.896,0.659-16.867,8.553-20.039
			l75.072-30.154c7.894-3.165,16.867,0.658,20.039,8.554c3.172,7.896-0.659,16.867-8.553,20.039l-75.072,30.154
			C213.335,320.825,211.392,321.184,209.479,321.184z"/>
	</g>
	<path style="fill:#5766CE;" d="M240.122,293.553c-2.627-6.54-0.799-13.751,4.033-18.313l-40.423,16.237
		c-7.895,3.172-11.725,12.143-8.553,20.039c2.415,6.013,8.195,9.668,14.301,9.668c1.912,0,3.856-0.359,5.738-1.114l40.03-16.079
		C248.771,303.86,242.688,299.942,240.122,293.553z"/>
	<g>
		<path style="fill:#A9D8FC;" d="M182.99,177.805c-3.217,0-6.265-1.912-7.561-5.073c-1.71-4.174,0.288-8.943,4.461-10.653
			l44.469-18.219c4.176-1.713,8.944,0.287,10.654,4.461c1.71,4.174-0.288,8.943-4.461,10.653l-44.469,18.219
			C185.07,177.608,184.02,177.805,182.99,177.805z"/>
	</g>
	<path style="fill:#4AC4F4;" d="M193.839,156.364l-13.949,5.715c-8.255,3.382-5.818,15.725,3.1,15.725
		c2.757,0,3.645-1.031,16.305-6.025C192.399,170.052,189.627,161.954,193.839,156.364z"/>
	<g>
		
			<ellipse transform="matrix(0.9474 -0.32 0.32 0.9474 -27.227 113.7386)" style="fill:#82CD64;" cx="332.443" cy="139.709" rx="43.203" ry="43.203"/>
	</g>
	<path style="fill:#509B08;" d="M363.378,162.576c-22.606,7.636-47.121-4.499-54.757-27.105
		c-3.852-11.403-2.668-23.288,2.348-33.251c-17.575,10.043-26.178,31.416-19.456,51.315c7.636,22.605,32.151,34.741,54.757,27.104
		c11.203-3.784,19.829-11.717,24.757-21.505C368.635,160.5,366.084,161.662,363.378,162.576z"/>
	<circle style="fill:#8C96DD;" cx="154.692" cy="180.634" r="30.358"/>
	<path style="fill:#5766CE;" d="M241.629,426.975c3.842,19.035,20.66,33.369,40.828,33.369c20.168,0,36.986-14.334,40.828-33.369
		H241.629z"/>
	<path style="fill:#3D4EC6;" d="M277.296,426.975h-35.667c3.842,19.035,20.66,33.369,40.828,33.369
		c6.382,0,12.427-1.439,17.833-4.005C288.613,450.797,279.922,439.986,277.296,426.975z"/>
	<g>
		<path style="fill:#8C96DD;" d="M323.285,435.141h-81.656c-4.511,0-8.167-3.656-8.167-8.167c0-4.51,3.656-8.167,8.167-8.167h81.656
			c4.511,0,8.167,3.656,8.167,8.167C331.451,431.485,327.795,435.141,323.285,435.141z"/>
	</g>
	<path style="fill:#5766CE;" d="M274.29,426.975c0-4.51,3.656-8.167,8.167-8.167h-40.828c-4.511,0-8.167,3.657-8.167,8.167
		c0,4.51,3.656,8.167,8.167,8.167h40.828C277.946,435.141,274.29,431.485,274.29,426.975z"/>
	<path style="fill:#5766CE;" d="M134.109,459.36h77.807v-48.511c-4.38,2.452-9.426,3.855-14.802,3.855
		c-12.508,0-23.245-7.566-27.894-18.369l-54.471,69.283c0,0,0.783,0.061,2.188,0.166C121.555,461.789,127.56,459.36,134.109,459.36z
		"/>
	<g>
		<path style="fill:#3D4EC6;" d="M168.961,423.629c19.542,0,36.234,12.159,42.955,29.319v-42.1
			c-4.38,2.452-9.426,3.855-14.802,3.855c-12.508,0-23.245-7.566-27.894-18.369l-30.042,38.211
			C147.215,427.74,157.605,423.629,168.961,423.629z"/>
	</g>
	<path style="fill:#D0E8FE;" d="M341.767,370.55H222.398c2.499,4.411,3.932,9.505,3.932,14.937c0,5.432-1.434,10.526-3.933,14.937
		h119.369c8.249,0,14.937-6.688,14.937-14.937C356.704,377.238,350.016,370.55,341.767,370.55z"/>
	<path style="fill:#A9D8FC;" d="M270.947,385.487c0-8.249,6.688-14.937,14.937-14.937h-63.486c2.499,4.411,3.932,9.505,3.932,14.937
		c0,5.432-1.434,10.526-3.933,14.937h63.487C277.635,400.424,270.947,393.736,270.947,385.487z"/>
	<path style="fill:#A9D8FC;" d="M367.326,457.077H134.109c-8.102,0-15.378,3.712-20.217,9.517C153.97,495.181,203.02,512,256,512
		c49.813,0,96.145-14.88,134.819-40.418C386.47,462.999,377.558,457.077,367.326,457.077z"/>
	<g>
		<path style="fill:#9ED369;" d="M341.141,139.384c-7.916,0-14.355-6.44-14.355-14.355c0-7.916,6.44-14.355,14.355-14.355
			c7.916,0,14.355,6.44,14.355,14.355C355.496,132.944,349.057,139.384,341.141,139.384z"/>
	</g>
	<g>
		<path style="fill:#9ED369;" d="M303.909,67.923c-7.916,0-14.355-6.44-14.355-14.355c0-7.916,6.44-14.355,14.355-14.355
			c7.916,0,14.355,6.44,14.355,14.355C318.265,61.483,311.825,67.923,303.909,67.923z"/>
	</g>
	<g>
		<path style="fill:#9ED369;" d="M378.41,101.805c-7.916,0-14.355-6.44-14.355-14.355c0-7.916,6.44-14.355,14.355-14.355
			c7.916,0,14.355,6.44,14.355,14.355C392.766,95.365,386.326,101.805,378.41,101.805z"/>
	</g>
	<g>
		<path style="fill:#9ED369;" d="M417.163,171.047c-7.915,0-14.354-6.44-14.354-14.355c0-7.916,6.44-14.355,14.354-14.355
			c7.916,0,14.355,6.44,14.355,14.355C431.518,164.608,425.078,171.047,417.163,171.047z"/>
	</g>
	<g>
		<path style="fill:#9ED369;" d="M262.3,139.384c-7.916,0-14.355-6.44-14.355-14.355c0-7.916,6.44-14.355,14.355-14.355
			c7.916,0,14.355,6.44,14.355,14.355C276.655,132.944,270.215,139.384,262.3,139.384z"/>
	</g>
	<g>
		<path style="fill:#9ED369;" d="M360.491,237.096c-7.916,0-14.355-6.44-14.355-14.355c0-7.916,6.44-14.355,14.355-14.355
			c7.916,0,14.355,6.44,14.355,14.355C374.846,230.656,368.406,237.096,360.491,237.096z"/>
	</g>
	<g>
		<path style="fill:#9ED369;" d="M287.053,205.013c-7.916,0-14.355-6.44-14.355-14.355c0-7.916,6.44-14.355,14.355-14.355
			c7.916,0,14.355,6.44,14.355,14.355C301.408,198.573,294.968,205.013,287.053,205.013z"/>
	</g>
	<path style="fill:#5766CE;" d="M172.666,205.095c-18.027,0-12.62-14.992-12.62-14.992l-10.632-18.98
		c-17.279,0-11.408-15.848-11.408-15.848l0,0c-8.235,5.43-13.673,14.757-13.673,25.358c0,16.766,13.592,30.358,30.358,30.358
		C161.42,210.992,167.634,208.799,172.666,205.095z"/>
	<g>
		<path style="fill:#3D4EC6;" d="M154.691,191.519c-5.93,0-10.889-4.78-10.889-10.889c0-6.966,6.421-11.998,13.012-10.671
			c5.258,1.068,8.765,5.625,8.765,10.671C165.58,186.545,160.778,191.519,154.691,191.519z"/>
	</g>
	<circle style="fill:#8C96DD;" cx="197.114" cy="385.487" r="30.358"/>
	<path style="fill:#5766CE;" d="M215.089,409.948c-18.027,0-12.62-14.992-12.62-14.992l-10.632-18.979
		c-17.279,0-11.408-15.848-11.408-15.848l0,0c-8.235,5.43-13.673,14.757-13.673,25.358c0,16.766,13.592,30.358,30.358,30.358
		C203.842,415.845,210.056,413.652,215.089,409.948z"/>
	<g>
		<path style="fill:#3D4EC6;" d="M197.114,396.372c-5.93,0-10.889-4.78-10.889-10.889c0-6.966,6.421-11.998,13.012-10.671
			c5.258,1.068,8.765,5.625,8.765,10.671C208.003,391.398,203.201,396.372,197.114,396.372z"/>
	</g>
	<g>
		<path style="fill:#4AC4F4;" d="M214.524,457.077h-80.416c-8.102,0-15.378,3.712-20.216,9.517
			c24.502,17.476,52.361,30.544,82.417,38.07C184.52,486.91,193.643,462.489,214.524,457.077z"/>
	</g>
</g>
<g>
</g>
<g>
</g>
<g>
</g>
<g>
</g>
<g>
</g>
<g>
</g>
<g>
</g>
<g>
</g>
<g>
</g>
<g>
</g>
<g>
</g>
<g>
</g>
<g>
</g>
<g>
</g>
<g>
</g>
</svg>
