<?xml version="1.0" encoding="iso-8859-1"?>
<!-- Generator: Adobe Illustrator 21.0.0, SVG Export Plug-In . SVG Version: 6.00 Build 0)  -->
<svg version="1.1" id="Capa_1" xmlns="http://www.w3.org/2000/svg" xmlns:xlink="http://www.w3.org/1999/xlink" x="0px" y="0px"
	 viewBox="0 0 512 512" style="enable-background:new 0 0 512 512;" xml:space="preserve">
<g>
	<path style="fill:#31A7ED;" d="M250.5,21.999C115.19,21.999,5.5,131.69,5.5,267c0,15.3,1.416,30.268,4.099,44.792h0l16.863,54.48h0
		C64.557,452.117,150.53,512,250.5,512c135.31,0,245.001-109.69,245.001-245S385.811,21.999,250.5,21.999z"/>
	<path style="fill:#A9D8FC;" d="M331.935,498.121l-91.378-188.159c-7.006,6.424-16.342,10.347-26.596,10.347
		c-0.125,0-0.248-0.008-0.373-0.01l90.26,185.858C313.435,504.029,322.808,501.337,331.935,498.121z"/>
	<g>
		<path style="fill:#91D1F9;" d="M271.16,372.977l-30.602-63.014c-7.006,6.424-16.342,10.347-26.596,10.347
			c-0.125,0-0.248-0.008-0.373-0.01l31.602,65.073C244.807,371.6,260.915,364.188,271.16,372.977z"/>
	</g>
	<path style="fill:#A9D8FC;" d="M187.366,309.963l-76.803,158.147c7.891,5.501,16.119,10.551,24.651,15.11L214.335,320.3
		c-0.125,0.001-0.248,0.01-0.373,0.01C203.708,320.309,194.372,316.386,187.366,309.963z"/>
	<g>
		<path style="fill:#91D1F9;" d="M182.636,385.572l31.699-65.273c-0.125,0.001-0.248,0.01-0.373,0.01
			c-10.254,0-19.59-3.923-26.596-10.346l-30.534,62.873C167.141,364.227,183.192,371.749,182.636,385.572z"/>
	</g>
	<path style="fill:#D0E8FE;" d="M199.574,317.585v189.1c9.404,1.988,19.008,3.432,28.776,4.308V317.584
		c-4.458,1.752-9.308,2.725-14.389,2.725C208.882,320.309,204.032,319.336,199.574,317.585z"/>
	<g>
		<path style="fill:#A9D8FC;" d="M213.962,376.56c6.422,0,11.937,3.849,14.388,9.362v-68.338c-4.458,1.752-9.309,2.725-14.389,2.725
			c-5.08,0-9.929-0.973-14.387-2.725v68.336C202.026,380.409,207.54,376.56,213.962,376.56z"/>
	</g>
	<path style="fill:#D0E8FE;" d="M9.599,311.791c3.515,19.022,9.227,37.272,16.863,54.48l77.576-44.789l-27.806-48.162L9.599,311.791
		z"/>
	<path style="fill:#A9D8FC;" d="M22.001,336.216l54.534-31.485c5.7-3.291,12.447-3.081,17.793-0.067l-18.096-31.344L9.599,311.791
		c1.824,9.874,4.253,19.534,7.223,28.955C18.211,338.954,19.947,337.402,22.001,336.216z"/>
	<path style="fill:#5766CE;" d="M176.751,283.817c0-20.518,16.693-37.211,37.212-37.211c15.615,0,29.005,9.672,34.518,23.337
		l50.504-23.401l-60.378-104.578L75.932,256.459c-4.456,3.188-5.765,9.236-3.025,13.98l31.965,55.365
		c2.739,4.744,8.632,6.635,13.62,4.37l62.573-28.993C178.315,295.992,176.751,290.085,176.751,283.817z"/>
	<path style="fill:#3D4EC6;" d="M98.237,294.855L268.93,194.486l-30.324-52.523L75.932,256.459
		c-4.456,3.188-5.764,9.236-3.025,13.98l20.006,34.651C92.622,301.056,94.577,297.044,98.237,294.855z"/>
	<path style="fill:#3D4EC6;" d="M431.261,196.625L347.973,52.366c-0.349-0.604-0.63-1.229-0.877-1.86L238.565,123.77
		c-4.868,3.483-6.299,10.091-3.306,15.275l64.578,111.853c2.993,5.184,9.431,7.25,14.882,4.775l117.714-57.358
		C432.01,197.785,431.61,197.23,431.261,196.625z"/>
	<g>
		<path style="fill:#3342AE;" d="M273.325,183.976l110.363-69.75l-35.715-61.86c-0.349-0.604-0.629-1.229-0.877-1.86L238.565,123.77
			c-4.868,3.483-6.299,10.091-3.306,15.275l32.268,55.89C265.823,191.983,268.331,187.242,273.325,183.976z"/>
	</g>
	<path style="fill:#5766CE;" d="M470.423,181.005L381.082,26.261c-1.395-2.417-2.145-5.022-2.341-7.63l-26.951,15.56
		c-6.588,3.804-8.867,12.306-5.063,18.895l83.288,144.259c3.804,6.588,12.306,8.867,18.895,5.063l26.951-15.56
		C473.7,185.373,471.818,183.421,470.423,181.005z"/>
	<g>
		<path style="fill:#3D4EC6;" d="M389.705,99.861l25.403-14.666l-34.025-58.934c-1.395-2.417-2.144-5.022-2.341-7.63l-26.951,15.56
			c-6.588,3.804-8.867,12.306-5.063,18.895l35.215,60.993C379.623,110.063,383.116,103.665,389.705,99.861z"/>
	</g>
	<path style="fill:#F6D100;" d="M225.102,58.713c-13.32,5.813-29.02,1.606-37.649-10.088c-0.824-1.116-2.344-1.45-3.545-0.756
		l-0.001,0.001c-1.202,0.694-1.672,2.177-1.118,3.448c5.811,13.32,1.604,29.02-10.089,37.649c-1.116,0.824-1.45,2.344-0.756,3.545
		l0.001,0.001c0.694,1.202,2.177,1.673,3.448,1.118c13.321-5.813,29.022-1.606,37.651,10.089c0.824,1.117,2.344,1.45,3.546,0.757
		c1.202-0.694,1.673-2.177,1.117-3.449c-5.814-13.321-1.607-29.022,10.088-37.652c1.117-0.824,1.45-2.344,0.757-3.545l0,0
		C227.856,58.629,226.373,58.158,225.102,58.713z"/>
	
		<ellipse transform="matrix(0.866 -0.5 0.5 0.866 -25.6352 56.6744)" style="fill:#F6D100;" cx="92.938" cy="76.173" rx="16.792" ry="16.792"/>
	<circle style="fill:#91D1F9;" cx="213.962" cy="283.817" r="39.369"/>
	<path style="fill:#4AC4F4;" d="M228.341,320.466c-8.525-4.047-7.351-10.969-5.719-14.995c0.659-1.627,0.032-3.428-1.443-4.38
		c-4.234-2.734-1.875-7.897-1.875-7.897l-24.796-43.598c-11.892,6.775-19.916,19.557-19.916,34.222
		c0,21.743,17.626,39.37,39.369,39.37C219.038,323.187,223.885,322.215,228.341,320.466z"/>
	<g>
		<path style="fill:#91D1F9;" d="M493.934,159.145c16.173-28.177,17.35-63.951-0.064-94.114
			C476.455,34.869,444.885,18,412.397,17.918L493.934,159.145z"/>
	</g>
	<path style="fill:#4AC4F4;" d="M487.286,55.131c-18.139-23.925-46.151-37.141-74.889-37.213l35.974,62.309
		C442.159,58.176,470.225,40.396,487.286,55.131z"/>
	<g>
		<path style="fill:#8C96DD;" d="M469.177,181.724L379.836,26.981c-4.967-8.602-2.019-19.602,6.583-24.568
			c8.602-4.966,19.602-2.019,24.568,6.583l89.341,154.743c4.966,8.602,2.019,19.602-6.583,24.568
			C485.143,193.273,474.143,190.326,469.177,181.724z"/>
	</g>
	<path style="fill:#5766CE;" d="M424.252,67.412c6.491-3.748,14.151-3.586,20.301-0.279L410.987,8.995
		c-4.967-8.602-15.966-11.549-24.568-6.583c-8.602,4.966-11.549,15.966-6.583,24.568l34.001,58.892
		C413.7,78.533,417.445,71.343,424.252,67.412z"/>
	
		<ellipse transform="matrix(0.866 -0.5 0.5 0.866 -113.2931 144.8189)" style="fill:#4AC4F4;" cx="213.589" cy="283.817" rx="21.355" ry="21.355"/>
	<path style="fill:#31A7ED;" d="M221.179,301.09c-4.234-2.734-1.875-7.897-1.875-7.897l-15.973-28.084
		c-0.139,0.076-0.282,0.135-0.419,0.215c-10.214,5.897-13.714,18.958-7.817,29.172c5.604,9.706,17.672,13.331,27.624,8.609
		C222.47,302.301,221.94,301.582,221.179,301.09z"/>
	<g>
		<path style="fill:#8C96DD;" d="M204.585,289.16l-50.641-88.866c-2.951-5.179-1.145-11.768,4.034-14.718
			c5.175-2.952,11.766-1.146,14.718,4.033l50.641,88.866c2.951,5.178,1.145,11.768-4.034,14.718
			C214.149,296.134,207.549,294.359,204.585,289.16z"/>
	</g>
	<path style="fill:#5766CE;" d="M186.451,235.428c4.01-2.288,8.764-2.061,12.454,0.171l-26.208-45.991
		c-2.952-5.178-9.543-6.985-14.718-4.033c-5.179,2.951-6.985,9.54-4.034,14.718l26.306,46.163
		C180.13,242.067,182.368,237.755,186.451,235.428z"/>
</g>
<g>
</g>
<g>
</g>
<g>
</g>
<g>
</g>
<g>
</g>
<g>
</g>
<g>
</g>
<g>
</g>
<g>
</g>
<g>
</g>
<g>
</g>
<g>
</g>
<g>
</g>
<g>
</g>
<g>
</g>
</svg>
