<?xml version="1.0" encoding="iso-8859-1"?>
<!-- Generator: Adobe Illustrator 21.0.0, SVG Export Plug-In . SVG Version: 6.00 Build 0)  -->
<svg version="1.1" id="Capa_1" xmlns="http://www.w3.org/2000/svg" xmlns:xlink="http://www.w3.org/1999/xlink" x="0px" y="0px"
	 viewBox="0 0 512 512" style="enable-background:new 0 0 512 512;" xml:space="preserve">
<g>
	<path style="fill:#F6D100;" d="M256,21.999C120.69,21.999,11,131.69,11,266.999c0,90.252,48.808,169.093,121.461,211.602
		l247.509-0.254c72.415-42.568,121.031-121.274,121.031-211.348C501.001,131.69,391.31,21.999,256,21.999z"/>
	<path style="fill:#A9D8FC;" d="M379.959,478.347c0.568-0.334,1.14-0.663,1.705-1.002V245.918c-0.444,0.04-0.892,0.068-1.346,0.068
		H132.119c-0.455,0-0.902-0.028-1.347-0.068v231.685c0.566,0.337,1.138,0.665,1.706,0.998L379.959,478.347z"/>
	<path style="fill:#4AC4F4;" d="M182.163,478.55V274.508c0-13.667,9.281-25.159,21.885-28.522h-71.929
		c-0.455,0-0.902-0.028-1.347-0.068v231.685c0.572,0.341,1.156,0.662,1.731,0.998L182.163,478.55z"/>
	<path style="fill:#D0E8FE;" d="M395.146,233.622c0-8.19-6.639-14.829-14.829-14.829H132.119c-8.19,0-14.828,6.639-14.828,14.829
		s6.638,14.829,14.828,14.829h248.198C388.507,248.45,395.146,241.812,395.146,233.622z"/>
	<path style="fill:#A9D8FC;" d="M185.601,233.622c0-8.19,6.639-14.828,14.829-14.828h-68.311c-8.19,0-14.828,6.639-14.828,14.828
		c0,8.19,6.638,14.829,14.828,14.829h68.311C192.239,248.45,185.601,241.812,185.601,233.622z"/>
	<path style="fill:#82CD64;" d="M97.03,20.985c7.736-1.688,18.046-4.672,31.673-11.297c49.834-24.231,80.465,1.829,82.47,25.298
		c1.743,20.398-12.109,25.267-12.109,25.267c-8.031,46.904-56.566,27.999-71.804-2.936c-8.467-17.19-21.267-25.715-30.822-29.882
		C93.409,26.113,93.801,21.689,97.03,20.985z"/>
	<g>
		<path style="fill:#5DB33A;" d="M143.664,67.473c-0.799-11.785,7.066-21.769,17.703-24.441c3.126-0.786,4.514-4.361,2.804-7.093
			c-2.715-4.337-4.053-9.624-3.399-15.251c1.077-9.27,7.693-16.948,16.394-19.64c-12.953-2.558-29.284-0.686-48.463,8.64
			c-13.627,6.626-23.937,9.61-31.673,11.297c-3.229,0.704-3.621,5.128-0.591,6.449c9.554,4.167,22.354,12.693,30.821,29.882
			c4.881,9.908,13.179,18.577,22.466,24.25C146.278,77.766,144.029,72.862,143.664,67.473z"/>
	</g>
	<path style="fill:#82CD64;" d="M413.86,55.777c-10.347-2.3-24.034-6.338-42.001-15.074c-67.154-32.653-108.432,2.464-111.134,34.09
		c-2.348,27.488,16.317,34.049,16.317,34.049c10.823,63.206,76.226,37.73,96.76-3.956c11.246-22.83,28.163-34.319,40.974-40.021
		C419.009,62.981,418.383,56.783,413.86,55.777z"/>
	<path style="fill:#5DB33A;" d="M307.926,89.565c0.282-3.55-0.779-7.1-3.105-9.797c-23.38-27.11-3.314-46.163,2.634-50.882
		c-28.453,5.234-45.05,26.243-46.73,45.907c-2.348,27.488,16.317,34.049,16.317,34.049c8.035,46.923,46.147,44.964,73.654,23.788
		C308.933,132.631,306.908,102.387,307.926,89.565z"/>
	<g>
		<path style="fill:#B9E746;" d="M256.218,181.012c-4.951,0-8.963-4.013-8.963-8.963c0-46.971,23.638-73.383,43.467-87.269
			c21.215-14.856,42.362-18.662,43.251-18.817c4.877-0.849,9.518,2.417,10.366,7.295c0.848,4.877-2.417,9.518-7.294,10.366
			c-2.913,0.522-71.864,13.73-71.864,88.425C265.181,176.999,261.168,181.012,256.218,181.012z"/>
	</g>
	<g>
		<path style="fill:#9ED369;" d="M272.834,126.258c-5.655,0-10.24-4.585-10.24-10.24c0-0.702,0.071-1.388,0.206-2.05
			c-9.041,14.482-15.545,33.45-15.545,58.079c0,4.95,4.012,8.963,8.963,8.963c4.951,0,8.963-4.013,8.963-8.963
			c0-19.383,4.649-34.617,11.576-46.572C275.548,125.979,274.224,126.258,272.834,126.258z"/>
	</g>
	<g>
		<path style="fill:#9ED369;" d="M256.218,181.012c-4.951,0-8.963-4.013-8.963-8.963c0-43.292-17.219-77.943-51.179-102.991
			c-25.612-18.89-51.242-24.898-51.497-24.956c-4.826-1.103-7.844-5.909-6.741-10.734c1.103-4.826,5.915-7.84,10.734-6.741
			c1.194,0.272,29.56,6.922,58.145,28.006c26.67,19.671,58.463,56.011,58.463,117.417
			C265.181,176.999,261.168,181.012,256.218,181.012z"/>
	</g>
	<g>
		<path style="fill:#9ED369;" d="M216.556,119.322c-3.254,0-6.384-1.794-7.972-4.9c-2.253-4.407-0.468-9.827,3.94-12.08
			c0.679-0.347,16.819-8.401,34.019-0.09c4.457,2.153,6.324,7.512,4.171,11.969c-2.153,4.456-7.51,6.326-11.969,4.171
			c-9.037-4.366-17.774-0.228-18.14-0.05C219.304,119.007,217.918,119.322,216.556,119.322z"/>
	</g>
	<g>
		<path style="fill:#82CD64;" d="M267.74,221.183v-48.074c0-6.363-5.159-11.522-11.521-11.522c-6.364,0-11.522,5.158-11.522,11.522
			v48.074H267.74z"/>
	</g>
	<path style="fill:#509B08;" d="M244.696,245.986v140.606c3.247-0.495,6.568-0.766,9.952-0.766c7.762,0,15.198,1.371,22.106,3.85
		l-6.922-49.55c-1.394-9.977-2.093-20.038-2.093-30.112v-64.029H244.696z"/>
	<g>
		<path style="fill:#9ED369;" d="M222.42,413.283c-4.951,0-8.963-4.013-8.963-8.963v-25.922c0-8.57-6.972-15.541-15.54-15.541
			c-4.951,0-8.963-4.013-8.963-8.963c0-4.95,4.012-8.963,8.963-8.963c18.453,0,33.466,15.013,33.466,33.466v25.922
			C231.382,409.27,227.37,413.283,222.42,413.283z"/>
	</g>
	<g>
		<path style="fill:#9ED369;" d="M315.566,416.697c-4.95,0-8.963-4.013-8.963-8.963v-38.784c0-7.079-5.759-12.837-12.838-12.837
			c-4.951,0-8.963-4.013-8.963-8.963c0-4.95,4.012-8.963,8.963-8.963c16.963,0,30.764,13.8,30.764,30.763v38.784
			C324.529,412.684,320.516,416.697,315.566,416.697z"/>
	</g>
	<path style="fill:#82CD64;" d="M351.752,342.615c-0.186-2.029-1.583-3.745-3.532-4.338c-7.517-2.287-15.991-0.929-22.542,4.405
		c-6.551,5.334-9.599,13.357-8.883,21.181c0.186,2.029,1.583,3.745,3.532,4.338c7.517,2.287,15.99,0.929,22.542-4.405
		C349.42,358.462,352.467,350.439,351.752,342.615z"/>
	<path style="fill:#82CD64;" d="M276.754,397.02c0-56.609-22.963-84.165-37.534-95.953c-3.33-2.694-8.118,0.526-6.952,4.647
		c9.421,33.313,4.668,91.305,4.668,91.305H276.754z"/>
	<g>
		<path style="fill:#5DB33A;" d="M276.754,397.02c0-19-2.594-34.713-6.582-47.67c-0.399,16.89-22.055,23.725-32.06,10.02
			c0.205,20.773-1.178,37.65-1.178,37.65H276.754z"/>
	</g>
	<path style="fill:#E06E53;" d="M368.751,417.969c-1.653,1.941-4.61,1.939-6.263-0.002c-8.53-10.016-21.234-16.369-35.42-16.369
		c-6.866,0-13.382,1.491-19.248,4.163c-1.612,0.734-3.511,0.375-4.702-0.936c-11.976-13.184-29.256-21.462-48.47-21.462
		c-19.241,0-36.544,8.301-48.522,21.517c-1.194,1.317-3.1,1.677-4.716,0.935c-5.898-2.706-12.458-4.216-19.372-4.216
		c-14.187,0-26.89,6.353-35.42,16.369c-1.653,1.941-4.61,1.943-6.263,0.002c-2.781-3.266-6.008-6.139-9.583-8.533v68.167
		C167.42,499.441,210.241,512,256,512c45.941,0,88.92-12.656,125.664-34.655V407.42C376.749,410.145,372.37,413.72,368.751,417.969z
		"/>
	<g>
		<path style="fill:#D3644F;" d="M198.881,504.51c-2.866-17.605,1.43-36.309,13.424-51.354
			c11.978-15.024,29.223-23.374,46.998-24.52c1.767-0.114,3.232-1.375,3.663-3.093c1.568-6.251,4.464-12.276,8.744-17.645
			c5.095-6.39,11.534-11.07,18.589-13.981c-10.258-6.674-22.5-10.556-35.651-10.556c-19.241,0-36.544,8.301-48.522,21.517
			c-1.194,1.317-3.1,1.677-4.716,0.935c-5.898-2.706-12.458-4.216-19.372-4.216c-14.187,0-26.89,6.353-35.42,16.369
			c-1.653,1.941-4.61,1.943-6.263,0.002c-2.781-3.266-6.008-6.139-9.583-8.533v68.167c20.907,12.459,43.825,21.891,68.149,27.7
			C198.931,505.041,198.924,504.776,198.881,504.51z"/>
	</g>
	<g>
		<path style="fill:#E06E53;" d="M209.206,439.487c-4.921,0-8.963-4.017-8.963-8.963c0-4.952,4.024-8.963,8.963-8.963
			c4.942,0,8.963,3.994,8.963,8.963C218.169,435.427,214.187,439.487,209.206,439.487z"/>
	</g>
	<g>
		<path style="fill:#F98F6E;" d="M363.437,471.696c-4.891,0-8.963-3.974-8.963-8.963c0-5.787,5.346-9.858,10.719-8.784
			c4.525,0.962,7.206,4.802,7.206,8.784C372.4,467.8,368.271,471.696,363.437,471.696z"/>
	</g>
	<g>
		<path style="fill:#E06E53;" d="M165.467,472.387c-6.537,0-11.95-5.345-11.95-11.95c0-7.607,6.999-13.201,14.281-11.723
			c5.735,1.165,9.62,6.164,9.62,11.723C177.418,467.156,171.907,472.387,165.467,472.387z"/>
	</g>
	<g>
		<path style="fill:#F98F6E;" d="M310.838,472.882l-7.393-8.625c-3.221-3.758-2.787-9.416,0.972-12.638
			c3.76-3.223,9.418-2.785,12.638,0.972l7.393,8.625c3.221,3.758,2.787,9.416-0.972,12.638
			C319.71,477.083,314.052,476.632,310.838,472.882z"/>
	</g>
	<g>
		<path style="fill:#F98F6E;" d="M201.879,482.184c-2.846-4.049-1.872-9.64,2.178-12.487l13.208-9.286
			c4.05-2.846,9.642-1.871,12.487,2.178c2.847,4.049,1.872,9.64-2.177,12.487l-13.209,9.285
			C210.324,487.203,204.73,486.241,201.879,482.184z"/>
	</g>
	<rect x="244.696" y="218.793" style="fill:#5DB33A;" width="23.044" height="29.657"/>
</g>
<g>
</g>
<g>
</g>
<g>
</g>
<g>
</g>
<g>
</g>
<g>
</g>
<g>
</g>
<g>
</g>
<g>
</g>
<g>
</g>
<g>
</g>
<g>
</g>
<g>
</g>
<g>
</g>
<g>
</g>
</svg>
