<?xml version="1.0" encoding="iso-8859-1"?>
<!-- Generator: Adobe Illustrator 21.0.0, SVG Export Plug-In . SVG Version: 6.00 Build 0)  -->
<svg version="1.1" id="Capa_1" xmlns="http://www.w3.org/2000/svg" xmlns:xlink="http://www.w3.org/1999/xlink" x="0px" y="0px"
	 viewBox="0 0 512 512" style="enable-background:new 0 0 512 512;" xml:space="preserve">
<g>
	<path style="fill:#31A7ED;" d="M499.071,297.867c1.271-10.111,1.93-20.412,1.93-30.868c0-135.31-109.69-245.001-245.001-245.001
		S10.999,131.689,10.999,267c0,10.455,0.659,20.757,1.93,30.868H499.071z"/>
	<path style="fill:#D0E8FE;" d="M63.034,149.575c-2.299,0-4.567-1.053-6.038-3.044c-2.461-3.332-1.756-8.028,1.575-10.489
		L232.595,7.474c13.438-9.927,31.523-9.968,45.003-0.103L453.4,136.022c3.343,2.446,4.07,7.139,1.624,10.482
		c-2.447,3.343-7.142,4.069-10.481,1.623L268.739,19.476c-8.157-5.969-19.099-5.945-27.23,0.062L67.485,148.107
		C66.145,149.098,64.582,149.575,63.034,149.575z"/>
	<g>
		<path style="fill:#A9D8FC;" d="M303.881,26.605L277.598,7.371c-13.48-9.865-31.565-9.824-45.003,0.103L58.571,136.043
			c-3.331,2.461-4.036,7.157-1.575,10.489c1.471,1.991,3.739,3.044,6.038,3.044c1.548,0,3.11-0.478,4.451-1.468L241.509,19.538
			c8.132-6.007,19.073-6.031,27.23-0.062l25.808,18.886C291.701,32.133,297.112,25.244,303.881,26.605z"/>
	</g>
	<path style="fill:#F98F6E;" d="M499.093,297.673V174.328c0-20.999-17.084-38.083-38.083-38.083H50.99
		c-20.999,0-38.083,17.084-38.083,38.083v123.345C28,418.504,131.079,512,256,512S484,418.505,499.093,297.673z"/>
	<path style="fill:#E06E53;" d="M130.347,163.748c-5.675-1.999-9.75-7.393-9.75-13.752c0-6.357,4.072-11.749,9.744-13.75H50.99
		c-20.999,0-38.083,17.084-38.083,38.083v123.345c9.542,76.399,54.268,141.857,117.44,179.676V163.748z"/>
	<path style="fill:#09A858;" d="M461.01,171.245H50.99c-1.643,0-3.083,1.44-3.083,3.083v222.017
		C68.414,429.267,96.507,456.97,129.753,477h252.495c33.246-20.03,61.338-47.733,81.845-80.655V174.328
		C464.093,172.686,462.652,171.245,461.01,171.245z"/>
	<path style="fill:#008E4A;" d="M130.347,171.245H50.99c-1.643,0-3.083,1.44-3.083,3.083v222.017
		C68.414,429.267,96.507,456.97,129.753,477h0.594V171.245z"/>
	<g>
		<path style="fill:#008E4A;" d="M461.01,163.745H50.99c-5.736,0-10.583,4.846-10.583,10.583v209.145
			c4.536,8.378,9.552,16.456,15,24.209V178.745h401.185v228.937c5.448-7.754,10.464-15.831,15-24.209V174.328
			C471.593,168.591,466.746,163.745,461.01,163.745z"/>
		<path style="fill:#008E4A;" d="M393.931,469.5H118.069c8.028,5.479,16.399,10.49,25.073,15h225.716
			C377.532,479.99,385.903,474.979,393.931,469.5z"/>
	</g>
	<path style="fill:#00783B;" d="M122.847,171.245c0-4.142,3.358-7.5,7.5-7.5H50.99c-5.737,0-10.583,4.846-10.583,10.583v209.145
		c4.535,8.378,9.552,16.456,15,24.209V178.745h74.94C126.205,178.745,122.847,175.387,122.847,171.245z"/>
	<path style="fill:#FFFFFF;" d="M111.541,295.189h41.602c4.143,0,7.5-3.358,7.5-7.5c0-4.142-3.357-7.5-7.5-7.5h-41.602
		c-8.422,0-15.273,6.852-15.273,15.274v61.851c0,8.422,6.852,15.275,15.273,15.275h41.602c4.143,0,7.5-3.358,7.5-7.5
		c0-4.143-3.357-7.5-7.5-7.5h-41.602c-0.15,0-0.273-0.123-0.273-0.275v-23.426h41.875c4.143,0,7.5-3.357,7.5-7.5
		c0-4.142-3.357-7.5-7.5-7.5h-41.875v-23.425C111.268,295.313,111.391,295.189,111.541,295.189z"/>
	<path style="fill:#FFFFFF;" d="M207.855,302.339h-24.021c-4.143,0-7.5,3.357-7.5,7.5c0,4.142,3.357,7.5,7.5,7.5h24.021
		c4.143,0,7.5-3.358,7.5-7.5C215.355,305.696,211.998,302.339,207.855,302.339z"/>
	<path style="fill:#FFFFFF;" d="M207.855,335.439h-24.021c-4.143,0-7.5,3.358-7.5,7.5c0,4.142,3.357,7.5,7.5,7.5h24.021
		c4.143,0,7.5-3.358,7.5-7.5C215.355,338.797,211.998,335.439,207.855,335.439z"/>
	<path style="fill:#FFFFFF;" d="M303.689,302.339c-6.408,0-12.235,2.524-16.55,6.625c-4.315-4.101-10.142-6.625-16.551-6.625
		c-6.408,0-12.235,2.524-16.55,6.625c-4.315-4.101-10.142-6.625-16.551-6.625c-4.143,0-7.5,3.357-7.5,7.5c0,4.142,3.357,7.5,7.5,7.5
		c4.99,0,9.051,4.06,9.051,9.05v38.7c0,4.142,3.357,7.5,7.5,7.5c4.143,0,7.5-3.358,7.5-7.5v-38.7c0-4.99,4.06-9.05,9.05-9.05
		c4.99,0,9.051,4.06,9.051,9.05v38.7c0,4.142,3.357,7.5,7.5,7.5c4.143,0,7.5-3.358,7.5-7.5v-38.7c0-4.99,4.061-9.05,9.051-9.05
		s9.05,4.06,9.05,9.05v38.7c0,4.142,3.357,7.5,7.5,7.5s7.5-3.358,7.5-7.5v-38.7C327.74,313.127,316.951,302.339,303.689,302.339z"/>
	<path style="fill:#FFFFFF;" d="M372.042,317.338c7.055,0,13.474,3.621,17.172,9.685c2.157,3.537,6.773,4.654,10.309,2.499
		c3.536-2.157,4.654-6.772,2.498-10.309c-6.443-10.566-17.65-16.874-29.979-16.874c-19.368,0-35.125,15.757-35.125,35.125
		c0,19.368,15.757,35.125,35.125,35.125c12.328,0,23.535-6.308,29.979-16.875c2.156-3.536,1.038-8.151-2.498-10.308
		c-3.537-2.157-8.152-1.038-10.309,2.498c-3.698,6.064-10.117,9.684-17.172,9.684c-11.097,0-20.125-9.028-20.125-20.125
		C351.917,326.367,360.945,317.338,372.042,317.338z"/>
	<path style="fill:#FFFFFF;" d="M406.032,274.867h-4.625l6.09-6.966c0.215-0.246,0.413-0.505,0.594-0.776
		c4.4-6.6,3.523-15.46-2.086-21.067c-5.513-5.514-14.275-6.456-20.835-2.238l-4.337,2.788c-3.484,2.24-4.493,6.88-2.253,10.365
		c2.24,3.484,6.879,4.493,10.364,2.252l4.337-2.788c0.667-0.428,1.556-0.333,2.117,0.229c0.499,0.499,0.629,1.251,0.353,1.881
		l-13.327,15.244c-2.497,2.857-3.098,6.935-1.528,10.39c1.568,3.455,5.034,5.688,8.828,5.688h16.308c4.143,0,7.5-3.358,7.5-7.5
		C413.532,278.225,410.175,274.867,406.032,274.867z"/>
	<circle style="fill:#F98F6E;" cx="256" cy="22.931" r="22.931"/>
	<path style="fill:#EF7D5E;" d="M263.606,30.649c-8.463,0-15.324-6.861-15.324-15.324c0-7.293,5.099-13.384,11.924-14.933
		C258.842,0.139,257.437,0,256,0c-12.664,0-22.931,10.266-22.931,22.93c0,12.664,10.266,22.931,22.931,22.931
		c12.664,0,22.931-10.266,22.931-22.931c0-1.437-0.139-2.842-0.392-4.206C276.99,25.549,270.899,30.649,263.606,30.649z"/>
</g>
<g>
</g>
<g>
</g>
<g>
</g>
<g>
</g>
<g>
</g>
<g>
</g>
<g>
</g>
<g>
</g>
<g>
</g>
<g>
</g>
<g>
</g>
<g>
</g>
<g>
</g>
<g>
</g>
<g>
</g>
</svg>
