<?xml version="1.0" encoding="iso-8859-1"?>
<!-- Generator: Adobe Illustrator 21.0.0, SVG Export Plug-In . SVG Version: 6.00 Build 0)  -->
<svg version="1.1" id="Capa_1" xmlns="http://www.w3.org/2000/svg" xmlns:xlink="http://www.w3.org/1999/xlink" x="0px" y="0px"
	 viewBox="0 0 512 512" style="enable-background:new 0 0 512 512;" xml:space="preserve">
<g>
	<path style="fill:#3342AE;" d="M256,21.999c-37.71,0-73.424,8.528-105.335,23.747l0,0l-50.236,31.98l0,0
		c-10.403,8.561-20.084,17.967-28.947,28.107l0,0l-51.387,94.829c-5.921,21.099-9.096,43.347-9.096,66.338
		c0,111.079,73.929,204.875,175.261,234.913l0,0l127.167,3.302c107.601-25.848,187.573-122.685,187.573-238.215
		C501.001,131.69,391.31,21.999,256,21.999z"/>
	<path style="fill:#F6D100;" d="M378.829,297.532c0-71.1-57.638-128.737-128.737-128.737c-71.1,0-128.737,57.638-128.737,128.737
		c0,30.33,28.042,80.206,28.042,80.206l36.14,66.358h0c40.687,20.11,88.422,20.11,129.11,0h0l36.14-66.358
		C350.787,377.738,378.829,327.862,378.829,297.532z"/>
	<g>
		<path style="fill:#F2BA00;" d="M206.605,394.372c0,0-21.05-53.847-21.05-86.591c0-70.19,36.179-128.217,83.178-137.638
			c-6.087-0.883-12.309-1.348-18.641-1.348c-71.1,0-128.737,57.638-128.737,128.738c0,30.33,28.042,80.206,28.042,80.206
			l36.14,66.357h0c14.365,7.1,29.609,11.681,45.11,13.768L206.605,394.372z"/>
	</g>
	<path style="fill:#F2BA00;" d="M314.46,444.185c-16.158-6.769-39.098-10.998-64.548-10.998c-25.35,0-48.21,4.195-64.357,10.918
		C226.177,464.175,273.819,464.201,314.46,444.185z"/>
	<path style="fill:#EEA200;" d="M221.976,434.964c-14.021,1.835-26.493,5.007-36.421,9.14c14.385,6.948,28.993,11.649,45.092,13.758
		L221.976,434.964z"/>
	<g>
		<path style="fill:#A9D8FC;" d="M190.927,118.625c-6.998,0-11.96-2.232-14.796-6.669c-6.068-9.493,0.687-22.76,21.258-41.753
			c0.041-0.037,0.082-0.074,0.124-0.111l6.537-5.797c3.417-3.031,8.642-2.716,11.673,0.7c3.03,3.417,2.717,8.644-0.701,11.674
			l-6.475,5.742c-10.513,9.715-15.189,16.221-16.987,19.674c0.885-0.035,2.018-0.141,3.445-0.37
			c4.513-0.724,8.752,2.345,9.477,6.852c0.725,4.509-2.344,8.752-6.854,9.476C195.221,118.431,192.986,118.625,190.927,118.625z"/>
	</g>
	<g>
		<path style="fill:#A9D8FC;" d="M287.549,28.586c-3.167,0-6.189-1.829-7.56-4.91c-1.856-4.173,0.02-9.06,4.193-10.917l6.189-2.754
			C318.438-2.167,334.432-3.2,340.778,6.728c2.459,3.848,1.334,8.962-2.514,11.421c-3.477,2.223-7.99,1.519-10.641-1.48
			c-2.568-0.472-11.666,0.267-30.597,8.477l-6.117,2.723C289.815,28.355,288.673,28.586,287.549,28.586z"/>
	</g>
	<g>
		<path style="fill:#F2BA00;" d="M286.053,362.116h-72.281c-4.568,0-8.27-3.702-8.27-8.27s3.702-8.27,8.27-8.27h72.281
			c4.568,0,8.27,3.702,8.27,8.27S290.62,362.116,286.053,362.116z"/>
	</g>
	<path style="fill:#31A7ED;" d="M71.482,105.833c-23.629,27.03-41.415,59.294-51.387,94.83
		c10.562,12.144,26.114,19.832,43.473,19.832c31.816,0,57.608-25.792,57.608-57.608C121.175,133.757,99.551,109.692,71.482,105.833z
		"/>
	<circle style="fill:#31A7ED;" cx="63.097" cy="293.184" r="20.803"/>
	<circle style="fill:#EB5793;" cx="444.669" cy="284.773" r="29.214"/>
	<path style="fill:#E7387F;" d="M453.293,296.738c-11.371,0-20.59-9.218-20.59-20.59c0-10.031,7.176-18.376,16.673-20.207
		c-1.533-0.249-3.104-0.383-4.708-0.383c-16.134,0-29.214,13.08-29.214,29.214c0,16.134,13.08,29.214,29.214,29.214
		s29.214-13.08,29.214-29.214c0-1.603-0.134-3.175-0.383-4.708C471.669,289.562,463.324,296.738,453.293,296.738z"/>
	<path style="fill:#9ED369;" d="M121.25,85.823c17.026,0,30.829-13.803,30.829-30.829c0-3.222-0.496-6.329-1.413-9.248
		c-18.078,8.622-34.935,19.388-50.236,31.98C105.914,82.753,113.223,85.823,121.25,85.823z"/>
	<path style="fill:#91D1F9;" d="M95.795,141.646H65.905c-3.538,0-6.686,2.251-7.827,5.601l-7.702,22.59l-7.297-11.992
		c-1.066-1.752-2.731-3.005-4.638-3.592c-2.741,5.277-5.295,10.667-7.654,16.16h0.578l14.069,23.12
		c1.51,2.482,4.199,3.971,7.063,3.971c0.299,0,0.601-0.016,0.902-0.049c3.19-0.349,5.891-2.514,6.927-5.552l11.497-33.718h23.973
		c4.568,0,8.27-3.702,8.27-8.269C104.065,145.348,100.363,141.646,95.795,141.646z"/>
	<g>
		<circle style="fill:#EEA200;" cx="259.225" cy="63.69" r="57.608"/>
	</g>
	<path style="fill:#ED8700;" d="M286.187,94.427c-28.535,0-51.667-23.132-51.667-51.667c0-13.871,5.477-26.455,14.372-35.736
		c-26.883,4.871-47.276,28.379-47.276,56.666c0,31.816,25.792,57.608,57.608,57.608c23.22,0,43.217-13.745,52.336-33.536
		C304.064,91.998,295.411,94.427,286.187,94.427z"/>
	<g>
		<path style="fill:#F2BA00;" d="M292.867,16.958c-11.316,10.458-26.501,22.144-43.948,33.405
			c-16.454,10.62-32.426,19.251-46.094,25.236c5.506,26.204,28.809,45.826,56.632,45.702c31.816-0.142,57.493-26.048,57.351-57.864
			C316.722,44.285,307.293,27.368,292.867,16.958z"/>
	</g>
	<path style="fill:#EEA200;" d="M286.187,94.427c-23.268,0-42.938-15.383-49.409-36.531c-12.103,7.209-23.679,13.204-33.953,17.703
		c5.506,26.204,28.809,45.826,56.632,45.702c23.124-0.103,42.993-13.822,52.076-33.522C304.042,92.005,295.4,94.427,286.187,94.427z
		"/>
	<g>
		<path style="fill:#F6D100;" d="M269.206,76.164c-18.738,11.976-36.843,21.392-51.641,27.291
			c10.49,10.987,25.27,17.843,41.66,17.843c31.816,0,57.608-25.792,57.608-57.608c0-7.227-1.343-14.138-3.773-20.512
			C301.723,53.529,286.578,65.061,269.206,76.164z"/>
	</g>
	<path style="fill:#F2BA00;" d="M255.667,84.442c-13.821,8.073-26.908,14.55-38.102,19.013c10.49,10.987,25.27,17.843,41.66,17.843
		c23.22,0,43.217-13.745,52.336-33.536C294.083,97.638,272.184,96.558,255.667,84.442z"/>
	<g>
		<path style="fill:#D0E8FE;" d="M196.307,118.15c-3.99,0.001-7.502-2.894-8.155-6.959c-0.725-4.509,2.344-8.752,6.854-9.477
			c15.309-2.459,42.687-15.223,69.747-32.518c41.006-26.208,60.118-48.345,61.488-54.681c-1.622-3.67-0.368-8.075,3.116-10.302
			c3.848-2.459,8.962-1.334,11.421,2.515c7.191,11.25-5.444,26.096-15.572,36.284c-12.616,12.69-30.923,26.938-51.546,40.119
			c-29.262,18.702-58.395,32.079-76.031,34.913C197.185,118.116,196.742,118.15,196.307,118.15z M326.839,15.63l0.003,0.005
			L326.839,15.63z"/>
	</g>
	<g>
		<path style="fill:#EF75A7;" d="M397.169,217.994c-1.428,0-2.855-0.369-4.135-1.108l-34.613-19.984
			c-2.558-1.477-4.135-4.207-4.135-7.161v-39.968c0-2.954,1.576-5.684,4.135-7.161l34.613-19.984c2.559-1.477,5.711-1.477,8.27,0
			l34.613,19.984c2.558,1.477,4.135,4.207,4.135,7.161v39.968c0,2.955-1.577,5.684-4.135,7.161l-34.613,19.984
			C400.024,217.624,398.596,217.994,397.169,217.994z M370.825,184.966l26.344,15.21l26.344-15.21v-30.419l-26.344-15.21
			l-26.344,15.21V184.966z"/>
	</g>
	<path style="fill:#31A7ED;" d="M440.051,144.557c1.428,0,2.856-0.369,4.135-1.108l17.256-9.962
		c-3.024-4.644-6.195-9.183-9.518-13.602l-11.872,6.854l-26.344-15.21v-30.42l1.116-0.644c-4.503-3.838-9.146-7.514-13.922-11.023
		c-2.314,1.523-3.733,4.101-3.733,6.893v39.969c0,2.955,1.576,5.684,4.135,7.162l34.613,19.984
		C437.196,144.188,438.624,144.557,440.051,144.557z"/>
	<g>
		<path style="fill:#EB5793;" d="M362.548,158.043c-1.403,0-2.825-0.357-4.127-1.11l-18.064-10.429
			c-3.955-2.284-5.31-7.341-3.027-11.296c2.283-3.956,7.341-5.311,11.296-3.027l18.064,10.43c3.955,2.284,5.311,7.341,3.027,11.296
			C368.186,156.56,365.405,158.043,362.548,158.043z"/>
	</g>
	<g>
		<path style="fill:#EEA200;" d="M256.94,413.184c-1.72,0-3.453-0.534-4.937-1.641c-3.661-2.73-4.416-7.911-1.686-11.572
			l19.023-25.511c1.497-2.008,2.288-4.275,2.288-6.556v-21.499c0-4.567,3.702-8.27,8.27-8.27c4.568,0,8.27,3.703,8.27,8.27v21.499
			c0,5.871-1.925,11.557-5.568,16.443l-19.023,25.511C261.953,412.034,259.462,413.184,256.94,413.184z"/>
	</g>
	<g>
		<path style="fill:#ED8700;" d="M264.786,380.566l-14.469,19.404c-2.729,3.661-1.975,8.842,1.686,11.572
			c1.484,1.107,3.217,1.641,4.937,1.641c2.522,0,5.012-1.149,6.636-3.326l14.54-19.499
			C271.383,394.345,262.974,388.342,264.786,380.566z"/>
	</g>
	<g>
		<path style="fill:#EEA200;" d="M243.244,413.184c-2.522,0-5.012-1.149-6.636-3.327l-19.023-25.511
			c-3.643-4.885-5.569-10.571-5.569-16.443v-21.499c0-4.567,3.702-8.27,8.27-8.27c4.568,0,8.269,3.703,8.269,8.27v21.499
			c0,2.282,0.791,4.548,2.288,6.556l19.024,25.511c2.73,3.661,1.975,8.842-1.686,11.572
			C246.697,412.65,244.963,413.184,243.244,413.184z"/>
	</g>
	<g>
		<path style="fill:#ED8700;" d="M249.867,399.97l-14.428-19.349c1.764,7.784-6.676,13.743-13.393,9.706l14.563,19.529
			c1.624,2.177,4.114,3.326,6.636,3.326c1.718,0,3.453-0.534,4.937-1.641C251.842,408.812,252.597,403.631,249.867,399.97z"/>
	</g>
	<path style="fill:#4AC4F4;" d="M264.721,425.725c-2.541-1.102-4.114-3.691-4.114-6.461v-18.229c0-5.807-4.707-10.515-10.514-10.515
		h0c-5.808,0-10.515,4.708-10.515,10.515v18.195c0,2.781-1.586,5.377-4.142,6.474c-3.748,1.608-6.372,5.331-6.372,9.668v22.276
		c13.922,2.03,28.068,2.034,41.991,0.011v-22.288C271.053,431.052,268.447,427.342,264.721,425.725z"/>
	<path style="fill:#31A7ED;" d="M250.262,441.924c-0.14,0-0.281,0-0.421,0c-8.475-0.015-15.719-5.16-18.959-12.463
		c-1.148,1.685-1.82,3.719-1.82,5.911v22.277c13.922,2.03,28.068,2.034,41.991,0.011v-22.288c0-2.192-0.673-4.225-1.821-5.909
		C265.991,436.768,258.742,441.914,250.262,441.924z"/>
	<path style="fill:#D0E8FE;" d="M313.083,444.001c-39.823,19.098-86.159,19.098-125.983,0l-1.564,0.095
		c-4.15,6.496-5.807,14.276-4.663,21.9l5.387,35.916C208.366,508.465,231.769,512,256,512c19.78,0,39.006-2.36,57.428-6.786
		l5.883-39.218c1.143-7.624-0.513-15.404-4.664-21.9L313.083,444.001z"/>
	<path style="fill:#A9D8FC;" d="M227.675,500.605c1.412-3.118,1.035-6.792-1.037-9.517c-14.676-19.295,2.425-34.29,2.425-34.29
		l-0.008-0.01c-14.391-2.1-28.542-6.356-41.954-12.787l-1.564,0.095c-4.15,6.497-5.807,14.276-4.663,21.9l5.387,35.916
		c12.707,3.767,25.844,6.53,39.32,8.204C225.535,506.391,226.545,503.102,227.675,500.605z"/>
	<path style="fill:#A9D8FC;" d="M183.318,482.296l2.942,19.616C208.366,508.465,231.769,512,256,512
		c19.78,0,39.006-2.36,57.428-6.786l3.438-22.918C274.466,501.688,225.718,501.688,183.318,482.296z"/>
	<path style="fill:#4AC4F4;" d="M227.675,500.605c0.754-1.666,0.982-3.487,0.729-5.241c-15.431-2.103-30.628-6.456-45.086-13.069
		l2.942,19.616c12.707,3.767,25.844,6.53,39.32,8.204C225.535,506.391,226.545,503.102,227.675,500.605z"/>
	<circle style="fill:#F9DF5F;" cx="323.376" cy="244.359" r="18.056"/>
	<circle style="fill:#F9DF5F;" cx="291.943" cy="268.598" r="9.829"/>
	<g>
		<path style="fill:#EB5793;" d="M419.085,206.427c-5.155,0-9.333-4.179-9.333-9.333c0-1.859,0.55-3.586,1.486-5.041l-14.069,8.123
			l-26.344-15.21v-30.42l17.35-10.017c-5.208-0.288-9.345-4.59-9.345-9.87c0-1.601,0.389-3.107,1.063-4.445l-21.472,12.397
			c-2.558,1.477-4.135,4.207-4.135,7.161v39.968c0,2.955,1.576,5.684,4.135,7.162l34.613,19.984
			c1.279,0.739,2.707,1.108,4.135,1.108s2.856-0.369,4.135-1.108l18.147-10.477C419.328,206.414,419.208,206.427,419.085,206.427z"
			/>
	</g>
</g>
<g>
</g>
<g>
</g>
<g>
</g>
<g>
</g>
<g>
</g>
<g>
</g>
<g>
</g>
<g>
</g>
<g>
</g>
<g>
</g>
<g>
</g>
<g>
</g>
<g>
</g>
<g>
</g>
<g>
</g>
</svg>
