<?xml version="1.0" encoding="iso-8859-1"?>
<!-- Generator: Adobe Illustrator 21.0.0, SVG Export Plug-In . SVG Version: 6.00 Build 0)  -->
<svg version="1.1" id="Capa_1" xmlns="http://www.w3.org/2000/svg" xmlns:xlink="http://www.w3.org/1999/xlink" x="0px" y="0px"
	 viewBox="0 0 512 512" style="enable-background:new 0 0 512 512;" xml:space="preserve">
<g>
	<path style="fill:#F6D100;" d="M496.537,313.696C499.455,298.577,501,282.97,501,267c0-135.31-109.69-245.001-245-245.001
		S11,131.689,11,267c0,15.97,1.546,31.578,4.464,46.696H496.537z"/>
	<path style="fill:#5766CE;" d="M409.566,457.893H102.435C144.447,491.734,197.854,512,256,512
		C314.146,512,367.554,491.734,409.566,457.893z"/>
	<g>
		<path style="fill:#3D4EC6;" d="M175.183,457.893h-72.748c19.605,15.792,41.692,28.625,65.583,37.824
			C147.872,487.888,153.53,457.893,175.183,457.893z"/>
	</g>
	<path style="fill:#D0E8FE;" d="M15.272,312.696c11.082,58.734,43.118,110.057,88.053,145.91h305.35
		c44.935-35.853,76.971-87.176,88.053-145.91H15.272z"/>
	<g>
		<path style="fill:#A9D8FC;" d="M151.271,432.946v-96.495c0-10.097,5.413-18.927,13.492-23.756H15.272
			c11.082,58.734,43.118,110.057,88.053,145.91h65.279C158.445,454.513,151.271,444.57,151.271,432.946z"/>
	</g>
	<path style="fill:#8C96DD;" d="M390.962,384.943c-33.826-21.119-83.007-33.235-134.933-33.241c-0.016,0-0.025,0-0.041,0
		c-51.925,0-101.114,12.116-134.95,33.241c-9.278,5.793-12.1,17.991-6.306,27.271c5.781,9.258,18.014,12.084,27.27,6.307
		c58.12-36.289,169.754-36.364,227.994,0c9.256,5.778,21.46,3,27.27-6.306C403.06,402.935,400.242,390.737,390.962,384.943z"/>
	<g>
		<path style="fill:#5766CE;" d="M303.493,355.156c-15.297-2.269-31.247-3.453-47.463-3.455c-0.016,0-0.025,0-0.041,0
			c-51.925,0-101.114,12.116-134.95,33.241c-9.278,5.793-12.1,17.991-6.306,27.27c5.781,9.258,18.014,12.084,27.27,6.307
			c41.391-25.844,104.743-31.409,153.964-24.51C280.543,383.265,285.243,359.316,303.493,355.156z"/>
	</g>
	<path style="fill:#3D4EC6;" d="M237.089,317.362v40.959c0,10.428,8.483,18.911,18.911,18.911c10.428,0,18.911-8.484,18.911-18.911
		v-40.959H237.089z"/>
	<path style="fill:#3342AE;" d="M237.089,317.362v39.578c0-10.428,8.483-18.911,18.911-18.911c10.428,0,18.911,8.483,18.911,18.911
		v-39.578H237.089z"/>
	<g>
		<path style="fill:#5766CE;" d="M457.961,319.362H53.997c-11.322,0-20.586-9.264-20.586-20.586V20.586
			C33.411,9.264,42.674,0,53.997,0h403.964c11.322,0,20.586,9.264,20.586,20.586v278.19
			C478.547,310.099,469.283,319.362,457.961,319.362z"/>
	</g>
	<path style="fill:#3D4EC6;" d="M111.721,296.587V21.986c-6.32-0.142-11.402-5.299-11.402-11.653c0-4.49,2.54-8.382,6.258-10.332
		H53.997C42.674,0,33.411,9.264,33.411,20.586v278.19c0,11.322,9.264,20.586,20.586,20.586h54.465
		c-4.72-1.494-8.143-5.908-8.143-11.122C100.319,301.886,105.401,296.729,111.721,296.587z"/>
	<path style="fill:#D0E8FE;" d="M54.291,55.232v239.346c0,1.746,1.416,3.162,3.162,3.162h397.051c1.746,0,3.162-1.416,3.162-3.162
		V55.232H54.291z"/>
	<path style="fill:#A9D8FC;" d="M106.484,55.232H54.291v239.346c0,1.746,1.415,3.162,3.162,3.162h49.031V55.232z"/>
	<path style="fill:#3D4EC6;" d="M454.504,20.622H57.453c-1.746,0-3.162,1.416-3.162,3.162v32.448h403.375V23.784
		C457.666,22.038,456.25,20.622,454.504,20.622z"/>
	<path style="fill:#3342AE;" d="M106.484,20.622H57.453c-1.746,0-3.162,1.416-3.162,3.162v32.448h52.193V20.622z"/>
	<circle style="fill:#EB5793;" cx="80.166" cy="38.612" r="8.75"/>
	<circle style="fill:#F6D100;" cx="106.416" cy="38.612" r="8.75"/>
	<circle style="fill:#9ED369;" cx="132.666" cy="38.612" r="8.75"/>
	<path style="fill:#8C96DD;" d="M438.166,47.362h-56.5c-4.832,0-8.75-3.917-8.75-8.75l0,0c0-4.833,3.918-8.75,8.75-8.75h56.5
		c4.833,0,8.75,3.917,8.75,8.75l0,0C446.916,43.445,442.999,47.362,438.166,47.362z"/>
	<path style="fill:#5766CE;" d="M407.249,38.612c0-4.833,3.918-8.75,8.75-8.75h-34.333c-4.832,0-8.75,3.917-8.75,8.75
		c0,4.833,3.918,8.75,8.75,8.75h34.333C411.167,47.362,407.249,43.445,407.249,38.612z"/>
	<g>
		<path style="fill:#F6D100;" d="M381.282,144.839h-104.46c-4.559,0-8.255-3.696-8.255-8.255c0-4.56,3.696-8.255,8.255-8.255h104.46
			c4.559,0,8.255,3.696,8.255,8.255C389.538,141.143,385.841,144.839,381.282,144.839z"/>
	</g>
	<g>
		<path style="fill:#8C96DD;" d="M352.025,105.213h-50.127c-4.559,0-8.255-3.695-8.255-8.255c0-4.56,3.696-8.255,8.255-8.255h50.127
			c4.559,0,8.255,3.696,8.255,8.255C360.28,101.518,356.584,105.213,352.025,105.213z"/>
	</g>
	<g>
		<path style="fill:#F6D100;" d="M411.06,105.213h-33.24c-4.559,0-8.255-3.695-8.255-8.255c0-4.56,3.696-8.255,8.255-8.255h33.24
			c4.559,0,8.255,3.696,8.255,8.255C419.315,101.518,415.619,105.213,411.06,105.213z"/>
	</g>
	<g>
		<path style="fill:#91D1F9;" d="M272.962,105.213H150.947c-4.559,0-8.255-3.695-8.255-8.255c0-4.56,3.696-8.255,8.255-8.255
			h122.015c4.559,0,8.255,3.696,8.255,8.255C281.217,101.518,277.521,105.213,272.962,105.213z"/>
	</g>
	<g>
		<path style="fill:#EB5793;" d="M251.867,144.839h-62.572c-4.559,0-8.255-3.696-8.255-8.255c0-4.56,3.696-8.255,8.255-8.255h62.572
			c4.559,0,8.255,3.696,8.255,8.255C260.122,141.143,256.426,144.839,251.867,144.839z"/>
	</g>
	<g>
		<path style="fill:#F6D100;" d="M163.135,144.839h-13.412c-4.559,0-8.255-3.696-8.255-8.255c0-4.56,3.696-8.255,8.255-8.255h13.412
			c4.559,0,8.255,3.696,8.255,8.255C171.391,141.143,167.695,144.839,163.135,144.839z"/>
	</g>
	<g>
		<path style="fill:#F6D100;" d="M114.308,105.213h-13.412c-4.559,0-8.255-3.695-8.255-8.255c0-4.56,3.696-8.255,8.255-8.255h13.412
			c4.559,0,8.255,3.696,8.255,8.255C122.564,101.518,118.868,105.213,114.308,105.213z"/>
	</g>
	<g>
		<path style="fill:#8C96DD;" d="M114.308,144.839h-13.412c-4.559,0-8.255-3.696-8.255-8.255c0-4.56,3.696-8.255,8.255-8.255h13.412
			c4.559,0,8.255,3.696,8.255,8.255C122.564,141.143,118.868,144.839,114.308,144.839z"/>
	</g>
	<g>
		<path style="fill:#F6D100;" d="M114.308,184.464h-13.412c-4.559,0-8.255-3.695-8.255-8.255c0-4.56,3.696-8.255,8.255-8.255h13.412
			c4.559,0,8.255,3.696,8.255,8.255C122.564,180.769,118.868,184.464,114.308,184.464z"/>
	</g>
	<g>
		<path style="fill:#91D1F9;" d="M114.308,224.09h-13.412c-4.559,0-8.255-3.696-8.255-8.255c0-4.56,3.696-8.255,8.255-8.255h13.412
			c4.559,0,8.255,3.696,8.255,8.255C122.564,220.395,118.868,224.09,114.308,224.09z"/>
	</g>
	<g>
		<path style="fill:#F6D100;" d="M114.308,264.266h-13.412c-4.559,0-8.255-3.695-8.255-8.255c0-4.56,3.696-8.255,8.255-8.255h13.412
			c4.559,0,8.255,3.696,8.255,8.255C122.564,260.571,118.868,264.266,114.308,264.266z"/>
	</g>
	<g>
		<path style="fill:#91D1F9;" d="M406.478,143.452c-3.45-2.361-4.494-6.576-3.038-10.028c0.764-1.909,2.349-3.58,4.458-4.469
			c4.29-1.675,8.981,0.207,10.787,4.469c1.452,3.441,0.382,7.691-3.038,10.028c-0.944,0.62-1.987,1.036-2.972,1.222
			C410.619,145.092,408.374,144.698,406.478,143.452z"/>
	</g>
	<g>
		<path style="fill:#8C96DD;" d="M288.027,224.09H179.501c-4.559,0-8.255-3.696-8.255-8.255c0-4.56,3.696-8.255,8.255-8.255h108.526
			c4.559,0,8.255,3.696,8.255,8.255C296.282,220.395,292.586,224.09,288.027,224.09z"/>
	</g>
	<g>
		<path style="fill:#8C96DD;" d="M262.951,184.464h-54.192c-4.559,0-8.255-3.695-8.255-8.255c0-4.56,3.696-8.255,8.255-8.255h54.192
			c4.559,0,8.255,3.696,8.255,8.255C271.206,180.769,267.51,184.464,262.951,184.464z"/>
	</g>
	<g>
		<path style="fill:#91D1F9;" d="M182.963,184.464h-33.24c-4.559,0-8.255-3.695-8.255-8.255c0-4.56,3.696-8.255,8.255-8.255h33.24
			c4.559,0,8.255,3.696,8.255,8.255C191.218,180.769,187.522,184.464,182.963,184.464z"/>
	</g>
	<g>
		<path style="fill:#F6D100;" d="M409.836,184.464H291.887c-4.559,0-8.255-3.695-8.255-8.255c0-4.56,3.696-8.255,8.255-8.255
			h117.949c4.559,0,8.255,3.696,8.255,8.255C418.091,180.769,414.395,184.464,409.836,184.464z"/>
	</g>
	<g>
		<path style="fill:#F6D100;" d="M371.487,224.09h-58.506c-4.559,0-8.255-3.696-8.255-8.255c0-4.56,3.696-8.255,8.255-8.255h58.506
			c4.559,0,8.255,3.696,8.255,8.255C379.743,220.395,376.047,224.09,371.487,224.09z"/>
	</g>
	<g>
		<path style="fill:#EB5793;" d="M411.06,224.09h-13.412c-4.559,0-8.255-3.696-8.255-8.255c0-4.56,3.696-8.255,8.255-8.255h13.412
			c4.559,0,8.255,3.696,8.255,8.255C419.315,220.395,415.619,224.09,411.06,224.09z"/>
	</g>
	<g>
		<path style="fill:#F6D100;" d="M145.141,222.704c-3.415-2.337-4.509-6.541-3.038-10.028c0.745-1.858,2.295-3.557,4.458-4.469
			c2.841-1.109,5.606-0.651,7.749,0.759c1.801,1.231,3.035,3.004,3.511,5.251c0.713,3.868-1.212,7.669-4.942,9.246
			c-0.495,0.198-1.012,0.362-1.541,0.462C149.299,224.349,147.053,223.96,145.141,222.704z"/>
	</g>
	<g>
		<path style="fill:#91D1F9;" d="M381.282,264.266h-104.46c-4.559,0-8.255-3.695-8.255-8.255c0-4.56,3.696-8.255,8.255-8.255h104.46
			c4.559,0,8.255,3.696,8.255,8.255C389.538,260.571,385.841,264.266,381.282,264.266z"/>
	</g>
	<g>
		<path style="fill:#F6D100;" d="M251.867,264.266h-62.572c-4.559,0-8.255-3.695-8.255-8.255c0-4.56,3.696-8.255,8.255-8.255h62.572
			c4.559,0,8.255,3.696,8.255,8.255C260.122,260.571,256.426,264.266,251.867,264.266z"/>
	</g>
	<g>
		<path style="fill:#EB5793;" d="M163.135,264.266h-13.412c-4.559,0-8.255-3.695-8.255-8.255c0-4.56,3.696-8.255,8.255-8.255h13.412
			c4.559,0,8.255,3.696,8.255,8.255C171.391,260.571,167.695,264.266,163.135,264.266z"/>
	</g>
	<g>
		<path style="fill:#F6D100;" d="M403.44,252.852c1.861-4.651,7.739-6.646,12.207-3.71c5.59,3.82,4.499,12.116-1.431,14.486
			c-0.496,0.21-1.013,0.374-1.542,0.474C406.288,265.401,400.867,258.953,403.44,252.852z"/>
	</g>
	<path style="fill:#8C96DD;" d="M185.509,484.368h-19.198c-4.443,0-8.287,2.662-10.04,6.465
		c12.883,5.749,26.351,10.424,40.295,13.898v-9.307C196.566,489.344,191.59,484.368,185.509,484.368z"/>
	<path style="fill:#8C96DD;" d="M238.903,484.368h-19.198c-6.081,0-11.057,4.975-11.057,11.056v11.988
		c13.412,2.627,27.213,4.164,41.312,4.506v-16.494C249.959,489.344,244.984,484.368,238.903,484.368z"/>
	<path style="fill:#8C96DD;" d="M292.296,484.368h-19.198c-6.081,0-11.057,4.975-11.057,11.056v16.494
		c14.099-0.341,27.9-1.879,41.312-4.506v-11.988C303.353,489.344,298.377,484.368,292.296,484.368z"/>
	<path style="fill:#8C96DD;" d="M315.434,495.425v9.307c13.944-3.475,27.411-8.149,40.295-13.898
		c-1.753-3.803-5.596-6.465-10.04-6.465h-19.198C320.41,484.368,315.434,489.344,315.434,495.425z"/>
</g>
<g>
</g>
<g>
</g>
<g>
</g>
<g>
</g>
<g>
</g>
<g>
</g>
<g>
</g>
<g>
</g>
<g>
</g>
<g>
</g>
<g>
</g>
<g>
</g>
<g>
</g>
<g>
</g>
<g>
</g>
</svg>
