<?xml version="1.0" encoding="iso-8859-1"?>
<!-- Generator: Adobe Illustrator 21.0.0, SVG Export Plug-In . SVG Version: 6.00 Build 0)  -->
<svg version="1.1" id="Capa_1" xmlns="http://www.w3.org/2000/svg" xmlns:xlink="http://www.w3.org/1999/xlink" x="0px" y="0px"
	 viewBox="0 0 512 512" style="enable-background:new 0 0 512 512;" xml:space="preserve">
<g>
	<path style="fill:#3342AE;" d="M256,21.999c-135.31,0-245.001,109.691-245.001,245.001c0,119.402,85.421,218.836,198.482,240.571
		h93.038c113.061-21.734,198.482-121.168,198.482-240.571C501.001,131.689,391.31,21.999,256,21.999z"/>
	<g>
		<path style="fill:#91D1F9;" d="M359.19,405.468l-25.643-44.415c-2.225-3.854-0.904-8.781,2.949-11.005
			c3.852-2.226,8.781-0.905,11.005,2.949l25.643,44.415c2.225,3.854,0.904,8.781-2.949,11.005
			C366.368,410.628,361.429,409.347,359.19,405.468z"/>
	</g>
	<g>
		<path style="fill:#4AC4F4;" d="M165.005,69.733l-25.831-44.74c-2.225-3.853-0.904-8.78,2.949-11.005
			c3.851-2.223,8.78-0.905,11.005,2.949l25.832,44.74c2.225,3.853,0.904,8.78-2.949,11.006
			C172.169,74.899,167.238,73.6,165.005,69.733z"/>
	</g>
	<g>
		<path style="fill:#31A7ED;" d="M295.638,68.84c-44.624-29.187-93.31-29.535-127.565-9.817
			c14.606-8.376,40.781,8.863,67.002,35.084c81.412,81.412,137.98,236.601,112.278,268.227
			C437.383,304.542,401.747,138.241,295.638,68.84z"/>
	</g>
	<path style="fill:#1296D8;" d="M295.638,68.84c-44.624-29.187-93.31-29.535-127.565-9.817c14.606-8.376,40.781,8.863,67.002,35.084
		c14.38,14.379,27.979,31.067,40.492,48.962c3.595-0.864,6.636-3.498,7.863-7.17c9.176-27.454,28.969-30.831,41.224-30.005
		c3.85,0.26,7.452-1.533,9.623-4.494C322.741,89.145,309.827,78.12,295.638,68.84z"/>
	<g>
		<path style="fill:#91D1F9;" d="M256.219,468.025c-8.009,0-14.502-6.493-14.502-14.502v-36.774c0-8.009,6.493-14.502,14.502-14.502
			c8.01,0,14.502,6.492,14.502,14.502v36.774C270.721,461.532,264.228,468.025,256.219,468.025z"/>
	</g>
	<path style="fill:#EF7D5E;" d="M302.956,491.299c-9.315-5.774-19.432-14.779-22.965-27.822c-1.585-5.849-6.827-9.955-12.888-9.955
		h-7.036h-7.699h-7.036c-6.061,0-11.304,4.105-12.888,9.955c-3.533,13.042-13.649,22.048-22.965,27.822H302.956z"/>
	<path style="fill:#E06E53;" d="M268.513,453.606c-0.465-0.05-0.934-0.084-1.41-0.084h-7.036h-7.699h-7.036
		c-6.061,0-11.304,4.105-12.888,9.955c-3.533,13.042-13.649,22.048-22.965,27.822h38.937c5.435-5.774,11.338-14.78,13.399-27.822
		C262.668,458.088,265.334,454.187,268.513,453.606z"/>
	<path style="fill:#E06E53;" d="M209.48,507.57c15.063,2.896,30.611,4.43,46.52,4.43c16.062,0,31.757-1.563,46.956-4.514v-16.187
		H209.48V507.57z"/>
	<g>
		<path style="fill:#D0E8FE;" d="M256.839,431.32c-19.092,0-38.305-2.51-57.239-7.583
			c-56.703-15.193-104.094-51.558-133.445-102.396c-29.351-50.838-37.149-110.063-21.955-166.765
			C59.393,97.873,95.758,50.481,146.596,21.13c15.087-8.711,31.177-15.619,47.823-20.533c7.682-2.267,15.748,2.122,18.014,9.803
			c2.268,7.682-2.121,15.747-9.802,18.014c-14.453,4.266-28.426,10.266-41.533,17.834c-44.129,25.478-75.694,66.615-88.883,115.834
			c-13.188,49.219-6.42,100.628,19.058,144.757c25.477,44.129,66.615,75.694,115.834,88.883
			c49.218,13.187,100.627,6.42,144.757-19.058c13.108-7.567,25.29-16.669,36.211-27.052c5.802-5.518,14.983-5.287,20.501,0.517
			c5.519,5.804,5.287,14.983-0.517,20.502c-12.577,11.958-26.605,22.439-41.693,31.15
			C332.504,421.332,294.918,431.32,256.839,431.32z"/>
	</g>
	<path style="fill:#1296D8;" d="M343.087,58.387c-56.221-31.901-122.67-29.52-175.014,0.635h0
		c34.255-19.717,80.793-16.147,125.417,13.04c109.835,71.838,138.183,241.336,51.116,291.954
		C462.101,295.99,461.124,125.353,343.087,58.387z"/>
	<path style="fill:#0D86C9;" d="M336.141,97.267c5.259-24.713,28.95-23.555,29.79-23.506c-7.059-5.572-14.66-10.73-22.844-15.373
		c-56.222-31.901-122.67-29.52-175.014,0.635h0.001c34.255-19.717,80.793-16.147,125.417,13.04
		c14.058,9.195,26.771,19.997,38.089,31.938C333.844,102.461,335.538,100.099,336.141,97.267z"/>
	<path style="fill:#1296D8;" d="M344.26,364.212c-33.975,19.55-77.882,15.13-122.168-13.403
		c-110.668-71.302-141.731-240.8-54.353-291.597c-118.903,68.847-115.703,241.322,3.754,306.884c0.013-0.003,0.027-0.007,0.04-0.009
		C226.664,396.32,291.993,394.318,344.26,364.212z"/>
	<path style="fill:#0D86C9;" d="M167.738,59.211C97.315,99.987,69.732,177.113,83.759,246.85
		c10.169-23.271,26.659-22.143,36.477-18.828c2.771,0.935,5.714,0.673,8.221-0.543C105.987,159.735,116.452,89.027,167.738,59.211z"
		/>
	<path style="fill:#31A7ED;" d="M277.587,329.446C194.786,245.184,134.055,92.959,167.886,59.128
		c-0.04,0.04-0.099,0.055-0.148,0.083c-89.501,52.031-55.999,222.957,52.205,292.672c73.015,47.043,124.434,12.302,124.326,12.324
		C329.714,372.552,308.194,360.593,277.587,329.446z"/>
	<path style="fill:#1296D8;" d="M167.886,59.128c-0.04,0.04-0.099,0.055-0.148,0.083c-52.228,30.363-62.554,101.21-40.609,168.808
		c2.36-0.786,4.455-2.363,5.84-4.58c15.507-24.818,34.558-25.426,45.745-22.955c3.69,0.815,7.4-0.342,9.982-2.814
		C160.027,136.04,148.623,78.391,167.886,59.128z"/>
	<path style="fill:#4AC4F4;" d="M349.551,284.939C318.066,171.882,209.688,35.159,168.073,59.022l-0.001,0
		c-0.062,0.036-0.124,0.069-0.186,0.105C126.541,83.49,191.28,245.988,273.29,329.446
		C335.567,392.822,374.321,373.887,349.551,284.939z"/>
	<path style="fill:#31A7ED;" d="M278.583,141.853c-40.719-57.297-86.617-96.532-110.51-82.831l-0.001,0
		c-0.062,0.036-0.124,0.069-0.186,0.105c-24.097,14.199-12.151,75.323,18.24,140.372c2.397-1.242,4.342-3.349,5.321-6.052
		c18.904-52.194,61.12-52.802,80.024-50.173C274.008,143.628,276.497,143.078,278.583,141.853z"/>
	<path style="fill:#9ED369;" d="M253.426,35.438l27.682,15.227c0,0,20.191,10.777,15.763,27.302
		c-4.428,16.525-30.365,17.675-26.332,24.66c4.033,6.984-24.2,18.205-18.701,27.729c5.499,9.524-12.495,32.611,4.531,37.173
		c17.025,4.562,12.253-25.699,23.269-22.747c11.017,2.952,25.385,23.439,16.496,28.572c-8.889,5.132-4.959,20.641-26.106,24.385
		c-21.147,3.743-36.124-10.467-39.613,2.553c-3.489,13.02-28.883,38.687-4.56,63.586c24.324,24.899,40.635,12.095,55.238,3.664
		c14.603-8.431,23.794,13.353,30.392,24.781c6.598,11.429,43.01,29.772,45.827,19.257c2.818-10.516-7.973-34.339-3.68-50.363
		c4.294-16.024,12.92-25.056,1.602-34.395c-5.998-4.949-4.173-22.111-16.691-25.466c-12.519-3.354-26.478-3.338-24.599-10.348
		c1.878-7.011,39.847-6.497,43.738-21.02c3.891-14.522,28.631,17.333,37.52,12.201c8.889-5.132-4.675-28.624,2.944-33.023
		c5.494-3.172,10.356-11.245,18.629-10.079c-14.645-32.494-39.248-60.866-72.472-80.048C315.645,42.49,284.27,34.92,253.426,35.438z
		"/>
	<path style="fill:#82CD64;" d="M365.948,73.761c-6.744-5.356-13.96-10.289-21.643-14.724
		C315.645,42.49,284.27,34.92,253.426,35.438l27.682,15.227c0,0,20.191,10.777,15.763,27.302
		c-4.428,16.525-30.365,17.675-26.332,24.66c4.033,6.984-24.2,18.205-18.701,27.729c1.786,3.093,1.091,7.619-0.075,12.473
		c7.671-0.743,14.557-0.27,19.709,0.447c5.234,0.728,10.284-2.365,11.959-7.376c9.176-27.454,28.969-30.831,41.224-30.005
		c5.416,0.365,10.357-3.318,11.487-8.627C341.44,72.368,365.45,73.73,365.948,73.761z"/>
	<path style="fill:#82CD64;" d="M377.696,174.801c6.821,4.885,13.654,9.611,17.507,7.387c8.889-5.132-4.675-28.625,2.944-33.023
		c5.494-3.172,10.356-11.245,18.629-10.079C388.218,75.716,324.234,34.353,253.452,35.452l27.656,15.213
		c0,0,17.568,9.384,16.327,24.062C334.099,99.941,361.292,136.129,377.696,174.801z"/>
	<path style="fill:#5DB33A;" d="M253.452,35.452l27.656,15.213c0,0,17.568,9.384,16.327,24.062
		c12.498,8.595,23.893,18.467,34.138,29.276c2.269-1.539,3.965-3.902,4.568-6.737c5.177-24.327,28.227-23.584,29.748-23.508
		C334.719,48.98,295.273,34.803,253.452,35.452z"/>
	<path style="fill:#B9E746;" d="M355.76,313.744c-1.215-8.596-3.256-18.196-6.21-28.805
		c-10.439-37.484-29.334-77.565-51.442-113.537c-0.45,0.778-1.094,1.443-1.975,1.951c-8.889,5.132-4.959,20.641-26.106,24.384
		c-21.147,3.743-36.124-10.467-39.613,2.553c-3.489,13.02-28.883,38.686-4.56,63.586c24.324,24.899,40.635,12.095,55.238,3.664
		c14.603-8.431,23.794,13.353,30.392,24.781C317.486,302.715,348.138,318.821,355.76,313.744z"/>
	<path style="fill:#9ED369;" d="M251.837,130.355c5.499,9.524-12.495,32.611,4.531,37.173c17.025,4.562,12.253-25.699,23.269-22.747
		c0.431,0.115,0.867,0.266,1.306,0.433c-7.072-10.122-14.314-19.722-21.589-28.599C253.985,121.166,249.29,125.942,251.837,130.355z
		"/>
	<path style="fill:#9ED369;" d="M376.175,265.968c0,0-5.585,8.036-1.809,14.578c3.776,6.541-0.732,16.963,6.853,22.809
		c7.585,5.846,5.732-11.429,11.708-18.789C398.903,277.206,384.423,253.688,376.175,265.968z"/>
	<path style="fill:#82CD64;" d="M139.525,79.567c2.206,4.722,5.059,9.142,9.179,12.553c15.813,13.093,33.653,6.603,42.701,1.379
		c9.048-5.224,22.279,9.995,33.707,3.396c11.429-6.599-6.235-21.797-3.82-30.811c2.415-9.014,1.919-13.172-9.348-16.191
		c-3.699-0.991-6.234-3.545-7.983-6.52C180.435,50.675,158.395,62.886,139.525,79.567z"/>
	<path style="fill:#9ED369;" d="M191.405,93.499c9.048-5.224,22.279,9.995,33.707,3.396c6.035-3.484,3.957-9.367,1.007-15.471
		c-22.89-20.334-43.722-30.026-57.501-22.676c-0.407,0.233-0.813,0.467-1.218,0.703c-9.348,5.886-13.071,19.075-12.236,36.926
		C169.154,103.481,183.573,98.021,191.405,93.499z"/>
	<path style="fill:#9ED369;" d="M239.431,387.015c2.254-9.548,1.912-21.326-8.293-30.527
		c-20.607-18.579-18.531-50.677-35.557-55.239c-17.025-4.563-23.324-15.106-29.083-16.649c-5.759-1.543-9.265,12.545-21.444,3.915
		c-12.179-8.63-3.696-23.263-3.696-23.263c6.971-6.988-0.464-17.299,4.434-35.576c4.897-18.277,27.302-15.763,37.46-21.628
		c10.159-5.865,5.197-17.392-12.83-22.223c-18.027-4.83-14.785-34.956-31.184-39.351c-16.4-4.395-7.413-20.905-22.937-25.065
		c-3.448-0.924-6.13-2.794-8.234-5.13c-1.521,2.367-2.997,4.778-4.419,7.24c-48.649,84.262-19.778,192.008,64.484,240.657
		C190.739,377.23,215.037,384.695,239.431,387.015z"/>
	<path style="fill:#82CD64;" d="M178.715,200.484c3.413,0.753,6.841-0.181,9.38-2.28c-1.469-4.778-7.481-9.648-17.672-12.378
		c-18.027-4.83-14.785-34.956-31.184-39.35c-16.4-4.395-7.413-20.906-22.937-25.065c-3.448-0.924-6.13-2.794-8.234-5.129
		c-1.521,2.367-2.997,4.778-4.419,7.24c-22.453,38.889-28.381,82.778-19.985,123.553c10.161-23.5,26.723-22.378,36.572-19.052
		c4.772,1.611,10.066-0.312,12.735-4.583C148.478,198.621,167.528,198.013,178.715,200.484z"/>
	<path style="fill:#82CD64;" d="M157.187,289.876c-2.958,1.808-6.673,2.509-12.133-1.361c-12.179-8.63-3.696-23.264-3.696-23.264
		c0.275-0.276,0.521-0.559,0.753-0.846c-23.896-46.65-31.655-98.869-20.764-140.7c-1.323-0.947-2.957-1.736-5.046-2.296
		c-3.448-0.924-6.13-2.794-8.234-5.13C36.84,227.162,108.28,374.493,239.437,386.985c1.932-8.206,1.924-18.049-4.593-26.492
		c-4.976-2.564-9.95-5.421-14.901-8.611C194.591,335.548,173.544,313.996,157.187,289.876z"/>
	<path style="fill:#5DB33A;" d="M121.347,123.706c-1.323-0.947-2.957-1.736-5.046-2.296c-3.448-0.924-6.13-2.794-8.234-5.129
		c-26.639,41.47-33.317,88.039-24.383,130.745c10.163-23.451,26.709-22.327,36.552-19.004c2.274,0.768,4.665,0.725,6.836,0.015
		C115.483,191.895,113.223,154.91,121.347,123.706z"/>
	<g>
		<path style="fill:#91D1F9;" d="M102.026,323.44c-3.837-5.314-7.431-10.848-10.753-16.602
			c-25.478-44.128-32.246-95.537-19.058-144.757c13.188-49.219,44.754-90.356,88.883-115.834
			c13.107-7.568,27.08-13.568,41.532-17.833c7.681-2.268,12.07-10.333,9.802-18.014c-2.266-7.681-10.332-12.07-18.014-9.803
			c-16.645,4.914-32.735,11.822-47.823,20.533C95.758,50.481,59.393,97.873,44.199,154.575
			c-15.193,56.703-7.396,115.928,21.955,166.765c3.71,6.427,7.711,12.621,11.981,18.571
			C76.151,326.476,90.46,316.929,102.026,323.44z"/>
	</g>
	<path style="fill:#D3644F;" d="M248.417,491.299H209.48v16.271c12.66,2.434,25.666,3.892,38.937,4.299V491.299z"/>
</g>
<g>
</g>
<g>
</g>
<g>
</g>
<g>
</g>
<g>
</g>
<g>
</g>
<g>
</g>
<g>
</g>
<g>
</g>
<g>
</g>
<g>
</g>
<g>
</g>
<g>
</g>
<g>
</g>
<g>
</g>
</svg>
