<?xml version="1.0" encoding="iso-8859-1"?>
<!-- Generator: Adobe Illustrator 21.0.0, SVG Export Plug-In . SVG Version: 6.00 Build 0)  -->
<svg version="1.1" id="Capa_1" xmlns="http://www.w3.org/2000/svg" xmlns:xlink="http://www.w3.org/1999/xlink" x="0px" y="0px"
	 viewBox="0 0 512 512" style="enable-background:new 0 0 512 512;" xml:space="preserve">
<g>
	<path style="fill:#31A7ED;" d="M435.43,433.799c40.678-43.738,65.571-102.358,65.571-166.8
		c0-135.31-109.691-245.001-245.001-245.001s-245,109.69-245,245.001c0,64.442,24.893,123.061,65.571,166.8H435.43z"/>
	<path style="fill:#F9DF5F;" d="M379.921,14.052H132.079c-23.313,0-42.387,19.074-42.387,42.387c0,6.7,0,233.713,0,390.448
		C133.378,487.295,191.799,512,256,512c64.201,0,122.622-24.705,166.308-65.113c0-71.841,0-377.667,0-390.448
		C422.308,33.126,403.234,14.052,379.921,14.052z"/>
	<path style="fill:#F6D100;" d="M154.496,56.439c0-23.313,19.074-42.386,42.387-42.386h-64.804
		c-23.313,0-42.387,19.074-42.387,42.386c0,6.7,0,233.713,0,390.448c19.047,17.618,40.897,32.248,64.804,43.15
		C154.496,301.849,154.496,61.397,154.496,56.439z"/>
	<path style="fill:#5766CE;" d="M436.36,432.799V56.44C436.36,25.319,411.043,0,379.921,0H132.079
		C100.958,0,75.64,25.319,75.64,56.44v376.36c8.669,9.426,18.066,18.17,28.105,26.144V56.44c0-15.649,12.686-28.335,28.335-28.335
		h45.893c1.359,0,2.46,1.101,2.46,2.46v0c0,11.372,9.304,20.676,20.676,20.676h108.199c11.372,0,20.676-9.304,20.676-20.676v0
		c0-1.359,1.102-2.46,2.46-2.46h47.478c15.649,0,28.335,12.686,28.335,28.334v402.504
		C418.295,450.969,427.691,442.225,436.36,432.799z"/>
	<g>
		<path style="fill:#3D4EC6;" d="M157.058,13.998c0-6.01,3.305-11.241,8.191-13.998h-33.171C100.958,0,75.64,25.318,75.64,56.439
			v376.36c8.669,9.426,18.066,18.17,28.105,26.144V56.439c0-15.649,12.686-28.335,28.335-28.335h33.349
			C160.442,25.376,157.058,20.083,157.058,13.998z"/>
	</g>
	<rect x="103.744" y="280.224" style="fill:#E7387F;" width="50.752" height="50.752"/>
	<rect x="154.496" y="328.782" style="fill:#F2BA00;" width="50.752" height="50.752"/>
	
		<rect x="256" y="305.6" transform="matrix(6.123234e-17 -1 1 6.123234e-17 -49.5993 612.3518)" style="fill:#EB5793;" width="50.752" height="50.752"/>
	
		<rect x="256" y="254.848" transform="matrix(6.123234e-17 -1 1 6.123234e-17 1.1526 561.5999)" style="fill:#F2BA00;" width="50.752" height="50.752"/>
	<rect x="154.496" y="178.72" style="fill:#F2BA00;" width="50.752" height="50.752"/>
	
		<rect x="256" y="204.096" transform="matrix(6.123234e-17 -1 1 6.123234e-17 51.9046 510.8479)" style="fill:#EB5793;" width="50.752" height="50.752"/>
	<rect x="357.504" y="328.782" style="fill:#F2BA00;" width="50.752" height="50.752"/>
	<rect x="103.744" y="379.534" style="fill:#EEA200;" width="50.752" height="50.752"/>
	<rect x="103.744" y="229.472" style="fill:#EEA200;" width="50.752" height="50.752"/>
	<rect x="154.496" y="229.472" style="fill:#EB5793;" width="50.752" height="50.752"/>
	<rect x="154.496" y="379.534" style="fill:#EB5793;" width="50.752" height="50.752"/>
	<rect x="205.248" y="379.534" style="fill:#F2BA00;" width="50.752" height="50.752"/>
	
		<rect x="306.752" y="254.848" transform="matrix(6.123234e-17 -1 1 6.123234e-17 51.9046 612.3518)" style="fill:#EB5793;" width="50.752" height="50.752"/>
	<rect x="306.752" y="379.534" style="fill:#F2BA00;" width="50.752" height="50.752"/>
	<rect x="357.504" y="379.534" style="fill:#EB5793;" width="50.752" height="50.752"/>
	<path style="fill:#E7387F;" d="M103.744,458.943c10.347,8.219,21.376,15.612,32.984,22.095h17.768v-50.752h-50.752V458.943z"/>
	<rect x="154.496" y="430.286" style="fill:#F2BA00;" width="50.752" height="50.752"/>
	<rect x="205.248" y="430.286" style="fill:#EB5793;" width="50.752" height="50.752"/>
	<rect x="256" y="430.286" style="fill:#F2BA00;" width="50.752" height="50.752"/>
	<rect x="306.752" y="430.286" style="fill:#EB5793;" width="50.752" height="50.752"/>
	<path style="fill:#F2BA00;" d="M357.504,481.038h17.767c11.609-6.483,22.638-13.877,32.985-22.095v-28.656h-50.752V481.038z"/>
	<path style="fill:#F2BA00;" d="M154.496,490.041v-9.003h-17.768C142.513,484.268,148.436,487.279,154.496,490.041z"/>
	<path style="fill:#EB5793;" d="M154.496,490.041c16.063,7.322,33.056,12.954,50.752,16.682v-25.685h-50.752V490.041z"/>
	<path style="fill:#F2BA00;" d="M205.248,506.723C221.624,510.173,238.598,512,256,512h0l0-30.962h-50.752V506.723z"/>
	<path style="fill:#EB5793;" d="M256,512c17.402,0,34.376-1.827,50.752-5.277v-25.685H256V512z"/>
	<path style="fill:#F2BA00;" d="M306.752,506.723c17.696-3.728,34.689-9.36,50.752-16.682v-9.003h-50.752V506.723z"/>
	<path style="fill:#EB5793;" d="M357.504,481.038v9.003c6.06-2.763,11.983-5.773,17.767-9.003H357.504z"/>
	<g>
		<path style="fill:#E7387F;" d="M141.139,95.4c-6.689,0-12.019-5.455-12.019-12.019c0-5.569,3.911-10.619,9.676-11.791
			c6.306-1.271,12.773,2.738,14.134,9.447c0.156,0.769,0.227,1.563,0.227,2.344C153.158,90.229,147.55,95.4,141.139,95.4z"/>
	</g>
	<g>
		<path style="fill:#EF75A7;" d="M171.992,95.4c-6.486,0-12.019-5.24-12.019-12.019c0-7.72,7.118-13.25,14.363-11.779
			c5.523,1.036,9.675,6.019,9.675,11.779C184.01,89.881,178.733,95.4,171.992,95.4z"/>
	</g>
	<g>
		<path style="fill:#F2BA00;" d="M202.832,95.4c-6.436,0-12.019-5.201-12.019-12.019c0-7.568,6.958-13.283,14.363-11.791
			c5.737,1.167,9.675,6.181,9.675,11.791C214.851,89.979,209.466,95.4,202.832,95.4z"/>
	</g>
	<g>
		<path style="fill:#F2BA00;" d="M385.008,91.638h-33.24c-4.559,0-8.255-3.696-8.255-8.255c0-4.56,3.696-8.255,8.255-8.255h33.24
			c4.559,0,8.255,3.696,8.255,8.255C393.263,87.943,389.567,91.638,385.008,91.638z"/>
	</g>
</g>
<g>
</g>
<g>
</g>
<g>
</g>
<g>
</g>
<g>
</g>
<g>
</g>
<g>
</g>
<g>
</g>
<g>
</g>
<g>
</g>
<g>
</g>
<g>
</g>
<g>
</g>
<g>
</g>
<g>
</g>
</svg>
