<?xml version="1.0" encoding="iso-8859-1"?>
<!-- Generator: Adobe Illustrator 21.0.0, SVG Export Plug-In . SVG Version: 6.00 Build 0)  -->
<svg version="1.1" id="Capa_1" xmlns="http://www.w3.org/2000/svg" xmlns:xlink="http://www.w3.org/1999/xlink" x="0px" y="0px"
	 viewBox="0 0 512 512" style="enable-background:new 0 0 512 512;" xml:space="preserve">
<g>
	<path style="fill:#3342AE;" d="M280.698,510.766l145.957-68l0,0C472.502,398.244,501,335.954,501,267c0-135.31-109.69-245-245-245
		S11,131.69,11,267c0,30.648,5.644,59.972,15.922,87.014l67.201,96.872c9.793,8.627,20.278,16.484,31.365,23.477l89.199,34.151
		C228.118,510.795,241.918,512,256,512C264.337,512,272.575,511.579,280.698,510.766L280.698,510.766z"/>
	<g>
		<path style="fill:#D0E8FE;" d="M465.435,225.954c-3.564,0-7.013-1.91-8.817-5.268L367.704,55.231
			c-2.614-4.865-0.79-10.928,4.075-13.542c4.864-2.615,10.928-0.79,13.542,4.075l88.913,165.454
			c2.614,4.865,0.79,10.928-4.075,13.543C468.654,225.57,467.033,225.954,465.435,225.954z"/>
	</g>
	<g>
		<path style="fill:#A9D8FC;" d="M437.838,152.947c2.173,0,4.203,0.596,5.953,1.618L385.322,45.763
			c-2.614-4.864-8.678-6.689-13.542-4.074c-4.865,2.614-6.689,8.677-4.075,13.542l58.352,108.586
			C426.547,157.733,431.629,152.947,437.838,152.947z"/>
	</g>
	<g>
		<path style="fill:#8C96DD;" d="M455.119,311.93c-1.87,0-3.768-0.421-5.557-1.311c-6.181-3.074-8.7-10.577-5.626-16.758
			l11.26-22.642c7.746-15.577,7.454-34.026-0.78-49.35c-3.268-6.081-0.987-13.66,5.094-16.928c6.08-3.269,13.66-0.988,16.928,5.094
			c12.067,22.456,12.495,49.49,1.143,72.316l-11.26,22.642C464.136,309.386,459.713,311.93,455.119,311.93z"/>
	</g>
	<g>
		<path style="fill:#5766CE;" d="M472.501,257.69c-4.955,0-9.316-2.532-11.869-6.369c-0.511,6.837-2.306,13.603-5.436,19.899
			l-11.26,22.642c-3.074,6.182-0.555,13.685,5.626,16.758c1.788,0.889,3.686,1.31,5.557,1.31c4.595,0,9.018-2.543,11.202-6.937
			l11.26-22.642c5.295-10.647,8.025-22.209,8.208-33.795C483.731,253.895,478.565,257.69,472.501,257.69z"/>
	</g>
	<path style="fill:#D0E8FE;" d="M426.655,442.766l47.579-88.539c2.614-4.865,0.79-10.928-4.075-13.542
		c-1.506-0.81-3.127-1.194-4.725-1.194c-3.563,0-7.013,1.91-8.817,5.268l-69.416,129.174
		C401.415,464.903,414.63,454.444,426.655,442.766z"/>
	<g>
		<path style="fill:#A9D8FC;" d="M426.062,401.619l-38.861,72.314c14.214-9.031,27.428-19.49,39.454-31.168l17.224-32.051
			C436.453,415.143,426.837,410.322,426.062,401.619z"/>
	</g>
	<g>
		<path style="fill:#8C96DD;" d="M455.119,253.516c-1.87,0-3.768,0.421-5.557,1.311c-6.181,3.074-8.7,10.577-5.626,16.758
			l11.26,22.642c7.746,15.577,7.454,34.026-0.78,49.35c-3.268,6.081-0.987,13.66,5.094,16.928c6.08,3.269,13.66,0.988,16.928-5.094
			c12.067-22.456,12.495-49.49,1.143-72.316l-11.26-22.642C464.136,256.059,459.713,253.516,455.119,253.516z"/>
	</g>
	<path style="fill:#EB5793;" d="M204.66,44.46v-9.886C204.66,15.479,189.181,0,170.086,0l0,0c-19.094,0-34.574,15.479-34.574,34.574
		v9.886H204.66z"/>
	<path style="fill:#E7387F;" d="M186.748,4.278C181.806,1.554,176.128,0,170.086,0c-19.094,0-34.574,15.479-34.574,34.574v9.886
		h33.324v-9.886C168.836,21.521,176.072,10.162,186.748,4.278z"/>
	<path style="fill:#A9D8FC;" d="M125.487,474.363c26.696,16.838,56.868,28.659,89.199,34.15v-259.56h-89.199V474.363z"/>
	<path style="fill:#4AC4F4;" d="M214.686,508.514V362.762c-14.7,14.7-23.707,0-23.707,0h-41.785c-13.445,13.445-23.708,0-23.708,0
		v111.601C152.183,491.201,182.355,503.022,214.686,508.514z"/>
	<path style="fill:#EF75A7;" d="M214.392,43.33h-88.61c-6.562,0-11.882,5.32-11.882,11.882v184.119
		c0,6.563,5.32,11.882,11.882,11.882h88.61c6.563,0,11.882-5.32,11.882-11.882V55.212C226.273,48.65,220.954,43.33,214.392,43.33z"
		/>
	<path style="fill:#EB5793;" d="M170.087,239.331V55.212c0-6.563,2.66-11.882,5.941-11.882h-50.246
		c-6.562,0-11.882,5.32-11.882,11.882v184.119c0,6.563,5.32,11.882,11.882,11.882h50.246
		C172.747,251.214,170.087,245.894,170.087,239.331z"/>
	<g>
		<path style="fill:#FE99B8;" d="M226.274,227.315H113.899c-4.341,0-7.86-3.519-7.86-7.86c0-4.341,3.519-7.86,7.86-7.86h112.375
			c4.342,0,7.86,3.519,7.86,7.86C234.134,223.796,230.616,227.315,226.274,227.315z"/>
	</g>
	<path style="fill:#EF75A7;" d="M161.461,219.455c0-4.341,3.519-7.86,7.86-7.86h-55.422c-4.341,0-7.86,3.519-7.86,7.86
		c0,4.341,3.519,7.86,7.86,7.86h55.422C164.98,227.315,161.461,223.796,161.461,219.455z"/>
	<path style="fill:#D0E8FE;" d="M399.884,211.645c4.258-26.773,10.349-82.294,1.139-144.274
		c-2.039-13.723-13.94-23.818-27.813-23.818h-30.119c-49.581,0-90.902,39.195-92.126,88.76c-0.03,1.229-0.046,2.475-0.046,3.737
		c0,25.972,9.021,45.945,21.264,61.092c23.978,29.666,62.812,43.056,100.295,35.985l7.954-1.501
		C390.484,229.732,398.278,221.747,399.884,211.645z"/>
	<path style="fill:#A9D8FC;" d="M399.884,130.771c-1.606,10.102-9.401,18.087-19.453,19.983l-7.954,1.501
		c-47.475,8.956-93.951-15.083-112.884-56.194c-14.258,30.024-11.864,70.827,12.59,101.082
		c23.978,29.665,62.812,43.056,100.295,35.985l7.954-1.501c10.052-1.896,17.846-9.88,19.453-19.982
		c3.623-22.784,8.568-66.391,4.287-117.077C402.974,109.35,401.325,121.711,399.884,130.771z"/>
	<path style="fill:#D0E8FE;" d="M333.853,334.147c-6.727-8.837-22.701-25.234-42.249-13.943
		c-15.938,9.205-14.109,27.919-10.566,40.527C295.71,346.771,314.16,337.685,333.853,334.147z"/>
	<path style="fill:#D0E8FE;" d="M333.853,231.258c-19.693-3.537-38.143-12.623-52.815-26.583
		c-3.543,12.607-5.372,31.322,10.566,40.527C311.152,256.492,327.126,240.095,333.853,231.258z"/>
	<path style="fill:#D0E8FE;" d="M170.087,450.654L170.087,450.654c-11.491,0-20.892-9.402-20.892-20.892V327.999
		c0-11.491,9.402-20.892,20.892-20.892h0c11.491,0,20.892,9.401,20.892,20.892v101.763
		C190.979,441.253,181.577,450.654,170.087,450.654z"/>
	<path style="fill:#A9D8FC;" d="M170.087,383.654L170.087,383.654c-11.491,0-20.892-9.402-20.892-20.892v67
		c0,11.491,9.401,20.892,20.892,20.892h0c11.491,0,20.892-9.402,20.892-20.892v-67C190.979,374.253,181.578,383.654,170.087,383.654
		z"/>
	<path style="fill:#5766CE;" d="M374.332,242.955l7.953-1.501c14.173-2.673,25.214-14.021,27.475-28.239v0.001
		c4.449-27.978,10.516-84.32,1.155-147.315c-2.74-18.441-18.95-32.348-37.705-32.348h-30.119
		c-54.055,0-102.172,42.483-102.172,102.498C240.919,206.834,306.151,255.814,374.332,242.955z M343.091,53.554h30.119
		c8.922,0,16.627,6.572,17.922,15.287c8.968,60.347,3.145,114.391-1.124,141.234c-0.938,5.901-5.531,10.613-11.431,11.726
		l-7.953,1.501c-55.662,10.499-109.705-28.838-109.705-87.25C260.919,87.572,299.651,53.554,343.091,53.554z"/>
	<path style="fill:#3D4EC6;" d="M374.332,242.955l7.953-1.501c14.173-2.673,25.214-14.021,27.475-28.239v0.001
		c2.459-15.462,5.407-39.596,5.977-68.718c-12.123,8.694-18.714-1.354-19.939-3.509c-0.388,29.343-3.342,53.692-5.79,69.086
		c-0.938,5.901-5.531,10.613-11.431,11.726l-7.953,1.501c-55.662,10.5-109.705-28.838-109.705-87.25
		c0-10.325,1.771-19.987,4.956-28.811c-14.677,4.763-17.145-7.817-17.49-10.368c-4.792,11.869-7.466,25.036-7.466,39.179
		C240.919,206.834,306.151,255.814,374.332,242.955z"/>
	<path style="fill:#D0E8FE;" d="M380.432,333.777l-7.954-1.501c-37.483-7.071-76.317,6.319-100.295,35.985
		c-12.243,15.147-21.264,35.12-21.264,61.092c0,1.263,0.015,2.508,0.046,3.737c0.798,32.297,18.623,60.186,44.662,75.702
		c40.635-6.609,77.909-23.211,109.229-47.205c2.991-46.709-1.571-86.443-4.971-107.828
		C398.278,343.658,390.484,335.673,380.432,333.777z"/>
	<path style="fill:#A9D8FC;" d="M295.627,508.793c40.55-6.596,77.754-23.143,109.033-47.058c1.617-23.852,1.593-46.764-0.593-73.007
		c-1.187,14.229-2.783,26.156-4.183,34.96c-1.606,10.103-9.401,18.086-19.453,19.983l-7.954,1.501
		c-47.475,8.957-93.951-15.083-112.884-56.194C239.974,430.291,252.807,483.278,295.627,508.793z"/>
	<path style="fill:#5766CE;" d="M382.285,323.951l-7.954-1.501c-68.052-12.838-135.204,36.014-133.363,110.888
		c0.782,31.661,16.254,59.495,39.73,77.428c10.523-1.053,20.849-2.772,30.937-5.115c-28.992-11.873-50.716-39.911-50.716-76.298
		c0-57.859,53.498-97.856,109.705-87.25l7.954,1.5c5.898,1.113,10.491,5.825,11.43,11.726c3.612,22.717,8.336,64.917,4.268,113.931
		c7.317-5.012,14.348-10.408,21.064-16.164c1.951-43.405-2.262-80.045-5.58-100.907
		C407.499,337.972,396.458,326.624,382.285,323.951z"/>
	<path style="fill:#FCECAC;" d="M77.911,112.143c-5.419,1.939-11.266,3.03-17.389,3.03c-6.122,0-11.97-1.09-17.389-3.03
		L26.922,155.92v23.14h67.201v-23.14L77.911,112.143z"/>
	<path style="fill:#FCE275;" d="M60.522,164.398c-8.523-8.523-6.055-30.057-1.536-49.259c-5.564-0.166-10.889-1.219-15.852-2.996
		L26.922,155.92v23.139h33.565C64.685,174.802,65.947,169.823,60.522,164.398z"/>
	<g>
		<path style="fill:#EF7D5E;" d="M60.522,116.181c6.246,0,12.209-1.129,17.72-3.143L65.458,78.514c-1.692-4.569-8.18-4.569-9.872,0
			l-12.785,34.524C48.312,115.052,54.276,116.181,60.522,116.181z"/>
	</g>
	<path style="fill:#E06E53;" d="M65.458,78.514c-1.692-4.569-8.18-4.569-9.871,0l-12.785,34.524
		c4.987,1.823,10.347,2.911,15.95,3.103c2.939-12.748,6.84-24.588,9.126-31.092L65.458,78.514z"/>
	<path style="fill:#F6D100;" d="M77.322,172.658c-5.45,0-10.283-2.594-13.35-6.604c-0.814-1.064-2.107-1.656-3.45-1.656h0v250.297
		c9.964,13.167,21.228,25.292,33.6,36.192V155.923C94.12,165.166,86.6,172.658,77.322,172.658z"/>
	<path style="fill:#F2BA00;" d="M57.072,166.054c-3.067,4.01-7.9,6.604-13.35,6.604c-9.278,0-16.8-7.494-16.8-16.738v198.094
		c8.324,21.903,19.693,42.303,33.6,60.68V164.398C59.178,164.398,57.886,164.99,57.072,166.054z"/>
	<path style="fill:#F2BA00;" d="M78.268,316.052c-6.706,0.368-12.601-3.205-15.613-8.607c-0.43-0.771-1.249-1.242-2.133-1.242
		v108.492c9.964,13.167,21.228,25.292,33.6,36.191v-152.04C94.122,307.833,87.242,315.559,78.268,316.052z"/>
	<path style="fill:#EEA200;" d="M58.389,307.445c-3.012,5.402-8.908,8.975-15.613,8.607c-8.974-0.492-15.855-8.218-15.855-17.206
		v55.168c8.324,21.903,19.693,42.303,33.6,60.681V306.203C59.639,306.203,58.819,306.674,58.389,307.445z"/>
	<path style="fill:#8C96DD;" d="M388.481,328.747c14.586-27.039,14.656-64.65,0.182-91.755c-1.916-3.587-5.692-5.516-9.458-4.985
		l-17.326,2.433c-2.539,0.357-3.424,3.518-2.21,5.483c17.517,28.355,17.448,57.573-0.168,85.835
		c-1.295,2.079-0.088,4.861,2.218,5.185l17.797,2.5C383.116,333.947,386.671,332.103,388.481,328.747z"/>
	<g>
		<path style="fill:#5766CE;" d="M386.334,292.677c-6.361,0-11.744-4.17-13.577-9.923c-0.005,14.422-4.424,28.834-13.257,43.004
			c-1.295,2.079-0.088,4.861,2.218,5.185l17.797,2.5c3.601,0.504,7.156-1.34,8.966-4.695c7.127-13.212,10.778-28.948,10.971-44.749
			C397.283,289.1,392.227,292.677,386.334,292.677z"/>
	</g>
	<g>
		<path style="fill:#5766CE;" d="M471.551,316.372c-4.59,0-8.662-2.179-11.268-5.55c1.526,11.13-0.423,22.624-5.867,32.755
			c-3.268,6.081-0.987,13.66,5.094,16.928c6.08,3.269,13.66,0.988,16.928-5.094c8.069-15.016,10.926-32.079,8.544-48.562
			C483.029,312.392,477.761,316.372,471.551,316.372z"/>
	</g>
	<g>
		<path style="fill:#3D4EC6;" d="M260.919,429.354c0-10.326,1.712-20.078,4.831-29.08h0c-17.634,6.501-16.965-11.474-16.962-11.542
			c-5.378,13.409-8.218,28.396-7.82,44.606c0.782,31.661,16.254,59.495,39.73,77.428c10.523-1.053,20.849-2.772,30.937-5.114
			C282.643,493.779,260.919,465.741,260.919,429.354z"/>
		<path style="fill:#3D4EC6;" d="M415.826,433.719c-10.273,10.272-19.992-0.001-19.992-0.001l0,0
			c-0.067,11.281-0.533,23.195-1.558,35.543c7.317-5.012,14.348-10.408,21.064-16.164C415.638,446.468,415.791,440,415.826,433.719z
			"/>
	</g>
</g>
<g>
</g>
<g>
</g>
<g>
</g>
<g>
</g>
<g>
</g>
<g>
</g>
<g>
</g>
<g>
</g>
<g>
</g>
<g>
</g>
<g>
</g>
<g>
</g>
<g>
</g>
<g>
</g>
<g>
</g>
</svg>
