<?xml version="1.0" encoding="iso-8859-1"?>
<!-- Generator: Adobe Illustrator 21.0.0, SVG Export Plug-In . SVG Version: 6.00 Build 0)  -->
<svg version="1.1" id="Capa_1" xmlns="http://www.w3.org/2000/svg" xmlns:xlink="http://www.w3.org/1999/xlink" x="0px" y="0px"
	 viewBox="0 0 512 512" style="enable-background:new 0 0 512 512;" xml:space="preserve">
<g>
	<path style="fill:#E7387F;" d="M65.523,422.748c28.793,30.977,65.509,54.475,106.918,67.304l134.626,2.996
		c45.702-11.939,86.208-36.731,117.411-70.3H65.523z"/>
	<path style="fill:#A9D8FC;" d="M245.001,501c21.461,0,42.273-2.768,62.109-7.951c-1.5-3.21-2.503-6.848-2.951-11.481l-4.166-59.849
		c-14.727,0-106.903,0-121.727,0l-4.166,59.849c-0.314,3.25-0.9,6.013-1.738,8.482C195.314,497.166,219.709,501,245.001,501z"/>
	<path style="fill:#91D1F9;" d="M194.147,458.25h89.87c8.245,0,15.478,4.522,19.304,11.277l-3.328-47.808
		c-14.727,0-106.903,0-121.727,0l-3.314,47.607C178.807,462.682,185.983,458.25,194.147,458.25z"/>
	<path style="fill:#5766CE;" d="M491.992,35.237H138.627c-16.166,7.804-31.338,17.337-45.29,28.349L23.824,361.46
		c0.226,0.473,0.439,0.953,0.668,1.424H512V55.245C512,44.241,502.997,35.237,491.992,35.237z"/>
	<path style="fill:#3D4EC6;" d="M12.656,333.847c3.343,9.978,7.29,19.679,11.835,29.038h46.927V136.859L12.656,333.847z"/>
	<path style="fill:#D0E8FE;" d="M66.454,423.748h425.538c11.005,0,20.008-9.004,20.008-20.008v-40.855H24.491
		C35.374,385.295,49.577,405.792,66.454,423.748z"/>
	<path style="fill:#A9D8FC;" d="M71.418,403.739v-40.854H24.491c10.883,22.411,25.086,42.907,41.963,60.863h24.972
		C80.421,423.748,71.418,414.744,71.418,403.739z"/>
	<g>
		<circle style="fill:#A9D8FC;" cx="239.13" cy="393.316" r="13.694"/>
	</g>
	<path style="fill:#3D4EC6;" d="M483.052,62.625l-388.49,0c-20.224,15.756-37.947,34.621-52.85,56.636
		c-0.004,0-0.009-0.001-0.009-0.001c-0.01-0.001-0.014-0.001-0.014-0.001c-44.597,66.173-52.25,146.895-28.51,216.187l0,0l469.873,0
		c0.862,0,1.56-0.698,1.56-1.56V64.185C484.612,63.324,483.913,62.625,483.052,62.625z"/>
	<path style="fill:#3342AE;" d="M71.418,83.141c-10.863,10.922-20.793,22.953-29.706,36.121c-0.004,0-0.009-0.001-0.009-0.001
		c-0.009,0-0.014-0.001-0.014-0.001c-44.597,66.173-52.25,146.895-28.509,216.187v0h58.239V83.141z"/>
	<path style="fill:#D0E8FE;" d="M27.639,45.61v246.664c0,6.6,5.4,12,12,12h400.195c6.6,0,12-5.4,12-12V45.61H27.639z"/>
	<path style="fill:#A9D8FC;" d="M88.381,292.274V45.61H27.639v246.663c0,6.6,5.4,12,12,12h60.742
		C93.781,304.274,88.381,298.874,88.381,292.274z"/>
	<path style="fill:#3D4EC6;" d="M451.834,46.61V23c0-6.6-5.4-12-12-12H39.639c-6.6,0-12,5.4-12,12v23.61H451.834z"/>
	<path style="fill:#3342AE;" d="M100.381,11H39.639c-6.6,0-12,5.4-12,12v23.61h60.742V23C88.381,16.4,93.781,11,100.381,11z"/>
	<circle style="fill:#EB5793;" cx="53.514" cy="28.99" r="8.75"/>
	<circle style="fill:#F6D100;" cx="79.764" cy="28.99" r="8.75"/>
	<circle style="fill:#9ED369;" cx="106.014" cy="28.99" r="8.75"/>
	<path style="fill:#8C96DD;" d="M432.334,37.74h-77.32c-4.832,0-8.75-3.918-8.75-8.75v0c0-4.832,3.918-8.75,8.75-8.75h77.32
		c4.832,0,8.75,3.917,8.75,8.75v0C441.084,33.823,437.166,37.74,432.334,37.74z"/>
	<path style="fill:#5766CE;" d="M393.674,28.99L393.674,28.99c0-4.833,3.918-8.75,8.75-8.75h-47.41c-4.832,0-8.75,3.917-8.75,8.75v0
		c0,4.832,3.918,8.75,8.75,8.75h47.41C397.591,37.74,393.674,33.822,393.674,28.99z"/>
	<g>
		<path style="fill:#F6D100;" d="M182.197,134.95c-4.267,0-7.727-3.459-7.727-7.727V98.637c0-4.268,3.459-7.727,7.727-7.727
			c4.267,0,7.727,3.459,7.727,7.727v28.585C189.924,131.491,186.464,134.95,182.197,134.95z"/>
	</g>
	<g>
		<path style="fill:#91D1F9;" d="M143.627,134.95c-11.626,0-21.085-9.878-21.085-22.02c0-12.142,9.459-22.019,21.085-22.019
			c11.626,0,21.085,9.878,21.085,22.019C164.712,125.072,155.253,134.95,143.627,134.95z M143.627,106.364
			c-3.105,0-5.632,2.946-5.632,6.566c0,3.62,2.526,6.566,5.632,6.566c3.105,0,5.632-2.946,5.632-6.566
			C149.258,109.31,146.732,106.364,143.627,106.364z"/>
	</g>
	<g>
		<path style="fill:#91D1F9;" d="M340.048,134.95c-4.267,0-7.727-3.459-7.727-7.727V98.637c0-4.268,3.46-7.727,7.727-7.727
			s7.727,3.459,7.727,7.727v28.585C347.775,131.491,344.315,134.95,340.048,134.95z"/>
	</g>
	<g>
		<path style="fill:#F6D100;" d="M301.478,134.95c-11.627,0-21.085-9.878-21.085-22.02c0-12.142,9.459-22.019,21.085-22.019
			c11.626,0,21.085,9.878,21.085,22.019C322.564,125.072,313.105,134.95,301.478,134.95z M301.478,106.364
			c-3.105,0-5.632,2.946-5.632,6.566c0,3.62,2.526,6.566,5.632,6.566c3.105,0,5.632-2.946,5.632-6.566
			C307.11,109.31,304.583,106.364,301.478,106.364z"/>
	</g>
	<g>
		<path style="fill:#91D1F9;" d="M263.01,134.95c-4.267,0-7.727-3.459-7.727-7.727V98.637c0-4.268,3.459-7.727,7.727-7.727
			c4.267,0,7.727,3.459,7.727,7.727v28.585C270.737,131.491,267.278,134.95,263.01,134.95z"/>
	</g>
	<g>
		<path style="fill:#4AC4F4;" d="M223.433,134.95c-11.627,0-21.085-9.878-21.085-22.02c0-12.142,9.459-22.019,21.085-22.019
			c11.626,0,21.085,9.878,21.085,22.019C244.518,125.072,235.06,134.95,223.433,134.95z M223.433,106.364
			c-3.105,0-5.632,2.946-5.632,6.566c0,3.62,2.526,6.566,5.632,6.566s5.632-2.946,5.632-6.566
			C229.065,109.31,226.538,106.364,223.433,106.364z"/>
	</g>
	<g>
		<path style="fill:#F6D100;" d="M129.261,197.098c-4.267,0-7.727-3.459-7.727-7.727v-28.585c0-4.268,3.459-7.727,7.727-7.727
			c4.267,0,7.727,3.459,7.727,7.727v28.585C136.988,193.639,133.529,197.098,129.261,197.098z"/>
	</g>
	<g>
		<path style="fill:#4AC4F4;" d="M168.839,197.098c-11.627,0-21.085-9.878-21.085-22.02c0-12.142,9.459-22.019,21.085-22.019
			c11.626,0,21.085,9.878,21.085,22.019C189.924,187.22,180.465,197.098,168.839,197.098z M168.839,168.513
			c-3.105,0-5.632,2.946-5.632,6.566c0,3.62,2.526,6.566,5.632,6.566c3.105,0,5.632-2.946,5.632-6.566
			C174.47,171.459,171.944,168.513,168.839,168.513z"/>
	</g>
	<g>
		<path style="fill:#F6D100;" d="M182.197,258.973c-4.267,0-7.727-3.459-7.727-7.727v-28.585c0-4.268,3.459-7.727,7.727-7.727
			c4.267,0,7.727,3.459,7.727,7.727v28.585C189.924,255.514,186.464,258.973,182.197,258.973z"/>
	</g>
	<g>
		<path style="fill:#91D1F9;" d="M143.627,258.973c-11.626,0-21.085-9.878-21.085-22.02s9.459-22.02,21.085-22.02
			c11.626,0,21.085,9.878,21.085,22.02S155.253,258.973,143.627,258.973z M143.627,230.388c-3.105,0-5.632,2.946-5.632,6.566
			s2.526,6.566,5.632,6.566c3.105,0,5.632-2.946,5.632-6.566S146.732,230.388,143.627,230.388z"/>
	</g>
	<g>
		<path style="fill:#91D1F9;" d="M207.306,197.098c-4.267,0-7.727-3.459-7.727-7.727v-28.585c0-4.268,3.459-7.727,7.727-7.727
			c4.267,0,7.727,3.459,7.727,7.727v28.585C215.033,193.639,211.574,197.098,207.306,197.098z"/>
	</g>
	<g>
		<path style="fill:#F6D100;" d="M246.883,197.098c-11.626,0-21.085-9.878-21.085-22.02c0-12.142,9.459-22.019,21.085-22.019
			c11.626,0,21.085,9.878,21.085,22.019C267.969,187.22,258.51,197.098,246.883,197.098z M246.883,168.513
			c-3.105,0-5.632,2.946-5.632,6.566c0,3.62,2.526,6.566,5.632,6.566c3.105,0,5.632-2.946,5.632-6.566
			C252.515,171.459,249.988,168.513,246.883,168.513z"/>
	</g>
	<g>
		<path style="fill:#91D1F9;" d="M287.113,197.098c-4.267,0-7.727-3.459-7.727-7.727v-28.585c0-4.268,3.459-7.727,7.727-7.727
			c4.267,0,7.727,3.459,7.727,7.727v28.585C294.839,193.639,291.38,197.098,287.113,197.098z"/>
	</g>
	<g>
		<path style="fill:#4AC4F4;" d="M326.69,197.098c-11.626,0-21.085-9.878-21.085-22.02c0-12.142,9.459-22.019,21.085-22.019
			c11.626,0,21.085,9.878,21.085,22.019C347.775,187.22,338.316,197.098,326.69,197.098z M326.69,168.513
			c-3.105,0-5.632,2.946-5.632,6.566c0,3.62,2.526,6.566,5.632,6.566c3.105,0,5.631-2.946,5.631-6.566
			C332.321,171.459,329.795,168.513,326.69,168.513z"/>
	</g>
	<g>
		<path style="fill:#91D1F9;" d="M340.048,258.973c-4.267,0-7.727-3.459-7.727-7.727v-28.585c0-4.268,3.46-7.727,7.727-7.727
			s7.727,3.459,7.727,7.727v28.585C347.775,255.514,344.315,258.973,340.048,258.973z"/>
	</g>
	<g>
		<path style="fill:#F6D100;" d="M301.478,258.973c-11.627,0-21.085-9.878-21.085-22.02s9.459-22.02,21.085-22.02
			c11.626,0,21.085,9.878,21.085,22.02S313.105,258.973,301.478,258.973z M301.478,230.388c-3.105,0-5.632,2.946-5.632,6.566
			s2.526,6.566,5.632,6.566c3.105,0,5.632-2.946,5.632-6.566S304.583,230.388,301.478,230.388z"/>
	</g>
	<g>
		<path style="fill:#4AC4F4;" d="M263.01,258.973c-4.267,0-7.727-3.459-7.727-7.727v-28.585c0-4.268,3.459-7.727,7.727-7.727
			c4.267,0,7.727,3.459,7.727,7.727v28.585C270.737,255.514,267.278,258.973,263.01,258.973z"/>
	</g>
	<g>
		<path style="fill:#91D1F9;" d="M223.433,258.973c-11.627,0-21.085-9.878-21.085-22.02s9.459-22.02,21.085-22.02
			c11.626,0,21.085,9.878,21.085,22.02S235.06,258.973,223.433,258.973z M223.433,230.388c-3.105,0-5.632,2.946-5.632,6.566
			s2.526,6.566,5.632,6.566s5.632-2.946,5.632-6.566S226.538,230.388,223.433,230.388z"/>
	</g>
</g>
<g>
</g>
<g>
</g>
<g>
</g>
<g>
</g>
<g>
</g>
<g>
</g>
<g>
</g>
<g>
</g>
<g>
</g>
<g>
</g>
<g>
</g>
<g>
</g>
<g>
</g>
<g>
</g>
<g>
</g>
</svg>
