<?xml version="1.0" encoding="iso-8859-1"?>
<!-- Generator: Adobe Illustrator 21.0.0, SVG Export Plug-In . SVG Version: 6.00 Build 0)  -->
<svg version="1.1" id="Capa_1" xmlns="http://www.w3.org/2000/svg" xmlns:xlink="http://www.w3.org/1999/xlink" x="0px" y="0px"
	 viewBox="0 0 512 512" style="enable-background:new 0 0 512 512;" xml:space="preserve">
<g>
	<path style="fill:#3342AE;" d="M245.001,21.999c-135.31,0-245,109.69-245,245c0,6.774,0.287,13.48,0.827,20.116l6.588,39.89
		c5.122,20.341,12.783,39.67,22.634,57.632l0,0l233.889,126.641h0c126.461-9.667,226.064-115.34,226.064-244.278
		C490.001,131.689,380.311,21.999,245.001,21.999z"/>
	<g>
		<path style="fill:#91D1F9;" d="M428.733,103.569L403.9,82.732c-3.31-2.777-3.742-7.713-0.964-11.022
			c2.777-3.31,7.713-3.742,11.023-0.964l24.832,20.837c3.31,2.777,3.742,7.713,0.964,11.022
			C436.992,105.899,432.058,106.359,428.733,103.569z"/>
	</g>
	<g>
		<path style="fill:#91D1F9;" d="M406.618,128.014l-24.832-20.837c-3.31-2.777-3.742-7.713-0.964-11.022
			c2.777-3.311,7.713-3.742,11.023-0.964l24.832,20.837c3.31,2.777,3.742,7.713,0.964,11.022
			C414.877,130.344,409.943,130.804,406.618,128.014z"/>
	</g>
	<g>
		<path style="fill:#D0E8FE;" d="M408.925,87.171c-2.367,0-4.745-0.8-6.7-2.44l-4.702-3.946c-4.413-3.703-4.99-10.283-1.287-14.697
			c3.704-4.414,10.283-4.99,14.698-1.286l4.703,3.946c4.413,3.703,4.99,10.283,1.287,14.697
			C414.858,85.903,411.902,87.171,408.925,87.171z"/>
	</g>
	<g>
		<path style="fill:#D0E8FE;" d="M386.81,111.616c-2.366,0-4.745-0.8-6.7-2.44l-4.703-3.946c-4.413-3.703-4.99-10.283-1.287-14.697
			c3.704-4.414,10.283-4.99,14.697-1.286l4.703,3.946c4.413,3.703,4.99,10.283,1.287,14.697
			C392.743,110.348,389.787,111.616,386.81,111.616z"/>
	</g>
	<g>
		<path style="fill:#91D1F9;" d="M457.044,154.841l-24.832-20.837c-3.31-2.777-3.742-7.713-0.964-11.022
			c2.778-3.311,7.712-3.742,11.023-0.964l24.832,20.837c3.31,2.777,3.742,7.712,0.964,11.022
			C465.303,157.171,460.369,157.631,457.044,154.841z"/>
	</g>
	<g>
		<path style="fill:#91D1F9;" d="M436.81,180.865l-24.832-20.836c-3.31-2.778-3.742-7.713-0.964-11.023
			c2.777-3.311,7.712-3.742,11.023-0.965l24.832,20.836c3.31,2.778,3.742,7.713,0.964,11.023
			C445.064,183.201,440.129,183.649,436.81,180.865z"/>
	</g>
	<g>
		<path style="fill:#D0E8FE;" d="M460.071,160.785l-4.703-3.946c-4.413-3.703-4.99-10.283-1.287-14.697
			c3.705-4.414,10.282-4.99,14.698-1.286l4.703,3.946c4.413,3.703,4.99,10.283,1.287,14.697
			C471.082,163.89,464.505,164.505,460.071,160.785z"/>
	</g>
	<g>
		<path style="fill:#D0E8FE;" d="M439.835,186.808l-4.702-3.946c-4.413-3.704-4.988-10.284-1.285-14.697
			c3.703-4.414,10.283-4.989,14.698-1.285l4.702,3.946c4.413,3.704,4.988,10.284,1.285,14.697
			C450.848,189.914,444.269,190.528,439.835,186.808z"/>
	</g>
	<path style="fill:#E06E53;" d="M355.161,209.186c-42.054-35.288-104.135-30.537-138.662,10.611
		c-5.168,6.159-9.406,12.79-12.768,19.722l-0.011-0.009c0,0-0.036,0.083-0.092,0.211c-6.532,13.535-16.432,26.915-29.99,32.921
		c3.63,1.611,7.107,3.745,10.309,6.431c17.997,15.102,20.609,41.619,5.833,59.229c-14.776,17.609-41.344,19.642-59.341,4.541
		c-7.446-6.248-12.25-14.452-14.286-23.168c-2.633,8.199-11.408,25.508-40.201,39.316c-13.66,5.107-25.764,13.313-35.281,24.654
		c-2.301,2.742-4.393,5.602-6.283,8.564C77.121,463.938,155.442,512,245.001,512c3.62,0,7.217-0.095,10.798-0.25
		c0.107-0.527,0.219-1.052,0.318-1.582c8.599-30.753,24.121-42.4,31.738-46.417c-8.938-0.492-17.851-3.798-25.297-10.046
		c-17.997-15.102-20.609-41.619-5.833-59.229c14.776-17.609,41.344-19.642,59.341-4.541c3.202,2.687,5.907,5.74,8.124,9.035
		c3.552-14.36,15.363-26.96,27.405-35.378l-0.011-0.009c6.243-4.515,12.037-9.841,17.205-15.999
		C403.317,306.437,397.215,244.474,355.161,209.186z"/>
	<path style="fill:#D3644F;" d="M255.799,511.75c0.107-0.527,0.219-1.052,0.317-1.582c8.599-30.753,24.121-42.4,31.738-46.417
		c-8.938-0.492-17.851-3.798-25.297-10.046c-17.998-15.102-20.609-41.62-5.833-59.229c14.776-17.609,41.344-19.642,59.342-4.541
		c3.202,2.687,5.907,5.74,8.124,9.035c2.203-8.905,7.585-17.13,14.225-24.104c-1.565-1.678-2.017-3.833-2.046-5.662
		c-0.036-2.293-1.541-4.296-3.711-5.034c-27.954-9.507-28.229-33.367-26.877-43.839c0.364-2.821-1.513-5.411-4.29-6.026
		c-34.92-7.74-33.973-35.592-32.053-46.892c0.461-2.715-1.202-5.314-3.834-6.121c-33.816-10.369-26.905-39.35-22.636-50.826
		c0.878-2.36,0.068-5.091-2.062-6.435c-1.418-0.895-2.364-1.978-2.966-3.145c-7.875,5.07-15.122,11.378-21.442,18.91
		c-5.168,6.158-9.406,12.79-12.768,19.722l-0.011-0.009c0,0-0.036,0.083-0.092,0.211c-6.532,13.536-16.432,26.914-29.99,32.921
		c3.63,1.61,7.106,3.745,10.309,6.432c17.997,15.102,20.609,41.619,5.833,59.228c-14.776,17.609-41.344,19.642-59.342,4.541
		c-7.446-6.248-12.25-14.452-14.286-23.168c-2.633,8.199-11.408,25.507-40.2,39.316c-13.66,5.107-25.764,13.313-35.281,24.654
		c-2.301,2.742-4.393,5.602-6.283,8.564C77.121,463.938,155.442,512,245.001,512C248.62,512,252.217,511.905,255.799,511.75z"/>
	<path style="fill:#F98F6E;" d="M360.19,203.193c-21.915-18.39-49.538-27.328-77.78-25.166
		c-28.306,2.166-53.842,15.214-71.905,36.741c-5.346,6.37-9.922,13.402-13.605,20.905c-0.136,0.242-0.26,0.491-0.37,0.748
		l-0.016,0.038c-4.938,10.194-13.449,23.449-26.046,29.028c-2.83,1.254-4.654,4.057-4.655,7.151
		c-0.001,3.095,1.822,5.899,4.651,7.154c3.054,1.355,5.898,3.129,8.453,5.273c14.663,12.305,16.848,33.93,4.869,48.206
		c-11.98,14.276-33.655,15.88-48.319,3.576c-5.914-4.963-9.959-11.517-11.697-18.955c-0.8-3.425-3.787-5.895-7.301-6.037
		c-3.514-0.149-6.691,2.077-7.767,5.425c-5.867,18.274-26.77,30.123-35.83,34.508c-15.242,5.761-28.092,14.785-38.195,26.826
		c-1.636,1.949-3.174,3.96-4.628,6.021c2.813,5.129,5.803,10.148,8.964,15.046c2.206-3.878,4.755-7.558,7.65-11.009
		c8.422-10.036,19.197-17.558,32.028-22.355c0.218-0.082,0.433-0.173,0.643-0.274c18.533-8.889,29.575-19.278,36.148-28.343
		c2.709,4.127,6.037,7.87,9.926,11.133c21.274,17.851,52.839,15.382,70.364-5.505c17.525-20.886,14.476-52.401-6.797-70.251
		c-0.177-0.149-0.356-0.297-0.535-0.443c10.471-8.418,17.674-20.073,22.223-29.492c0.036-0.07,0.072-0.14,0.106-0.211
		c3.158-6.508,7.102-12.6,11.723-18.108c15.335-18.275,37.038-29.354,61.112-31.196c24.136-1.849,47.764,5.806,66.527,21.55
		c18.763,15.744,30.404,37.683,32.776,61.775c2.366,24.028-4.776,47.326-20.11,65.601c-4.621,5.507-9.936,10.449-15.797,14.688
		c-0.096,0.069-0.19,0.141-0.281,0.214c-10.976,7.751-19.646,17.156-25.056,26.966c-0.188-0.162-0.376-0.323-0.565-0.482
		c-21.272-17.85-52.839-15.381-70.365,5.505c-17.525,20.886-14.476,52.401,6.797,70.251c3.888,3.263,8.153,5.891,12.688,7.842
		c-7.786,8.047-16.099,20.725-21.635,40.522c-0.063,0.224-0.115,0.452-0.158,0.681c-0.201,1.086-0.429,2.158-0.67,3.223
		c5.438-0.06,10.837-0.279,16.184-0.687c2.915-10.019,10.967-31.853,27.567-40.606c3.111-1.64,4.745-5.155,3.995-8.591
		c-0.751-3.436-3.702-5.948-7.214-6.142c-7.626-0.42-14.783-3.265-20.698-8.228c-14.663-12.304-16.848-33.93-4.869-48.206
		c11.98-14.276,33.657-15.88,48.319-3.576c2.557,2.146,4.798,4.638,6.661,7.408c1.727,2.568,4.805,3.88,7.853,3.339
		c3.048-0.538,5.492-2.822,6.235-5.826c2.635-10.651,11.49-21.893,24.293-30.844c0.166-0.116,0.327-0.238,0.482-0.366
		c6.749-4.93,12.878-10.655,18.223-17.025c18.064-21.526,26.48-48.941,23.697-77.193
		C395.704,247.233,382.106,221.582,360.19,203.193z"/>
	<g>
		<path style="fill:#EF7D5E;" d="M195.773,343.331c17.525-20.886,14.476-52.401-6.797-70.25c-0.177-0.149-0.356-0.297-0.535-0.443
			c10.471-8.418,17.674-20.074,22.222-29.493c0.036-0.07,0.072-0.14,0.106-0.211c3.158-6.508,7.102-12.6,11.723-18.107
			c5.97-7.114,12.914-13.121,20.578-17.934c-0.356-1.155-1.092-2.184-2.164-2.86c-5.236-3.305-4.046-9.162-2.837-12.423
			c-10.353,5.968-19.672,13.754-27.564,23.16c-5.346,6.371-9.922,13.402-13.604,20.905c-0.136,0.242-0.26,0.491-0.37,0.749
			l-0.016,0.038c-4.938,10.194-13.449,23.449-26.045,29.029c-2.83,1.253-4.654,4.057-4.655,7.151
			c-0.001,3.095,1.822,5.899,4.651,7.154c3.054,1.355,5.898,3.129,8.453,5.273c14.663,12.305,16.848,33.93,4.869,48.206
			c-11.98,14.276-33.654,15.88-48.319,3.576c-5.915-4.963-9.959-11.518-11.697-18.955c-0.8-3.425-3.787-5.895-7.301-6.038
			c-3.514-0.149-6.691,2.077-7.767,5.426c-5.867,18.274-26.77,30.123-35.83,34.508c-15.242,5.76-28.092,14.785-38.195,26.826
			c-1.636,1.949-3.174,3.96-4.628,6.021c2.813,5.129,5.803,10.148,8.964,15.046c2.206-3.878,4.755-7.558,7.65-11.009
			c8.422-10.036,19.197-17.558,32.028-22.355c0.219-0.081,0.433-0.172,0.644-0.273c18.533-8.889,29.575-19.278,36.148-28.343
			c2.709,4.128,6.037,7.871,9.926,11.133C146.683,366.686,178.248,364.218,195.773,343.331z"/>
		<path style="fill:#EF7D5E;" d="M311.037,395.929c2.557,2.146,4.798,4.638,6.661,7.408c1.727,2.568,4.805,3.88,7.853,3.339
			c3.048-0.538,5.492-2.822,6.235-5.826c1.928-7.792,7.196-15.897,14.893-23.194h0c-8.588,0-10.251-4.86-10.308-8.451
			c-0.015-0.944-0.29-1.833-0.747-2.61c-5.798,5.57-10.535,11.619-13.961,17.831c-0.188-0.162-0.376-0.323-0.565-0.482
			c-21.272-17.85-52.839-15.381-70.365,5.505c-17.525,20.886-14.476,52.401,6.797,70.251c3.888,3.263,8.153,5.891,12.688,7.842
			c-7.786,8.047-16.099,20.725-21.635,40.522c-0.063,0.224-0.115,0.452-0.158,0.681c-0.201,1.085-0.429,2.157-0.67,3.223
			c5.438-0.06,10.837-0.279,16.184-0.688c2.915-10.019,10.966-31.853,27.567-40.605c3.111-1.641,4.745-5.155,3.994-8.592
			c-0.751-3.436-3.702-5.948-7.214-6.142c-7.626-0.42-14.783-3.265-20.698-8.227c-14.663-12.305-16.848-33.93-4.869-48.206
			C274.699,385.229,296.376,383.625,311.037,395.929z"/>
	</g>
	
		<rect x="199.999" y="309.336" transform="matrix(-0.766 -0.6428 0.6428 -0.766 157.3909 791.3553)" style="fill:#D0E8FE;" width="45.422" height="115.398"/>
	
		<rect x="156.313" y="348.38" transform="matrix(0.6428 -0.766 0.766 0.6428 -199.1253 292.4416)" style="fill:#91D1F9;" width="115.398" height="22.711"/>
	<path style="fill:#E06E53;" d="M104.873,467.978c14.302,9.99,29.716,18.495,46.026,25.286l59.488-61.249l-49.529-41.56
		L104.873,467.978z"/>
	<path style="fill:#EF7D5E;" d="M449.909,68.895l26.959,22.621c1.016,0.853,2.121,1.527,3.273,2.06L284.563,343.615l-49.529-41.56
		L447.313,66.029C448.037,67.071,448.893,68.043,449.909,68.895z"/>
	<path style="fill:#E06E53;" d="M301.492,314.305c-34.92-7.74-33.973-35.592-32.053-46.892c0.188-1.104,0.009-2.182-0.428-3.135
		l-33.976,37.777l49.529,41.56l20.665-26.419C304.502,315.771,303.166,314.676,301.492,314.305z"/>
	<path style="fill:#E06E53;" d="M480.141,93.576l-18.74,23.958l-34.429-28.89l20.34-22.615c0.724,1.042,1.581,2.013,2.596,2.866
		l26.959,22.621C477.884,92.369,478.989,93.044,480.141,93.576z"/>
	<path style="fill:#E06E53;" d="M7.415,327.007L247.893,40.416c2.595-3.092,7.465-4.435,13.361-3.683l22.525,2.875
		c16.462,2.101,31.317-3.147,40.757-14.399c5.447-6.492,4.601-16.172-1.891-21.619c-6.492-5.447-16.172-4.601-21.619,1.891
		c-2.595,3.093-7.465,4.435-13.361,3.683L265.14,6.29c-16.462-2.101-31.317,3.147-40.757,14.399L0.826,287.112
		C1.935,300.757,4.162,314.086,7.415,327.007z"/>
	<path style="fill:#D3644F;" d="M7.415,327.007L188.834,110.8l0,0c-27.047-2-18.824-25.313-18.824-25.313l0,0L0.826,287.112
		C1.935,300.757,4.161,314.085,7.415,327.007z"/>
	<path style="fill:#F6D100;" d="M292.867,28.777c-3.31-2.778-8.246-2.347-11.022,0.964L14.041,348.897
		c1.989,5.608,4.176,11.122,6.553,16.534L293.832,39.799C296.609,36.49,296.178,31.554,292.867,28.777z"/>
	<path style="fill:#F2BA00;" d="M201.526,125.461L201.526,125.461L14.042,348.896c1.989,5.608,4.176,11.122,6.553,16.534
		l190.236-226.714C197.53,138.716,201.526,125.461,201.526,125.461z"/>
	<g>
		<path style="fill:#FCA58D;" d="M280.679,353.973l-55.171-46.294c-4.414-3.704-4.989-10.284-1.286-14.697
			c3.703-4.414,10.284-4.989,14.697-1.286l55.171,46.294c4.414,3.704,4.989,10.284,1.286,14.697
			C291.692,357.078,285.114,357.694,280.679,353.973z"/>
	</g>
	<path style="fill:#F98F6E;" d="M254.141,318.201c3.214-3.831,8.491-4.898,12.842-2.956l-28.065-23.549
		c-4.413-3.703-10.995-3.128-14.697,1.286c-3.703,4.414-3.127,10.994,1.286,14.697l27.646,23.198
		C250.811,326.982,251.057,321.878,254.141,318.201z"/>
	<path style="fill:#F98F6E;" d="M477.705,33.992l28.709,24.09c6.61,5.546,7.48,15.492,1.934,22.102l-10.364,12.351
		c-5.546,6.61-15.492,7.48-22.102,1.934l-28.709-24.09c-6.61-5.546-7.48-15.492-1.934-22.102l10.364-12.352
		C461.149,29.316,471.095,28.446,477.705,33.992z"/>
	<path style="fill:#EF7D5E;" d="M468.454,69.206l11.434-13.627c4.172-4.972,10.6-6.994,16.58-5.841l-18.764-15.745
		c-6.61-5.546-16.555-4.676-22.102,1.934l-10.364,12.351c-5.546,6.61-4.676,16.556,1.934,22.102l18.068,15.161
		C463.53,80.082,464.525,73.887,468.454,69.206z"/>
	<g>
		<path style="fill:#FCA58D;" d="M206.502,442.374l-55.171-46.294c-4.414-3.704-4.989-10.284-1.286-14.697
			c3.703-4.414,10.284-4.989,14.697-1.286l55.171,46.294c4.414,3.704,4.989,10.284,1.286,14.697
			C217.515,445.478,210.938,446.095,206.502,442.374z"/>
	</g>
	<path style="fill:#F98F6E;" d="M179.965,406.601c3.214-3.831,8.491-4.897,12.842-2.956l-28.064-23.549
		c-4.413-3.703-10.995-3.128-14.697,1.286c-3.703,4.414-3.127,10.994,1.286,14.697l27.646,23.198
		C176.635,415.382,176.88,410.278,179.965,406.601z"/>
</g>
<g>
</g>
<g>
</g>
<g>
</g>
<g>
</g>
<g>
</g>
<g>
</g>
<g>
</g>
<g>
</g>
<g>
</g>
<g>
</g>
<g>
</g>
<g>
</g>
<g>
</g>
<g>
</g>
<g>
</g>
</svg>
