<?xml version="1.0" encoding="iso-8859-1"?>
<!-- Generator: Adobe Illustrator 21.0.0, SVG Export Plug-In . SVG Version: 6.00 Build 0)  -->
<svg version="1.1" id="Capa_1" xmlns="http://www.w3.org/2000/svg" xmlns:xlink="http://www.w3.org/1999/xlink" x="0px" y="0px"
	 viewBox="0 0 512 512" style="enable-background:new 0 0 512 512;" xml:space="preserve">
<g>
	<path style="fill:#3342AE;" d="M256,21.999c-135.31,0-245,109.69-245,245c0,66.116,26.199,126.105,68.769,170.18l0,0l50.076,39.876
		C166.696,499.235,209.855,512,256,512C391.31,512,501,402.309,501,266.999S391.31,21.999,256,21.999z"/>
	<g>
		<path style="fill:#D0E8FE;" d="M282.031,387.012c-98.533-17.374-164.56-111.671-147.186-210.204S246.516,12.248,345.049,29.622
			c98.533,17.374,164.56,111.671,147.186,210.204C474.861,338.359,380.564,404.386,282.031,387.012z"/>
	</g>
	<g>
		<path style="fill:#91D1F9;" d="M423.407,335.677c-2.133-2.924-2.842-6.358-2.345-9.583c0.139-0.904-0.651-1.668-1.557-1.546
			c-4.471,0.602-9.07-1.511-11.418-5.704c-2.481-4.43-1.585-10.002,1.856-13.513L277.649,76.189
			c-4.762,1.224-10.035-0.786-12.631-5.149c-2.457-4.13-1.988-9.169,0.769-12.74c0.559-0.724,0.292-1.79-0.56-2.122
			c-3.042-1.182-5.661-3.514-7.127-6.823c-2.246-5.07-0.898-11.1,3.159-14.766c-63.448,19.207-114.137,72.593-126.414,142.219
			c-17.374,98.533,48.654,192.83,147.186,210.204c58.585,10.33,115.672-8.826,155.983-46.766
			C432.753,342.063,426.725,340.226,423.407,335.677z"/>
	</g>
	<path style="fill:#31A7ED;" d="M343.121,62.506c-80.603-14.212-157.741,39.8-171.953,120.403s39.8,157.741,120.403,171.953
		c80.603,14.212,157.741-39.8,171.953-120.403C477.736,153.857,423.724,76.719,343.121,62.506z"/>
	<path style="fill:#1296D8;" d="M366.425,309.081c-80.603-14.213-134.616-91.351-120.403-171.953
		c4.911-27.853,17.34-52.527,34.825-72.312c-54.81,13.991-99.236,58.862-109.68,118.094
		c-14.212,80.603,39.8,157.741,120.403,171.953c52.75,9.301,104.013-10.621,137.128-48.091
		C408.923,311.82,387.796,312.849,366.425,309.081z"/>
	<path style="fill:#E7387F;" d="M173.536,400.296c-4.374-10.078-13.104-17.612-23.713-20.464l-0.993-0.267
		c-10.838-1.821-22.359,1.956-29.897,10.939l-39.165,46.675c14.841,15.366,31.669,28.797,50.077,39.876l38.109-45.417
		C175.492,422.655,177.211,410.653,173.536,400.296L173.536,400.296z"/>
	<path style="fill:#E20A62;" d="M140.964,406.799c7.431-8.856,18.319-13.189,29.1-12.708c-4.813-6.93-11.947-12.029-20.241-14.258
		l-0.992-0.267c-10.838-1.821-22.359,1.956-29.897,10.939l-39.165,46.675c6.344,6.568,13.071,12.758,20.108,18.586L140.964,406.799z
		"/>
	<g>
		<path style="fill:#EB5793;" d="M161.353,439.505l-49.021-41.134c-3.173-2.662-3.587-7.393-0.924-10.566
			c2.663-3.173,7.393-3.587,10.566-0.924l49.021,41.134c3.173,2.662,3.587,7.393,0.924,10.566
			C169.27,441.738,164.54,442.179,161.353,439.505z"/>
	</g>
	<path style="fill:#E7387F;" d="M134.583,407.263c2.112-2.517,5.382-3.478,8.376-2.773l-20.985-17.608
		c-3.174-2.663-7.903-2.249-10.566,0.924c-2.663,3.173-2.249,7.904,0.924,10.566l20.958,17.586
		C132.095,413.138,132.48,409.769,134.583,407.263z"/>
	<g>
		<path style="fill:#91D1F9;" d="M286.029,364.343c-86.033-15.17-143.685-97.504-128.515-183.538
			c15.183-86.108,97.423-143.698,183.537-128.514c86.033,15.17,143.685,97.504,128.515,183.538
			C454.398,321.85,372.138,379.526,286.029,364.343z M234.177,94.977c-30.326,21.235-50.558,52.949-56.968,89.302
			c-13.254,75.172,37.12,147.113,112.292,160.368c75.223,13.264,147.104-37.064,160.369-112.291
			C471.254,111.075,334.694,24.603,234.177,94.977z"/>
	</g>
	<g>
		<path style="fill:#4AC4F4;" d="M419.505,324.548c-4.471,0.602-9.07-1.511-11.418-5.704c-1.493-2.666-1.759-5.747-0.989-8.544
			c-30.658,28.071-73.551,42.114-117.597,34.347c-75.172-13.254-125.546-85.196-112.291-160.368
			c6.41-36.353,26.642-68.068,56.967-89.302c12.14-8.499,24.807-14.69,37.657-18.829c-2.772-0.746-5.27-2.51-6.816-5.108
			c-2.457-4.13-1.988-9.169,0.769-12.74c0.262-0.339,0.336-0.752,0.26-1.13c-54.552,17.213-97.922,63.455-108.533,123.636
			c-15.17,86.033,42.482,168.367,128.515,183.538c50.448,8.895,99.568-7.226,134.656-39.395
			C420.391,324.652,419.963,324.486,419.505,324.548z"/>
	</g>
	<path style="fill:#EB5793;" d="M219.473,362.901c-7.684-4.687-15.114-10.003-22.215-15.962
		c-7.101-5.958-13.627-12.352-19.577-19.106c-8.825,1.173-17.256,5.517-23.429,12.874c-9.401,11.204-11.015,26.348-5.421,38.859
		l24.706,20.731c13.292,3.335,27.926-0.883,37.327-12.087C217.036,380.852,219.85,371.795,219.473,362.901z"/>
	<path style="fill:#E7387F;" d="M197.258,346.939c-7.101-5.958-13.627-12.352-19.577-19.106
		c-8.825,1.173-17.256,5.517-23.429,12.874c-9.401,11.204-11.014,26.348-5.421,38.858l17.261,14.484
		c1.199-0.729,1.891-2.049,1.841-3.451c-0.3-8.512,3.156-18.693,11.561-28.71c5.554-6.619,11.921-11.643,18.075-14.693
		C197.465,347.108,197.361,347.025,197.258,346.939z"/>
	<g>
		<path style="fill:#C40955;" d="M266.115,215.727c-65.439,0-125.97-42.72-145.499-108.578c-1.525-5.143,1.408-10.548,6.551-12.074
			c5.14-1.527,10.549,1.408,12.073,6.551c10.044,33.87,32.677,61.802,63.728,78.649c31.054,16.848,66.806,20.595,100.677,10.551
			c5.141-1.525,10.549,1.408,12.073,6.551c1.525,5.143-1.408,10.548-6.551,12.074C294.837,213.702,280.354,215.727,266.115,215.727z
			"/>
	</g>
	<path style="fill:#E20A62;" d="M309.168,209.452c49.539-14.689,103.01,1.068,136.764,39.261c2.278-7.511,3.898-15.165,4.868-22.875
		c-38.787-36.462-94.889-50.51-147.154-35.01c-5.143,1.525-8.076,6.931-6.551,12.074
		C298.619,208.044,304.027,210.976,309.168,209.452z"/>
	<g>
		<path style="fill:#C40955;" d="M329.779,194.362c0-3.972,2.148-7.433,5.339-9.313c-10.532,0.801-21.078,2.696-31.472,5.779
			c-5.143,1.525-8.076,6.931-6.551,12.074c1.524,5.143,6.932,8.074,12.073,6.551c9.065-2.688,18.261-4.346,27.445-5.044
			C332.612,202.823,329.779,198.927,329.779,194.362z"/>
	</g>
	<g>
		<path style="fill:#EB5793;" d="M139.708,136.112c-2.079,0-4.143-0.885-5.584-2.602c-2.587-3.082-2.185-7.677,0.897-10.263
			L260.442,18.006c3.082-2.587,7.678-2.184,10.263,0.898c2.587,3.082,2.185,7.677-0.897,10.263L144.387,134.408
			C143.022,135.553,141.36,136.112,139.708,136.112z"/>
	</g>
	<g>
		<path style="fill:#EB5793;" d="M139.708,136.112c-2.079,0-4.143-0.885-5.584-2.602c-2.587-3.082-2.185-7.677,0.897-10.263
			L260.442,18.006c3.082-2.587,7.678-2.184,10.263,0.898c2.587,3.082,2.185,7.677-0.897,10.263L144.387,134.408
			C143.022,135.553,141.36,136.112,139.708,136.112z"/>
	</g>
	<g>
		<path style="fill:#F6D100;" d="M241.481,209.439c-2.587-3.082-2.185-7.677,0.897-10.263l74.197-62.259
			c3.082-2.587,7.677-2.184,10.263,0.898c2.587,3.082,2.184,7.677-0.897,10.263l-74.197,62.259
			C248.649,212.934,244.055,212.507,241.481,209.439z"/>
	</g>
	<g>
		<path style="fill:#F6D100;" d="M241.481,209.439c-2.587-3.082-2.185-7.677,0.897-10.263l74.197-62.259
			c3.082-2.587,7.677-2.184,10.263,0.898c2.587,3.082,2.184,7.677-0.897,10.263l-74.197,62.259
			C248.649,212.934,244.055,212.507,241.481,209.439z"/>
	</g>
	<g>
		<path style="fill:#EB5793;" d="M193.846,194.071c-2.587-3.082-2.185-7.677,0.897-10.263l114.969-96.47
			c3.083-2.587,7.678-2.185,10.263,0.898c2.587,3.082,2.185,7.677-0.897,10.263l-114.969,96.47
			C201.015,197.566,196.421,197.139,193.846,194.071z"/>
	</g>
	<g>
		<path style="fill:#EB5793;" d="M193.846,194.071c-2.587-3.082-2.185-7.677,0.897-10.263l114.969-96.47
			c3.083-2.587,7.678-2.185,10.263,0.898c2.587,3.082,2.185,7.677-0.897,10.263l-114.969,96.47
			C201.015,197.566,196.421,197.139,193.846,194.071z"/>
	</g>
	<g>
		<path style="fill:#F6D100;" d="M158.816,166.86c-2.587-3.082-2.185-7.677,0.897-10.263L289.953,47.314
			c3.083-2.587,7.677-2.184,10.263,0.898c2.587,3.082,2.185,7.677-0.897,10.263l-130.24,109.284
			C165.984,170.355,161.39,169.928,158.816,166.86z"/>
	</g>
	<g>
		<path style="fill:#F6D100;" d="M158.816,166.86c-2.587-3.082-2.185-7.677,0.897-10.263L289.953,47.314
			c3.083-2.587,7.677-2.184,10.263,0.898c2.587,3.082,2.185,7.677-0.897,10.263l-130.24,109.284
			C165.984,170.355,161.39,169.928,158.816,166.86z"/>
	</g>
	<g>
		<path style="fill:#EB5793;" d="M285.974,262.465c-2.587-3.082-2.185-7.677,0.897-10.263l74.197-62.259
			c3.083-2.587,7.678-2.185,10.263,0.898c2.587,3.082,2.185,7.677-0.897,10.263l-74.197,62.259
			C293.136,265.965,288.543,265.527,285.974,262.465z"/>
	</g>
	<g>
		<path style="fill:#E7387F;" d="M321.261,223.346l-34.39,28.856c-3.082,2.586-3.484,7.181-0.897,10.263
			c2.569,3.062,7.161,3.501,10.263,0.898l34.473-28.927C324.558,235.084,319.632,229.374,321.261,223.346z"/>
	</g>
	<g>
		<path style="fill:#F6D100;" d="M292.837,312.043c-2.587-3.082-2.185-7.677,0.897-10.263l114.969-96.47
			c3.082-2.587,7.678-2.185,10.263,0.898c2.587,3.082,2.185,7.677-0.897,10.263L303.1,312.941
			C299.998,315.544,295.406,315.106,292.837,312.043z"/>
	</g>
	<g>
		<path style="fill:#F2BA00;" d="M338.895,263.886l-45.161,37.895c-3.082,2.586-3.484,7.181-0.897,10.263
			c2.569,3.063,7.161,3.5,10.263,0.898l45.421-38.113C342.359,275.578,337.355,269.939,338.895,263.886z"/>
	</g>
	<path style="fill:#EB5793;" d="M325.6,346.154c1.48-0.129,2.953-0.29,4.422-0.465l116.022-97.354
		c1.817-6.054,3.214-12.199,4.181-18.392c-2.235-0.621-4.728-0.169-6.64,1.435L313.346,340.662
		c-1.827,1.533-2.703,3.771-2.583,5.982C315.681,346.734,320.63,346.589,325.6,346.154z"/>
	<g>
		<path style="fill:#E7387F;" d="M360.428,301.156l-47.082,39.506c-1.827,1.533-2.703,3.771-2.583,5.982
			c4.918,0.09,9.866-0.055,14.837-0.49c1.48-0.129,2.953-0.29,4.422-0.465l40.883-34.305
			C364.807,312.64,359.307,307.363,360.428,301.156z"/>
	</g>
	<path style="fill:#E20A62;" d="M306.439,346.495c6.334,0.313,12.73,0.221,19.161-0.341c1.399-0.122,2.791-0.272,4.18-0.435
		c-14.314-18.043-23.639-39.452-27.132-62.49c-4.092-26.996,0.213-54.228,12.451-78.753c2.395-4.8,0.445-10.633-4.355-13.028
		c-4.802-2.397-10.633-0.445-13.028,4.354C272.705,245.927,278.08,303.102,306.439,346.495z"/>
	<g>
		<path style="fill:#E7387F;" d="M306.399,209.855c-1.457,0-2.937-0.329-4.329-1.024c-4.8-2.395-6.75-8.228-4.355-13.028
			c32.56-65.256,5.96-144.836-59.297-177.396c-4.8-2.395-6.75-8.228-4.355-13.028c2.396-4.8,8.228-6.75,13.028-4.355
			c36.254,18.09,63.295,49.215,76.14,87.642c12.844,38.427,9.956,79.556-8.133,115.811
			C313.398,207.884,309.965,209.855,306.399,209.855z"/>
	</g>
	<g>
		<path style="fill:#E7387F;" d="M177.056,87.976l-42.035,35.271c-3.082,2.586-3.484,7.181-0.897,10.263
			c1.441,1.717,3.505,2.602,5.584,2.602c1.652,0,3.314-0.559,4.679-1.704l42.562-35.714
			C180.761,99.601,175.657,94.038,177.056,87.976z"/>
	</g>
	<g>
		<path style="fill:#F2BA00;" d="M202.617,120.597l-42.904,36c-3.082,2.586-3.484,7.181-0.897,10.263
			c2.574,3.068,7.168,3.495,10.263,0.898l43.6-36.585C206.475,132.185,201.31,126.651,202.617,120.597z"/>
	</g>
	<g>
		<path style="fill:#E7387F;" d="M234.385,150.545l-39.641,33.263c-3.082,2.585-3.484,7.181-0.897,10.263
			c2.574,3.068,7.168,3.495,10.263,0.898l39.569-33.203C237.477,162.324,232.68,156.513,234.385,150.545z"/>
	</g>
	<g>
		<path style="fill:#F2BA00;" d="M273.911,172.717l-31.533,26.46c-3.082,2.586-3.484,7.181-0.897,10.263
			c2.574,3.068,7.168,3.495,10.263,0.898l30.86-25.895C276.322,184.696,271.867,178.568,273.911,172.717z"/>
	</g>
</g>
<g>
</g>
<g>
</g>
<g>
</g>
<g>
</g>
<g>
</g>
<g>
</g>
<g>
</g>
<g>
</g>
<g>
</g>
<g>
</g>
<g>
</g>
<g>
</g>
<g>
</g>
<g>
</g>
<g>
</g>
</svg>
