<?xml version="1.0" encoding="iso-8859-1"?>
<!-- Generator: Adobe Illustrator 21.0.0, SVG Export Plug-In . SVG Version: 6.00 Build 0)  -->
<svg version="1.1" id="Capa_1" xmlns="http://www.w3.org/2000/svg" xmlns:xlink="http://www.w3.org/1999/xlink" x="0px" y="0px"
	 viewBox="0 0 512 512" style="enable-background:new 0 0 512 512;" xml:space="preserve">
<g>
	<path style="fill:#31A7ED;" d="M414.228,454.038c53.071-44.941,86.773-112.048,86.773-187.038
		c0-135.31-109.691-245.001-245.001-245.001C120.69,21.999,10.999,131.689,10.999,267c0,63.106,23.866,120.634,63.055,164.066
		L414.228,454.038z"/>
	<g>
		<path style="fill:#91D1F9;" d="M265.945,359.488c1.179-0.395,2.432-0.614,3.731-0.614h76.696c1.298,0,2.552,0.22,3.731,0.614
			c-7.741-37.44-13.193-90.028-3.731-149.975h-38.348h-38.348C279.137,269.46,273.686,322.048,265.945,359.488z"/>
	</g>
	<g>
		<path style="fill:#4AC4F4;" d="M307.858,209.513h-38.182c9.462,59.947,4.01,112.535-3.731,149.975
			c1.179-0.395,2.432-0.614,3.731-0.614h35.682C310.678,321.474,314.382,269.137,307.858,209.513z"/>
	</g>
	<path style="fill:#91D1F9;" d="M235.761,97.907c0,0,32.213,18.183,32.213,61.199c21.495,0,67.068,0,80.098,0
		c0-43.017,32.213-61.199,32.213-61.199C362.795,97.907,253.367,97.907,235.761,97.907z"/>
	<path style="fill:#4AC4F4;" d="M284.347,97.907c-22.621,0-42.009,0-48.586,0c0,0,32.213,18.183,32.213,61.199
		c9.722,0,24.369,0,38.704,0C306.679,116.09,284.347,97.907,284.347,97.907z"/>
	<circle style="fill:#D0E8FE;" cx="308.023" cy="22.174" r="22.174"/>
	<path style="fill:#A9D8FC;" d="M316.081,28.232c-7.796,0-14.116-6.32-14.116-14.116c0-6.574,4.5-12.082,10.584-13.653
		C311.088,0.161,309.574,0,308.023,0c-12.246,0-22.173,9.928-22.173,22.174c0,12.246,9.927,22.173,22.173,22.173
		c12.246,0,22.174-9.927,22.174-22.173c0-1.551-0.16-3.064-0.463-4.525C328.163,23.732,322.655,28.232,316.081,28.232z"/>
	<path style="fill:#91D1F9;" d="M256.59,64.576c-1.558,2.439-3.182,4.652-4.806,6.645h112.479c-1.624-1.993-3.247-4.206-4.806-6.645
		c-9.182-14.37-25.062-23.067-42.115-23.067h-18.637C281.652,41.509,265.772,50.206,256.59,64.576z"/>
	<path style="fill:#4AC4F4;" d="M323.626,41.907c-2.07-0.262-4.168-0.398-6.284-0.398h-18.637c-17.053,0-32.933,8.697-42.115,23.067
		c-1.558,2.439-3.182,4.652-4.806,6.645h43.671c1.126-1.993,2.251-4.206,3.331-6.645C304.362,51.989,313.5,43.756,323.626,41.907z"
		/>
	<g>
		<path style="fill:#A9D8FC;" d="M380.286,98.933H235.761c-7.936,0-14.368-6.433-14.368-14.368c0-7.936,6.433-14.368,14.368-14.368
			h144.525c7.936,0,14.368,6.433,14.368,14.368C394.654,92.5,388.221,98.933,380.286,98.933z"/>
	</g>
	<path style="fill:#91D1F9;" d="M280.946,84.564c0-7.936,6.433-14.368,14.368-14.368h-59.553c-7.936,0-14.368,6.433-14.368,14.368
		c0,7.936,6.433,14.369,14.368,14.369h59.553C287.379,98.933,280.946,92.5,280.946,84.564z"/>
	<path style="fill:#D0E8FE;" d="M366.296,182.827v-6.522c0-10.023-8.201-18.223-18.223-18.223h-80.098
		c-10.023,0-18.223,8.2-18.223,18.223v6.522H366.296z"/>
	<path style="fill:#A9D8FC;" d="M312.165,158.081h-44.19c-10.023,0-18.223,8.201-18.223,18.224v6.522h52.38v-6.522
		C302.132,166.282,306.646,158.081,312.165,158.081z"/>
	<g>
		<path style="fill:#A9D8FC;" d="M380.286,210.538H235.761c-7.936,0-14.368-6.433-14.368-14.368s6.433-14.368,14.368-14.368h144.525
			c7.936,0,14.368,6.433,14.368,14.368S388.221,210.538,380.286,210.538z"/>
	</g>
	<path style="fill:#91D1F9;" d="M293.655,196.17c0-7.936,6.433-14.369,14.369-14.369h-72.262c-7.936,0-14.368,6.433-14.368,14.369
		c0,7.936,6.433,14.369,14.368,14.369h72.262C300.088,210.539,293.655,204.106,293.655,196.17z"/>
	<path style="fill:#A9D8FC;" d="M357.873,367.127c-1.172-5.414-5.962-9.278-11.502-9.278h-76.696c-5.54,0-10.33,3.864-11.502,9.278
		l-9.703,44.814h119.107L357.873,367.127z"/>
	<path style="fill:#91D1F9;" d="M307.858,357.849h-38.182c-5.54,0-10.33,3.864-11.502,9.278l-9.703,44.814h44.688l6.727-44.814
		C300.697,361.712,304.017,357.849,307.858,357.849z"/>
	<path style="fill:#91D1F9;" d="M374.878,413.304c-2.397-1.576-5.21-2.389-8.079-2.389H245.394c0,0-23.492,10.123-23.492,38.86
		h172.244C394.145,428.809,381.641,417.751,374.878,413.304z"/>
	<path style="fill:#4AC4F4;" d="M291.025,410.915h-45.631c0,0-23.492,10.123-23.492,38.859h52.838
		C274.739,421.038,291.025,410.915,291.025,410.915z"/>
	<path style="fill:#D0E8FE;" d="M415.323,453.112c-2.874-2.698-6.731-4.362-10.984-4.362H211.708
		c-8.875,0-16.069,7.194-16.069,16.069s7.194,16.069,16.069,16.069h163.833C389.733,472.938,403.054,463.624,415.323,453.112z"/>
	<path style="fill:#A9D8FC;" d="M197.921,479.862c-8.875,0-16.069,7.194-16.069,16.069c0,1.703,0.269,3.341,0.76,4.881
		C205.782,508.078,230.433,512,256,512c44.163,0,85.594-11.691,121.375-32.138H197.921z"/>
	<path style="fill:#717ED6;" d="M303.905,390.512c-61.73-46.668-38.684-184.259-38.684-184.259l-1.129,3.019
		c-2.806,65.244-53.003,147.914,5.588,199.463l2.534,1.33c12.38-1.84,21.842-3.863,28.852-5.682
		C307.42,402.734,309.141,394.471,303.905,390.512z"/>
	<g>
		<path style="fill:#5766CE;" d="M303.905,390.512c-22.803-17.239-34.031-46.887-39.132-77.421c-0.83,4.756-4.97,8.375-9.964,8.375
			c-4.036,0-7.51-2.368-9.137-5.785c-0.734,1.171-1.579,2.265-2.517,3.272c-4.615,33.497-1.434,65.184,26.525,89.783l2.535,1.33
			c12.379-1.84,21.841-3.863,28.852-5.682C307.42,402.734,309.141,394.471,303.905,390.512z"/>
	</g>
	<path style="fill:#8C96DD;" d="M273.24,410.065c-69.191-58.364,5.838-158.028-8.949-226.247
		c-15.261-70.411-82.572-68.777-106.231-45.118c-9.141,9.141-12.588,18.349-13.316,26.307c0,0,48.928,3.561,69.437,51.242
		c20.508,47.681-70.577,132.955,25.552,198.797c10.894,4.174,23.227,3.557,31.418,2.376
		C274.733,416.905,276.006,412.398,273.24,410.065z"/>
	<g>
		<path style="fill:#717ED6;" d="M273.24,410.065c-30.314-25.57-32.944-59.067-27.574-94.375
			c-3.831,6.102-10.616,10.162-18.353,10.162c-11.963,0-21.66-9.698-21.66-21.661c0-0.665,0.035-1.322,0.093-1.972
			c-1.856,2.612-4.281,4.788-7.087,6.365c-8.256,35.582-7.104,73.462,41.075,106.461c10.894,4.175,23.227,3.557,31.418,2.376
			C274.733,416.905,276.006,412.398,273.24,410.065z"/>
	</g>
	<path style="fill:#5766CE;" d="M239.733,415.046c-73.108-54.507-28.01-127.367-12.132-148.805
		c3.118-4.211,4.653-9.386,4.285-14.613l-0.008-0.116c-1.031-10.181-3.808-20.947-8.797-32.264
		c-2.938-4.441-2.953-10.193-0.038-14.653c10.76-16.467,10.403-35.155,8.173-48.024c-0.446-2.574-2.213-4.8-4.697-5.611
		c-2.457-0.802-5.042-0.223-6.921,1.55L199.6,171.395c-2.207,2.084-5.648,2.111-7.887,0.061l-3.411-3.123
		c-1.197-1.095-2.74-1.736-4.36-1.81l-33.931-1.555c-13.236-0.607-25.924,3.963-35.727,12.866
		c-10.149,9.214-23.618,20.859-30.153,24.006c-6.178,2.977-11.833,2.973-15.487,2.446c-3.59-0.518-6.976,1.889-7.708,5.479
		l-5.252,25.776c-0.572,2.821,0.681,5.739,3.123,7.262l14.763,9.2c4.156,2.59,9.406,2.675,13.444,0.235
		c4.445-2.686,9.406-4.403,14.594-4.632l7.512-0.331c2.541-0.112,5.007,0.813,6.874,2.539c4.607,4.259,14.92,12.234,29.42,14.4
		c-78.904,52.98-78.302,128.879-72.303,165.786c6.892,7.728,14.259,15.022,22.069,21.823h169.112
		C264.292,433.332,239.733,415.046,239.733,415.046z"/>
	<path style="fill:#3D4EC6;" d="M162.979,442.099c-59.553-96.447,14.887-190.684,14.887-190.684
		c14.9-45.717-15.567-43.949-39.567-51.616s6.446-34.793,6.446-34.793l0,0c-11.305,0.659-21.967,5.112-30.461,12.827
		c-10.149,9.214-23.618,20.859-30.153,24.006c-6.178,2.977-11.833,2.974-15.487,2.446c-3.59-0.518-6.976,1.889-7.708,5.48
		l-5.252,25.775c-0.572,2.821,0.681,5.739,3.123,7.262l14.763,9.2c4.156,2.59,9.406,2.675,13.443,0.235
		c4.445-2.686,9.406-4.403,14.595-4.631l7.512-0.331c2.541-0.112,5.006,0.813,6.874,2.54c4.607,4.259,14.92,12.234,29.42,14.4
		c-78.904,52.98-78.302,128.879-72.303,165.787c6.892,7.728,14.259,15.022,22.069,21.823h68.154
		C164.95,448.81,164.822,445.085,162.979,442.099z"/>
	<path style="fill:#3342AE;" d="M144.997,264.142c0.141,0.022,0.275,0.053,0.416,0.074c-6.266,4.207-12.01,8.553-17.31,12.999
		c14.547,4.913,50.858,3.436,63.14-18.209c2.096-3.694,0.8-8.388-2.894-10.484c-3.692-2.097-8.388-0.801-10.484,2.893
		C172.201,261.395,156.67,264.249,144.997,264.142z"/>
	<path style="fill:#8C96DD;" d="M264.292,448.749H91.713c13.612,12.312,28.618,23.105,44.746,32.138h127.833
		c8.875,0,16.069-7.194,16.069-16.069S273.167,448.749,264.292,448.749z"/>
	<path style="fill:#717ED6;" d="M164.336,448.749H91.713c13.612,12.312,28.618,23.105,44.746,32.138h27.761
		c0.251-2.297-0.295-4.653-1.652-6.646c-6.469-9.496-3.558-16.72-0.143-21.012C163.479,451.903,164.098,450.353,164.336,448.749z"/>
	<path style="fill:#717ED6;" d="M294.149,495.931c0-8.875-7.194-16.069-16.069-16.069H134.625C170.406,500.309,211.837,512,256,512
		c9.938,0,19.734-0.608,29.362-1.758C290.573,507.585,294.149,502.181,294.149,495.931z"/>
	<path style="fill:#5766CE;" d="M134.625,479.862c8.285,4.735,16.877,8.993,25.732,12.752c0.152-2.978,1.207-5.549,2.453-7.586
		c0.975-1.593,1.451-3.38,1.461-5.166H134.625z"/>
</g>
<g>
</g>
<g>
</g>
<g>
</g>
<g>
</g>
<g>
</g>
<g>
</g>
<g>
</g>
<g>
</g>
<g>
</g>
<g>
</g>
<g>
</g>
<g>
</g>
<g>
</g>
<g>
</g>
<g>
</g>
</svg>
