<?xml version="1.0" encoding="iso-8859-1"?>
<!-- Generator: Adobe Illustrator 21.0.0, SVG Export Plug-In . SVG Version: 6.00 Build 0)  -->
<svg version="1.1" id="Capa_1" xmlns="http://www.w3.org/2000/svg" xmlns:xlink="http://www.w3.org/1999/xlink" x="0px" y="0px"
	 viewBox="0 0 512 512" style="enable-background:new 0 0 512 512;" xml:space="preserve">
<g>
	<path style="fill:#F6D100;" d="M0.69,238.539l483.311,71.534c3.919-17.397,6-35.491,6-54.073
		c0-135.31-109.69-245.001-245.001-245.001C115.56,10.999,9.577,111.384,0.626,238.548L0.69,238.539z"/>
	<path style="fill:#82CD64;" d="M43.397,395.225c44.215,63.903,118.014,105.776,201.604,105.776s157.389-41.872,201.604-105.776
		H43.397z"/>
	<path style="fill:#5DB33A;" d="M319.76,395.225H43.397C87.612,459.128,161.41,501,245.001,501c17.352,0,34.281-1.81,50.613-5.241
		C250.054,474.762,259.363,395.225,319.76,395.225z"/>
	<path style="fill:#8C96DD;" d="M290.285,77.068c-1.816-2.378-2.909-5.332-2.909-8.537v-14.72c0-3.205,1.094-6.16,2.909-8.537
		h-65.878c2.985,4.578,4.727,10.036,4.727,15.897c0,5.861-1.742,11.319-4.727,15.897H290.285z"/>
	<path style="fill:#717ED6;" d="M287.376,53.81c0-3.205,1.094-6.16,2.909-8.537h-32.399c4.618,0,8.188,3.823,8.157,8.441
		c0,0.032,0,0.064,0,0.096v14.72c0,0.032,0,0.064,0,0.096c0.031,4.618-3.539,8.441-8.157,8.441h32.399
		c-1.816-2.377-2.909-5.333-2.909-8.537V53.81z"/>
	<g>
		<path style="fill:#A9D8FC;" d="M172.079,69.897l-67.364,81.38c11.713,0.826,21.541,8.586,25.385,19.195l66.477-80.307
			C185.007,88.831,175.474,80.713,172.079,69.897z"/>
	</g>
	<path style="fill:#4AC4F4;" d="M139.079,135.725c-6.162-4.872-7.973-11.961-6.405-18.225l-27.959,33.776
		c11.713,0.826,21.541,8.587,25.385,19.196l26.568-32.095C150.956,140.616,144.24,139.806,139.079,135.725z"/>
	<g>
		<circle style="fill:#D0E8FE;" cx="199.94" cy="61.171" r="30.961"/>
	</g>
	<path style="fill:#A9D8FC;" d="M216.623,87.246L216.623,87.246c-17.534-2.553-9.732-17.349-9.732-17.349l-11.412-18.96
		c-15.012-2.861-7.98-18.119-7.98-18.119l0,0c-10.903,4.792-18.52,15.679-18.52,28.352c0,17.1,13.861,30.961,30.961,30.961
		C206.085,92.131,211.807,90.333,216.623,87.246z"/>
	<path style="fill:#5766CE;" d="M426.674,44.72l-75.892-10.307v53.515l75.892-10.307c2.334-0.317,4.073-2.285,4.073-4.61V49.33
		C430.746,47.005,429.008,45.037,426.674,44.72z"/>
	<path style="fill:#3D4EC6;" d="M371.449,66.875V55.466c0-7.546,4.512-13.913,10.853-16.773l-31.519-4.28v53.514l31.519-4.28
		C375.961,80.788,371.449,74.421,371.449,66.875z"/>
	<g>
		<path style="fill:#5766CE;" d="M321.231,39.68h-20.902c-7.772,0-14.131,6.359-14.131,14.131v14.72
			c0,7.772,6.359,14.131,14.131,14.131h20.902V39.68z"/>
	</g>
	<path style="fill:#3D4EC6;" d="M286.628,50.425c-0.27,1.087-0.43,2.218-0.43,3.386v14.72c0,7.772,6.359,14.131,14.131,14.131
		h20.902V61.17h-20.902C293.725,61.17,288.157,56.573,286.628,50.425z"/>
	<g>
		<path style="fill:#D0E8FE;" d="M87.149,207.191h30.985c9.245-5.356,15.468-15.348,15.468-26.801
			c0-17.099-13.862-30.961-30.961-30.961s-30.961,13.862-30.961,30.961C71.681,191.842,77.905,201.835,87.149,207.191z"/>
	</g>
	<path style="fill:#A9D8FC;" d="M107.585,190.664l-9.474-20.191c-14.213-4.628-6.636-18.958-6.636-18.959
		c-11.578,4.481-19.793,15.716-19.793,28.876c0,11.453,6.224,21.446,15.468,26.801h30.985
		C101.862,204.832,107.585,190.664,107.585,190.664z"/>
	<g>
		<path style="fill:#A9D8FC;" d="M143.278,237.869H62.006c-8.78,0-15.897-7.117-15.897-15.897c0-8.78,7.117-15.898,15.897-15.898
			h81.272c8.78,0,15.897,7.117,15.897,15.898C159.175,230.752,152.058,237.869,143.278,237.869z"/>
	</g>
	<path style="fill:#4AC4F4;" d="M94.112,221.972c0-8.78,7.117-15.898,15.897-15.898H62.006c-8.78,0-15.898,7.117-15.898,15.898
		c0,8.78,7.117,15.897,15.898,15.897h48.003C101.229,237.869,94.112,230.752,94.112,221.972z"/>
	<g>
		<path style="fill:#31A7ED;" d="M102.641,191.829c-6.127,0-11.167-4.969-11.167-11.167c0-7.113,6.565-12.309,13.344-10.944
			c5.278,1.074,8.989,5.637,8.989,10.944C113.808,186.709,108.906,191.829,102.641,191.829z"/>
	</g>
	<g>
		<path style="fill:#31A7ED;" d="M199.937,72.335c-6.287,0-11.167-5.148-11.167-11.167c0-7.049,6.484-12.329,13.355-10.943
			c5.398,1.113,8.978,5.778,8.978,10.943C211.103,67.383,206.058,72.335,199.937,72.335z"/>
	</g>
	<path style="fill:#EB5793;" d="M308.175,238.986c0.575-2.128,0.888-4.363,0.888-6.673c0-14.091-11.423-25.514-25.514-25.514
		c-14.091,0-25.514,11.423-25.514,25.514c0,2.31,0.312,4.545,0.887,6.673H308.175z"/>
	<path style="fill:#E7387F;" d="M295.619,209.831c-3.594-1.934-7.703-3.033-12.07-3.033c-14.091,0-25.514,11.423-25.514,25.515
		c0,2.31,0.312,4.545,0.887,6.673h24.141c-0.575-2.128-0.887-4.363-0.887-6.673C282.175,222.588,287.616,214.137,295.619,209.831z"
		/>
	<path style="fill:#717ED6;" d="M388.021,236.752H4.983c-1.513,0-2.955,0.286-4.293,0.786C0.236,243.633,0,249.789,0,256
		c0,27.338,4.482,53.627,12.743,78.18L512,330.959l-116.375-91.574C393.457,237.68,390.779,236.752,388.021,236.752z"/>
	<g>
		<path style="fill:#5766CE;" d="M170.226,311.764c-3.417-14.678-5.466-29.642-6.135-44.714
			c-0.707-15.921,11.428-29.344,27.112-30.297H4.983c-1.513,0-2.955,0.286-4.293,0.786C0.236,243.633,0,249.789,0,256
			c0,27.337,4.482,53.627,12.743,78.18l178.109-1.15C180.779,330.32,172.681,322.307,170.226,311.764z"/>
	</g>
	<path style="fill:#8C96DD;" d="M47.677,401.222c124.166,0,336.562,0,423.825,0c6.699,0,12.744-4.021,15.333-10.2L512,330.959
		c-22.979,0-407.869,0-500.302,0C19.883,356.455,32.127,380.129,47.677,401.222z"/>
	<path style="fill:#717ED6;" d="M11.698,330.959c3.366,10.484,7.429,20.655,12.116,30.471l29.263,39.792
		c38.923,0,85.874,0,134.695,0v-70.262C111.987,330.959,43.992,330.959,11.698,330.959z"/>
	<path style="fill:#EB5793;" d="M478.328,304.464H328.837c-11.551,0-21.361-9.453-21.144-21.002
		c0.21-11.2,9.354-20.214,20.604-20.214h97.654h0c21.45,7.641,39.819,22.078,52.312,41.115L478.328,304.464z"/>
	<path style="fill:#E7387F;" d="M379.193,283.462c0.21-11.2,9.354-20.214,20.604-20.214h-71.5c-11.25,0-20.394,9.014-20.604,20.214
		c-0.216,11.549,9.593,21.001,21.144,21.001h71.5C388.786,304.463,378.976,295.011,379.193,283.462z"/>
	<g>
		<path style="fill:#3D4EC6;" d="M71.681,302.535c-4.626,0-8.375-3.75-8.375-8.375v-20.607c0-4.625,3.749-8.375,8.375-8.375
			c4.626,0,8.375,3.75,8.375,8.375v20.607C80.056,298.785,76.307,302.535,71.681,302.535z"/>
	</g>
	<g>
		<path style="fill:#3D4EC6;" d="M102.642,302.535c-4.626,0-8.375-3.75-8.375-8.375v-20.607c0-4.625,3.749-8.375,8.375-8.375
			s8.375,3.75,8.375,8.375v20.607C111.017,298.785,107.268,302.535,102.642,302.535z"/>
	</g>
	<g>
		<path style="fill:#3D4EC6;" d="M133.602,302.535c-4.626,0-8.375-3.75-8.375-8.375v-20.607c0-4.625,3.749-8.375,8.375-8.375
			c4.626,0,8.375,3.75,8.375,8.375v20.607C141.977,298.785,138.228,302.535,133.602,302.535z"/>
	</g>
	<path style="fill:#3D4EC6;" d="M47.247,330.959c-11.845,0-22.998,2.943-32.789,8.12c2.749,7.626,5.874,15.071,9.336,22.324
		l54.486,74.089c5.9,5.482,12.065,10.685,18.484,15.571c12.81-12.728,20.745-30.357,20.745-49.842
		C117.509,362.417,86.051,330.959,47.247,330.959z"/>
	<g>
		
			<ellipse transform="matrix(0.866 -0.5 0.5 0.866 -156.6275 217.902)" style="fill:#3D4EC6;" cx="328.297" cy="401.222" rx="70.263" ry="70.262"/>
	</g>
	<path style="fill:#3342AE;" d="M363.428,462.071c-11.389-3.052-12.679-12.099-12.446-17.184c0.095-2.068-1.113-3.936-2.991-4.806
		c-8.162-3.783-8.632-11.287-8.21-15.345c0.183-1.766-0.593-3.475-2.013-4.541c-16.622-12.476-20.366-29.766-21.209-36.686
		c-0.212-1.746-1.328-3.28-2.954-3.952c-8.265-3.415-9.266-10.476-9.017-14.798c0.121-2.095-1.058-4.009-2.957-4.901
		c-11.892-5.588-8.465-19.484-8.465-19.484l0,0c-33.606,19.402-45.12,62.374-25.718,95.98
		C286.85,469.959,329.822,481.473,363.428,462.071z"/>
	<path style="fill:#A9D8FC;" d="M47.247,366.09c-6.767,0-13.084,1.918-18.446,5.233c11.103,20.772,25.112,39.754,41.484,56.409
		c7.405-6.441,12.093-15.925,12.093-26.51C82.378,381.819,66.649,366.09,47.247,366.09z"/>
	<g>
		
			<ellipse transform="matrix(0.866 -0.5 0.5 0.866 -156.6273 217.9016)" style="fill:#A9D8FC;" cx="328.297" cy="401.222" rx="35.131" ry="35.131"/>
	</g>
	<path style="fill:#4AC4F4;" d="M339.78,424.736c0.183-1.766-0.593-3.475-2.013-4.541c-16.622-12.476-20.366-29.766-21.209-36.686
		c-0.212-1.746-1.328-3.28-2.954-3.952c-3.541-1.464-5.742-3.598-7.089-5.897c-13.485,10.63-17.481,29.82-8.643,45.128
		c8.839,15.309,27.458,21.443,43.407,15.078C339.602,430.594,339.536,427.088,339.78,424.736z"/>
	<path style="fill:#D0E8FE;" d="M47.246,354.924c-8.571,0-16.6,2.35-23.492,6.426c3.22,6.751,6.746,13.326,10.549,19.719
		c3.736-2.408,8.177-3.812,12.943-3.812c13.215,0,23.965,10.751,23.965,23.965c0,7.364-3.341,13.961-8.585,18.36
		c4.982,5.55,10.215,10.868,15.678,15.944c9.354-8.477,15.24-20.716,15.24-34.304C93.544,375.693,72.775,354.924,47.246,354.924z"/>
	<g>
		<path style="fill:#D0E8FE;" d="M351.446,441.316c-22.109,12.765-50.481,5.163-63.245-16.946
			c-12.764-22.108-5.162-50.48,16.947-63.244c22.108-12.764,50.479-5.163,63.244,16.946
			C381.157,400.181,373.554,428.552,351.446,441.316z M316.315,380.468c-11.444,6.607-15.38,21.293-8.773,32.737
			c6.607,11.444,21.293,15.378,32.737,8.771c11.444-6.607,15.379-21.292,8.772-32.736
			C342.444,377.795,327.759,373.86,316.315,380.468z"/>
	</g>
	<path style="fill:#A9D8FC;" d="M350.197,441.996c-0.524-0.815-1.283-1.487-2.206-1.914c-8.162-3.783-8.632-11.287-8.21-15.345
		c0.083-0.802-0.04-1.589-0.324-2.313c-11.316,5.963-25.465,1.953-31.914-9.219c-6.443-11.16-2.856-25.4,7.939-32.227
		c-0.494-0.612-1.128-1.111-1.877-1.42c-8.265-3.415-9.266-10.476-9.017-14.798c0.06-1.031-0.199-2.017-0.7-2.861
		c-21.126,13.103-28.203,40.794-15.686,62.473C300.727,446.067,328.279,453.778,350.197,441.996z"/>
	<path style="fill:#717ED6;" d="M335.951,18.516c8.78,0,15.897,7.117,15.897,15.897v53.515c0,8.78-7.117,15.897-15.897,15.897
		c-8.78,0-15.897-7.117-15.897-15.897V34.413C320.054,25.633,327.171,18.516,335.951,18.516z"/>
	<path style="fill:#5766CE;" d="M335.951,73.051c-8.78,0-15.897-7.117-15.897-15.897v30.773c0,8.78,7.117,15.897,15.897,15.897
		c8.78,0,15.897-7.117,15.897-15.897V57.154C351.848,65.934,344.731,73.051,335.951,73.051z"/>
	<g>
		
			<ellipse transform="matrix(0.866 -0.5 0.5 0.866 -175.4543 147.6395)" style="fill:#3D4EC6;" cx="187.772" cy="401.222" rx="70.263" ry="70.262"/>
	</g>
	<path style="fill:#3342AE;" d="M222.903,462.071c-11.389-3.052-12.679-12.099-12.446-17.184c0.095-2.068-1.113-3.936-2.991-4.806
		c-8.162-3.783-8.632-11.287-8.21-15.345c0.183-1.766-0.593-3.475-2.013-4.541c-16.622-12.476-20.367-29.766-21.209-36.686
		c-0.212-1.746-1.328-3.28-2.954-3.952c-8.265-3.415-9.266-10.476-9.017-14.798c0.121-2.095-1.058-4.009-2.957-4.901
		c-11.892-5.588-8.465-19.484-8.465-19.484h0c-33.606,19.402-45.12,62.374-25.718,95.98
		C146.325,469.959,189.297,481.473,222.903,462.071z"/>
	<g>
		
			<ellipse transform="matrix(0.866 -0.5 0.5 0.866 -175.4539 147.6389)" style="fill:#A9D8FC;" cx="187.772" cy="401.222" rx="35.131" ry="35.131"/>
	</g>
	<path style="fill:#4AC4F4;" d="M199.255,424.736c0.183-1.766-0.593-3.475-2.013-4.541c-16.622-12.476-20.367-29.766-21.209-36.686
		c-0.212-1.746-1.328-3.28-2.954-3.952c-3.541-1.464-5.742-3.598-7.089-5.897c-13.485,10.63-17.481,29.82-8.643,45.128
		c8.839,15.309,27.458,21.443,43.407,15.078C199.077,430.594,199.011,427.088,199.255,424.736z"/>
	<g>
		<path style="fill:#D0E8FE;" d="M210.921,441.316c-22.109,12.765-50.481,5.163-63.245-16.946
			c-12.764-22.108-5.162-50.48,16.947-63.244c22.108-12.764,50.48-5.163,63.244,16.946
			C240.632,400.181,233.029,428.552,210.921,441.316z M175.79,380.468c-11.444,6.607-15.38,21.293-8.773,32.737
			c6.607,11.444,21.293,15.378,32.737,8.771c11.444-6.607,15.379-21.292,8.772-32.736
			C201.919,377.795,187.234,373.86,175.79,380.468z"/>
	</g>
	<path style="fill:#A9D8FC;" d="M209.672,441.996c-0.524-0.815-1.283-1.487-2.206-1.914c-8.162-3.783-8.632-11.287-8.21-15.345
		c0.083-0.802-0.04-1.589-0.324-2.313c-11.316,5.963-25.465,1.953-31.914-9.219c-6.443-11.16-2.856-25.4,7.939-32.227
		c-0.494-0.612-1.128-1.111-1.877-1.42c-8.265-3.415-9.266-10.476-9.017-14.798c0.059-1.031-0.199-2.017-0.7-2.861
		c-21.126,13.103-28.203,40.794-15.686,62.473C160.202,446.067,187.754,453.778,209.672,441.996z"/>
</g>
<g>
</g>
<g>
</g>
<g>
</g>
<g>
</g>
<g>
</g>
<g>
</g>
<g>
</g>
<g>
</g>
<g>
</g>
<g>
</g>
<g>
</g>
<g>
</g>
<g>
</g>
<g>
</g>
<g>
</g>
</svg>
