<?xml version="1.0" encoding="iso-8859-1"?>
<!-- Generator: Adobe Illustrator 21.0.0, SVG Export Plug-In . SVG Version: 6.00 Build 0)  -->
<svg version="1.1" id="Capa_1" xmlns="http://www.w3.org/2000/svg" xmlns:xlink="http://www.w3.org/1999/xlink" x="0px" y="0px"
	 viewBox="0 0 512 512" style="enable-background:new 0 0 512 512;" xml:space="preserve">
<g>
	<path style="fill:#3342AE;" d="M90.446,447.589l331.109,0C470.382,402.802,501,338.479,501,266.999
		C501,131.689,391.31,21.999,256,21.999s-245,109.691-245,245.001C10.999,338.479,41.618,402.802,90.446,447.589z"/>
	<g>
		<path style="fill:#A9D8FC;" d="M253.902,511.973c-3.164-17.557-9.648-33.879-17.611-48.486l0.691-3.789l-4.417-9.417
			c-1.276,1.264-2.624,2.528-4.061,3.78c-4.023,3.505-10.028,3.436-14.061-0.057c-11.876-10.286-34.859-43.127-36.341-73.402
			c-0.037-0.757,0.024-1.51,0.178-2.24l-45.629,15.215c0,0-24.062,8.344-43.278,53.011
			C132.615,486.73,190.371,511.439,253.902,511.973z"/>
		<path style="fill:#A9D8FC;" d="M422.629,446.588c-19.216-44.668-43.278-53.011-43.278-53.011l-45.629-15.215
			c0.154,0.73,0.215,1.483,0.178,2.24c-1.482,30.275-24.465,63.116-36.341,73.402c-4.033,3.494-10.038,3.563-14.061,0.057
			c-1.438-1.252-2.785-2.516-4.061-3.78l-4.417,9.416l0.691,3.789c-7.963,14.607-14.447,30.929-17.611,48.486
			C321.629,511.439,379.385,486.73,422.629,446.588z"/>
	</g>
	<path style="fill:#91D1F9;" d="M178.279,378.362l-45.629,15.215c0,0-24.062,8.344-43.278,53.011
		c14.781,13.72,31.251,25.643,49.075,35.41c8.572-43.111,26.163-55.334,26.163-55.334c7.315-7.315,15.416-10.374,23.004-11.188
		c-5.132-11.038-8.939-23.146-9.513-34.874C178.064,379.846,178.125,379.093,178.279,378.362z"/>
	<path style="fill:#4AC4F4;" d="M213.167,356.447v12.533h-19.79C193.377,368.98,198.944,356.447,213.167,356.447z"/>
	<path style="fill:#A9D8FC;" d="M298.833,356.447v12.533h19.79C318.623,368.98,313.056,356.447,298.833,356.447z"/>
	<path style="fill:#FFCDBE;" d="M245.947,422.537c1.605,0.856,2.568,2.442,2.705,4.128c2.192-1.21,4.718-1.882,7.349-1.882
		c2.63,0,5.157,0.672,7.349,1.882c0.136-1.686,1.1-3.271,2.705-4.128c43.065-22.978,42.691-45.951,41.232-53.699
		c-4.278-2.824-7.356-7.246-8.453-12.391l-3.098-14.538c-12.04,6.832-25.724,10.49-39.735,10.49
		c-14.011,0-27.695-3.658-39.735-10.49l-3.098,14.538c-1.096,5.145-4.174,9.567-8.453,12.391
		C203.255,376.586,202.881,399.559,245.947,422.537z"/>
	<path style="fill:#FCB19F;" d="M256,352.398c-14.011,0-27.695-3.658-39.735-10.49l-3.098,14.538
		c-1.096,5.145-4.174,9.567-8.453,12.391c-1.224,6.502-1.679,23.728,23.658,42.679c0.871-0.106,1.686-0.127,2.402-0.099
		c2.103,0.084,4.161-0.702,5.56-2.274c16.338-18.355,19.532-42.968,19.916-56.751C256.166,352.394,256.083,352.398,256,352.398z"/>
	<path style="fill:#D0E8FE;" d="M403.481,139.517c-1.058-0.899-1.585-2.246-1.41-3.625c0.75-5.911-1.045-11.612-4.606-15.961
		c-1.051-1.284-1.156-3.09-0.28-4.5c1.558-2.51,2.615-5.386,2.998-8.512c0.986-8.035-2.692-15.554-8.903-19.878
		c-1.479-1.029-2.1-2.885-1.478-4.576c4.236-11.508-2.397-24.342-14.222-27.56c-1.666-0.453-2.846-1.934-2.883-3.66
		c-0.237-11.063-9.134-20.183-20.259-20.58c-1.984-0.071-3.607-1.711-3.654-3.696c-0.258-10.934-8.962-19.951-20.076-20.495
		c-2.485-0.122-4.901,0.23-7.176,0.942C303.248-8.688,282.055,6.45,282.055,6.45c0.303,0.303,0.628,0.608,0.965,0.912
		c17.278,4.885,33.084,14.387,45.427,27.657c19.365,20.819,28.8,49.264,26.567,80.097c-0.674,9.291,2.042,14.213,5.187,19.911
		c2.736,4.956,5.836,10.574,7.546,20.633c0.088,0.516,0.419,0.959,0.891,1.187c0.472,0.23,1.025,0.215,1.485-0.036
		c4.966-2.711,14.203-4.305,18.629-0.249c10.332,9.469,4.438,23.305-0.3,34.422c-0.243,0.57-0.48,1.129-0.715,1.686
		c4.932-3.305,8.461-8.645,9.21-15.003c0.163-1.38,0.999-2.56,2.245-3.177c6.145-3.045,10.691-9.012,11.589-16.328
		C411.679,150.846,408.709,143.958,403.481,139.517z"/>
	<path style="fill:#A9D8FC;" d="M123.547,190.987c-4.738-11.118-10.633-24.955-0.301-34.424c4.428-4.058,13.667-2.461,18.633,0.251
		c0.46,0.251,1.011,0.265,1.484,0.036c0.472-0.229,0.803-0.67,0.891-1.187c1.714-10.08,4.828-15.723,7.576-20.702
		c3.131-5.674,5.835-10.575,5.166-19.69c-2.271-30.907,7.113-59.373,26.424-80.154c12.38-13.323,28.233-22.859,45.559-27.755
		c0.336-0.304,0.661-0.608,0.964-0.911c0,0-21.193-15.138-39.478,0.967c-2.275-0.712-4.691-1.063-7.176-0.942
		c-11.114,0.544-19.819,9.561-20.076,20.495c-0.046,1.985-1.67,3.625-3.654,3.696c-11.125,0.397-20.022,9.518-20.259,20.58
		c-0.037,1.726-1.217,3.207-2.883,3.66c-11.825,3.217-18.458,16.052-14.221,27.56c0.622,1.69,0.001,3.547-1.478,4.576
		c-6.211,4.324-9.888,11.843-8.903,19.878c0.383,3.126,1.44,6.002,2.998,8.512c0.875,1.41,0.77,3.216-0.28,4.5
		c-3.56,4.35-5.355,10.05-4.605,15.961c0.175,1.378-0.352,2.725-1.41,3.625c-5.227,4.44-8.198,11.329-7.301,18.646
		c0.897,7.316,5.444,13.283,11.589,16.328c1.245,0.617,2.082,1.797,2.245,3.177c0.749,6.358,4.278,11.697,9.21,15.003
		C124.027,192.115,123.79,191.557,123.547,190.987z"/>
	<path style="fill:#FFCDBE;" d="M389.849,155.367c-5.578-5.112-16.688-2.521-21.492,0.609c1.053,6.553,1.112,13.258,0.203,19.879
		l-5.669,41.288c0,3.328-0.105,6.594-0.298,9.802c13.823,4.17,20.69-8.24,21.847-16.757c0.498-3.666,1.312-7.28,2.441-10.805
		C390.559,187.899,403.824,168.174,389.849,155.367z"/>
	<g>
		<path style="fill:#FCB19F;" d="M378.71,193.867c-4.587,0-8.777-1.675-12.014-4.434l-3.805,27.711c0,3.328-0.105,6.594-0.298,9.802
			c13.823,4.17,20.69-8.24,21.846-16.757c0.498-3.666,1.312-7.28,2.441-10.805c0.94-2.936,2.507-6.411,4.084-10.171
			C387.696,192.1,383.414,193.867,378.71,193.867z"/>
	</g>
	<path style="fill:#FFCDBE;" d="M122.151,155.367c5.578-5.112,16.688-2.521,21.492,0.609c-1.052,6.553-1.112,13.258-0.203,19.879
		l5.669,41.288c0,3.328,0.105,6.594,0.298,9.802c-13.823,4.17-20.69-8.24-21.847-16.757c-0.498-3.666-1.312-7.28-2.441-10.805
		C121.441,187.899,108.176,168.174,122.151,155.367z"/>
	<g>
		<path style="fill:#FCB19F;" d="M145.355,189.804c-3.172,2.537-7.187,4.063-11.564,4.063c-5.096,0-9.711-2.059-13.062-5.387
			c1.678,4.04,3.389,7.778,4.39,10.903c1.129,3.526,1.943,7.139,2.441,10.805c1.157,8.517,8.023,20.926,21.847,16.757
			c-0.193-3.208-0.298-6.474-0.298-9.802L145.355,189.804z"/>
	</g>
	<path style="fill:#FFDECF;" d="M366.026,143.221c-4.077-10.637-10.345-14.858-9.394-27.987C361.529,47.627,311.637,1.982,256,1.982
		c-54.953,0-105.655,44.892-100.621,113.407c0.942,12.819-5.276,17.222-9.285,27.52c-4.075,10.468-5.263,21.821-3.736,32.937
		l5.67,41.297c0,59.371,31.693,99.725,58.651,120.66c14.071,10.927,31.436,16.863,49.321,16.863c17.885,0,35.25-5.935,49.321-16.863
		c26.959-20.934,58.651-61.289,58.651-120.66l5.669-41.288C371.153,164.848,370.007,153.607,366.026,143.221z"/>
	<g>
		<path style="fill:#FFCDBE;" d="M257.822,337.803c-18.531-20.934-40.317-61.289-40.317-120.66l-3.898-41.297
			c-1.049-11.116-0.233-22.469,2.568-32.937c2.756-10.298,7.03-14.701,6.382-27.52c-3.01-59.59,22.963-101.304,54.632-111.162
			c-6.897-1.476-13.995-2.245-21.19-2.245c-54.953,0-105.655,44.892-100.621,113.407c0.942,12.819-5.276,17.221-9.285,27.52
			c-4.075,10.468-5.263,21.821-3.736,32.937l5.67,41.297c0,59.371,31.693,99.725,58.651,120.66
			c14.071,10.927,31.436,16.863,49.321,16.863c7.203,0,14.318-0.979,21.172-2.843C270.186,349.059,263.598,344.329,257.822,337.803z
			"/>
	</g>
	<path style="fill:#EB5793;" d="M256,443.855L256,443.855h-16.031l-2.627,14.401c8.711,15.979,15.568,34.118,17.845,53.733
		c0.271,0.001,0.54,0.01,0.812,0.01s0.541-0.009,0.812-0.01c2.277-19.615,9.134-37.755,17.845-53.734l-2.627-14.401H256z"/>
	<path style="fill:#E7387F;" d="M278.225,445.668l-10.165-17.34c-2.428-4.141-7.046-6.711-12.06-6.711
		c-5.014,0-9.633,2.57-12.06,6.711l-10.165,17.34l4.222,9.001h36.006L278.225,445.668L278.225,445.668L278.225,445.668z"/>
	<path style="fill:#F6D100;" d="M246.483,419.491c-45.888-24.484-39.675-48.965-38.542-52.887c0.119-0.411-0.044-0.985-0.47-1.022
		c-10.146-0.867-20.027,4.249-23.557,8.846c-1.178,1.533-1.75,3.436-1.656,5.367c1.403,28.659,23.159,59.747,34.401,69.484
		c3.818,3.307,9.502,3.372,13.311,0.054c9.997-8.709,15.786-18.034,18.559-23.346C249.759,423.633,248.827,420.742,246.483,419.491z
		"/>
	<path style="fill:#F2BA00;" d="M207.941,366.604c0.119-0.411-0.044-0.985-0.47-1.022c-10.146-0.867-20.027,4.249-23.557,8.846
		c-1.178,1.533-1.75,3.436-1.656,5.367c0.586,11.972,4.729,24.362,10.168,35.448c7.571,0.065,14.292,2.079,18.712,3.828
		c2.867,1.135,6.19,0.3,8.045-2.163c3.675-4.879,8.515-5.614,11.59-5.491c0.698,0.028,1.389-0.049,2.055-0.21
		C201.942,389.73,206.937,370.083,207.941,366.604z"/>
	<path style="fill:#F6D100;" d="M328.085,374.429c-3.53-4.597-10.809-8.213-23.557-8.846c-0.427-0.021-0.588,0.611-0.47,1.022
		c1.133,3.922,7.347,28.403-38.542,52.887c-2.344,1.251-3.276,4.142-2.046,6.497c2.772,5.312,8.561,14.637,18.558,23.346
		c3.809,3.318,9.493,3.253,13.311-0.054c11.242-9.737,32.998-40.825,34.401-69.484C329.835,377.865,329.263,375.962,328.085,374.429
		z"/>
	<path style="fill:#D0E8FE;" d="M334.591,357.942c-9.391-5.851-21.393-8.38-35.758-1.496c0,0,0.106,0.013,0.306,0.041
		c21.72,3.088,30.299,29.829,14.595,45.149c-20.574,20.07-54.969,60.763-57.562,110.361c10.39-0.007,20.627-0.663,30.676-1.926
		c5.041-7.962,10.726-15.054,17.084-20.396c0.878-0.738,1.182-1.954,0.71-3l-4.282-9.496c-0.669-1.484,0.217-3.204,1.814-3.52
		l32.357-6.404c0.934-0.185,1.685-0.879,1.943-1.796l16.49-58.606C358.188,388.286,350.961,368.142,334.591,357.942z"/>
	<path style="fill:#D0E8FE;" d="M212.861,356.488c0.2-0.028,0.306-0.041,0.306-0.041c-14.365-6.885-26.367-4.355-35.758,1.496
		c-16.371,10.199-23.598,30.344-18.374,48.911l16.489,58.606c0.258,0.917,1.009,1.611,1.943,1.796l32.357,6.404
		c1.597,0.316,2.483,2.036,1.814,3.52l-4.283,9.496c-0.471,1.046-0.168,2.262,0.711,3c6.357,5.342,12.043,12.434,17.083,20.396
		c10.049,1.263,20.287,1.918,30.676,1.926c-2.592-49.598-36.988-90.29-57.562-110.361
		C182.562,386.317,191.141,359.576,212.861,356.488z"/>
	<path style="fill:#A9D8FC;" d="M214.815,419.471c-5.892-7.017-11.619-13.024-16.55-17.834c-15.704-15.32-7.125-42.06,14.596-45.149
		c0.2-0.028,0.305-0.041,0.305-0.041c-14.365-6.885-26.367-4.356-35.758,1.496c-16.371,10.199-23.598,30.344-18.374,48.911
		l5.574,19.811l0,0c16.47-16.469,36.924-11.393,46.53-7.592C212.333,419.545,213.602,419.657,214.815,419.471z"/>
	<path style="fill:#E6F4FF;" d="M297.184,419.471c5.892-7.017,11.619-13.024,16.55-17.834c15.704-15.32,7.125-42.06-14.596-45.149
		c-0.2-0.028-0.306-0.041-0.306-0.041c14.365-6.885,26.367-4.356,35.758,1.496c16.371,10.199,23.598,30.344,18.374,48.911
		l-5.574,19.811l0,0c-16.469-16.469-36.924-11.393-46.53-7.592C299.667,419.545,298.397,419.657,297.184,419.471z"/>
	<path style="fill:#8C96DD;" d="M377.364,141.811c-7.657-0.36-17.142,4.692-22.92,8.328c2.784,3.567,5.074,7.535,6.77,11.807
		l21.392-9.178c0.451-0.193,0.783-0.585,0.888-1.065C384.021,149.318,384.953,142.168,377.364,141.811z"/>
	<path style="fill:#644BF7;" d="M370.404,142.69c-5.867,1.562-11.852,4.863-15.961,7.449c2.784,3.567,5.074,7.536,6.771,11.807
		l12.381-5.312c-3.939-0.185-7.078-3.427-7.078-7.412C366.518,146.402,368.089,143.949,370.404,142.69z"/>
	<path style="fill:#8C96DD;" d="M139.145,141.811c-7.279,0.342-6.719,6.933-6.197,9.577c0.132,0.669,0.588,1.223,1.215,1.492
		l21.131,9.066c1.697-4.271,3.986-8.24,6.771-11.807C156.287,146.503,146.802,141.451,139.145,141.811z"/>
	<path style="fill:#644BF7;" d="M146.105,142.69c5.867,1.562,11.852,4.863,15.961,7.449c-2.784,3.567-5.074,7.536-6.771,11.807
		l-12.381-5.312c3.939-0.185,7.078-3.427,7.078-7.412C149.991,146.402,148.42,143.949,146.105,142.69z"/>
	<path style="fill:#3D4EC6;" d="M317.63,131.616c-26.542,0-48.058,21.516-48.058,48.058c0,26.542,21.516,48.058,48.058,48.058
		c26.542,0,48.058-21.516,48.058-48.058C365.688,153.133,344.172,131.616,317.63,131.616z"/>
	<path style="fill:#3D4EC6;" d="M194.37,131.616c-26.542,0-48.058,21.516-48.058,48.058c0,26.542,21.516,48.058,48.058,48.058
		c26.542,0,48.058-21.516,48.058-48.058C242.428,153.133,220.912,131.616,194.37,131.616z"/>
	<path style="fill:#3342AE;" d="M217.571,221.744c-6.376-2.135-7.313-6.883-7.183-9.958c0.075-1.78-0.939-3.413-2.546-4.184
		c-30.546-14.659-28.224-45.783-26.567-55.885c0.294-1.793-0.566-3.548-2.105-4.512c-5.925-3.709-3.741-10.52-3.208-11.93
		c-17.406,7.225-29.65,24.379-29.65,44.399c0,26.542,21.516,48.058,48.058,48.058c8.423,0,16.336-2.173,23.22-5.98
		C217.583,221.75,217.577,221.747,217.571,221.744z"/>
	<circle style="fill:#91D1F9;" cx="194.37" cy="179.675" r="33.588"/>
	<path style="fill:#4AC4F4;" d="M207.842,207.602c-30.546-14.659-28.224-45.783-26.567-55.885c0.16-0.975-0.031-1.934-0.477-2.766
		c-11.787,5.215-20.016,17.005-20.016,30.723c0,18.55,15.038,33.588,33.588,33.588c5.578,0,10.834-1.368,15.464-3.775
		C209.39,208.686,208.706,208.017,207.842,207.602z"/>
	<path style="fill:#3342AE;" d="M340.831,221.744c-6.376-2.135-7.313-6.883-7.183-9.958c0.075-1.78-0.939-3.413-2.546-4.184
		c-30.546-14.659-28.224-45.783-26.567-55.885c0.294-1.793-0.566-3.548-2.105-4.512c-5.925-3.709-3.741-10.52-3.208-11.93
		c-17.406,7.225-29.65,24.379-29.65,44.399c0,26.542,21.516,48.058,48.058,48.058c8.423,0,16.336-2.173,23.22-5.98
		C340.843,221.75,340.838,221.747,340.831,221.744z"/>
	<path style="fill:#8C96DD;" d="M277.998,169.101c-12.924-6.971-30.9-7.005-43.855-0.087c-1.714,0.915-2.636,2.721-2.383,4.521
		l1.163,8.281c0.17,1.214,1.682,1.637,2.621,1.056c13.553-8.373,27.518-8.339,41.026,0.081c0.993,0.619,2.323,0.042,2.478-1.06
		l1.195-8.507C280.483,171.665,279.602,169.966,277.998,169.101z"/>
	<g>
		<path style="fill:#644BF7;" d="M252.183,170.755c0-3.531,2.652-6.438,6.072-6.851c-8.441-0.373-17.027,1.327-24.112,5.11
			c-1.714,0.915-2.636,2.721-2.383,4.521l1.163,8.281c0.171,1.214,1.682,1.637,2.621,1.056c6.577-4.063,13.25-6.14,19.922-6.247
			C253.498,175.409,252.183,173.238,252.183,170.755z"/>
	</g>
	<circle style="fill:#91D1F9;" cx="317.63" cy="179.675" r="33.588"/>
	<path style="fill:#4AC4F4;" d="M331.102,207.602c-30.546-14.659-28.224-45.783-26.567-55.885c0.16-0.975-0.031-1.934-0.477-2.766
		c-11.787,5.215-20.016,17.005-20.016,30.723c0,18.55,15.038,33.588,33.588,33.588c5.578,0,10.834-1.368,15.464-3.775
		C332.65,208.686,331.966,208.017,331.102,207.602z"/>
	<g>
		<path style="fill:#FFCDBE;" d="M274.202,266.169c-0.04,0-4.217-0.09-7.788-2.099c-1.759-0.99-3.877-1.11-5.737-0.325l-4.426,1.867
			l-4.426-1.867c-1.86-0.785-3.978-0.665-5.737,0.325c-3.534,1.988-7.663,2.096-7.827,2.099c-3.588,0.02-6.49,2.935-6.49,6.528
			c0,3.605,2.923,6.528,6.528,6.528c0.646,0,5.672-0.076,11.15-2.312l4.264,1.799c1.636,0.69,3.444,0.689,5.074,0l4.264-1.799
			c5.478,2.236,10.504,2.312,11.15,2.312c3.605,0,6.528-2.922,6.528-6.528C280.729,269.091,277.807,266.169,274.202,266.169z"/>
	</g>
	<path style="fill:#D0E8FE;" d="M340.958,253.779c-6.227,1.304-17.828,1.788-30.388-7.522c-17.12-12.689-30.321-23.79-51.891-12.426
		c-1.681,0.885-3.678,0.885-5.358,0c-21.569-11.364-34.771-0.263-51.891,12.426c-12.56,9.309-24.161,8.825-30.388,7.522
		c-1.375-0.288-2.285,1.383-1.314,2.398c32.717,34.235,71.028,11.317,82.982,2.647c1.964-1.425,4.617-1.425,6.581,0
		c11.953,8.67,50.264,31.587,82.982-2.647C343.243,255.162,342.333,253.491,340.958,253.779z"/>
	<g>
		<path style="fill:#A9D8FC;" d="M291.91,233.653c0.079,0,0.155,0.011,0.234,0.012c-9.889-5.279-20.062-6.895-33.465,0.167
			c-1.681,0.885-3.678,0.885-5.359,0c-36.938-19.461-47.721,27.184-82.279,19.948c-1.375-0.288-2.285,1.383-1.314,2.398
			c32.717,34.235,71.028,11.318,82.982,2.647c1.964-1.425,4.617-1.425,6.581,0c3.73,2.706,10.028,6.799,17.921,10.109
			C264.366,255.98,273.45,233.653,291.91,233.653z"/>
	</g>
</g>
<g>
</g>
<g>
</g>
<g>
</g>
<g>
</g>
<g>
</g>
<g>
</g>
<g>
</g>
<g>
</g>
<g>
</g>
<g>
</g>
<g>
</g>
<g>
</g>
<g>
</g>
<g>
</g>
<g>
</g>
</svg>
