<?xml version="1.0" encoding="iso-8859-1"?>
<!-- Generator: Adobe Illustrator 21.0.0, SVG Export Plug-In . SVG Version: 6.00 Build 0)  -->
<svg version="1.1" id="Capa_1" xmlns="http://www.w3.org/2000/svg" xmlns:xlink="http://www.w3.org/1999/xlink" x="0px" y="0px"
	 viewBox="0 0 512 512" style="enable-background:new 0 0 512 512;" xml:space="preserve">
<g>
	<path style="fill:#3342AE;" d="M505.087,293.352c0.926-8.659,1.414-17.448,1.414-26.353c0-135.31-109.69-245.001-245-245.001
		S16.5,131.689,16.5,266.999c0,93.751,52.666,175.189,130.018,216.38L505.087,293.352z"/>
	<path style="fill:#31A7ED;" d="M303.189,337.067l-27.687,115.459l109.307,26.212c1.49-0.87,2.974-1.75,4.444-2.651l26.844-111.945
		L303.189,337.067L303.189,337.067z"/>
	<path style="fill:#4AC4F4;" d="M261.5,512c44.963,0,87.089-12.123,123.309-33.263l-109.307-26.212l-14.261,59.471
		C261.327,511.997,261.413,512,261.5,512z"/>
	<path style="fill:#4AC4F4;" d="M216.237,316.215l86.951,20.851l-27.687,115.458l-115.981-27.812l21.618-90.149
		c2.369-9.877,6.011-17.352,9.745-22.905c0.3-0.447,0.601-0.885,0.902-1.307L216.237,316.215z"/>
	<path style="fill:#31A7ED;" d="M239.981,340.028c1.451-6.051,3.125-11.677,4.955-16.931l-28.698-6.882l-24.452-5.863
		c-0.301,0.422-0.602,0.86-0.902,1.307c-3.734,5.553-7.376,13.028-9.745,22.905l-21.618,90.149l56.882,13.641L239.981,340.028z"/>
	<path style="fill:#31A7ED;" d="M145.572,482.88c34.443,18.535,73.825,29.073,115.669,29.116l14.261-59.471l-115.981-27.812
		L145.572,482.88z"/>
	<path style="fill:#1296D8;" d="M216.403,438.353l-56.882-13.641l-13.949,58.167c17.205,9.258,35.642,16.521,55.003,21.478
		L216.403,438.353z"/>
	<path style="fill:#09A858;" d="M500.603,290.481l-99.698-23.908l-45.245,32.641l114.171,30.088l33.281-21.579
		c0.853-5.095,1.563-10.237,2.096-15.434C502.598,290.99,500.603,290.481,500.603,290.481z"/>
	<polygon style="fill:#008E4A;" points="303.189,337.067 355.66,299.213 469.831,329.301 416.097,364.142 	"/>
	<path style="fill:#F6D100;" d="M503.113,307.722l-33.281,21.58l-23.669,98.703C475.276,394.64,495.484,353.314,503.113,307.722z"/>
	<path style="fill:#F2BA00;" d="M389.253,476.087c21.346-13.07,40.533-29.316,56.909-48.082l23.669-98.703l-53.734,34.841
		L389.253,476.087z"/>
	<path style="fill:#008E4A;" d="M246.898,270.551l31.581-20.477c2.889-1.873,5.979-3.35,9.188-4.417
		c1.926-0.641,3.895-1.133,5.889-1.476c0.665-0.114,1.333-0.212,2.003-0.292c4.69-0.564,9.489-0.303,14.177,0.821l91.169,21.863
		l-45.245,32.641L246.898,270.551z"/>
	<path style="fill:#09A858;" d="M355.66,299.213l-52.471,37.853l-111.404-26.715c0.285-0.4,0.569-0.765,0.853-1.142
		c2.648-3.518,5.247-6.127,7.379-7.945c0.503-0.429,0.967-0.8,1.412-1.145c0.252-0.196,0.505-0.393,0.736-0.563l2.902-1.882l0,0
		l41.831-27.123L355.66,299.213z"/>
	<polygon style="fill:#F2BA00;" points="257.89,96.352 158.391,156.196 219.585,257.943 219.586,257.943 319.085,198.1 	"/>
	<path style="fill:#F6D100;" d="M257.89,96.352L222.296,37.17L200.05,0.183c-5.863,0.519-10.571,2.058-13.819,3.472
		c-0.812,0.354-1.533,0.7-2.157,1.02c-0.208,0.107-0.406,0.211-0.593,0.311l-85.211,51.25l60.12,99.96L257.89,96.352z"/>
	<path style="fill:#F6D100;" d="M142.96,304.028l76.625-46.086l-61.195-101.747L56.183,217.667l47.78,79.443
		c5.235,8.704,10.961,14.734,16.194,18.903c0.421,0.336,0.84,0.663,1.254,0.974L142.96,304.028z"/>
	<path style="fill:#F2BA00;" d="M158.002,270.005c-2.754-4.58-26.63-44.277-50.163-83.406l-51.656,31.068l47.78,79.444
		c5.235,8.704,10.961,14.733,16.194,18.903c0.421,0.336,0.84,0.663,1.254,0.975l21.548-12.96l28.599-17.201
		C167.066,282.724,162.369,277.265,158.002,270.005z"/>
	<path style="fill:#F2BA00;" d="M9.127,139.427l47.057,78.24l102.208-61.472l-60.12-99.96l-80.488,48.409
		c-2.249,1.353-4.213,2.999-5.872,4.861c-0.552,0.62-1.072,1.265-1.556,1.93c-1.074,1.476-1.972,3.058-2.697,4.709
		c-0.194,0.441-0.375,0.886-0.543,1.336c-0.227,0.607-0.432,1.22-0.611,1.842C4.614,125.86,5.342,133.135,9.127,139.427z"/>
	<path style="fill:#EEA200;" d="M59.933,106.946c-5.385-8.953-4.792-19.863,0.65-28.044l-42.8,25.741
		c-11.953,7.19-15.888,22.76-8.656,34.783l47.057,78.24l51.656-31.068C85.062,148.728,62.606,111.391,59.933,106.946z"/>
	<path style="fill:#EB5793;" d="M380.821,215.127l-99.796,63.096l52.979,17.488l87.858-52.841c0,0,7.997-4.925,10.346-13.569
		L380.821,215.127L380.821,215.127z"/>
	<path style="fill:#31A7ED;" d="M326.222,41.466c-4.465-7.423-11.612-12.848-19.962-15.151L259.506,13.42l57.562,95.707
		l57.285,12.366L326.222,41.466z"/>
	<path style="fill:#4AC4F4;" d="M200.05,0.183l25.529,42.447l32.311,53.722l59.177,12.774L259.506,13.42L217.573,1.854
		C211.005,0.043,205.103-0.265,200.05,0.183z"/>
	<polygon style="fill:#E7387F;" points="219.586,257.943 281.025,278.223 380.821,215.127 319.085,198.1 	"/>
	<path style="fill:#4AC4F4;" d="M431.639,217.781c-0.565-1.603-1.341-3.269-2.382-5l-54.905-91.288l-57.285-12.366l63.753,106.001
		l51.387,14.173c0.077-0.284,0.148-0.571,0.212-0.863c0.196-0.886,0.33-1.81,0.391-2.768
		C432.964,223.258,432.641,220.621,431.639,217.781z"/>
	<polygon style="fill:#31A7ED;" points="319.085,198.1 380.821,215.127 317.068,109.127 257.891,96.352 	"/>
	<path style="fill:#E7387F;" d="M185.957,338.33l36.284,10.008c3.319,0.915,6.71,1.393,10.092,1.443
		c2.029,0.03,4.055-0.093,6.06-0.368c0.668-0.092,1.335-0.2,1.998-0.325c4.642-0.876,9.139-2.571,13.27-5.055l80.342-48.321
		l-52.979-17.488L185.957,338.33z"/>
	<path style="fill:#E20A62;" d="M283.134,319.991l-41.95-11.57l-5.514-1.521l-49.712,31.43l36.284,10.008
		c10.597,2.923,21.956,1.387,31.42-4.305l37.544-22.581C288.496,321.2,285.795,320.725,283.134,319.991z"/>
	<path style="fill:#EB5793;" d="M281.025,278.223l-61.439-20.28l-98.174,59.046c0.392,0.295,0.773,0.558,1.157,0.832
		c3.585,2.557,6.85,4.26,9.43,5.352c0.608,0.257,1.163,0.471,1.691,0.667c0.299,0.111,0.6,0.222,0.872,0.315l3.334,0.919l0,0
		l48.061,13.256L281.025,278.223z"/>
	<path style="fill:#E7387F;" d="M185.618,293.094L185.618,293.094l-3.855-1.063c-3.533-1.208-7.114-2.992-10.454-5.053
		l-49.898,30.011c9.27,6.976,15.475,7.681,16.485,8.085h0l48.061,13.256l49.712-31.43L185.618,293.094z"/>
</g>
<g>
</g>
<g>
</g>
<g>
</g>
<g>
</g>
<g>
</g>
<g>
</g>
<g>
</g>
<g>
</g>
<g>
</g>
<g>
</g>
<g>
</g>
<g>
</g>
<g>
</g>
<g>
</g>
<g>
</g>
</svg>
