<?xml version="1.0" encoding="iso-8859-1"?>
<!-- Generator: Adobe Illustrator 21.0.0, SVG Export Plug-In . SVG Version: 6.00 Build 0)  -->
<svg version="1.1" id="Capa_1" xmlns="http://www.w3.org/2000/svg" xmlns:xlink="http://www.w3.org/1999/xlink" x="0px" y="0px"
	 viewBox="0 0 512 512" style="enable-background:new 0 0 512 512;" xml:space="preserve">
<g>
	<path style="fill:#3342AE;" d="M491.623,309.153c2.376-13.696,3.626-27.778,3.626-42.154c0-135.31-109.691-245-245.001-245
		s-245.001,109.69-245.001,245c0,26.118,4.102,51.274,11.671,74.878L491.623,309.153z"/>
	<path style="fill:#D0E8FE;" d="M250.609,247.457L250.609,247.457h184.2c-10.877,15.969-10.877,37.018,0,52.987h-184.2l0,0
		C238.365,284.904,238.365,262.997,250.609,247.457z"/>
	<path style="fill:#A9D8FC;" d="M319.375,247.457h-68.767c-12.244,15.54-12.244,37.447,0,52.987h68.767
		C307.131,284.904,307.131,262.997,319.375,247.457z"/>
	<path style="fill:#1296D8;" d="M51.3,242.118c0.998-1.917,2.663-3.052,4.428-3.052h194.882c-12.244,20.462-12.244,49.306,0,69.768
		H55.728c-1.765,0-3.43-1.134-4.428-3.052C41.328,286.615,41.328,261.286,51.3,242.118z"/>
	<g>
		<path style="fill:#4AC4F4;" d="M440.472,308.835H250.609c-2.571,0-5-1.178-6.591-3.198c-14.699-18.656-14.699-44.716,0-63.373
			c1.591-2.019,4.02-3.198,6.591-3.198h189.863c4.634,0,8.39,3.757,8.39,8.39c0,4.634-3.756,8.39-8.39,8.39H254.957
			c-6.891,11.102-6.891,25.104,0,36.206h185.515c4.634,0,8.39,3.757,8.39,8.39C448.862,305.078,445.106,308.835,440.472,308.835z"/>
	</g>
	<path style="fill:#31A7ED;" d="M306.744,300.444c0-4.634,3.756-8.39,8.39-8.39h-60.177c-6.891-11.102-6.891-25.104,0-36.206h60.177
		c-4.634,0-8.39-3.757-8.39-8.39c0-4.634,3.756-8.39,8.39-8.39h-64.526c-2.571,0-5,1.178-6.591,3.198
		c-14.699,18.656-14.699,44.716,0,63.373c1.591,2.019,4.02,3.198,6.591,3.198h64.526C310.5,308.835,306.744,305.078,306.744,300.444
		z"/>
	<path style="fill:#EEA200;" d="M496.306,153.651c-1.383-2.474-3.7-3.918-6.145-3.918H268.843c17.061,26.568,17.061,64.02,0,90.588
		h221.318c2.445,0,4.762-1.445,6.145-3.918C510.235,211.494,510.235,178.559,496.306,153.651z"/>
	<path style="fill:#F6D100;" d="M461.614,153.651c-1.383-2.474-3.7-3.918-6.145-3.918h-30.254c2.445,0,4.762,1.445,6.145,3.918
		c13.928,24.908,13.928,57.843,0,82.751c-1.383,2.474-3.7,3.918-6.145,3.918h30.254c2.445,0,4.762-1.445,6.145-3.918
		C475.542,211.494,475.542,178.559,461.614,153.651z"/>
	<path style="fill:#F6D100;" d="M354.772,153.651c-1.383-2.474-3.7-3.918-6.145-3.918h-30.254c2.445,0,4.762,1.445,6.145,3.918
		c13.928,24.908,13.928,57.843,0,82.751c-1.383,2.474-3.7,3.918-6.145,3.918h30.254c2.445,0,4.762-1.445,6.145-3.918
		C368.7,211.494,368.7,178.559,354.772,153.651z"/>
	<path style="fill:#D0E8FE;" d="M268.843,158.095L268.843,158.095H67.007c15.157,22.253,15.157,51.583,0,73.835h201.836l0,0
		C285.904,210.275,285.904,179.75,268.843,158.095z"/>
	<path style="fill:#A9D8FC;" d="M135.773,158.095H67.006c15.157,22.253,15.157,51.583,0,73.835h68.767
		C150.93,209.678,150.93,180.347,135.773,158.095z"/>
	<path style="fill:#D0E8FE;" d="M264.162,8.39L264.162,8.39h161.052c-27.292,40.069-27.292,92.883,0,132.952H264.162l0,0
		C233.44,102.349,233.44,47.383,264.162,8.39z"/>
	<path style="fill:#A9D8FC;" d="M330.738,8.39h-66.576c-30.722,38.993-30.722,93.959,0,132.952h66.576
		C300.016,102.349,300.016,47.383,330.738,8.39z"/>
	<g>
		<path style="fill:#F6D100;" d="M268.843,240.32H67.041c-4.634,0-8.39-3.757-8.39-8.39c0-4.634,3.757-8.39,8.39-8.39h197.539
			c11.613-17.288,11.613-39.767,0-57.055H67.041c-4.634,0-8.39-3.757-8.39-8.39c0-4.634,3.757-8.39,8.39-8.39h201.801
			c2.571,0,5,1.179,6.591,3.198c19.534,24.794,19.534,59.427,0,84.221C273.842,239.142,271.413,240.32,268.843,240.32z"/>
	</g>
	<g>
		<path style="fill:#F2BA00;" d="M67.041,166.485h74.5c-4.634,0-8.39-3.757-8.39-8.39c0-4.634,3.757-8.39,8.39-8.39h-74.5
			c-4.634,0-8.39,3.757-8.39,8.39C58.651,162.729,62.407,166.485,67.041,166.485z"/>
		<path style="fill:#F2BA00;" d="M133.151,231.93c0-4.634,3.757-8.39,8.39-8.39h-74.5c-4.634,0-8.39,3.757-8.39,8.39
			c0,4.634,3.757,8.39,8.39,8.39h74.5C136.908,240.32,133.151,236.564,133.151,231.93z"/>
	</g>
	<path style="fill:#008E4A;" d="M35.669,308.142c-3.218,0-6.267,1.817-8.087,4.929c-5.059,8.648-8.715,18.067-10.981,27.829
		c9.469,29.965,24.539,57.438,43.987,81.192h213.908c-22.453-33.42-22.453-80.53,0-113.949H35.669z"/>
	<path style="fill:#E7387F;" d="M48.598,6.477C51.089,2.388,55.261,0,59.664,0h204.498c-30.722,43.915-30.722,105.818,0,149.732
		H59.664c-4.403,0-8.575-2.388-11.066-6.477C23.518,102.086,23.518,47.647,48.598,6.477z"/>
	<path style="fill:#EB5793;" d="M264.162,0h-36.086c-4.403,0-8.575,2.388-11.066,6.477c-25.08,41.17-25.08,95.609,0,136.779
		c2.49,4.089,6.663,6.476,11.066,6.476h36.086C233.441,105.818,233.441,43.915,264.162,0z"/>
	<path style="fill:#EB5793;" d="M86.8,0H59.664c-4.403,0-8.575,2.388-11.065,6.477c-25.08,41.17-25.08,95.609,0,136.779
		c2.49,4.089,6.663,6.476,11.065,6.476H86.8C56.079,105.818,56.079,43.915,86.8,0z"/>
	<path style="fill:#E7387F;" d="M428.474,132.952H268.335c-25.201-34.738-25.201-81.433,0-116.171h160.139
		c4.634,0,8.39-3.757,8.39-8.39c0-4.634-3.756-8.39-8.39-8.39H264.162c-2.571,0-5,1.178-6.59,3.198
		c-33.246,42.197-33.246,101.14,0,143.337c1.591,2.019,4.02,3.198,6.59,3.198h164.312c4.634,0,8.39-3.756,8.39-8.39
		C436.865,136.709,433.109,132.952,428.474,132.952z"/>
	<path style="fill:#E20A62;" d="M318.372,141.342c0-4.633,3.756-8.39,8.39-8.39h-58.428c-25.201-34.738-25.201-81.433,0-116.171
		h58.428c-4.634,0-8.39-3.757-8.39-8.39c0-4.634,3.756-8.39,8.39-8.39h-62.6c-2.571,0-5,1.178-6.591,3.198
		c-33.246,42.197-33.246,101.14,0,143.337c1.591,2.019,4.02,3.198,6.591,3.198h62.6
		C322.128,149.732,318.372,145.976,318.372,141.342z"/>
	<path style="fill:#E7387F;" d="M218.875,181.406h-23.451c-1.912,0-3.461,1.549-3.461,3.461v95.458c0,1.894,2.29,2.843,3.63,1.503
		l10.054-10.054c0.83-0.83,2.177-0.83,3.007,0l10.054,10.054c1.339,1.339,3.63,0.391,3.63-1.503v-95.456
		C222.338,182.956,220.788,181.406,218.875,181.406z"/>
	<path style="fill:#E20A62;" d="M218.875,181.406h-23.451c-1.912,0-3.461,1.549-3.461,3.461v53.746
		c0-8.387,6.799-15.187,15.186-15.187c8.388,0,15.188,6.8,15.188,15.188v-53.746C222.338,182.956,220.788,181.406,218.875,181.406z"
		/>
	<path style="fill:#09A858;" d="M274.496,308.142h-72.851c-3.218,0-6.267,1.817-8.088,4.929c-18.329,31.331-18.329,72.76,0,104.092
		c1.821,3.112,4.87,4.929,8.088,4.929h72.851C252.043,388.671,252.043,341.562,274.496,308.142z"/>
	<path style="fill:#09A858;" d="M35.669,308.142c-3.218,0-6.267,1.817-8.088,4.929c-5.059,8.648-8.714,18.067-10.981,27.828
		c9.469,29.965,24.539,57.438,43.987,81.192h40.101c-22.453-33.42-22.453-80.53,0-113.949H35.669z"/>
	<path style="fill:#D0E8FE;" d="M490.237,316.532H274.496c-22.453,28.498-22.453,68.67,0,97.168h171.993
		C467.666,385.417,482.872,352.405,490.237,316.532z"/>
	<path style="fill:#A9D8FC;" d="M343.262,316.532h-68.767c-22.453,28.498-22.453,68.67,0,97.168h68.767
		C320.809,385.202,320.809,345.03,343.262,316.532z"/>
	<path style="fill:#008E4A;" d="M452.485,405.31l-173.777,0c-16.957-24.182-16.957-56.205,0-80.387h209.634
		c1.339-5.523,2.491-11.118,3.449-16.781H274.496c-2.57,0-5,1.179-6.59,3.198c-24.947,31.663-24.947,75.89,0,107.554
		c1.591,2.019,4.02,3.198,6.59,3.198h165.412C444.333,416.686,448.527,411.086,452.485,405.31z"/>
	<path style="fill:#00783B;" d="M337.058,324.922c-4.634,0-8.39-3.757-8.39-8.39l0,0c0-4.634,3.757-8.39,8.39-8.39h-62.563
		c-2.57,0-5,1.179-6.59,3.198c-24.947,31.663-24.947,75.89,0,107.554c1.591,2.019,4.02,3.198,6.59,3.198h62.563
		c-4.634,0-8.39-3.757-8.39-8.39v0c0-4.634,3.757-8.39,8.39-8.39l-58.35,0c-16.957-24.182-16.957-56.205,0-80.387H337.058z"/>
	<path style="fill:#D0E8FE;" d="M67.156,429.774c31.29,35.17,72.553,61.259,119.359,73.835h67.784
		c17.062-21.655,17.062-52.181,0-73.835H67.156z"/>
	<path style="fill:#A9D8FC;" d="M154.157,492.408c9.637-20.155,7.32-44.503-6.965-62.634H67.156
		C91.012,456.588,120.67,478.115,154.157,492.408z"/>
	<path style="fill:#EEA200;" d="M440.477,421.384H254.299c17.051,26.56,17.06,63.991,0.032,90.565
		C329.458,510.719,396.354,475.684,440.477,421.384z"/>
	<path style="fill:#F6D100;" d="M260.89,508.802c19.535-24.794,19.535-59.427,0-84.221c-1.591-2.019-4.02-3.198-6.591-3.198H60.019
		c4.73,5.822,9.724,11.42,14.96,16.781h175.059c11.613,17.287,11.613,39.767,0,57.055h-89.064
		C188.637,506.049,218.747,512,250.248,512c1.693,0,3.378-0.03,5.063-0.064C257.498,511.67,259.51,510.554,260.89,508.802z"/>
	<g>
		<path style="fill:#F2BA00;" d="M151.966,421.384H60.019c4.731,5.822,9.724,11.42,14.96,16.781h77.056
			c-2.272,0-4.458-0.914-6.022-2.562C140.667,429.971,144.807,421.384,151.966,421.384z"/>
	</g>
</g>
<g>
</g>
<g>
</g>
<g>
</g>
<g>
</g>
<g>
</g>
<g>
</g>
<g>
</g>
<g>
</g>
<g>
</g>
<g>
</g>
<g>
</g>
<g>
</g>
<g>
</g>
<g>
</g>
<g>
</g>
</svg>
