<?xml version="1.0" encoding="iso-8859-1"?>
<!-- Generator: Adobe Illustrator 21.0.0, SVG Export Plug-In . SVG Version: 6.00 Build 0)  -->
<svg version="1.1" id="Capa_1" xmlns="http://www.w3.org/2000/svg" xmlns:xlink="http://www.w3.org/1999/xlink" x="0px" y="0px"
	 viewBox="0 0 512 512" style="enable-background:new 0 0 512 512;" xml:space="preserve">
<g>
	<path style="fill:#F6D100;" d="M245,11.377c-135.31,0-245,109.69-245,245.001c0,9.585,0.569,19.036,1.64,28.335l189.315,210.672
		c17.389,3.915,35.474,5.994,54.045,5.994c135.31,0,245.001-109.69,245.001-245.001S380.311,11.377,245,11.377z"/>
	<path style="fill:#EB5793;" d="M208.729,468.856c-7.865-0.58-15.716,1.115-22.749,4.684c-7.198,3.652-17.466,8.198-29.301,11.421
		c11.798,4.562,24.037,8.232,36.636,10.938c19.896-16.9,36.314-25.402,36.314-25.402l-2.141-1.815
		C220.474,469.366,213.936,469.24,208.729,468.856z"/>
	<path style="fill:#EF75A7;" d="M65.526,422.426l-0.213,0.475c25.856,27.887,58.116,49.746,94.451,63.232
		c10.531-3.138,19.651-7.213,26.216-10.544c7.033-3.569,14.884-5.264,22.749-4.684c19.667,1.451,58.246-0.659,70.256-37.044
		c-3.817,0.225-7.755,0.354-11.849,0.354C164.839,434.215,194.657,379.055,65.526,422.426z"/>
	<path style="fill:#EB5793;" d="M65.526,422.426l-0.213,0.475c25.856,27.887,58.116,49.746,94.451,63.232
		c-27.762-50.86,13.391-74.258,13.391-74.258l-4.47-2.493C148.587,403.337,122.562,403.269,65.526,422.426z"/>
	<path style="fill:#EB5793;" d="M476.394,214.472c-1.621-0.751-2.551-2.466-2.274-4.231c1.413-9.003,3.81-36.224-13.883-57.908
		c-22.708-27.83-61.464-18.44-61.464-18.44s-7.75-32.341-57.367-49.684c-52.757-18.439-89.635,10.757-89.635,10.757
		s-26.579-24.458-67.571-16.864c-42.326,7.841-56.097,33.65-59.213,41.01c-0.505,1.194-1.661,1.973-2.957,1.961
		c-14.322-0.141-51.53-0.457-80.261,36.894c-28.11,36.543-16.795,79.943-14.66,87.082c0.182,0.609-0.025,1.258-0.527,1.647
		c-3.486,2.697-16.939,14.128-25.216,35.596c5.706,54.273,29.136,103.258,64.39,141.082
		c128.867-43.229,99.146,11.866,201.383,11.866c93.271,0,113.509-60.861,116.384-71.757c0.225-0.854,1.175-1.271,1.97-0.885
		c59.161,28.664,78.646-14.134,81.909-22.84c0.343-0.915,1.115-1.585,2.066-1.807c7.292-1.701,38.05-11.539,42.161-57.055
		C515.655,236.311,485.88,218.864,476.394,214.472z"/>
	<path style="fill:#E7387F;" d="M179.145,387.616c0.418-1.226,0.041-2.568-0.934-3.423c-6.011-5.268-26.196-26.44-20.363-69.09
		c5.649-41.306,37.211-58.87,37.211-58.87s-16.152-44.176,17.906-88.485c32.032-41.671,65.172-38.884,65.172-38.884
		s2.958-36.225,32.418-50.672c-35.727-1.471-58.784,16.774-58.784,16.774s-26.579-24.458-67.572-16.864
		c-42.326,7.841-56.097,33.65-59.213,41.01c-0.505,1.194-1.661,1.973-2.957,1.961c-14.322-0.141-51.53-0.457-80.261,36.894
		c-28.11,36.543-16.795,79.943-14.66,87.082c0.182,0.609-0.025,1.258-0.527,1.647c-3.486,2.697-16.939,14.128-25.216,35.596
		c5.706,54.273,29.135,103.258,64.39,141.082c61.185-20.525,86.619-18.884,107.401-11.499
		C174.503,401.263,177.364,392.831,179.145,387.616z"/>
	<path style="fill:#E7387F;" d="M368.781,302.542c-37.777-30.233-89.323-20.301-91.498-19.864
		c-4.668,0.939-7.686,5.478-6.756,10.148c0.931,4.67,5.479,7.701,10.144,6.779c0.458-0.09,45.929-8.709,77.322,16.414
		c17.529,14.028,24.06,34.562,26.46,46.513c0.333-0.104,0.706-0.094,1.053,0.074c6.239,3.022,12.033,5.244,17.417,6.8
		C402.161,360.59,397.374,325.425,368.781,302.542z"/>
	<path style="fill:#E20A62;" d="M72.13,299.44c-11.446-12.254-36.749-32.858-45.072-53.405c-0.099,0.256-0.257,0.491-0.486,0.668
		c-1.926,1.491-6.867,5.63-12.3,12.626c8.794,16.424,24.05,31.168,35.743,42.46c8.66,8.365,16.338,14.65,17.433,26.574
		c0.832,9.062-2.499,14.586-17.997,14.586c-4.768,0-8.632,3.864-8.632,8.632c0,4.766,3.864,8.631,8.632,8.631
		C93.071,360.212,90.916,319.555,72.13,299.44z"/>
	<path style="fill:#E7387F;" d="M472.182,298.635c-8.352-10.372-17.718-16.274-18.113-16.52c-4.047-2.523-9.37-1.29-11.892,2.755
		c-2.523,4.044-1.29,9.369,2.755,11.892c0.276,0.172,26.582,16.916,23.157,41.968c0.381-0.375,0.853-0.656,1.393-0.782
		c2.826-0.661,9.14-2.548,16.062-7.216C484.774,319.588,480.278,308.689,472.182,298.635z"/>
	<path style="fill:#E7387F;" d="M474.528,212.695c-0.385-0.736-0.544-1.59-0.408-2.458c0.487-3.104,1.09-8.371,0.948-14.827
		c-13.183,0.162-38.854,1.644-56.877,10.055c-4.319,2.015-6.187,7.151-4.172,11.471c1.466,3.139,4.578,4.983,7.828,4.983
		c1.222,0,2.464-0.261,3.645-0.812C440.203,214.242,462.532,212.891,474.528,212.695z"/>
	<path style="fill:#5766CE;" d="M396.924,222.114l-27.673-26.115c-1.918-1.811-2.862-4.444-2.455-7.05
		c0.935-5.986,1.435-12.117,1.435-18.366c0-6.249-0.5-12.379-1.435-18.366c-0.407-2.606,0.537-5.239,2.455-7.049l27.673-26.115
		c2.733-2.579,3.327-6.709,1.449-9.963c-12.236-21.194-15.128-26.201-21.353-36.985c-1.879-3.253-5.747-4.791-9.346-3.714
		l-36.478,10.915c-2.527,0.757-5.281,0.257-7.333-1.4c-9.506-7.672-20.213-13.909-31.801-18.388
		c-2.456-0.949-4.259-3.085-4.867-5.647l-8.777-37.012c-0.867-3.656-4.131-6.236-7.888-6.236h-42.724
		c-3.757,0-7.021,2.581-7.887,6.236l-8.777,37.012c-0.607,2.562-2.41,4.698-4.866,5.647c-11.588,4.479-22.294,10.715-31.8,18.388
		c-2.052,1.657-4.807,2.156-7.333,1.4l-36.478-10.915c-3.599-1.077-7.474,0.474-9.352,3.727
		c-12.238,21.194-15.128,26.2-21.354,36.985c-1.878,3.253-1.276,7.371,1.457,9.95l27.673,26.115
		c1.918,1.811,2.862,4.444,2.455,7.049c-0.935,5.987-1.435,12.117-1.435,18.366c0,6.249,0.5,12.38,1.435,18.366
		c0.407,2.606-0.537,5.239-2.455,7.05l-27.673,26.115c-2.733,2.578-3.327,6.709-1.449,9.963
		c12.236,21.194,15.126,26.201,21.354,36.986c1.878,3.253,5.745,4.79,9.344,3.714l36.478-10.915c2.527-0.757,5.281-0.257,7.333,1.4
		c9.506,7.672,20.212,13.909,31.8,18.387c2.456,0.949,4.259,3.085,4.866,5.647l8.777,37.012c0.867,3.655,4.131,6.236,7.887,6.236
		h42.724c3.757,0,7.021-2.581,7.888-6.236l8.777-37.012c0.608-2.562,2.41-4.698,4.867-5.647
		c11.588-4.478,22.294-10.715,31.801-18.388c2.053-1.656,4.807-2.155,7.333-1.399l36.478,10.915
		c3.599,1.076,7.474-0.474,9.352-3.727c12.237-21.195,15.126-26.2,21.353-36.985C400.259,228.81,399.657,224.691,396.924,222.114z
		 M249.17,227.944c-31.63,0-57.362-25.732-57.362-57.362c0-31.629,25.732-57.362,57.362-57.362c31.63,0,57.362,25.733,57.362,57.362
		C306.532,202.211,280.8,227.944,249.17,227.944z"/>
	<path style="fill:#3D4EC6;" d="M167.144,79.304l-36.478-10.915c-3.599-1.077-7.474,0.474-9.352,3.727
		c-12.237,21.194-15.127,26.2-21.354,36.985c-1.878,3.253-1.276,7.371,1.457,9.95l27.673,26.115
		c1.918,1.811,2.862,4.444,2.455,7.049c-0.935,5.987-1.435,12.117-1.435,18.366c0,6.249,0.5,12.38,1.435,18.366
		c0.406,2.606-0.537,5.239-2.455,7.05l-27.673,26.115c-2.733,2.578-3.327,6.709-1.449,9.963
		c12.236,21.194,15.126,26.201,21.354,36.986c1.878,3.253,5.745,4.79,9.344,3.714l36.478-10.915c2.527-0.757,5.281-0.257,7.333,1.4
		c9.506,7.672,20.212,13.909,31.8,18.387c2.456,0.949,4.259,3.085,4.866,5.647l8.777,37.012c0.867,3.655,4.131,6.236,7.887,6.236
		h42.724c3.757,0,7.021-2.581,7.888-6.236l8.777-37.012c0.608-2.562,2.41-4.698,4.867-5.647c5.914-2.285,11.594-5.034,17.006-8.193
		c-26.211-4.349-23.942-24.107-21.625-32.701c0.591-2.191-0.591-4.428-2.703-5.257c-8.178-3.208-10.077-8.87-10.016-13.581
		c-7.701,3.849-16.376,6.028-25.555,6.028c-31.63,0-57.362-25.732-57.362-57.362c0-16.318,6.86-31.055,17.835-41.51
		c-8.883-2.553-10.069-9.852-9.812-14.646c0.126-2.34-1.548-4.419-3.88-4.651c-28.223-2.809-21.475-31.871-21.475-31.871
		C172.425,79.561,169.67,80.061,167.144,79.304z"/>
	<g>
		<path style="fill:#8C96DD;" d="M249.171,247.819c-42.589,0-77.237-34.648-77.237-77.237c0-42.588,34.648-77.237,77.237-77.237
			s77.237,34.648,77.237,77.237C326.408,213.17,291.76,247.819,249.171,247.819z M249.171,119.145
			c-28.363,0-51.437,23.075-51.437,51.437c0,28.363,23.075,51.437,51.437,51.437c28.363,0,51.437-23.075,51.437-51.437
			C300.608,142.219,277.534,119.145,249.171,119.145z"/>
	</g>
	<path style="fill:#717ED6;" d="M287.175,237.782c-0.472-1.01-1.317-1.847-2.434-2.285c-14.802-5.806-9.051-19.662-8.293-21.335
		c-7.913,4.971-17.262,7.858-27.277,7.858c-28.363,0-51.437-23.075-51.437-51.437c0-16.464,7.785-31.136,19.856-40.557
		c-0.188-0.011-0.377-0.032-0.563-0.032c-15.649,0-17.512-9.675-17.195-15.567c0.052-0.958-0.21-1.862-0.683-2.624
		c-16.635,14.178-27.214,35.261-27.214,58.78c0,42.588,34.648,77.237,77.237,77.237
		C262.981,247.819,275.945,244.157,287.175,237.782z"/>
</g>
<g>
</g>
<g>
</g>
<g>
</g>
<g>
</g>
<g>
</g>
<g>
</g>
<g>
</g>
<g>
</g>
<g>
</g>
<g>
</g>
<g>
</g>
<g>
</g>
<g>
</g>
<g>
</g>
<g>
</g>
</svg>
