<?xml version="1.0" encoding="iso-8859-1"?>
<!-- Generator: Adobe Illustrator 21.0.0, SVG Export Plug-In . SVG Version: 6.00 Build 0)  -->
<svg version="1.1" id="Capa_1" xmlns="http://www.w3.org/2000/svg" xmlns:xlink="http://www.w3.org/1999/xlink" x="0px" y="0px"
	 viewBox="0 0 512 512" style="enable-background:new 0 0 512 512;" xml:space="preserve">
<g>
	<path style="fill:#82CD64;" d="M498.287,230.473C480.65,112.489,378.896,21.999,256,21.999
		c-100.44,0-186.748,60.449-224.569,146.943l0.73,0.332c0,0,247.541,212.961,418.062,247.059
		c18.68-24.26,32.914-52.117,41.494-82.352L498.287,230.473z"/>
	<path style="fill:#E06E53;" d="M92.437,449.391C135.811,488.313,193.136,512,256,512c62.864,0,120.189-23.687,163.563-62.609
		H92.437z"/>
	<path style="fill:#CC5744;" d="M334.492,449.391H92.437C135.811,488.313,193.136,512,256,512c20.052,0,39.536-2.42,58.188-6.966
		C294.428,488.907,301.772,449.391,334.492,449.391z"/>
	<path style="fill:#D0E8FE;" d="M473.81,336.429v-9.713H63.753c-10.748,0-19.541,8.793-19.541,19.54v43.969
		c12.929,22.173,29.238,42.129,48.224,59.166h327.126c11.741-10.536,22.459-22.187,31.987-34.79
		c-3.898-8.043-6.089-17.05-6.089-26.547C445.461,366.442,456.798,347.362,473.81,336.429z"/>
	<path style="fill:#A9D8FC;" d="M321.748,429.852c0-9.078,0-74.517,0-83.596c0-10.747,8.793-19.54,19.54-19.54H63.753
		c-10.748,0-19.541,8.793-19.541,19.54v43.969c12.929,22.173,29.238,42.129,48.224,59.166h248.852
		C330.541,449.391,321.748,440.599,321.748,429.852z"/>
	<path style="fill:#E7387F;" d="M80.358,437.783c8.108,8.337,16.801,16.098,26.019,23.217h299.246
		c9.217-7.119,17.911-14.88,26.019-23.217H80.358z"/>
	<path style="fill:#E20A62;" d="M325.811,437.783H80.358c8.107,8.337,16.801,16.098,26.019,23.217h219.705
		c-2.637,0-5.184-0.919-7.244-2.566C309.82,451.222,315.201,437.783,325.811,437.783z"/>
	<path style="fill:#E7387F;" d="M496.266,315.107H63.753c-17.175,0-31.148,13.973-31.148,31.149v21.484
		c0.657,1.455,1.338,2.897,2.022,4.337c0.16,0.336,0.311,0.676,0.472,1.011c0.705,1.466,1.433,2.918,2.166,4.367
		c0.15,0.297,0.293,0.599,0.445,0.895c0.8,1.565,1.621,3.117,2.454,4.661c0.092,0.171,0.18,0.346,0.273,0.517
		c0.895,1.652,1.811,3.292,2.743,4.92c0.034,0.059,0.066,0.119,0.1,0.178c3.875,6.76,8.063,13.317,12.543,19.654v-62.025
		c0-4.299,3.632-7.932,7.931-7.932h426.688C492.747,330.734,494.696,322.99,496.266,315.107z"/>
	<path style="fill:#E20A62;" d="M314.132,329.724c-0.021-0.077-0.041-0.154-0.061-0.231c-1.914-7.273,3.609-14.386,11.13-14.386
		H63.753c-17.175,0-31.148,13.973-31.148,31.149v21.484c0.657,1.455,1.337,2.897,2.022,4.337c0.159,0.336,0.311,0.676,0.472,1.011
		c0.705,1.466,1.433,2.918,2.166,4.367c0.151,0.297,0.293,0.599,0.445,0.895c0.8,1.565,1.621,3.117,2.454,4.661
		c0.092,0.171,0.18,0.346,0.273,0.517c0.895,1.652,1.811,3.292,2.743,4.92c0.034,0.059,0.066,0.119,0.1,0.178
		c3.875,6.76,8.063,13.317,12.543,19.654v-62.025c0-4.299,3.632-7.932,7.931-7.932h261.508
		C320.027,338.324,315.469,334.785,314.132,329.724z"/>
	<path style="fill:#D0E8FE;" d="M85.168,237.504v67.682h409.682c1.102,0,2.176-0.114,3.23-0.292
		c1.918-12.351,2.92-25.006,2.92-37.895c0-9.802-0.593-19.463-1.712-28.964c-1.429-0.336-2.91-0.531-4.438-0.531H85.168z"/>
	<path style="fill:#A9D8FC;" d="M340.626,271.345L340.626,271.345c0-18.69,15.151-33.841,33.841-33.841H85.169v67.682h289.299
		C355.777,305.186,340.626,290.035,340.626,271.345z"/>
	<path style="fill:#F2BA00;" d="M494.851,293.578H76.363c-6.411,0-11.609,5.197-11.609,11.609c0,6.411,5.198,11.609,11.609,11.609
		h418.488c0.364,0,0.725-0.015,1.086-0.028c1.687-8.175,2.968-16.497,3.819-24.947C498.395,292.912,496.685,293.578,494.851,293.578
		z"/>
	<path style="fill:#F2BA00;" d="M76.363,225.895c-6.411,0-11.609,5.198-11.609,11.609c0,6.411,5.198,11.609,11.609,11.609h418.488
		c2.187,0,4.199,0.943,5.65,2.433c-0.538-8.637-1.522-17.153-2.931-25.525c-0.897-0.078-1.802-0.126-2.719-0.126H76.363z"/>
	<g>
		<path style="fill:#EEA200;" d="M499.756,291.82c-1.361,1.092-3.071,1.757-4.905,1.757h4.705
			C499.62,292.991,499.697,292.408,499.756,291.82z"/>
		<path style="fill:#EEA200;" d="M339.697,305.186c0-6.411,5.198-11.609,11.609-11.609H76.363c-6.411,0-11.609,5.197-11.609,11.609
			c0,6.411,5.198,11.609,11.609,11.609h274.942C344.894,316.795,339.697,311.598,339.697,305.186z"/>
	</g>
	<g>
		<path style="fill:#EEA200;" d="M339.697,237.504c0-6.411,5.198-11.609,11.609-11.609H76.363c-6.411,0-11.609,5.198-11.609,11.609
			c0,6.411,5.198,11.609,11.609,11.609h274.942C344.894,249.113,339.697,243.915,339.697,237.504z"/>
		<path style="fill:#EEA200;" d="M494.851,249.113c2.187,0,4.199,0.943,5.65,2.433c-0.051-0.814-0.125-1.621-0.183-2.433H494.851z"
			/>
	</g>
	<path style="fill:#F9E47D;" d="M436.95,274.288h-24.335c-1.984,0-3.591,1.608-3.591,3.591v99.054c0,1.966,2.377,2.95,3.766,1.56
		l10.433-10.433c0.862-0.862,2.259-0.862,3.121,0l10.433,10.433c1.39,1.39,3.766,0.406,3.766-1.56V277.88
		C440.543,275.897,438.935,274.288,436.95,274.288z"/>
	<path style="fill:#F6D100;" d="M436.95,274.288h-24.335c-1.984,0-3.591,1.608-3.591,3.591v47.251
		c0-8.703,7.055-15.759,15.759-15.759h0c8.704,0,15.76,7.056,15.76,15.76V277.88C440.543,275.897,438.935,274.288,436.95,274.288z"
		/>
	<path style="fill:#D0E8FE;" d="M403.338,162.723L403.338,162.723c0-17.972,8.951-33.946,22.606-43.714v-10.022H92.903
		c-10.747,0-19.541,8.793-19.541,19.54v68.391c0,10.747,8.793,19.54,19.541,19.54h333.042v-10.022
		C412.289,196.669,403.338,180.695,403.338,162.723z"/>
	<path style="fill:#A9D8FC;" d="M192.867,196.919v-68.391c0-10.747,8.793-19.54,19.54-19.54H92.903
		c-10.747,0-19.541,8.793-19.541,19.54v68.391c0,10.747,8.793,19.54,19.541,19.54h119.504
		C201.66,216.459,192.867,207.666,192.867,196.919z"/>
	<g>
		<path style="fill:#4AC4F4;" d="M106.095,178.522c-4.809,0-8.707-3.898-8.707-8.706v-12.625c0-18.963,15.428-34.39,34.391-34.39
			c4.809,0,8.706,3.898,8.706,8.707c0,4.808-3.897,8.706-8.706,8.706c-9.362,0-16.978,7.616-16.978,16.977v12.625
			C114.801,174.624,110.904,178.522,106.095,178.522z"/>
	</g>
	<g>
		<path style="fill:#F6D100;" d="M434.874,228.068H92.903c-17.175,0-31.148-13.973-31.148-31.149v-68.391
			c0-17.176,13.973-31.149,31.148-31.149h341.971c6.411,0,11.609,5.198,11.609,11.609c0,6.411-5.198,11.609-11.609,11.609H92.903
			c-4.299,0-7.931,3.633-7.931,7.932v68.391c0,4.299,3.632,7.932,7.931,7.932h341.971c6.411,0,11.609,5.197,11.609,11.609
			C446.482,222.87,441.284,228.068,434.874,228.068z"/>
	</g>
	<path style="fill:#F2BA00;" d="M187.66,216.459c0-6.411,5.198-11.609,11.609-11.609H92.903c-4.299,0-7.931-3.632-7.931-7.932
		v-68.391c0-4.299,3.632-7.932,7.931-7.932h106.367c-6.411,0-11.609-5.197-11.609-11.609c0-6.411,5.198-11.609,11.609-11.609H92.903
		c-17.175,0-31.148,13.974-31.148,31.149v68.391c0,17.175,13.973,31.149,31.148,31.149h106.367
		C192.858,228.068,187.66,222.87,187.66,216.459z"/>
	<path style="fill:#D0E8FE;" d="M369.509,50.335L369.509,50.335c0-12.968,6.466-24.491,16.327-31.529v-7.198H139.464
		c-10.747,0-19.54,8.793-19.54,19.541v38.371c0,10.748,8.793,19.54,19.54,19.54h246.372v-7.197
		C375.975,74.826,369.509,63.303,369.509,50.335z"/>
	<path style="fill:#A9D8FC;" d="M239.428,69.521V31.149c0-10.748,8.793-19.541,19.54-19.541H139.464
		c-10.747,0-19.54,8.793-19.54,19.541v38.371c0,10.748,8.793,19.54,19.54,19.54h119.504
		C248.221,89.061,239.428,80.268,239.428,69.521z"/>
	<g>
		<path style="fill:#31A7ED;" d="M394.642,100.67H139.463c-17.175,0-31.148-13.973-31.148-31.149V31.149
			C108.315,13.974,122.288,0,139.463,0h255.179c6.411,0,11.609,5.197,11.609,11.609s-5.198,11.609-11.609,11.609H139.463
			c-4.299,0-7.931,3.632-7.931,7.932v38.372c0,4.299,3.632,7.932,7.931,7.932h255.179c6.411,0,11.609,5.197,11.609,11.609
			C406.251,95.473,401.053,100.67,394.642,100.67z"/>
	</g>
	<path style="fill:#1296D8;" d="M233.43,89.061c0-6.411,5.198-11.609,11.608-11.609H139.463c-4.299,0-7.931-3.632-7.931-7.932
		V31.149c0-4.299,3.632-7.932,7.931-7.932h105.576c-6.411,0-11.608-5.197-11.608-11.609S238.628,0,245.039,0H139.463
		c-17.175,0-31.148,13.974-31.148,31.149v38.372c0,17.176,13.973,31.149,31.148,31.149h105.576
		C238.628,100.67,233.43,95.473,233.43,89.061z"/>
	<path style="fill:#5766CE;" d="M221.236,167.273c-9.502,0-125.149,0-189.076,0c-13.594,30.465-21.161,64.21-21.161,99.726
		c0,62.423,23.358,119.382,61.794,162.645c31.484,0,81.265,0,91.276,0c10.223,0,19.376-6.331,22.984-15.895l8.218-21.79
		c39.446-104.577,35.028-184.299,38.137-211.787C233.815,173.173,228.248,167.273,221.236,167.273z"/>
	<path style="fill:#3D4EC6;" d="M96.189,413.75l-8.218-21.79C48.524,287.383,52.943,207.661,49.833,180.173
		c-0.405-7,5.162-12.899,12.173-12.899c-10.687,0-20.787,0-29.846,0c-13.594,30.465-21.161,64.21-21.161,99.726
		c0,62.423,23.358,119.382,61.794,162.645c13.605,0,30.626,0,46.379,0C108.951,429.645,99.797,423.314,96.189,413.75z"/>
	<path style="fill:#3D4EC6;" d="M72.794,429.645c31.484,0,81.264,0,91.276,0c10.223,0,19.376-6.331,22.984-15.895l5.813-15.411
		c-35.852,0-97.755,0-143.715,0C56.197,409.412,64.114,419.874,72.794,429.645z"/>
	<path style="fill:#3342AE;" d="M96.189,413.75l-5.813-15.411c-14.373,0-28.418,0-41.224,0
		c7.046,11.074,14.962,21.536,23.642,31.306l46.379,0C108.951,429.645,99.797,423.314,96.189,413.75z"/>
	<path style="fill:#717ED6;" d="M234.352,429.645H72.794c10.169,11.446,21.391,21.932,33.52,31.306h109.225
		c10.222,0,19.376-6.33,22.984-15.895l2.29-6.072C242.514,434.469,239.178,429.645,234.352,429.645z"/>
	<path style="fill:#5766CE;" d="M131.48,429.645H72.794c10.169,11.446,21.391,21.932,33.52,31.306h25.524
		c-3.557,0-7.009-1.219-9.773-3.457C109.999,447.724,117.144,429.645,131.48,429.645z"/>
	<g>
		<path style="fill:#8C96DD;" d="M215.018,360.667c-2.223,0-4.458-0.143-6.696-0.433c-7.699-0.997-13.131-8.046-12.135-15.744
			c0.997-7.697,8.052-13.13,15.745-12.134c7.026,0.912,14.016-1.355,19.183-6.212c7.647-7.188,17.502-11.349,27.752-11.716
			c20.641-0.74,37.643-16.86,39.547-37.496c1.954-21.186-12.915-40.67-33.852-44.357c-9.982-1.758-20.199,0.171-28.773,5.429
			c-6.616,4.058-15.27,1.984-19.329-4.634c-4.059-6.617-1.985-15.272,4.633-19.33c14.43-8.849,31.599-12.099,48.345-9.151
			c35.233,6.206,60.256,38.985,56.969,74.625c-3.2,34.674-31.803,61.761-66.533,63.007c-3.445,0.123-6.82,1.581-9.506,4.105
			C240.691,355.722,228.09,360.667,215.018,360.667z"/>
	</g>
	<path style="fill:#31A7ED;" d="M156.433,199.897c-15.319,0.545-27.239,13.6-27.239,28.929v49.499c0,4.334,3.513,7.848,7.847,7.848
		h40.844c4.334,0,7.847-3.513,7.847-7.848v-50.177C185.733,212.193,172.515,199.325,156.433,199.897z"/>
	<path style="fill:#1296D8;" d="M157.463,279.993v-36.398c-5.518-5.518,0-8.771,0-8.771v-6.756l-11.661-10.246
		c-10.907,1.924-9.238-8.194-9.185-8.498c-4.623,5.194-7.424,12.079-7.424,19.502v49.499c0,4.334,3.513,7.848,7.847,7.848h25.585
		C157.251,286.173,157.463,279.993,157.463,279.993z"/>
	<circle style="fill:#1296D8;" cx="157.463" cy="228.068" r="15.527"/>
	<path style="fill:#0D86C9;" d="M157.463,234.824v-6.756l-11.652-10.239c-2.405,2.734-3.875,6.311-3.875,10.239
		c0,8.575,6.951,15.527,15.527,15.527C151.945,238.076,157.463,234.824,157.463,234.824z"/>
	<g>
		<path style="fill:#91D1F9;" d="M157.463,234.824c-4.809,0-8.706-3.898-8.706-8.706v-68.927c0-9.361-7.616-16.977-16.978-16.977
			c-4.809,0-8.706-3.898-8.706-8.706c0-4.808,3.897-8.707,8.706-8.707c18.963,0,34.391,15.427,34.391,34.39v68.927
			C166.17,230.926,162.272,234.824,157.463,234.824z"/>
	</g>
	<g>
		<path style="fill:#717ED6;" d="M288.429,300.25c-7.277,8.364-17.829,13.759-29.562,14.179
			c-10.25,0.367-20.105,4.528-27.752,11.716c-5.167,4.857-12.157,7.124-19.183,6.212c-7.693-0.996-14.747,4.437-15.745,12.134
			c-0.996,7.698,4.436,14.747,12.135,15.744c2.238,0.29,4.474,0.433,6.696,0.433c13.072,0,25.673-4.945,35.35-14.04
			c2.685-2.524,6.061-3.982,9.506-4.105c19.852-0.712,37.692-9.877,49.94-24.066C297.962,323.827,284.978,313.016,288.429,300.25z"
			/>
	</g>
</g>
<g>
</g>
<g>
</g>
<g>
</g>
<g>
</g>
<g>
</g>
<g>
</g>
<g>
</g>
<g>
</g>
<g>
</g>
<g>
</g>
<g>
</g>
<g>
</g>
<g>
</g>
<g>
</g>
<g>
</g>
</svg>
