<?xml version="1.0" encoding="iso-8859-1"?>
<!-- Generator: Adobe Illustrator 21.0.0, SVG Export Plug-In . SVG Version: 6.00 Build 0)  -->
<svg version="1.1" id="Capa_1" xmlns="http://www.w3.org/2000/svg" xmlns:xlink="http://www.w3.org/1999/xlink" x="0px" y="0px"
	 viewBox="0 0 512 512" style="enable-background:new 0 0 512 512;" xml:space="preserve">
<g>
	<path style="fill:#E06E53;" d="M245.001,10.999c-70.305,0-133.684,29.622-178.363,77.055
		c-2.076,18.037-26.207,232.255-11.695,322.542c44.924,55.162,113.371,90.404,190.058,90.404c135.31,0,245-109.69,245-245.001
		S380.311,10.999,245.001,10.999z"/>
	<path style="fill:#3D4EC6;" d="M352.147,184.158c-50.042,22.764-107.476,52.628-159.888,88.941
		c-10.488,7.266-24.345,7.266-34.833,0c-48.41-33.54-101.092-61.565-148.289-83.588c-5.207,18.508-8.282,37.906-8.971,57.911
		c-0.018,0.471-0.034,0.939-0.054,1.413C0.044,251.215,0,253.602,0,256c0,40.003,9.592,77.764,26.594,111.116l50.346,15.932
		c63.711,20.161,132.094,20.161,195.805,0l77.106-24.401c11.504-3.64,17.938-15.996,14.094-27.434
		C345.124,275.211,348.332,215.734,352.147,184.158z"/>
	<path style="fill:#3342AE;" d="M192.259,273.098c-10.488,7.266-24.345,7.266-34.833,0c-48.41-33.54-101.092-61.565-148.289-83.588
		c-5.207,18.508-8.282,37.906-8.971,57.911c-0.018,0.471-0.034,0.939-0.054,1.413C0.044,251.215,0,253.602,0,256
		c0,40.003,9.592,77.764,26.594,111.116l50.346,15.932c48.042,15.203,98.738,18.935,148.086,11.211c0-36.523,0-84.676,0-107.267
		c0-20.913,7.044-35.062,13.579-43.694C222.938,252.691,207.387,262.617,192.259,273.098z"/>
	<g>
		<path style="fill:#D0E8FE;" d="M348.19,327.291c-9.525-1.516-57.543-10.253-67.563-33.471c-2.4-5.561-3.776-14.369,3.296-24.75
			c8.187-12.016,17.563-13.786,23.972-13.158c25.298,2.481,46.399,49.145,50.373,58.474
			C361.144,321.141,355.446,328.448,348.19,327.291z M299.386,279.605c-2.764,4.056-1.935,5.979-1.58,6.8
			c3.117,7.225,19.095,13.949,34.868,18.326c-8.945-15.972-19.721-29.526-26.607-30.198
			C303.416,274.275,300.89,277.398,299.386,279.605z"/>
	</g>
	<path style="fill:#717ED6;" d="M460.988,140.274c-2.16-4.023-4.425-7.98-6.799-11.864
		C298.526,103.096,212.314,60.886,184.727,45.46c-6.148-3.438-13.621-3.438-19.768,0c-14.848,8.302-46.683,24.365-97.179,41.375
		c-27.495,28.796-48.03,64.288-58.94,103.776c47.271,22.044,100.079,50.127,148.587,83.735c10.488,7.266,24.345,7.266,34.833,0
		c97.988-67.89,213.54-113.249,265.496-131.78C459.151,142.067,460.215,141.253,460.988,140.274z"/>
	<path style="fill:#5766CE;" d="M295.737,212.756c-153.456,0-125.116-92.725-125.116-92.725
		c-88.406-3.462-40.727-57.22-40.727-57.22h0c-16.151,7.196-36.783,15.49-62.114,24.023c-27.495,28.796-48.03,64.288-58.94,103.776
		c47.271,22.044,100.079,50.127,148.587,83.735c10.488,7.266,24.345,7.266,34.833,0
		C225.779,251.121,261.355,230.535,295.737,212.756L295.737,212.756z"/>
	<g>
		<path style="fill:#D0E8FE;" d="M32.601,338.741c-5.167,0-9.355-4.189-9.355-9.355V210.967c0-10.121,5.611-19.245,14.643-23.812
			l132.732-67.124c4.612-2.332,10.239-0.484,12.57,4.127c2.333,4.611,0.485,10.239-4.126,12.57L46.331,203.852
			c-2.699,1.365-4.375,4.091-4.375,7.115v118.418C41.956,334.552,37.768,338.741,32.601,338.741z"/>
	</g>
	<circle style="fill:#F2BA00;" cx="168.872" cy="394.926" r="74.193"/>
	<path style="fill:#F0AE00;" d="M237.587,366.94c-9.076-22.26-28.644-39.111-52.567-44.424c0.009,0.008,22.259,18.911,1.765,39.405
		L237.587,366.94z"/>
	<g>
		<path style="fill:#F9DF5F;" d="M217.142,451.244c49.043-23.162,150.023-62.978,277.835-70.832c4.886-0.3,9.109-3.469,10.88-8.033
			c13.257-34.154,4.968-74.483-23.982-100.586c-3.923-3.538-9.635-4.217-14.298-1.734c-47.231,25.142-138.586,58.78-282.557,52.457
			c33.207,7.374,58.046,36.982,58.046,72.41C243.065,417.463,233.003,437.638,217.142,451.244z"/>
	</g>
	<path style="fill:#F6D100;" d="M217.142,451.244c37.34-17.634,104.789-44.919,191.26-60.406c-0.171-2.009-0.042-4.068,0.458-6.179
		c7.333-31-3.833-53.917-11.083-68.667s5.647-19.138,5.647-19.138l-0.001-0.001c-51.6,16.658-123.589,29.826-218.403,25.662
		c33.207,7.374,58.046,36.982,58.046,72.41C243.065,417.463,233.003,437.638,217.142,451.244z"/>
	<path style="fill:#EEA200;" d="M235.027,361.35c-24.839,1.464-52.435,1.208-82.788-1.617c-6.396-0.596-12.486,2.765-15.447,8.467
		c-4.732,9.112-7.125,19.633-6.369,30.773c1.944,28.626,24.98,51.821,53.594,53.93c19.667,1.449,37.439-6.904,48.973-20.663
		c6.395-10.964,10.076-23.706,10.076-37.314C243.065,382.837,240.155,371.435,235.027,361.35z"/>
	<path style="fill:#ED8700;" d="M178.661,395.36c-0.756-11.141,1.637-21.661,6.369-30.774c0.498-0.96,1.092-1.846,1.754-2.666
		c-11.09-0.368-22.601-1.076-34.545-2.188c-6.396-0.596-12.486,2.765-15.447,8.467c-4.732,9.112-7.125,19.633-6.369,30.773
		c1.944,28.626,24.98,51.821,53.594,53.93c11.823,0.871,22.959-1.804,32.469-7.063C195.567,438.056,180.231,418.483,178.661,395.36z
		"/>
	<path style="fill:#5766CE;" d="M174.842,94.496c-9.977,0-18.14,8.163-18.14,18.14v19.829c0,2.51,1.55,4.749,3.885,5.671
		c9.152,3.612,19.358,3.613,28.51,0c2.335-0.921,3.885-3.16,3.885-5.67v-19.83C192.983,102.659,184.82,94.496,174.842,94.496z"/>
	<path style="fill:#3D4EC6;" d="M174.842,126.096c-9.183,0-16.811-6.92-17.97-15.8c-0.1,0.768-0.17,1.546-0.17,2.34v19.829
		c0,2.51,1.55,4.749,3.885,5.671c9.152,3.612,19.358,3.613,28.51,0c2.335-0.921,3.885-3.16,3.885-5.67v-19.83
		c0-0.794-0.07-1.572-0.17-2.34C191.653,119.176,184.025,126.096,174.842,126.096z"/>
	<path style="fill:#F6D100;" d="M65.354,402.906l-19.208-46.853c-0.523,0.83-1.298,1.499-2.253,1.876
		c-7.014,2.769-14.835,2.768-21.849,0c-0.955-0.377-1.73-1.047-2.253-1.876L0.584,402.906c-1.552,3.785,0.088,8.128,3.756,9.941h0
		c18.043,8.923,39.215,8.923,57.258,0C65.266,411.033,66.907,406.691,65.354,402.906z"/>
	<g>
		<path style="fill:#A9D8FC;" d="M340.497,319.938c-1.945-9.446-10.723-57.457,7.462-75.03c4.355-4.209,12.11-8.607,24.319-5.654
			c14.132,3.417,19.097,11.556,20.774,17.782c6.611,24.544-29.599,60.763-36.924,67.774
			C350.833,329.88,341.98,327.15,340.497,319.938z M343.192,311.293L343.192,311.293L343.192,311.293z M360.961,258.363
			c-5.658,5.468-6.309,22.79-4.835,39.093c11.785-14.008,20.662-28.875,18.859-35.556c-0.525-1.947-2.915-3.447-7.104-4.46
			C365.434,256.849,362.772,256.614,360.961,258.363z"/>
	</g>
	<g>
		<path style="fill:#A9D8FC;" d="M370.451,408.46c-4.628-2.298-6.516-7.912-4.219-12.54c17.041-34.317-4.936-75.157-18.906-78.755
			c-5.004-1.288-8.015-6.389-6.727-11.393c1.289-5.003,6.392-8.014,11.392-6.727c26.016,6.7,53.332,60.222,30.999,105.197
			C380.701,408.854,375.096,410.766,370.451,408.46z"/>
	</g>
	<g>
		<path style="fill:#91D1F9;" d="M377.295,332.243c3.154,0,5.969,1.447,7.821,3.711c-7.389-19.176-20.409-33.635-33.123-36.909
			c-5.001-1.287-10.103,1.724-11.392,6.727c-1.289,5.004,1.723,10.105,6.727,11.393c6.472,1.667,14.66,11.33,19.893,24.632
			C367.507,336.474,371.9,332.243,377.295,332.243z"/>
	</g>
	<g>
		<path style="fill:#D0E8FE;" d="M352.217,414c-4.54-2.469-6.217-8.149-3.749-12.689c19.026-34.98-5.232-77.192-22.066-81.151
			c-5.03-1.182-8.148-6.219-6.965-11.248c1.183-5.031,6.228-8.146,11.248-6.965c29.193,6.865,59.078,62.598,34.22,108.305
			C362.432,414.797,356.747,416.466,352.217,414z"/>
	</g>
	<g>
		<path style="fill:#A9D8FC;" d="M350.693,347.594c0-5.579,4.522-10.101,10.101-10.101c2.551,0,4.874,0.953,6.652,2.513
			c-8.138-19.75-22.531-34.712-36.762-38.059c-5.02-1.181-10.065,1.935-11.248,6.965c-1.183,5.03,1.936,10.066,6.965,11.248
			c8.367,1.968,18.565,13.387,24.374,28.669C350.727,348.424,350.693,348.013,350.693,347.594z"/>
	</g>
	<g>
		<path style="fill:#91D1F9;" d="M36.495,209.577c-5.767,0-10.445-4.642-10.515-10.393c-1.763,3.592-2.735,7.599-2.735,11.783
			v118.418c0,5.167,4.188,9.355,9.355,9.355s9.355-4.189,9.355-9.355V210.967c0-1.234,0.292-2.411,0.806-3.474
			C41.01,208.797,38.846,209.577,36.495,209.577z"/>
	</g>
	<path style="fill:#F6D100;" d="M65.354,402.906l-19.208-46.853c-0.523,0.83-1.298,1.499-2.253,1.876
		c-7.014,2.769-14.835,2.768-21.849,0c-0.955-0.377-1.73-1.047-2.253-1.876L0.584,402.906c-1.552,3.785,0.088,8.128,3.756,9.941h0
		c18.043,8.923,39.215,8.923,57.258,0C65.266,411.033,66.907,406.691,65.354,402.906z"/>
	<path style="fill:#F2BA00;" d="M32.969,374.993c10.399,0,19.696,4.699,25.897,12.086l-12.719-31.026
		c-0.523,0.83-1.298,1.499-2.253,1.876c-7.014,2.769-14.835,2.768-21.849,0c-0.955-0.377-1.73-1.047-2.253-1.876l-12.72,31.027
		C13.273,379.692,22.57,374.993,32.969,374.993z"/>
	<path style="fill:#F9E47D;" d="M32.969,325.643c-7.646,0-13.902,6.256-13.902,13.902v15.196c0,1.924,1.188,3.639,2.978,4.346
		c7.013,2.768,14.835,2.769,21.848,0c1.79-0.706,2.978-2.422,2.978-4.345v-15.197C46.871,331.899,40.615,325.643,32.969,325.643z"/>
</g>
<g>
</g>
<g>
</g>
<g>
</g>
<g>
</g>
<g>
</g>
<g>
</g>
<g>
</g>
<g>
</g>
<g>
</g>
<g>
</g>
<g>
</g>
<g>
</g>
<g>
</g>
<g>
</g>
<g>
</g>
</svg>
